{
    "asset" : {
        "generator" : "Khronos glTF Blender I/O v1.5.17",
        "version" : "2.0"
    },
    "scene" : 0,
    "scenes" : [
        {
            "name" : "Scene",
            "nodes" : [
                0
            ]
        }
    ],
    "nodes" : [
        {
            "mesh" : 0,
            "name" : "Plane.001",
            "scale" : [
                5.013199806213379,
                1,
                16.14259910583496
            ],
            "translation" : [
                -14.308259963989258,
                0,
                0
            ]
        }
    ],
    "materials" : [
        {
            "doubleSided" : true,
            "name" : "Material.004",
            "pbrMetallicRoughness" : {
                "baseColorFactor" : [
                    0.25415220856666565,
                    0.2541520893573761,
                    0.2541521489620209,
                    1
                ],
                "metallicFactor" : 0,
                "roughnessFactor" : 0.5
            }
        },
        {
            "doubleSided" : true,
            "name" : "Material.002",
            "pbrMetallicRoughness" : {
                "baseColorFactor" : [
                    0.7991032600402832,
                    0.23073998093605042,
                    0.11443543434143066,
                    1
                ],
                "metallicFactor" : 0,
                "roughnessFactor" : 0.5
            }
        },
        {
            "doubleSided" : true,
            "name" : "Material",
            "pbrMetallicRoughness" : {
                "metallicFactor" : 0,
                "roughnessFactor" : 0.5
            }
        },
        {
            "doubleSided" : true,
            "name" : "puerta",
            "pbrMetallicRoughness" : {
                "baseColorFactor" : [
                    0.2874408960342407,
                    0.12213876843452454,
                    0.02028856799006462,
                    1
                ],
                "metallicFactor" : 0,
                "roughnessFactor" : 0.5
            }
        },
        {
            "doubleSided" : true,
            "name" : "Material.001",
            "pbrMetallicRoughness" : {
                "baseColorFactor" : [
                    0.09530749917030334,
                    0.12743768095970154,
                    0.16826939582824707,
                    1
                ],
                "metallicFactor" : 0,
                "roughnessFactor" : 0.5
            }
        }
    ],
    "meshes" : [
        {
            "name" : "Plane.001",
            "primitives" : [
                {
                    "attributes" : {
                        "POSITION" : 0,
                        "NORMAL" : 1,
                        "TEXCOORD_0" : 2
                    },
                    "indices" : 3,
                    "material" : 0
                },
                {
                    "attributes" : {
                        "POSITION" : 4,
                        "NORMAL" : 5,
                        "TEXCOORD_0" : 6
                    },
                    "indices" : 7,
                    "material" : 1
                },
                {
                    "attributes" : {
                        "POSITION" : 8,
                        "NORMAL" : 9,
                        "TEXCOORD_0" : 10
                    },
                    "indices" : 11,
                    "material" : 2
                },
                {
                    "attributes" : {
                        "POSITION" : 12,
                        "NORMAL" : 13,
                        "TEXCOORD_0" : 14
                    },
                    "indices" : 15,
                    "material" : 3
                },
                {
                    "attributes" : {
                        "POSITION" : 16,
                        "NORMAL" : 17,
                        "TEXCOORD_0" : 18
                    },
                    "indices" : 19,
                    "material" : 4
                }
            ]
        }
    ],
    "accessors" : [
        {
            "bufferView" : 0,
            "componentType" : 5126,
            "count" : 72,
            "max" : [
                3.8541173934936523,
                -1.5117205381393433,
                1.0000001192092896
            ],
            "min" : [
                -1,
                -1.5892446041107178,
                -1.0000001192092896
            ],
            "type" : "VEC3"
        },
        {
            "bufferView" : 1,
            "componentType" : 5126,
            "count" : 72,
            "type" : "VEC3"
        },
        {
            "bufferView" : 2,
            "componentType" : 5126,
            "count" : 72,
            "type" : "VEC2"
        },
        {
            "bufferView" : 3,
            "componentType" : 5123,
            "count" : 108,
            "type" : "SCALAR"
        },
        {
            "bufferView" : 4,
            "componentType" : 5126,
            "count" : 1644,
            "max" : [
                3.6297943592071533,
                1.8835628032684326,
                0.9373102784156799
            ],
            "min" : [
                -0.7692081332206726,
                -1.5,
                -0.9397976994514465
            ],
            "type" : "VEC3"
        },
        {
            "bufferView" : 5,
            "componentType" : 5126,
            "count" : 1644,
            "type" : "VEC3"
        },
        {
            "bufferView" : 6,
            "componentType" : 5126,
            "count" : 1644,
            "type" : "VEC2"
        },
        {
            "bufferView" : 7,
            "componentType" : 5123,
            "count" : 3450,
            "type" : "SCALAR"
        },
        {
            "bufferView" : 8,
            "componentType" : 5126,
            "count" : 78,
            "max" : [
                3.693443536758423,
                2.627687692642212,
                0.9809395670890808
            ],
            "min" : [
                -0.8324207067489624,
                1.4745811223983765,
                -0.9809395670890808
            ],
            "type" : "VEC3"
        },
        {
            "bufferView" : 9,
            "componentType" : 5126,
            "count" : 78,
            "type" : "VEC3"
        },
        {
            "bufferView" : 10,
            "componentType" : 5126,
            "count" : 78,
            "type" : "VEC2"
        },
        {
            "bufferView" : 11,
            "componentType" : 5123,
            "count" : 120,
            "type" : "SCALAR"
        },
        {
            "bufferView" : 12,
            "componentType" : 5126,
            "count" : 24,
            "max" : [
                3.327763557434082,
                0.6496536731719971,
                -0.43306565284729004
            ],
            "min" : [
                -0.17667441070079803,
                -1.5,
                -0.6032927632331848
            ],
            "type" : "VEC3"
        },
        {
            "bufferView" : 13,
            "componentType" : 5126,
            "count" : 24,
            "type" : "VEC3"
        },
        {
            "bufferView" : 14,
            "componentType" : 5126,
            "count" : 24,
            "type" : "VEC2"
        },
        {
            "bufferView" : 15,
            "componentType" : 5123,
            "count" : 36,
            "type" : "SCALAR"
        },
        {
            "bufferView" : 16,
            "componentType" : 5126,
            "count" : 400,
            "max" : [
                3.6297943592071533,
                0.9632560014724731,
                0.9373102784156799
            ],
            "min" : [
                -0.7692081332206726,
                -1.5000312328338623,
                -0.9397976994514465
            ],
            "type" : "VEC3"
        },
        {
            "bufferView" : 17,
            "componentType" : 5126,
            "count" : 400,
            "type" : "VEC3"
        },
        {
            "bufferView" : 18,
            "componentType" : 5126,
            "count" : 400,
            "type" : "VEC2"
        },
        {
            "bufferView" : 19,
            "componentType" : 5123,
            "count" : 924,
            "type" : "SCALAR"
        }
    ],
    "bufferViews" : [
        {
            "buffer" : 0,
            "byteLength" : 864,
            "byteOffset" : 0
        },
        {
            "buffer" : 0,
            "byteLength" : 864,
            "byteOffset" : 864
        },
        {
            "buffer" : 0,
            "byteLength" : 576,
            "byteOffset" : 1728
        },
        {
            "buffer" : 0,
            "byteLength" : 216,
            "byteOffset" : 2304
        },
        {
            "buffer" : 0,
            "byteLength" : 19728,
            "byteOffset" : 2520
        },
        {
            "buffer" : 0,
            "byteLength" : 19728,
            "byteOffset" : 22248
        },
        {
            "buffer" : 0,
            "byteLength" : 13152,
            "byteOffset" : 41976
        },
        {
            "buffer" : 0,
            "byteLength" : 6900,
            "byteOffset" : 55128
        },
        {
            "buffer" : 0,
            "byteLength" : 936,
            "byteOffset" : 62028
        },
        {
            "buffer" : 0,
            "byteLength" : 936,
            "byteOffset" : 62964
        },
        {
            "buffer" : 0,
            "byteLength" : 624,
            "byteOffset" : 63900
        },
        {
            "buffer" : 0,
            "byteLength" : 240,
            "byteOffset" : 64524
        },
        {
            "buffer" : 0,
            "byteLength" : 288,
            "byteOffset" : 64764
        },
        {
            "buffer" : 0,
            "byteLength" : 288,
            "byteOffset" : 65052
        },
        {
            "buffer" : 0,
            "byteLength" : 192,
            "byteOffset" : 65340
        },
        {
            "buffer" : 0,
            "byteLength" : 72,
            "byteOffset" : 65532
        },
        {
            "buffer" : 0,
            "byteLength" : 4800,
            "byteOffset" : 65604
        },
        {
            "buffer" : 0,
            "byteLength" : 4800,
            "byteOffset" : 70404
        },
        {
            "buffer" : 0,
            "byteLength" : 3200,
            "byteOffset" : 75204
        },
        {
            "buffer" : 0,
            "byteLength" : 1848,
            "byteOffset" : 78404
        }
    ],
    "buffers" : [
        {
            "byteLength" : 80252,
            "uri" : "12.bin"
        }
    ]
}
