{
    "asset" : {
        "generator" : "Khronos glTF Blender I/O v1.5.17",
        "version" : "2.0"
    },
    "scene" : 0,
    "scenes" : [
        {
            "name" : "Scene",
            "nodes" : [
                0
            ]
        }
    ],
    "nodes" : [
        {
            "mesh" : 0,
            "name" : "Cube.002",
            "translation" : [
                -14.273642539978027,
                2.438227415084839,
                0
            ]
        }
    ],
    "materials" : [
        {
            "doubleSided" : true,
            "name" : "Material.002",
            "pbrMetallicRoughness" : {
                "baseColorFactor" : [
                    0.7991032600402832,
                    0.23073998093605042,
                    0.11443543434143066,
                    1
                ],
                "metallicFactor" : 0,
                "roughnessFactor" : 0.5
            }
        },
        {
            "doubleSided" : true,
            "name" : "Material",
            "pbrMetallicRoughness" : {
                "metallicFactor" : 0,
                "roughnessFactor" : 0.5
            }
        },
        {
            "doubleSided" : true,
            "name" : "puerta",
            "pbrMetallicRoughness" : {
                "baseColorFactor" : [
                    0.2874408960342407,
                    0.12213876843452454,
                    0.02028856799006462,
                    1
                ],
                "metallicFactor" : 0,
                "roughnessFactor" : 0.5
            }
        },
        {
            "doubleSided" : true,
            "name" : "Material.001",
            "pbrMetallicRoughness" : {
                "baseColorFactor" : [
                    0.09530749917030334,
                    0.12743768095970154,
                    0.16826939582824707,
                    1
                ],
                "metallicFactor" : 0,
                "roughnessFactor" : 0.5
            }
        },
        {
            "doubleSided" : true,
            "name" : "Material.004",
            "pbrMetallicRoughness" : {
                "baseColorFactor" : [
                    0.015996277332305908,
                    0.08865560591220856,
                    1,
                    1
                ],
                "metallicFactor" : 0,
                "roughnessFactor" : 0.5
            }
        },
        {
            "doubleSided" : true,
            "name" : "Material.005",
            "pbrMetallicRoughness" : {
                "baseColorFactor" : [
                    0.25415220856666565,
                    0.2541520893573761,
                    0.2541521489620209,
                    1
                ],
                "metallicFactor" : 0,
                "roughnessFactor" : 0.5
            }
        }
    ],
    "meshes" : [
        {
            "name" : "Cube.002",
            "primitives" : [
                {
                    "attributes" : {
                        "POSITION" : 0,
                        "NORMAL" : 1,
                        "TEXCOORD_0" : 2
                    },
                    "indices" : 3,
                    "material" : 0
                },
                {
                    "attributes" : {
                        "POSITION" : 4,
                        "NORMAL" : 5,
                        "TEXCOORD_0" : 6
                    },
                    "indices" : 7,
                    "material" : 1
                },
                {
                    "attributes" : {
                        "POSITION" : 8,
                        "NORMAL" : 9,
                        "TEXCOORD_0" : 10
                    },
                    "indices" : 11,
                    "material" : 2
                },
                {
                    "attributes" : {
                        "POSITION" : 12,
                        "NORMAL" : 13,
                        "TEXCOORD_0" : 14
                    },
                    "indices" : 15,
                    "material" : 3
                },
                {
                    "attributes" : {
                        "POSITION" : 16,
                        "NORMAL" : 17,
                        "TEXCOORD_0" : 18
                    },
                    "indices" : 19,
                    "material" : 4
                },
                {
                    "attributes" : {
                        "POSITION" : 20,
                        "NORMAL" : 21,
                        "TEXCOORD_0" : 22
                    },
                    "indices" : 23,
                    "material" : 5
                }
            ]
        }
    ],
    "accessors" : [
        {
            "bufferView" : 0,
            "componentType" : 5126,
            "count" : 1719,
            "max" : [
                18.16226577758789,
                -0.07122093439102173,
                15.130622863769531
            ],
            "min" : [
                -3.8908114433288574,
                -3.938227415084839,
                -15.1707763671875
            ],
            "type" : "VEC3"
        },
        {
            "bufferView" : 1,
            "componentType" : 5126,
            "count" : 1719,
            "type" : "VEC3"
        },
        {
            "bufferView" : 2,
            "componentType" : 5126,
            "count" : 1719,
            "type" : "VEC2"
        },
        {
            "bufferView" : 3,
            "componentType" : 5123,
            "count" : 3534,
            "type" : "SCALAR"
        },
        {
            "bufferView" : 4,
            "componentType" : 5126,
            "count" : 72,
            "max" : [
                24.477479934692383,
                0.18946033716201782,
                -5.943891525268555
            ],
            "min" : [
                3.9877939224243164,
                -0.7392984628677368,
                -10.01504898071289
            ],
            "type" : "VEC3"
        },
        {
            "bufferView" : 5,
            "componentType" : 5126,
            "count" : 72,
            "type" : "VEC3"
        },
        {
            "bufferView" : 6,
            "componentType" : 5126,
            "count" : 72,
            "type" : "VEC2"
        },
        {
            "bufferView" : 7,
            "componentType" : 5123,
            "count" : 120,
            "type" : "SCALAR"
        },
        {
            "bufferView" : 8,
            "componentType" : 5126,
            "count" : 24,
            "max" : [
                16.64812469482422,
                -1.7885737419128418,
                -6.990804672241211
            ],
            "min" : [
                -0.9203218221664429,
                -3.938227415084839,
                -9.738712310791016
            ],
            "type" : "VEC3"
        },
        {
            "bufferView" : 9,
            "componentType" : 5126,
            "count" : 24,
            "type" : "VEC3"
        },
        {
            "bufferView" : 10,
            "componentType" : 5126,
            "count" : 24,
            "type" : "VEC2"
        },
        {
            "bufferView" : 11,
            "componentType" : 5123,
            "count" : 36,
            "type" : "SCALAR"
        },
        {
            "bufferView" : 12,
            "componentType" : 5126,
            "count" : 426,
            "max" : [
                18.16226577758789,
                -1.4749714136123657,
                15.130622863769531
            ],
            "min" : [
                -3.8908114433288574,
                -3.938258647918701,
                -15.1707763671875
            ],
            "type" : "VEC3"
        },
        {
            "bufferView" : 13,
            "componentType" : 5126,
            "count" : 426,
            "type" : "VEC3"
        },
        {
            "bufferView" : 14,
            "componentType" : 5126,
            "count" : 426,
            "type" : "VEC2"
        },
        {
            "bufferView" : 15,
            "componentType" : 5123,
            "count" : 924,
            "type" : "SCALAR"
        },
        {
            "bufferView" : 16,
            "componentType" : 5126,
            "count" : 72,
            "max" : [
                18.729490280151367,
                0.19053435325622559,
                16.128597259521484
            ],
            "min" : [
                -4.47914981842041,
                -1.082754135131836,
                -16.128597259521484
            ],
            "type" : "VEC3"
        },
        {
            "bufferView" : 17,
            "componentType" : 5126,
            "count" : 72,
            "type" : "VEC3"
        },
        {
            "bufferView" : 18,
            "componentType" : 5126,
            "count" : 72,
            "type" : "VEC2"
        },
        {
            "bufferView" : 19,
            "componentType" : 5123,
            "count" : 120,
            "type" : "SCALAR"
        },
        {
            "bufferView" : 20,
            "componentType" : 5126,
            "count" : 72,
            "max" : [
                24.52133560180664,
                -3.946659564971924,
                16.3387451171875
            ],
            "min" : [
                -5.092195510864258,
                -4.013228893280029,
                -16.3387451171875
            ],
            "type" : "VEC3"
        },
        {
            "bufferView" : 21,
            "componentType" : 5126,
            "count" : 72,
            "type" : "VEC3"
        },
        {
            "bufferView" : 22,
            "componentType" : 5126,
            "count" : 72,
            "type" : "VEC2"
        },
        {
            "bufferView" : 23,
            "componentType" : 5123,
            "count" : 108,
            "type" : "SCALAR"
        }
    ],
    "bufferViews" : [
        {
            "buffer" : 0,
            "byteLength" : 20628,
            "byteOffset" : 0
        },
        {
            "buffer" : 0,
            "byteLength" : 20628,
            "byteOffset" : 20628
        },
        {
            "buffer" : 0,
            "byteLength" : 13752,
            "byteOffset" : 41256
        },
        {
            "buffer" : 0,
            "byteLength" : 7068,
            "byteOffset" : 55008
        },
        {
            "buffer" : 0,
            "byteLength" : 864,
            "byteOffset" : 62076
        },
        {
            "buffer" : 0,
            "byteLength" : 864,
            "byteOffset" : 62940
        },
        {
            "buffer" : 0,
            "byteLength" : 576,
            "byteOffset" : 63804
        },
        {
            "buffer" : 0,
            "byteLength" : 240,
            "byteOffset" : 64380
        },
        {
            "buffer" : 0,
            "byteLength" : 288,
            "byteOffset" : 64620
        },
        {
            "buffer" : 0,
            "byteLength" : 288,
            "byteOffset" : 64908
        },
        {
            "buffer" : 0,
            "byteLength" : 192,
            "byteOffset" : 65196
        },
        {
            "buffer" : 0,
            "byteLength" : 72,
            "byteOffset" : 65388
        },
        {
            "buffer" : 0,
            "byteLength" : 5112,
            "byteOffset" : 65460
        },
        {
            "buffer" : 0,
            "byteLength" : 5112,
            "byteOffset" : 70572
        },
        {
            "buffer" : 0,
            "byteLength" : 3408,
            "byteOffset" : 75684
        },
        {
            "buffer" : 0,
            "byteLength" : 1848,
            "byteOffset" : 79092
        },
        {
            "buffer" : 0,
            "byteLength" : 864,
            "byteOffset" : 80940
        },
        {
            "buffer" : 0,
            "byteLength" : 864,
            "byteOffset" : 81804
        },
        {
            "buffer" : 0,
            "byteLength" : 576,
            "byteOffset" : 82668
        },
        {
            "buffer" : 0,
            "byteLength" : 240,
            "byteOffset" : 83244
        },
        {
            "buffer" : 0,
            "byteLength" : 864,
            "byteOffset" : 83484
        },
        {
            "buffer" : 0,
            "byteLength" : 864,
            "byteOffset" : 84348
        },
        {
            "buffer" : 0,
            "byteLength" : 576,
            "byteOffset" : 85212
        },
        {
            "buffer" : 0,
            "byteLength" : 216,
            "byteOffset" : 85788
        }
    ],
    "buffers" : [
        {
            "byteLength" : 86004,
            "uri" : "34.bin"
        }
    ]
}
