{
    "asset" : {
        "generator" : "Khronos glTF Blender I/O v1.5.17",
        "version" : "2.0"
    },
    "scene" : 0,
    "scenes" : [
        {
            "name" : "Scene",
            "nodes" : [
                0
            ]
        }
    ],
    "nodes" : [
        {
            "mesh" : 0,
            "name" : "Plane",
            "scale" : [
                5.013199806213379,
                1,
                16.14259910583496
            ]
        }
    ],
    "materials" : [
        {
            "doubleSided" : true,
            "name" : "Material.004",
            "pbrMetallicRoughness" : {
                "baseColorFactor" : [
                    0.25415220856666565,
                    0.2541520893573761,
                    0.2541521489620209,
                    1
                ],
                "metallicFactor" : 0,
                "roughnessFactor" : 0.5
            }
        },
        {
            "doubleSided" : true,
            "name" : "Material.002",
            "pbrMetallicRoughness" : {
                "baseColorFactor" : [
                    0.7991032600402832,
                    0.23073998093605042,
                    0.11443543434143066,
                    1
                ],
                "metallicFactor" : 0,
                "roughnessFactor" : 0.5
            }
        },
        {
            "doubleSided" : true,
            "name" : "Material.003",
            "pbrMetallicRoughness" : {
                "baseColorFactor" : [
                    0.015996277332305908,
                    0.08865560591220856,
                    1,
                    1
                ],
                "metallicFactor" : 0,
                "roughnessFactor" : 0.5
            }
        },
        {
            "doubleSided" : true,
            "name" : "Material",
            "pbrMetallicRoughness" : {
                "baseColorFactor" : [
                    0.3480947017669678,
                    0.3480947017669678,
                    0.3480947017669678,
                    1
                ],
                "metallicFactor" : 0,
                "roughnessFactor" : 0.5
            }
        },
        {
            "doubleSided" : true,
            "name" : "Material.001",
            "pbrMetallicRoughness" : {
                "baseColorFactor" : [
                    0.6239607930183411,
                    0.623960554599762,
                    0.6239606738090515,
                    1
                ],
                "metallicFactor" : 0,
                "roughnessFactor" : 0.5
            }
        }
    ],
    "meshes" : [
        {
            "name" : "Plane",
            "primitives" : [
                {
                    "attributes" : {
                        "POSITION" : 0,
                        "NORMAL" : 1,
                        "TEXCOORD_0" : 2
                    },
                    "indices" : 3,
                    "material" : 0
                },
                {
                    "attributes" : {
                        "POSITION" : 4,
                        "NORMAL" : 5,
                        "TEXCOORD_0" : 6
                    },
                    "indices" : 7,
                    "material" : 1
                },
                {
                    "attributes" : {
                        "POSITION" : 8,
                        "NORMAL" : 9,
                        "TEXCOORD_0" : 10
                    },
                    "indices" : 11,
                    "material" : 2
                },
                {
                    "attributes" : {
                        "POSITION" : 12,
                        "NORMAL" : 13,
                        "TEXCOORD_0" : 14
                    },
                    "indices" : 15,
                    "material" : 3
                },
                {
                    "attributes" : {
                        "POSITION" : 16,
                        "NORMAL" : 17,
                        "TEXCOORD_0" : 18
                    },
                    "indices" : 19,
                    "material" : 4
                }
            ]
        }
    ],
    "accessors" : [
        {
            "bufferView" : 0,
            "componentType" : 5126,
            "count" : 24,
            "max" : [
                1,
                -1.5092034339904785,
                1
            ],
            "min" : [
                -1,
                -1.5664756298065186,
                -1
            ],
            "type" : "VEC3"
        },
        {
            "bufferView" : 1,
            "componentType" : 5126,
            "count" : 24,
            "type" : "VEC3"
        },
        {
            "bufferView" : 2,
            "componentType" : 5126,
            "count" : 24,
            "type" : "VEC2"
        },
        {
            "bufferView" : 3,
            "componentType" : 5123,
            "count" : 36,
            "type" : "SCALAR"
        },
        {
            "bufferView" : 4,
            "componentType" : 5126,
            "count" : 8,
            "max" : [
                0.21216627955436707,
                -1.4999998807907104,
                -0.9205834269523621
            ],
            "min" : [
                -0.2157524824142456,
                -1.5,
                -0.9292184710502625
            ],
            "type" : "VEC3"
        },
        {
            "bufferView" : 5,
            "componentType" : 5126,
            "count" : 8,
            "type" : "VEC3"
        },
        {
            "bufferView" : 6,
            "componentType" : 5126,
            "count" : 8,
            "type" : "VEC2"
        },
        {
            "bufferView" : 7,
            "componentType" : 5123,
            "count" : 12,
            "type" : "SCALAR"
        },
        {
            "bufferView" : 8,
            "componentType" : 5126,
            "count" : 36,
            "max" : [
                0.9161014556884766,
                2.7504019737243652,
                0.9716253876686096
            ],
            "min" : [
                -0.9161014556884766,
                1.2851146459579468,
                -0.9716253876686096
            ],
            "type" : "VEC3"
        },
        {
            "bufferView" : 9,
            "componentType" : 5126,
            "count" : 36,
            "type" : "VEC3"
        },
        {
            "bufferView" : 10,
            "componentType" : 5126,
            "count" : 36,
            "type" : "VEC2"
        },
        {
            "bufferView" : 11,
            "componentType" : 5123,
            "count" : 60,
            "type" : "SCALAR"
        },
        {
            "bufferView" : 12,
            "componentType" : 5126,
            "count" : 792,
            "max" : [
                0.7756767868995667,
                2.630250930786133,
                0.9373102784156799
            ],
            "min" : [
                -0.7761134505271912,
                -1.5000311136245728,
                -0.9397976994514465
            ],
            "type" : "VEC3"
        },
        {
            "bufferView" : 13,
            "componentType" : 5126,
            "count" : 792,
            "type" : "VEC3"
        },
        {
            "bufferView" : 14,
            "componentType" : 5126,
            "count" : 792,
            "type" : "VEC2"
        },
        {
            "bufferView" : 15,
            "componentType" : 5123,
            "count" : 1620,
            "type" : "SCALAR"
        },
        {
            "bufferView" : 16,
            "componentType" : 5126,
            "count" : 13,
            "max" : [
                0.21216638386249542,
                0.6495665311813354,
                0.42044132947921753
            ],
            "min" : [
                -0.2157524824142456,
                -1.5,
                -0.9205834269523621
            ],
            "type" : "VEC3"
        },
        {
            "bufferView" : 17,
            "componentType" : 5126,
            "count" : 13,
            "type" : "VEC3"
        },
        {
            "bufferView" : 18,
            "componentType" : 5126,
            "count" : 13,
            "type" : "VEC2"
        },
        {
            "bufferView" : 19,
            "componentType" : 5123,
            "count" : 21,
            "type" : "SCALAR"
        }
    ],
    "bufferViews" : [
        {
            "buffer" : 0,
            "byteLength" : 288,
            "byteOffset" : 0
        },
        {
            "buffer" : 0,
            "byteLength" : 288,
            "byteOffset" : 288
        },
        {
            "buffer" : 0,
            "byteLength" : 192,
            "byteOffset" : 576
        },
        {
            "buffer" : 0,
            "byteLength" : 72,
            "byteOffset" : 768
        },
        {
            "buffer" : 0,
            "byteLength" : 96,
            "byteOffset" : 840
        },
        {
            "buffer" : 0,
            "byteLength" : 96,
            "byteOffset" : 936
        },
        {
            "buffer" : 0,
            "byteLength" : 64,
            "byteOffset" : 1032
        },
        {
            "buffer" : 0,
            "byteLength" : 24,
            "byteOffset" : 1096
        },
        {
            "buffer" : 0,
            "byteLength" : 432,
            "byteOffset" : 1120
        },
        {
            "buffer" : 0,
            "byteLength" : 432,
            "byteOffset" : 1552
        },
        {
            "buffer" : 0,
            "byteLength" : 288,
            "byteOffset" : 1984
        },
        {
            "buffer" : 0,
            "byteLength" : 120,
            "byteOffset" : 2272
        },
        {
            "buffer" : 0,
            "byteLength" : 9504,
            "byteOffset" : 2392
        },
        {
            "buffer" : 0,
            "byteLength" : 9504,
            "byteOffset" : 11896
        },
        {
            "buffer" : 0,
            "byteLength" : 6336,
            "byteOffset" : 21400
        },
        {
            "buffer" : 0,
            "byteLength" : 3240,
            "byteOffset" : 27736
        },
        {
            "buffer" : 0,
            "byteLength" : 156,
            "byteOffset" : 30976
        },
        {
            "buffer" : 0,
            "byteLength" : 156,
            "byteOffset" : 31132
        },
        {
            "buffer" : 0,
            "byteLength" : 104,
            "byteOffset" : 31288
        },
        {
            "buffer" : 0,
            "byteLength" : 42,
            "byteOffset" : 31392
        }
    ],
    "buffers" : [
        {
            "byteLength" : 31436,
            "uri" : "67.bin"
        }
    ]
}
