{
    "asset" : {
        "generator" : "Khronos glTF Blender I/O v1.5.17",
        "version" : "2.0"
    },
    "scene" : 0,
    "scenes" : [
        {
            "name" : "Scene",
            "nodes" : [
                0
            ]
        }
    ],
    "nodes" : [
        {
            "mesh" : 0,
            "name" : "Plane"
        }
    ],
    "materials" : [
        {
            "doubleSided" : true,
            "name" : "Material.005",
            "pbrMetallicRoughness" : {
                "baseColorFactor" : [
                    0.25415220856666565,
                    0.2541520893573761,
                    0.2541521489620209,
                    1
                ],
                "metallicFactor" : 0,
                "roughnessFactor" : 0.5
            }
        },
        {
            "doubleSided" : true,
            "name" : "Material",
            "pbrMetallicRoughness" : {
                "baseColorFactor" : [
                    0.7991032600402832,
                    0.23073998093605042,
                    0.11443543434143066,
                    1
                ],
                "metallicFactor" : 0,
                "roughnessFactor" : 0.4000000059604645
            }
        },
        {
            "doubleSided" : true,
            "name" : "Material.001",
            "pbrMetallicRoughness" : {
                "baseColorFactor" : [
                    0.800000011920929,
                    0.800000011920929,
                    0.800000011920929,
                    1
                ],
                "metallicFactor" : 0,
                "roughnessFactor" : 0.5
            }
        },
        {
            "doubleSided" : true,
            "name" : "Material.002",
            "pbrMetallicRoughness" : {
                "baseColorFactor" : [
                    0.09530749917030334,
                    0.12743768095970154,
                    0.16826939582824707,
                    1
                ],
                "metallicFactor" : 0,
                "roughnessFactor" : 0.5
            }
        },
        {
            "doubleSided" : true,
            "name" : "Material.003",
            "pbrMetallicRoughness" : {
                "baseColorFactor" : [
                    0.2874408960342407,
                    0.12213876843452454,
                    0.02028856799006462,
                    1
                ],
                "metallicFactor" : 0,
                "roughnessFactor" : 0.5
            }
        },
        {
            "doubleSided" : true,
            "name" : "Material.004",
            "pbrMetallicRoughness" : {
                "baseColorFactor" : [
                    0.015996277332305908,
                    0.08865560591220856,
                    1,
                    1
                ],
                "metallicFactor" : 0,
                "roughnessFactor" : 0.5
            }
        }
    ],
    "meshes" : [
        {
            "name" : "Plane",
            "primitives" : [
                {
                    "attributes" : {
                        "POSITION" : 0,
                        "NORMAL" : 1,
                        "TEXCOORD_0" : 2
                    },
                    "indices" : 3,
                    "material" : 0
                },
                {
                    "attributes" : {
                        "POSITION" : 4,
                        "NORMAL" : 5,
                        "TEXCOORD_0" : 6
                    },
                    "indices" : 7,
                    "material" : 1
                },
                {
                    "attributes" : {
                        "POSITION" : 8,
                        "NORMAL" : 9,
                        "TEXCOORD_0" : 10
                    },
                    "indices" : 11,
                    "material" : 2
                },
                {
                    "attributes" : {
                        "POSITION" : 12,
                        "NORMAL" : 13,
                        "TEXCOORD_0" : 14
                    },
                    "indices" : 15,
                    "material" : 3
                },
                {
                    "attributes" : {
                        "POSITION" : 16,
                        "NORMAL" : 17,
                        "TEXCOORD_0" : 18
                    },
                    "indices" : 19,
                    "material" : 4
                },
                {
                    "attributes" : {
                        "POSITION" : 20,
                        "NORMAL" : 21,
                        "TEXCOORD_0" : 22
                    },
                    "indices" : 23,
                    "material" : 5
                }
            ]
        }
    ],
    "accessors" : [
        {
            "bufferView" : 0,
            "componentType" : 5126,
            "count" : 24,
            "max" : [
                8.204858779907227,
                -4.104294300079346,
                12.687224388122559
            ],
            "min" : [
                -9.505926132202148,
                -4.264060020446777,
                -12.687224388122559
            ],
            "type" : "VEC3"
        },
        {
            "bufferView" : 1,
            "componentType" : 5126,
            "count" : 24,
            "type" : "VEC3"
        },
        {
            "bufferView" : 2,
            "componentType" : 5126,
            "count" : 24,
            "type" : "VEC2"
        },
        {
            "bufferView" : 3,
            "componentType" : 5123,
            "count" : 36,
            "type" : "SCALAR"
        },
        {
            "bufferView" : 4,
            "componentType" : 5126,
            "count" : 650,
            "max" : [
                7.342100143432617,
                4.10176420211792,
                12.084198951721191
            ],
            "min" : [
                -8.597724914550781,
                -4.10176420211792,
                -12.084198951721191
            ],
            "type" : "VEC3"
        },
        {
            "bufferView" : 5,
            "componentType" : 5126,
            "count" : 650,
            "type" : "VEC3"
        },
        {
            "bufferView" : 6,
            "componentType" : 5126,
            "count" : 650,
            "type" : "VEC2"
        },
        {
            "bufferView" : 7,
            "componentType" : 5123,
            "count" : 1248,
            "type" : "SCALAR"
        },
        {
            "bufferView" : 8,
            "componentType" : 5126,
            "count" : 442,
            "max" : [
                7.342100143432617,
                4.537847518920898,
                12.084198951721191
            ],
            "min" : [
                -8.620702743530273,
                -0.813902735710144,
                -12.084198951721191
            ],
            "type" : "VEC3"
        },
        {
            "bufferView" : 9,
            "componentType" : 5126,
            "count" : 442,
            "type" : "VEC3"
        },
        {
            "bufferView" : 10,
            "componentType" : 5126,
            "count" : 442,
            "type" : "VEC2"
        },
        {
            "bufferView" : 11,
            "componentType" : 5123,
            "count" : 798,
            "type" : "SCALAR"
        },
        {
            "bufferView" : 12,
            "componentType" : 5126,
            "count" : 16,
            "max" : [
                -6.605560779571533,
                3.200871229171753,
                3.8387136459350586
            ],
            "min" : [
                -6.605560779571533,
                -3.2200398445129395,
                -8.956998825073242
            ],
            "type" : "VEC3"
        },
        {
            "bufferView" : 13,
            "componentType" : 5126,
            "count" : 16,
            "type" : "VEC3"
        },
        {
            "bufferView" : 14,
            "componentType" : 5126,
            "count" : 16,
            "type" : "VEC2"
        },
        {
            "bufferView" : 15,
            "componentType" : 5123,
            "count" : 24,
            "type" : "SCALAR"
        },
        {
            "bufferView" : 16,
            "componentType" : 5126,
            "count" : 28,
            "max" : [
                -6.5178751945495605,
                3.200871229171753,
                8.281702041625977
            ],
            "min" : [
                -6.5178751945495605,
                -4.10176420211792,
                -3.1676833629608154
            ],
            "type" : "VEC3"
        },
        {
            "bufferView" : 17,
            "componentType" : 5126,
            "count" : 28,
            "type" : "VEC3"
        },
        {
            "bufferView" : 18,
            "componentType" : 5126,
            "count" : 28,
            "type" : "VEC2"
        },
        {
            "bufferView" : 19,
            "componentType" : 5123,
            "count" : 60,
            "type" : "SCALAR"
        },
        {
            "bufferView" : 20,
            "componentType" : 5126,
            "count" : 76,
            "max" : [
                7.342100143432617,
                4.537847518920898,
                12.084198951721191
            ],
            "min" : [
                -8.597724914550781,
                4.537847518920898,
                -12.084198951721191
            ],
            "type" : "VEC3"
        },
        {
            "bufferView" : 21,
            "componentType" : 5126,
            "count" : 76,
            "type" : "VEC3"
        },
        {
            "bufferView" : 22,
            "componentType" : 5126,
            "count" : 76,
            "type" : "VEC2"
        },
        {
            "bufferView" : 23,
            "componentType" : 5123,
            "count" : 174,
            "type" : "SCALAR"
        }
    ],
    "bufferViews" : [
        {
            "buffer" : 0,
            "byteLength" : 288,
            "byteOffset" : 0
        },
        {
            "buffer" : 0,
            "byteLength" : 288,
            "byteOffset" : 288
        },
        {
            "buffer" : 0,
            "byteLength" : 192,
            "byteOffset" : 576
        },
        {
            "buffer" : 0,
            "byteLength" : 72,
            "byteOffset" : 768
        },
        {
            "buffer" : 0,
            "byteLength" : 7800,
            "byteOffset" : 840
        },
        {
            "buffer" : 0,
            "byteLength" : 7800,
            "byteOffset" : 8640
        },
        {
            "buffer" : 0,
            "byteLength" : 5200,
            "byteOffset" : 16440
        },
        {
            "buffer" : 0,
            "byteLength" : 2496,
            "byteOffset" : 21640
        },
        {
            "buffer" : 0,
            "byteLength" : 5304,
            "byteOffset" : 24136
        },
        {
            "buffer" : 0,
            "byteLength" : 5304,
            "byteOffset" : 29440
        },
        {
            "buffer" : 0,
            "byteLength" : 3536,
            "byteOffset" : 34744
        },
        {
            "buffer" : 0,
            "byteLength" : 1596,
            "byteOffset" : 38280
        },
        {
            "buffer" : 0,
            "byteLength" : 192,
            "byteOffset" : 39876
        },
        {
            "buffer" : 0,
            "byteLength" : 192,
            "byteOffset" : 40068
        },
        {
            "buffer" : 0,
            "byteLength" : 128,
            "byteOffset" : 40260
        },
        {
            "buffer" : 0,
            "byteLength" : 48,
            "byteOffset" : 40388
        },
        {
            "buffer" : 0,
            "byteLength" : 336,
            "byteOffset" : 40436
        },
        {
            "buffer" : 0,
            "byteLength" : 336,
            "byteOffset" : 40772
        },
        {
            "buffer" : 0,
            "byteLength" : 224,
            "byteOffset" : 41108
        },
        {
            "buffer" : 0,
            "byteLength" : 120,
            "byteOffset" : 41332
        },
        {
            "buffer" : 0,
            "byteLength" : 912,
            "byteOffset" : 41452
        },
        {
            "buffer" : 0,
            "byteLength" : 912,
            "byteOffset" : 42364
        },
        {
            "buffer" : 0,
            "byteLength" : 608,
            "byteOffset" : 43276
        },
        {
            "buffer" : 0,
            "byteLength" : 348,
            "byteOffset" : 43884
        }
    ],
    "buffers" : [
        {
            "byteLength" : 44232,
            "uri" : "grande.bin"
        }
    ]
}
