{
    "asset" : {
        "generator" : "Khronos glTF Blender I/O v1.5.17",
        "version" : "2.0"
    },
    "scene" : 0,
    "scenes" : [
        {
            "name" : "Scene",
            "nodes" : [
                0
            ]
        }
    ],
    "nodes" : [
        {
            "mesh" : 0,
            "name" : "Plane",
            "scale" : [
                5.013199806213379,
                1,
                16.14259910583496
            ],
            "translation" : [
                0,
                -0.06849146634340286,
                0
            ]
        }
    ],
    "materials" : [
        {
            "doubleSided" : true,
            "name" : "Material.004",
            "pbrMetallicRoughness" : {
                "baseColorFactor" : [
                    0.25415220856666565,
                    0.2541520893573761,
                    0.2541521489620209,
                    1
                ],
                "metallicFactor" : 0,
                "roughnessFactor" : 0.5
            }
        },
        {
            "doubleSided" : true,
            "name" : "Material.002",
            "pbrMetallicRoughness" : {
                "baseColorFactor" : [
                    0.7991032600402832,
                    0.23073998093605042,
                    0.11443543434143066,
                    1
                ],
                "metallicFactor" : 0,
                "roughnessFactor" : 0.5
            }
        },
        {
            "doubleSided" : true,
            "name" : "Material.003",
            "pbrMetallicRoughness" : {
                "baseColorFactor" : [
                    1,
                    0.7801129817962646,
                    0.4573880732059479,
                    1
                ],
                "metallicFactor" : 0,
                "roughnessFactor" : 0.5
            }
        },
        {
            "doubleSided" : true,
            "name" : "Material",
            "pbrMetallicRoughness" : {
                "baseColorFactor" : [
                    0.3480947017669678,
                    0.3480947017669678,
                    0.3480947017669678,
                    1
                ],
                "metallicFactor" : 0,
                "roughnessFactor" : 0.5
            }
        },
        {
            "doubleSided" : true,
            "name" : "puerta",
            "pbrMetallicRoughness" : {
                "baseColorFactor" : [
                    0.2874408960342407,
                    0.12213876843452454,
                    0.02028856799006462,
                    1
                ],
                "metallicFactor" : 0,
                "roughnessFactor" : 0.5
            }
        },
        {
            "doubleSided" : true,
            "name" : "Material.001",
            "pbrMetallicRoughness" : {
                "baseColorFactor" : [
                    0.6239607930183411,
                    0.623960554599762,
                    0.6239606738090515,
                    1
                ],
                "metallicFactor" : 0,
                "roughnessFactor" : 0.5
            }
        },
        {
            "doubleSided" : true,
            "name" : "Material.005",
            "pbrMetallicRoughness" : {
                "baseColorFactor" : [
                    0.800000011920929,
                    0.800000011920929,
                    0.800000011920929,
                    1
                ],
                "metallicFactor" : 0,
                "roughnessFactor" : 0.5
            }
        },
        {
            "doubleSided" : true,
            "name" : "Material.008",
            "pbrMetallicRoughness" : {
                "baseColorFactor" : [
                    0.08437621593475342,
                    0.327778160572052,
                    0.021219022572040558,
                    1
                ],
                "metallicFactor" : 0,
                "roughnessFactor" : 0.5
            }
        },
        {
            "doubleSided" : true,
            "name" : "Material.007",
            "pbrMetallicRoughness" : {
                "baseColorFactor" : [
                    0.800000011920929,
                    0.800000011920929,
                    0.800000011920929,
                    1
                ],
                "metallicFactor" : 0,
                "roughnessFactor" : 0.5
            }
        }
    ],
    "meshes" : [
        {
            "name" : "Plane",
            "primitives" : [
                {
                    "attributes" : {
                        "POSITION" : 0,
                        "NORMAL" : 1,
                        "TEXCOORD_0" : 2
                    },
                    "indices" : 3,
                    "material" : 0
                },
                {
                    "attributes" : {
                        "POSITION" : 4,
                        "NORMAL" : 5,
                        "TEXCOORD_0" : 6
                    },
                    "indices" : 7,
                    "material" : 1
                },
                {
                    "attributes" : {
                        "POSITION" : 8,
                        "NORMAL" : 9,
                        "TEXCOORD_0" : 10
                    },
                    "indices" : 11,
                    "material" : 2
                },
                {
                    "attributes" : {
                        "POSITION" : 12,
                        "NORMAL" : 13,
                        "TEXCOORD_0" : 14
                    },
                    "indices" : 15,
                    "material" : 3
                },
                {
                    "attributes" : {
                        "POSITION" : 16,
                        "NORMAL" : 17,
                        "TEXCOORD_0" : 18
                    },
                    "indices" : 19,
                    "material" : 4
                },
                {
                    "attributes" : {
                        "POSITION" : 20,
                        "NORMAL" : 21,
                        "TEXCOORD_0" : 22
                    },
                    "indices" : 23,
                    "material" : 5
                },
                {
                    "attributes" : {
                        "POSITION" : 24,
                        "NORMAL" : 25,
                        "TEXCOORD_0" : 26
                    },
                    "indices" : 27,
                    "material" : 6
                },
                {
                    "attributes" : {
                        "POSITION" : 28,
                        "NORMAL" : 29,
                        "TEXCOORD_0" : 30
                    },
                    "indices" : 31,
                    "material" : 7
                },
                {
                    "attributes" : {
                        "POSITION" : 32,
                        "NORMAL" : 33,
                        "TEXCOORD_0" : 34
                    },
                    "indices" : 35,
                    "material" : 8
                }
            ]
        }
    ],
    "accessors" : [
        {
            "bufferView" : 0,
            "componentType" : 5126,
            "count" : 24,
            "max" : [
                1,
                -1.4889073371887207,
                1
            ],
            "min" : [
                -1,
                -1.5787551403045654,
                -1
            ],
            "type" : "VEC3"
        },
        {
            "bufferView" : 1,
            "componentType" : 5126,
            "count" : 24,
            "type" : "VEC3"
        },
        {
            "bufferView" : 2,
            "componentType" : 5126,
            "count" : 24,
            "type" : "VEC2"
        },
        {
            "bufferView" : 3,
            "componentType" : 5123,
            "count" : 36,
            "type" : "SCALAR"
        },
        {
            "bufferView" : 4,
            "componentType" : 5126,
            "count" : 382,
            "max" : [
                0.7756767868995667,
                2.698742389678955,
                0.9373102784156799
            ],
            "min" : [
                -0.7761134505271912,
                -1.4315396547317505,
                -0.9397976994514465
            ],
            "type" : "VEC3"
        },
        {
            "bufferView" : 5,
            "componentType" : 5126,
            "count" : 382,
            "type" : "VEC3"
        },
        {
            "bufferView" : 6,
            "componentType" : 5126,
            "count" : 382,
            "type" : "VEC2"
        },
        {
            "bufferView" : 7,
            "componentType" : 5123,
            "count" : 768,
            "type" : "SCALAR"
        },
        {
            "bufferView" : 8,
            "componentType" : 5126,
            "count" : 302,
            "max" : [
                0.7480252981185913,
                2.698742389678955,
                0.9292184710502625
            ],
            "min" : [
                -0.7480252981185913,
                -1.4315396547317505,
                -0.9292184710502625
            ],
            "type" : "VEC3"
        },
        {
            "bufferView" : 9,
            "componentType" : 5126,
            "count" : 302,
            "type" : "VEC3"
        },
        {
            "bufferView" : 10,
            "componentType" : 5126,
            "count" : 302,
            "type" : "VEC2"
        },
        {
            "bufferView" : 11,
            "componentType" : 5123,
            "count" : 519,
            "type" : "SCALAR"
        },
        {
            "bufferView" : 12,
            "componentType" : 5126,
            "count" : 153,
            "max" : [
                0.7756767868995667,
                1.5684914588928223,
                0.9373102784156799
            ],
            "min" : [
                -0.7761134505271912,
                -1.4315085411071777,
                -0.9397976994514465
            ],
            "type" : "VEC3"
        },
        {
            "bufferView" : 13,
            "componentType" : 5126,
            "count" : 153,
            "type" : "VEC3"
        },
        {
            "bufferView" : 14,
            "componentType" : 5126,
            "count" : 153,
            "type" : "VEC2"
        },
        {
            "bufferView" : 15,
            "componentType" : 5123,
            "count" : 336,
            "type" : "SCALAR"
        },
        {
            "bufferView" : 16,
            "componentType" : 5126,
            "count" : 24,
            "max" : [
                0.7280818223953247,
                0.7242268919944763,
                0.7142759561538696
            ],
            "min" : [
                -0.7296968102455139,
                -1.4315396547317505,
                0.4136636555194855
            ],
            "type" : "VEC3"
        },
        {
            "bufferView" : 17,
            "componentType" : 5126,
            "count" : 24,
            "type" : "VEC3"
        },
        {
            "bufferView" : 18,
            "componentType" : 5126,
            "count" : 24,
            "type" : "VEC2"
        },
        {
            "bufferView" : 19,
            "componentType" : 5123,
            "count" : 36,
            "type" : "SCALAR"
        },
        {
            "bufferView" : 20,
            "componentType" : 5126,
            "count" : 36,
            "max" : [
                0.9161014556884766,
                2.8188934326171875,
                0.9716253876686096
            ],
            "min" : [
                -0.9161014556884766,
                1.353606104850769,
                -0.9716253876686096
            ],
            "type" : "VEC3"
        },
        {
            "bufferView" : 21,
            "componentType" : 5126,
            "count" : 36,
            "type" : "VEC3"
        },
        {
            "bufferView" : 22,
            "componentType" : 5126,
            "count" : 36,
            "type" : "VEC2"
        },
        {
            "bufferView" : 23,
            "componentType" : 5123,
            "count" : 60,
            "type" : "SCALAR"
        },
        {
            "bufferView" : 24,
            "componentType" : 5126,
            "count" : 30,
            "max" : [
                -0.044648874551057816,
                0.9050678014755249,
                -0.9296314120292664
            ],
            "min" : [
                -0.1044577807188034,
                0.7731926441192627,
                -0.9296314120292664
            ],
            "type" : "VEC3"
        },
        {
            "bufferView" : 25,
            "componentType" : 5126,
            "count" : 30,
            "type" : "VEC3"
        },
        {
            "bufferView" : 26,
            "componentType" : 5126,
            "count" : 30,
            "type" : "VEC2"
        },
        {
            "bufferView" : 27,
            "componentType" : 5123,
            "count" : 30,
            "type" : "SCALAR"
        },
        {
            "bufferView" : 28,
            "componentType" : 5126,
            "count" : 8,
            "max" : [
                0.19947341084480286,
                1.457045316696167,
                0.9298211932182312
            ],
            "min" : [
                -0.19947341084480286,
                -0.542954683303833,
                -0.9298178553581238
            ],
            "type" : "VEC3"
        },
        {
            "bufferView" : 29,
            "componentType" : 5126,
            "count" : 8,
            "type" : "VEC3"
        },
        {
            "bufferView" : 30,
            "componentType" : 5126,
            "count" : 8,
            "type" : "VEC2"
        },
        {
            "bufferView" : 31,
            "componentType" : 5123,
            "count" : 12,
            "type" : "SCALAR"
        },
        {
            "bufferView" : 32,
            "componentType" : 5126,
            "count" : 460,
            "max" : [
                0.1716693639755249,
                1.020200490951538,
                0.9299672245979309
            ],
            "min" : [
                -0.1716693639755249,
                -0.025238633155822754,
                -0.9299638867378235
            ],
            "type" : "VEC3"
        },
        {
            "bufferView" : 33,
            "componentType" : 5126,
            "count" : 460,
            "type" : "VEC3"
        },
        {
            "bufferView" : 34,
            "componentType" : 5126,
            "count" : 460,
            "type" : "VEC2"
        },
        {
            "bufferView" : 35,
            "componentType" : 5123,
            "count" : 588,
            "type" : "SCALAR"
        }
    ],
    "bufferViews" : [
        {
            "buffer" : 0,
            "byteLength" : 288,
            "byteOffset" : 0
        },
        {
            "buffer" : 0,
            "byteLength" : 288,
            "byteOffset" : 288
        },
        {
            "buffer" : 0,
            "byteLength" : 192,
            "byteOffset" : 576
        },
        {
            "buffer" : 0,
            "byteLength" : 72,
            "byteOffset" : 768
        },
        {
            "buffer" : 0,
            "byteLength" : 4584,
            "byteOffset" : 840
        },
        {
            "buffer" : 0,
            "byteLength" : 4584,
            "byteOffset" : 5424
        },
        {
            "buffer" : 0,
            "byteLength" : 3056,
            "byteOffset" : 10008
        },
        {
            "buffer" : 0,
            "byteLength" : 1536,
            "byteOffset" : 13064
        },
        {
            "buffer" : 0,
            "byteLength" : 3624,
            "byteOffset" : 14600
        },
        {
            "buffer" : 0,
            "byteLength" : 3624,
            "byteOffset" : 18224
        },
        {
            "buffer" : 0,
            "byteLength" : 2416,
            "byteOffset" : 21848
        },
        {
            "buffer" : 0,
            "byteLength" : 1038,
            "byteOffset" : 24264
        },
        {
            "buffer" : 0,
            "byteLength" : 1836,
            "byteOffset" : 25304
        },
        {
            "buffer" : 0,
            "byteLength" : 1836,
            "byteOffset" : 27140
        },
        {
            "buffer" : 0,
            "byteLength" : 1224,
            "byteOffset" : 28976
        },
        {
            "buffer" : 0,
            "byteLength" : 672,
            "byteOffset" : 30200
        },
        {
            "buffer" : 0,
            "byteLength" : 288,
            "byteOffset" : 30872
        },
        {
            "buffer" : 0,
            "byteLength" : 288,
            "byteOffset" : 31160
        },
        {
            "buffer" : 0,
            "byteLength" : 192,
            "byteOffset" : 31448
        },
        {
            "buffer" : 0,
            "byteLength" : 72,
            "byteOffset" : 31640
        },
        {
            "buffer" : 0,
            "byteLength" : 432,
            "byteOffset" : 31712
        },
        {
            "buffer" : 0,
            "byteLength" : 432,
            "byteOffset" : 32144
        },
        {
            "buffer" : 0,
            "byteLength" : 288,
            "byteOffset" : 32576
        },
        {
            "buffer" : 0,
            "byteLength" : 120,
            "byteOffset" : 32864
        },
        {
            "buffer" : 0,
            "byteLength" : 360,
            "byteOffset" : 32984
        },
        {
            "buffer" : 0,
            "byteLength" : 360,
            "byteOffset" : 33344
        },
        {
            "buffer" : 0,
            "byteLength" : 240,
            "byteOffset" : 33704
        },
        {
            "buffer" : 0,
            "byteLength" : 60,
            "byteOffset" : 33944
        },
        {
            "buffer" : 0,
            "byteLength" : 96,
            "byteOffset" : 34004
        },
        {
            "buffer" : 0,
            "byteLength" : 96,
            "byteOffset" : 34100
        },
        {
            "buffer" : 0,
            "byteLength" : 64,
            "byteOffset" : 34196
        },
        {
            "buffer" : 0,
            "byteLength" : 24,
            "byteOffset" : 34260
        },
        {
            "buffer" : 0,
            "byteLength" : 5520,
            "byteOffset" : 34284
        },
        {
            "buffer" : 0,
            "byteLength" : 5520,
            "byteOffset" : 39804
        },
        {
            "buffer" : 0,
            "byteLength" : 3680,
            "byteOffset" : 45324
        },
        {
            "buffer" : 0,
            "byteLength" : 1176,
            "byteOffset" : 49004
        }
    ],
    "buffers" : [
        {
            "byteLength" : 50180,
            "uri" : "a2.bin"
        }
    ]
}
