{
    "asset" : {
        "generator" : "Khronos glTF Blender I/O v1.5.17",
        "version" : "2.0"
    },
    "scene" : 0,
    "scenes" : [
        {
            "name" : "Scene",
            "nodes" : [
                0
            ]
        }
    ],
    "nodes" : [
        {
            "mesh" : 0,
            "name" : "Plane",
            "rotation" : [
                0,
                1,
                0,
                -1.6292068494294654e-07
            ],
            "translation" : [
                0,
                1.5712528228759766,
                0
            ]
        }
    ],
    "materials" : [
        {
            "doubleSided" : true,
            "name" : "Material.001",
            "pbrMetallicRoughness" : {
                "baseColorFactor" : [
                    0.6239607930183411,
                    0.623960554599762,
                    0.6239606738090515,
                    1
                ],
                "metallicFactor" : 0,
                "roughnessFactor" : 0.5
            }
        },
        {
            "doubleSided" : true,
            "name" : "Material.002",
            "pbrMetallicRoughness" : {
                "baseColorFactor" : [
                    0.7991032600402832,
                    0.23073998093605042,
                    0.11443543434143066,
                    1
                ],
                "metallicFactor" : 0,
                "roughnessFactor" : 0.5
            }
        },
        {
            "doubleSided" : true,
            "name" : "Material.003",
            "pbrMetallicRoughness" : {
                "baseColorFactor" : [
                    1,
                    0.7801129817962646,
                    0.4573880732059479,
                    1
                ],
                "metallicFactor" : 0,
                "roughnessFactor" : 0.5
            }
        },
        {
            "doubleSided" : true,
            "name" : "Material",
            "pbrMetallicRoughness" : {
                "baseColorFactor" : [
                    0.2874408960342407,
                    0.12213876843452454,
                    0.02028856799006462,
                    1
                ],
                "metallicFactor" : 0,
                "roughnessFactor" : 0.5
            }
        },
        {
            "doubleSided" : true,
            "name" : "Material.004",
            "pbrMetallicRoughness" : {
                "baseColorFactor" : [
                    0.09530749917030334,
                    0.12743768095970154,
                    0.16826939582824707,
                    1
                ],
                "metallicFactor" : 0,
                "roughnessFactor" : 0.5
            }
        },
        {
            "doubleSided" : true,
            "name" : "Material.005",
            "pbrMetallicRoughness" : {
                "baseColorFactor" : [
                    0.25415220856666565,
                    0.2541520893573761,
                    0.2541521489620209,
                    1
                ],
                "metallicFactor" : 0,
                "roughnessFactor" : 0.5
            }
        },
        {
            "doubleSided" : true,
            "name" : "Material.006",
            "pbrMetallicRoughness" : {
                "baseColorFactor" : [
                    0.800000011920929,
                    0.800000011920929,
                    0.800000011920929,
                    1
                ],
                "metallicFactor" : 0,
                "roughnessFactor" : 0.5
            }
        },
        {
            "doubleSided" : true,
            "name" : "Material.009",
            "pbrMetallicRoughness" : {
                "baseColorFactor" : [
                    0.08437621593475342,
                    0.327778160572052,
                    0.021219022572040558,
                    1
                ],
                "metallicFactor" : 0,
                "roughnessFactor" : 0.5
            }
        },
        {
            "doubleSided" : true,
            "name" : "Material.008",
            "pbrMetallicRoughness" : {
                "baseColorFactor" : [
                    0.800000011920929,
                    0.800000011920929,
                    0.800000011920929,
                    1
                ],
                "metallicFactor" : 0,
                "roughnessFactor" : 0.5
            }
        }
    ],
    "meshes" : [
        {
            "name" : "Plane.001",
            "primitives" : [
                {
                    "attributes" : {
                        "POSITION" : 0,
                        "NORMAL" : 1,
                        "TEXCOORD_0" : 2
                    },
                    "indices" : 3,
                    "material" : 0
                },
                {
                    "attributes" : {
                        "POSITION" : 4,
                        "NORMAL" : 5,
                        "TEXCOORD_0" : 6
                    },
                    "indices" : 7,
                    "material" : 1
                },
                {
                    "attributes" : {
                        "POSITION" : 8,
                        "NORMAL" : 9,
                        "TEXCOORD_0" : 10
                    },
                    "indices" : 11,
                    "material" : 2
                },
                {
                    "attributes" : {
                        "POSITION" : 12,
                        "NORMAL" : 13,
                        "TEXCOORD_0" : 14
                    },
                    "indices" : 15,
                    "material" : 3
                },
                {
                    "attributes" : {
                        "POSITION" : 16,
                        "NORMAL" : 17,
                        "TEXCOORD_0" : 18
                    },
                    "indices" : 19,
                    "material" : 4
                },
                {
                    "attributes" : {
                        "POSITION" : 20,
                        "NORMAL" : 21,
                        "TEXCOORD_0" : 22
                    },
                    "indices" : 23,
                    "material" : 5
                },
                {
                    "attributes" : {
                        "POSITION" : 24,
                        "NORMAL" : 25,
                        "TEXCOORD_0" : 26
                    },
                    "indices" : 27,
                    "material" : 6
                },
                {
                    "attributes" : {
                        "POSITION" : 28,
                        "NORMAL" : 29,
                        "TEXCOORD_0" : 30
                    },
                    "indices" : 31,
                    "material" : 7
                },
                {
                    "attributes" : {
                        "POSITION" : 32,
                        "NORMAL" : 33,
                        "TEXCOORD_0" : 34
                    },
                    "indices" : 35,
                    "material" : 8
                }
            ]
        }
    ],
    "accessors" : [
        {
            "bufferView" : 0,
            "componentType" : 5126,
            "count" : 36,
            "max" : [
                4.592594146728516,
                1.1791490316390991,
                15.684556007385254
            ],
            "min" : [
                -4.592594146728516,
                -0.2861381769180298,
                -15.684556007385254
            ],
            "type" : "VEC3"
        },
        {
            "bufferView" : 1,
            "componentType" : 5126,
            "count" : 36,
            "type" : "VEC3"
        },
        {
            "bufferView" : 2,
            "componentType" : 5126,
            "count" : 36,
            "type" : "VEC2"
        },
        {
            "bufferView" : 3,
            "componentType" : 5123,
            "count" : 60,
            "type" : "SCALAR"
        },
        {
            "bufferView" : 4,
            "componentType" : 5126,
            "count" : 757,
            "max" : [
                3.8908164501190186,
                1.0589981079101562,
                15.170777320861816
            ],
            "min" : [
                -3.888627529144287,
                -3.0712528228759766,
                -15.130623817443848
            ],
            "type" : "VEC3"
        },
        {
            "bufferView" : 5,
            "componentType" : 5126,
            "count" : 757,
            "type" : "VEC3"
        },
        {
            "bufferView" : 6,
            "componentType" : 5126,
            "count" : 757,
            "type" : "VEC2"
        },
        {
            "bufferView" : 7,
            "componentType" : 5123,
            "count" : 1446,
            "type" : "SCALAR"
        },
        {
            "bufferView" : 8,
            "componentType" : 5126,
            "count" : 536,
            "max" : [
                3.750005006790161,
                1.0589981079101562,
                15.000000953674316
            ],
            "min" : [
                -3.750005006790161,
                -3.0712528228759766,
                -15.000000953674316
            ],
            "type" : "VEC3"
        },
        {
            "bufferView" : 9,
            "componentType" : 5126,
            "count" : 536,
            "type" : "VEC3"
        },
        {
            "bufferView" : 10,
            "componentType" : 5126,
            "count" : 536,
            "type" : "VEC2"
        },
        {
            "bufferView" : 11,
            "componentType" : 5123,
            "count" : 816,
            "type" : "SCALAR"
        },
        {
            "bufferView" : 12,
            "componentType" : 5126,
            "count" : 24,
            "max" : [
                3.636948585510254,
                -1.0392229557037354,
                13.834927558898926
            ],
            "min" : [
                3.6369404792785645,
                -3.0712528228759766,
                -10.705546379089355
            ],
            "type" : "VEC3"
        },
        {
            "bufferView" : 13,
            "componentType" : 5126,
            "count" : 24,
            "type" : "VEC3"
        },
        {
            "bufferView" : 14,
            "componentType" : 5126,
            "count" : 24,
            "type" : "VEC2"
        },
        {
            "bufferView" : 15,
            "componentType" : 5123,
            "count" : 36,
            "type" : "SCALAR"
        },
        {
            "bufferView" : 16,
            "componentType" : 5126,
            "count" : 24,
            "max" : [
                -3.6516239643096924,
                -0.509995698928833,
                13.546823501586914
            ],
            "min" : [
                -3.651632785797119,
                -2.1099929809570312,
                -13.518777847290039
            ],
            "type" : "VEC3"
        },
        {
            "bufferView" : 17,
            "componentType" : 5126,
            "count" : 24,
            "type" : "VEC3"
        },
        {
            "bufferView" : 18,
            "componentType" : 5126,
            "count" : 24,
            "type" : "VEC2"
        },
        {
            "bufferView" : 19,
            "componentType" : 5123,
            "count" : 36,
            "type" : "SCALAR"
        },
        {
            "bufferView" : 20,
            "componentType" : 5126,
            "count" : 24,
            "max" : [
                5.013205051422119,
                -3.081895112991333,
                16.142601013183594
            ],
            "min" : [
                -5.013205051422119,
                -3.1719110012054443,
                -16.142601013183594
            ],
            "type" : "VEC3"
        },
        {
            "bufferView" : 21,
            "componentType" : 5126,
            "count" : 24,
            "type" : "VEC3"
        },
        {
            "bufferView" : 22,
            "componentType" : 5126,
            "count" : 24,
            "type" : "VEC2"
        },
        {
            "bufferView" : 23,
            "componentType" : 5123,
            "count" : 36,
            "type" : "SCALAR"
        },
        {
            "bufferView" : 24,
            "componentType" : 5126,
            "count" : 3,
            "max" : [
                0.3070632219314575,
                -1.5182303190231323,
                15.005829811096191
            ],
            "min" : [
                0.2834058403968811,
                -1.5193830728530884,
                15.005829811096191
            ],
            "type" : "VEC3"
        },
        {
            "bufferView" : 25,
            "componentType" : 5126,
            "count" : 3,
            "type" : "VEC3"
        },
        {
            "bufferView" : 26,
            "componentType" : 5126,
            "count" : 3,
            "type" : "VEC2"
        },
        {
            "bufferView" : 27,
            "componentType" : 5123,
            "count" : 3,
            "type" : "SCALAR"
        },
        {
            "bufferView" : 28,
            "componentType" : 5126,
            "count" : 8,
            "max" : [
                1.0000048875808716,
                -0.18063032627105713,
                15.014500617980957
            ],
            "min" : [
                -1.0000048875808716,
                -2.1806302070617676,
                -15.018847465515137
            ],
            "type" : "VEC3"
        },
        {
            "bufferView" : 29,
            "componentType" : 5126,
            "count" : 8,
            "type" : "VEC3"
        },
        {
            "bufferView" : 30,
            "componentType" : 5126,
            "count" : 8,
            "type" : "VEC2"
        },
        {
            "bufferView" : 31,
            "componentType" : 5123,
            "count" : 12,
            "type" : "SCALAR"
        },
        {
            "bufferView" : 32,
            "componentType" : 5126,
            "count" : 764,
            "max" : [
                0.8543599247932434,
                -0.590465784072876,
                15.028706550598145
            ],
            "min" : [
                -0.8543599247932434,
                -1.6787853240966797,
                -15.033053398132324
            ],
            "type" : "VEC3"
        },
        {
            "bufferView" : 33,
            "componentType" : 5126,
            "count" : 764,
            "type" : "VEC3"
        },
        {
            "bufferView" : 34,
            "componentType" : 5126,
            "count" : 764,
            "type" : "VEC2"
        },
        {
            "bufferView" : 35,
            "componentType" : 5123,
            "count" : 936,
            "type" : "SCALAR"
        }
    ],
    "bufferViews" : [
        {
            "buffer" : 0,
            "byteLength" : 432,
            "byteOffset" : 0
        },
        {
            "buffer" : 0,
            "byteLength" : 432,
            "byteOffset" : 432
        },
        {
            "buffer" : 0,
            "byteLength" : 288,
            "byteOffset" : 864
        },
        {
            "buffer" : 0,
            "byteLength" : 120,
            "byteOffset" : 1152
        },
        {
            "buffer" : 0,
            "byteLength" : 9084,
            "byteOffset" : 1272
        },
        {
            "buffer" : 0,
            "byteLength" : 9084,
            "byteOffset" : 10356
        },
        {
            "buffer" : 0,
            "byteLength" : 6056,
            "byteOffset" : 19440
        },
        {
            "buffer" : 0,
            "byteLength" : 2892,
            "byteOffset" : 25496
        },
        {
            "buffer" : 0,
            "byteLength" : 6432,
            "byteOffset" : 28388
        },
        {
            "buffer" : 0,
            "byteLength" : 6432,
            "byteOffset" : 34820
        },
        {
            "buffer" : 0,
            "byteLength" : 4288,
            "byteOffset" : 41252
        },
        {
            "buffer" : 0,
            "byteLength" : 1632,
            "byteOffset" : 45540
        },
        {
            "buffer" : 0,
            "byteLength" : 288,
            "byteOffset" : 47172
        },
        {
            "buffer" : 0,
            "byteLength" : 288,
            "byteOffset" : 47460
        },
        {
            "buffer" : 0,
            "byteLength" : 192,
            "byteOffset" : 47748
        },
        {
            "buffer" : 0,
            "byteLength" : 72,
            "byteOffset" : 47940
        },
        {
            "buffer" : 0,
            "byteLength" : 288,
            "byteOffset" : 48012
        },
        {
            "buffer" : 0,
            "byteLength" : 288,
            "byteOffset" : 48300
        },
        {
            "buffer" : 0,
            "byteLength" : 192,
            "byteOffset" : 48588
        },
        {
            "buffer" : 0,
            "byteLength" : 72,
            "byteOffset" : 48780
        },
        {
            "buffer" : 0,
            "byteLength" : 288,
            "byteOffset" : 48852
        },
        {
            "buffer" : 0,
            "byteLength" : 288,
            "byteOffset" : 49140
        },
        {
            "buffer" : 0,
            "byteLength" : 192,
            "byteOffset" : 49428
        },
        {
            "buffer" : 0,
            "byteLength" : 72,
            "byteOffset" : 49620
        },
        {
            "buffer" : 0,
            "byteLength" : 36,
            "byteOffset" : 49692
        },
        {
            "buffer" : 0,
            "byteLength" : 36,
            "byteOffset" : 49728
        },
        {
            "buffer" : 0,
            "byteLength" : 24,
            "byteOffset" : 49764
        },
        {
            "buffer" : 0,
            "byteLength" : 6,
            "byteOffset" : 49788
        },
        {
            "buffer" : 0,
            "byteLength" : 96,
            "byteOffset" : 49796
        },
        {
            "buffer" : 0,
            "byteLength" : 96,
            "byteOffset" : 49892
        },
        {
            "buffer" : 0,
            "byteLength" : 64,
            "byteOffset" : 49988
        },
        {
            "buffer" : 0,
            "byteLength" : 24,
            "byteOffset" : 50052
        },
        {
            "buffer" : 0,
            "byteLength" : 9168,
            "byteOffset" : 50076
        },
        {
            "buffer" : 0,
            "byteLength" : 9168,
            "byteOffset" : 59244
        },
        {
            "buffer" : 0,
            "byteLength" : 6112,
            "byteOffset" : 68412
        },
        {
            "buffer" : 0,
            "byteLength" : 1872,
            "byteOffset" : 74524
        }
    ],
    "buffers" : [
        {
            "byteLength" : 76396,
            "uri" : "a3.bin"
        }
    ]
}
