{
    "asset" : {
        "generator" : "Khronos glTF Blender I/O v1.5.17",
        "version" : "2.0"
    },
    "scene" : 0,
    "scenes" : [
        {
            "name" : "Scene",
            "nodes" : [
                0
            ]
        }
    ],
    "nodes" : [
        {
            "mesh" : 0,
            "name" : "Plane",
            "scale" : [
                1,
                0.9999942779541016,
                1
            ]
        }
    ],
    "materials" : [
        {
            "doubleSided" : true,
            "name" : "Material.004",
            "pbrMetallicRoughness" : {
                "baseColorFactor" : [
                    0.25415220856666565,
                    0.2541520893573761,
                    0.2541521489620209,
                    1
                ],
                "metallicFactor" : 0,
                "roughnessFactor" : 0.5
            }
        },
        {
            "doubleSided" : true,
            "name" : "Negro",
            "pbrMetallicRoughness" : {
                "baseColorFactor" : [
                    0,
                    0,
                    0,
                    1
                ],
                "metallicFactor" : 0,
                "roughnessFactor" : 0.5
            }
        },
        {
            "doubleSided" : true,
            "name" : "Material.002",
            "pbrMetallicRoughness" : {
                "baseColorFactor" : [
                    0.7991032600402832,
                    0.23073998093605042,
                    0.11443543434143066,
                    1
                ],
                "metallicFactor" : 0,
                "roughnessFactor" : 0.5
            }
        },
        {
            "doubleSided" : true,
            "name" : "Material.003",
            "pbrMetallicRoughness" : {
                "baseColorFactor" : [
                    1,
                    0.7801129817962646,
                    0.4573880732059479,
                    1
                ],
                "metallicFactor" : 0,
                "roughnessFactor" : 0.5
            }
        },
        {
            "doubleSided" : true,
            "name" : "Material",
            "pbrMetallicRoughness" : {
                "baseColorFactor" : [
                    0.09835022687911987,
                    0.09835022687911987,
                    0.09835022687911987,
                    1
                ],
                "metallicFactor" : 0,
                "roughnessFactor" : 0.5
            }
        },
        {
            "doubleSided" : true,
            "name" : "puerta",
            "pbrMetallicRoughness" : {
                "baseColorFactor" : [
                    0.2874408960342407,
                    0.12213876843452454,
                    0.02028856799006462,
                    1
                ],
                "metallicFactor" : 0,
                "roughnessFactor" : 0.5
            }
        },
        {
            "doubleSided" : true,
            "name" : "verde",
            "pbrMetallicRoughness" : {
                "baseColorFactor" : [
                    0.09530749917030334,
                    0.12743768095970154,
                    0.16826939582824707,
                    1
                ],
                "metallicFactor" : 0
            }
        },
        {
            "doubleSided" : true,
            "name" : "Material.001",
            "pbrMetallicRoughness" : {
                "baseColorFactor" : [
                    0.06124604120850563,
                    0.20507879555225372,
                    0.042311422526836395,
                    1
                ],
                "metallicFactor" : 0,
                "roughnessFactor" : 0.5
            }
        },
        {
            "doubleSided" : true,
            "name" : "Material.008",
            "pbrMetallicRoughness" : {
                "baseColorFactor" : [
                    0.08437621593475342,
                    0.327778160572052,
                    0.021219022572040558,
                    1
                ],
                "metallicFactor" : 0,
                "roughnessFactor" : 0.5
            }
        },
        {
            "doubleSided" : true,
            "name" : "Material.007",
            "pbrMetallicRoughness" : {
                "baseColorFactor" : [
                    0.800000011920929,
                    0.800000011920929,
                    0.800000011920929,
                    1
                ],
                "metallicFactor" : 0,
                "roughnessFactor" : 0.5
            }
        }
    ],
    "meshes" : [
        {
            "name" : "Plane.001",
            "primitives" : [
                {
                    "attributes" : {
                        "POSITION" : 0,
                        "NORMAL" : 1,
                        "TEXCOORD_0" : 2
                    },
                    "indices" : 3,
                    "material" : 0
                },
                {
                    "attributes" : {
                        "POSITION" : 4,
                        "NORMAL" : 5,
                        "TEXCOORD_0" : 6
                    },
                    "indices" : 7,
                    "material" : 1
                },
                {
                    "attributes" : {
                        "POSITION" : 8,
                        "NORMAL" : 9,
                        "TEXCOORD_0" : 10
                    },
                    "indices" : 11,
                    "material" : 2
                },
                {
                    "attributes" : {
                        "POSITION" : 12,
                        "NORMAL" : 13,
                        "TEXCOORD_0" : 14
                    },
                    "indices" : 15,
                    "material" : 3
                },
                {
                    "attributes" : {
                        "POSITION" : 16,
                        "NORMAL" : 17,
                        "TEXCOORD_0" : 18
                    },
                    "indices" : 19,
                    "material" : 4
                },
                {
                    "attributes" : {
                        "POSITION" : 20,
                        "NORMAL" : 21,
                        "TEXCOORD_0" : 22
                    },
                    "indices" : 23,
                    "material" : 5
                },
                {
                    "attributes" : {
                        "POSITION" : 24,
                        "NORMAL" : 25,
                        "TEXCOORD_0" : 26
                    },
                    "indices" : 27,
                    "material" : 6
                },
                {
                    "attributes" : {
                        "POSITION" : 28,
                        "NORMAL" : 29,
                        "TEXCOORD_0" : 30
                    },
                    "indices" : 31,
                    "material" : 7
                },
                {
                    "attributes" : {
                        "POSITION" : 32,
                        "NORMAL" : 33,
                        "TEXCOORD_0" : 34
                    },
                    "indices" : 35,
                    "material" : 8
                },
                {
                    "attributes" : {
                        "POSITION" : 36,
                        "NORMAL" : 37,
                        "TEXCOORD_0" : 38
                    },
                    "indices" : 39,
                    "material" : 9
                }
            ]
        }
    ],
    "accessors" : [
        {
            "bufferView" : 0,
            "componentType" : 5126,
            "count" : 24,
            "max" : [
                4.708510398864746,
                -1.821245551109314,
                16.100940704345703
            ],
            "min" : [
                -4.708510398864746,
                -1.8957849740982056,
                -16.100940704345703
            ],
            "type" : "VEC3"
        },
        {
            "bufferView" : 1,
            "componentType" : 5126,
            "count" : 24,
            "type" : "VEC3"
        },
        {
            "bufferView" : 2,
            "componentType" : 5126,
            "count" : 24,
            "type" : "VEC2"
        },
        {
            "bufferView" : 3,
            "componentType" : 5123,
            "count" : 36,
            "type" : "SCALAR"
        },
        {
            "bufferView" : 4,
            "componentType" : 5126,
            "count" : 384,
            "max" : [
                3.6716253757476807,
                0.9986380338668823,
                14.283456802368164
            ],
            "min" : [
                3.6716253757476807,
                -0.7067787051200867,
                -14.338417053222656
            ],
            "type" : "VEC3"
        },
        {
            "bufferView" : 5,
            "componentType" : 5126,
            "count" : 384,
            "type" : "VEC3"
        },
        {
            "bufferView" : 6,
            "componentType" : 5126,
            "count" : 384,
            "type" : "VEC2"
        },
        {
            "bufferView" : 7,
            "componentType" : 5123,
            "count" : 1080,
            "type" : "SCALAR"
        },
        {
            "bufferView" : 8,
            "componentType" : 5126,
            "count" : 487,
            "max" : [
                3.8259549140930176,
                1.2160687446594238,
                15.121253967285156
            ],
            "min" : [
                -3.953479051589966,
                -1.8082343339920044,
                -15.180143356323242
            ],
            "type" : "VEC3"
        },
        {
            "bufferView" : 9,
            "componentType" : 5126,
            "count" : 487,
            "type" : "VEC3"
        },
        {
            "bufferView" : 10,
            "componentType" : 5126,
            "count" : 487,
            "type" : "VEC2"
        },
        {
            "bufferView" : 11,
            "componentType" : 5123,
            "count" : 1044,
            "type" : "SCALAR"
        },
        {
            "bufferView" : 12,
            "componentType" : 5126,
            "count" : 621,
            "max" : [
                3.6873321533203125,
                1.19178307056427,
                14.564375877380371
            ],
            "min" : [
                -3.953479051589966,
                -1.8082343339920044,
                -14.60310173034668
            ],
            "type" : "VEC3"
        },
        {
            "bufferView" : 13,
            "componentType" : 5126,
            "count" : 621,
            "type" : "VEC3"
        },
        {
            "bufferView" : 14,
            "componentType" : 5126,
            "count" : 621,
            "type" : "VEC2"
        },
        {
            "bufferView" : 15,
            "componentType" : 5123,
            "count" : 1029,
            "type" : "SCALAR"
        },
        {
            "bufferView" : 16,
            "componentType" : 5126,
            "count" : 6,
            "max" : [
                3.6873321533203125,
                -1.8082343339920044,
                4.841883182525635
            ],
            "min" : [
                -0.06603264808654785,
                -1.8082343339920044,
                -4.880608558654785
            ],
            "type" : "VEC3"
        },
        {
            "bufferView" : 17,
            "componentType" : 5126,
            "count" : 6,
            "type" : "VEC3"
        },
        {
            "bufferView" : 18,
            "componentType" : 5126,
            "count" : 6,
            "type" : "VEC2"
        },
        {
            "bufferView" : 19,
            "componentType" : 5123,
            "count" : 12,
            "type" : "SCALAR"
        },
        {
            "bufferView" : 20,
            "componentType" : 5126,
            "count" : 16,
            "max" : [
                3.5982625484466553,
                0.3421342372894287,
                3.6283750534057617
            ],
            "min" : [
                -0.18224596977233887,
                -1.8082343339920044,
                -3.644078254699707
            ],
            "type" : "VEC3"
        },
        {
            "bufferView" : 21,
            "componentType" : 5126,
            "count" : 16,
            "type" : "VEC3"
        },
        {
            "bufferView" : 22,
            "componentType" : 5126,
            "count" : 16,
            "type" : "VEC2"
        },
        {
            "bufferView" : 23,
            "componentType" : 5123,
            "count" : 30,
            "type" : "SCALAR"
        },
        {
            "bufferView" : 24,
            "componentType" : 5126,
            "count" : 56,
            "max" : [
                3.600172996520996,
                0.9894274473190308,
                14.249933242797852
            ],
            "min" : [
                -3.8174240589141846,
                -1.8082343339920044,
                -14.312700271606445
            ],
            "type" : "VEC3"
        },
        {
            "bufferView" : 25,
            "componentType" : 5126,
            "count" : 56,
            "type" : "VEC3"
        },
        {
            "bufferView" : 26,
            "componentType" : 5126,
            "count" : 56,
            "type" : "VEC2"
        },
        {
            "bufferView" : 27,
            "componentType" : 5123,
            "count" : 84,
            "type" : "SCALAR"
        },
        {
            "bufferView" : 28,
            "componentType" : 5126,
            "count" : 24,
            "max" : [
                4.274771690368652,
                1.691562533378601,
                15.84363842010498
            ],
            "min" : [
                -4.400107383728027,
                1.1849546432495117,
                -15.862373352050781
            ],
            "type" : "VEC3"
        },
        {
            "bufferView" : 29,
            "componentType" : 5126,
            "count" : 24,
            "type" : "VEC3"
        },
        {
            "bufferView" : 30,
            "componentType" : 5126,
            "count" : 24,
            "type" : "VEC2"
        },
        {
            "bufferView" : 31,
            "componentType" : 5123,
            "count" : 36,
            "type" : "SCALAR"
        },
        {
            "bufferView" : 32,
            "componentType" : 5126,
            "count" : 8,
            "max" : [
                1.0000001192092896,
                0.7579680681228638,
                14.99934196472168
            ],
            "min" : [
                -1.0000001192092896,
                -1.242043375968933,
                -15.01795768737793
            ],
            "type" : "VEC3"
        },
        {
            "bufferView" : 33,
            "componentType" : 5126,
            "count" : 8,
            "type" : "VEC3"
        },
        {
            "bufferView" : 34,
            "componentType" : 5126,
            "count" : 8,
            "type" : "VEC2"
        },
        {
            "bufferView" : 35,
            "componentType" : 5123,
            "count" : 12,
            "type" : "SCALAR"
        },
        {
            "bufferView" : 36,
            "componentType" : 5126,
            "count" : 140,
            "max" : [
                0.8609378337860107,
                0.38241320848464966,
                15.006799697875977
            ],
            "min" : [
                -0.8609378337860107,
                -0.6606974005699158,
                -15.025415420532227
            ],
            "type" : "VEC3"
        },
        {
            "bufferView" : 37,
            "componentType" : 5126,
            "count" : 140,
            "type" : "VEC3"
        },
        {
            "bufferView" : 38,
            "componentType" : 5126,
            "count" : 140,
            "type" : "VEC2"
        },
        {
            "bufferView" : 39,
            "componentType" : 5123,
            "count" : 156,
            "type" : "SCALAR"
        }
    ],
    "bufferViews" : [
        {
            "buffer" : 0,
            "byteLength" : 288,
            "byteOffset" : 0
        },
        {
            "buffer" : 0,
            "byteLength" : 288,
            "byteOffset" : 288
        },
        {
            "buffer" : 0,
            "byteLength" : 192,
            "byteOffset" : 576
        },
        {
            "buffer" : 0,
            "byteLength" : 72,
            "byteOffset" : 768
        },
        {
            "buffer" : 0,
            "byteLength" : 4608,
            "byteOffset" : 840
        },
        {
            "buffer" : 0,
            "byteLength" : 4608,
            "byteOffset" : 5448
        },
        {
            "buffer" : 0,
            "byteLength" : 3072,
            "byteOffset" : 10056
        },
        {
            "buffer" : 0,
            "byteLength" : 2160,
            "byteOffset" : 13128
        },
        {
            "buffer" : 0,
            "byteLength" : 5844,
            "byteOffset" : 15288
        },
        {
            "buffer" : 0,
            "byteLength" : 5844,
            "byteOffset" : 21132
        },
        {
            "buffer" : 0,
            "byteLength" : 3896,
            "byteOffset" : 26976
        },
        {
            "buffer" : 0,
            "byteLength" : 2088,
            "byteOffset" : 30872
        },
        {
            "buffer" : 0,
            "byteLength" : 7452,
            "byteOffset" : 32960
        },
        {
            "buffer" : 0,
            "byteLength" : 7452,
            "byteOffset" : 40412
        },
        {
            "buffer" : 0,
            "byteLength" : 4968,
            "byteOffset" : 47864
        },
        {
            "buffer" : 0,
            "byteLength" : 2058,
            "byteOffset" : 52832
        },
        {
            "buffer" : 0,
            "byteLength" : 72,
            "byteOffset" : 54892
        },
        {
            "buffer" : 0,
            "byteLength" : 72,
            "byteOffset" : 54964
        },
        {
            "buffer" : 0,
            "byteLength" : 48,
            "byteOffset" : 55036
        },
        {
            "buffer" : 0,
            "byteLength" : 24,
            "byteOffset" : 55084
        },
        {
            "buffer" : 0,
            "byteLength" : 192,
            "byteOffset" : 55108
        },
        {
            "buffer" : 0,
            "byteLength" : 192,
            "byteOffset" : 55300
        },
        {
            "buffer" : 0,
            "byteLength" : 128,
            "byteOffset" : 55492
        },
        {
            "buffer" : 0,
            "byteLength" : 60,
            "byteOffset" : 55620
        },
        {
            "buffer" : 0,
            "byteLength" : 672,
            "byteOffset" : 55680
        },
        {
            "buffer" : 0,
            "byteLength" : 672,
            "byteOffset" : 56352
        },
        {
            "buffer" : 0,
            "byteLength" : 448,
            "byteOffset" : 57024
        },
        {
            "buffer" : 0,
            "byteLength" : 168,
            "byteOffset" : 57472
        },
        {
            "buffer" : 0,
            "byteLength" : 288,
            "byteOffset" : 57640
        },
        {
            "buffer" : 0,
            "byteLength" : 288,
            "byteOffset" : 57928
        },
        {
            "buffer" : 0,
            "byteLength" : 192,
            "byteOffset" : 58216
        },
        {
            "buffer" : 0,
            "byteLength" : 72,
            "byteOffset" : 58408
        },
        {
            "buffer" : 0,
            "byteLength" : 96,
            "byteOffset" : 58480
        },
        {
            "buffer" : 0,
            "byteLength" : 96,
            "byteOffset" : 58576
        },
        {
            "buffer" : 0,
            "byteLength" : 64,
            "byteOffset" : 58672
        },
        {
            "buffer" : 0,
            "byteLength" : 24,
            "byteOffset" : 58736
        },
        {
            "buffer" : 0,
            "byteLength" : 1680,
            "byteOffset" : 58760
        },
        {
            "buffer" : 0,
            "byteLength" : 1680,
            "byteOffset" : 60440
        },
        {
            "buffer" : 0,
            "byteLength" : 1120,
            "byteOffset" : 62120
        },
        {
            "buffer" : 0,
            "byteLength" : 312,
            "byteOffset" : 63240
        }
    ],
    "buffers" : [
        {
            "byteLength" : 63552,
            "uri" : "a4.bin"
        }
    ]
}
