{
    "asset" : {
        "generator" : "Khronos glTF Blender I/O v1.5.17",
        "version" : "2.0"
    },
    "scene" : 0,
    "scenes" : [
        {
            "name" : "Scene",
            "nodes" : [
                0
            ]
        }
    ],
    "nodes" : [
        {
            "mesh" : 0,
            "name" : "Cube"
        }
    ],
    "materials" : [
        {
            "doubleSided" : true,
            "name" : "Material.002",
            "pbrMetallicRoughness" : {
                "baseColorFactor" : [
                    0.800000011920929,
                    0.800000011920929,
                    0.800000011920929,
                    1
                ],
                "metallicFactor" : 0,
                "roughnessFactor" : 0.5
            }
        },
        {
            "doubleSided" : true,
            "name" : "Material.003",
            "pbrMetallicRoughness" : {
                "baseColorFactor" : [
                    1,
                    0.7801129817962646,
                    0.4573880732059479,
                    1
                ],
                "metallicFactor" : 0,
                "roughnessFactor" : 0.5
            }
        },
        {
            "doubleSided" : true,
            "name" : "verde",
            "pbrMetallicRoughness" : {
                "baseColorFactor" : [
                    0.06124604120850563,
                    0.20507879555225372,
                    0.042311422526836395,
                    1
                ],
                "metallicFactor" : 0,
                "roughnessFactor" : 0.5
            }
        },
        {
            "doubleSided" : true,
            "name" : "gris",
            "pbrMetallicRoughness" : {
                "baseColorFactor" : [
                    0.09530749917030334,
                    0.12743768095970154,
                    0.16826939582824707,
                    1
                ],
                "metallicFactor" : 0,
                "roughnessFactor" : 0.5
            }
        },
        {
            "doubleSided" : true,
            "name" : "Material",
            "pbrMetallicRoughness" : {
                "baseColorFactor" : [
                    0.25415220856666565,
                    0.2541520893573761,
                    0.2541521489620209,
                    1
                ],
                "metallicFactor" : 0,
                "roughnessFactor" : 0.5
            }
        },
        {
            "doubleSided" : true,
            "name" : "Material.001",
            "pbrMetallicRoughness" : {
                "baseColorFactor" : [
                    0.800000011920929,
                    0.800000011920929,
                    0.800000011920929,
                    1
                ],
                "metallicFactor" : 0,
                "roughnessFactor" : 0.5
            }
        },
        {
            "doubleSided" : true,
            "name" : "Material.006",
            "pbrMetallicRoughness" : {
                "baseColorFactor" : [
                    0.08437621593475342,
                    0.327778160572052,
                    0.021219022572040558,
                    1
                ],
                "metallicFactor" : 0,
                "roughnessFactor" : 0.5
            }
        },
        {
            "doubleSided" : true,
            "name" : "Material.005",
            "pbrMetallicRoughness" : {
                "baseColorFactor" : [
                    0.800000011920929,
                    0.800000011920929,
                    0.800000011920929,
                    1
                ],
                "metallicFactor" : 0,
                "roughnessFactor" : 0.5
            }
        }
    ],
    "meshes" : [
        {
            "name" : "Cube.003",
            "primitives" : [
                {
                    "attributes" : {
                        "POSITION" : 0,
                        "NORMAL" : 1,
                        "TEXCOORD_0" : 2
                    },
                    "indices" : 3,
                    "material" : 0
                },
                {
                    "attributes" : {
                        "POSITION" : 4,
                        "NORMAL" : 5,
                        "TEXCOORD_0" : 6
                    },
                    "indices" : 7,
                    "material" : 1
                },
                {
                    "attributes" : {
                        "POSITION" : 8,
                        "NORMAL" : 9,
                        "TEXCOORD_0" : 10
                    },
                    "indices" : 11,
                    "material" : 2
                },
                {
                    "attributes" : {
                        "POSITION" : 12,
                        "NORMAL" : 13,
                        "TEXCOORD_0" : 14
                    },
                    "indices" : 15,
                    "material" : 3
                },
                {
                    "attributes" : {
                        "POSITION" : 16,
                        "NORMAL" : 17,
                        "TEXCOORD_0" : 18
                    },
                    "indices" : 19,
                    "material" : 4
                },
                {
                    "attributes" : {
                        "POSITION" : 20,
                        "NORMAL" : 21,
                        "TEXCOORD_0" : 22
                    },
                    "indices" : 23,
                    "material" : 5
                },
                {
                    "attributes" : {
                        "POSITION" : 24,
                        "NORMAL" : 25,
                        "TEXCOORD_0" : 26
                    },
                    "indices" : 27,
                    "material" : 6
                },
                {
                    "attributes" : {
                        "POSITION" : 28,
                        "NORMAL" : 29,
                        "TEXCOORD_0" : 30
                    },
                    "indices" : 31,
                    "material" : 7
                }
            ]
        }
    ],
    "accessors" : [
        {
            "bufferView" : 0,
            "componentType" : 5126,
            "count" : 145,
            "max" : [
                3.888622522354126,
                1.5,
                15.130622863769531
            ],
            "min" : [
                -3.8908114433288574,
                -1.5,
                -15.1707763671875
            ],
            "type" : "VEC3"
        },
        {
            "bufferView" : 1,
            "componentType" : 5126,
            "count" : 145,
            "type" : "VEC3"
        },
        {
            "bufferView" : 2,
            "componentType" : 5126,
            "count" : 145,
            "type" : "VEC2"
        },
        {
            "bufferView" : 3,
            "componentType" : 5123,
            "count" : 336,
            "type" : "SCALAR"
        },
        {
            "bufferView" : 4,
            "componentType" : 5126,
            "count" : 415,
            "max" : [
                3.888622522354126,
                1.5242855548858643,
                15.130622863769531
            ],
            "min" : [
                -3.8908114433288574,
                -1.0982142686843872,
                -15.1707763671875
            ],
            "type" : "VEC3"
        },
        {
            "bufferView" : 5,
            "componentType" : 5126,
            "count" : 415,
            "type" : "VEC3"
        },
        {
            "bufferView" : 6,
            "componentType" : 5126,
            "count" : 415,
            "type" : "VEC2"
        },
        {
            "bufferView" : 7,
            "componentType" : 5123,
            "count" : 972,
            "type" : "SCALAR"
        },
        {
            "bufferView" : 8,
            "componentType" : 5126,
            "count" : 172,
            "max" : [
                4.407662868499756,
                1.9415555000305176,
                15.544443130493164
            ],
            "min" : [
                -4.407662868499756,
                -1.5,
                -15.544443130493164
            ],
            "type" : "VEC3"
        },
        {
            "bufferView" : 9,
            "componentType" : 5126,
            "count" : 172,
            "type" : "VEC3"
        },
        {
            "bufferView" : 10,
            "componentType" : 5126,
            "count" : 172,
            "type" : "VEC2"
        },
        {
            "bufferView" : 11,
            "componentType" : 5123,
            "count" : 294,
            "type" : "SCALAR"
        },
        {
            "bufferView" : 12,
            "componentType" : 5126,
            "count" : 12,
            "max" : [
                3.66925048828125,
                0.33211585879325867,
                10.060608863830566
            ],
            "min" : [
                3.6422064304351807,
                -1.5,
                -2.44033145904541
            ],
            "type" : "VEC3"
        },
        {
            "bufferView" : 13,
            "componentType" : 5126,
            "count" : 12,
            "type" : "VEC3"
        },
        {
            "bufferView" : 14,
            "componentType" : 5126,
            "count" : 12,
            "type" : "VEC2"
        },
        {
            "bufferView" : 15,
            "componentType" : 5123,
            "count" : 18,
            "type" : "SCALAR"
        },
        {
            "bufferView" : 16,
            "componentType" : 5126,
            "count" : 24,
            "max" : [
                5.013199806213379,
                -1.5009676218032837,
                16.14259910583496
            ],
            "min" : [
                -5.013199806213379,
                -1.5831804275512695,
                -16.14259910583496
            ],
            "type" : "VEC3"
        },
        {
            "bufferView" : 17,
            "componentType" : 5126,
            "count" : 24,
            "type" : "VEC3"
        },
        {
            "bufferView" : 18,
            "componentType" : 5126,
            "count" : 24,
            "type" : "VEC2"
        },
        {
            "bufferView" : 19,
            "componentType" : 5123,
            "count" : 36,
            "type" : "SCALAR"
        },
        {
            "bufferView" : 20,
            "componentType" : 5126,
            "count" : 6,
            "max" : [
                0.3182896673679352,
                -0.2710370421409607,
                15.009745597839355
            ],
            "min" : [
                -0.3182896077632904,
                -0.27206486463546753,
                -15.010750770568848
            ],
            "type" : "VEC3"
        },
        {
            "bufferView" : 21,
            "componentType" : 5126,
            "count" : 6,
            "type" : "VEC3"
        },
        {
            "bufferView" : 22,
            "componentType" : 5126,
            "count" : 6,
            "type" : "VEC2"
        },
        {
            "bufferView" : 23,
            "componentType" : 5123,
            "count" : 6,
            "type" : "SCALAR"
        },
        {
            "bufferView" : 24,
            "componentType" : 5126,
            "count" : 8,
            "max" : [
                1,
                1.1643564701080322,
                15.006844520568848
            ],
            "min" : [
                -1,
                -0.8356435298919678,
                -15.0133638381958
            ],
            "type" : "VEC3"
        },
        {
            "bufferView" : 25,
            "componentType" : 5126,
            "count" : 8,
            "type" : "VEC3"
        },
        {
            "bufferView" : 26,
            "componentType" : 5126,
            "count" : 8,
            "type" : "VEC2"
        },
        {
            "bufferView" : 27,
            "componentType" : 5123,
            "count" : 12,
            "type" : "SCALAR"
        },
        {
            "bufferView" : 28,
            "componentType" : 5126,
            "count" : 439,
            "max" : [
                0.8948298096656799,
                0.7553306221961975,
                15.014389991760254
            ],
            "min" : [
                -0.8948298096656799,
                -0.34293514490127563,
                -15.020909309387207
            ],
            "type" : "VEC3"
        },
        {
            "bufferView" : 29,
            "componentType" : 5126,
            "count" : 439,
            "type" : "VEC3"
        },
        {
            "bufferView" : 30,
            "componentType" : 5126,
            "count" : 439,
            "type" : "VEC2"
        },
        {
            "bufferView" : 31,
            "componentType" : 5123,
            "count" : 522,
            "type" : "SCALAR"
        }
    ],
    "bufferViews" : [
        {
            "buffer" : 0,
            "byteLength" : 1740,
            "byteOffset" : 0
        },
        {
            "buffer" : 0,
            "byteLength" : 1740,
            "byteOffset" : 1740
        },
        {
            "buffer" : 0,
            "byteLength" : 1160,
            "byteOffset" : 3480
        },
        {
            "buffer" : 0,
            "byteLength" : 672,
            "byteOffset" : 4640
        },
        {
            "buffer" : 0,
            "byteLength" : 4980,
            "byteOffset" : 5312
        },
        {
            "buffer" : 0,
            "byteLength" : 4980,
            "byteOffset" : 10292
        },
        {
            "buffer" : 0,
            "byteLength" : 3320,
            "byteOffset" : 15272
        },
        {
            "buffer" : 0,
            "byteLength" : 1944,
            "byteOffset" : 18592
        },
        {
            "buffer" : 0,
            "byteLength" : 2064,
            "byteOffset" : 20536
        },
        {
            "buffer" : 0,
            "byteLength" : 2064,
            "byteOffset" : 22600
        },
        {
            "buffer" : 0,
            "byteLength" : 1376,
            "byteOffset" : 24664
        },
        {
            "buffer" : 0,
            "byteLength" : 588,
            "byteOffset" : 26040
        },
        {
            "buffer" : 0,
            "byteLength" : 144,
            "byteOffset" : 26628
        },
        {
            "buffer" : 0,
            "byteLength" : 144,
            "byteOffset" : 26772
        },
        {
            "buffer" : 0,
            "byteLength" : 96,
            "byteOffset" : 26916
        },
        {
            "buffer" : 0,
            "byteLength" : 36,
            "byteOffset" : 27012
        },
        {
            "buffer" : 0,
            "byteLength" : 288,
            "byteOffset" : 27048
        },
        {
            "buffer" : 0,
            "byteLength" : 288,
            "byteOffset" : 27336
        },
        {
            "buffer" : 0,
            "byteLength" : 192,
            "byteOffset" : 27624
        },
        {
            "buffer" : 0,
            "byteLength" : 72,
            "byteOffset" : 27816
        },
        {
            "buffer" : 0,
            "byteLength" : 72,
            "byteOffset" : 27888
        },
        {
            "buffer" : 0,
            "byteLength" : 72,
            "byteOffset" : 27960
        },
        {
            "buffer" : 0,
            "byteLength" : 48,
            "byteOffset" : 28032
        },
        {
            "buffer" : 0,
            "byteLength" : 12,
            "byteOffset" : 28080
        },
        {
            "buffer" : 0,
            "byteLength" : 96,
            "byteOffset" : 28092
        },
        {
            "buffer" : 0,
            "byteLength" : 96,
            "byteOffset" : 28188
        },
        {
            "buffer" : 0,
            "byteLength" : 64,
            "byteOffset" : 28284
        },
        {
            "buffer" : 0,
            "byteLength" : 24,
            "byteOffset" : 28348
        },
        {
            "buffer" : 0,
            "byteLength" : 5268,
            "byteOffset" : 28372
        },
        {
            "buffer" : 0,
            "byteLength" : 5268,
            "byteOffset" : 33640
        },
        {
            "buffer" : 0,
            "byteLength" : 3512,
            "byteOffset" : 38908
        },
        {
            "buffer" : 0,
            "byteLength" : 1044,
            "byteOffset" : 42420
        }
    ],
    "buffers" : [
        {
            "byteLength" : 43464,
            "uri" : "a5.bin"
        }
    ]
}
