{
    "asset" : {
        "generator" : "Khronos glTF Blender I/O v1.5.17",
        "version" : "2.0"
    },
    "scene" : 0,
    "scenes" : [
        {
            "name" : "Scene",
            "nodes" : [
                0
            ]
        }
    ],
    "nodes" : [
        {
            "mesh" : 0,
            "name" : "Cube.002",
            "rotation" : [
                0,
                0.7502831220626831,
                0,
                0.6611167192459106
            ],
            "translation" : [
                93.85308074951172,
                0,
                17.624998092651367
            ]
        }
    ],
    "materials" : [
        {
            "doubleSided" : true,
            "name" : "Material",
            "pbrMetallicRoughness" : {
                "baseColorFactor" : [
                    0.09532275050878525,
                    0.09532275050878525,
                    0.09532275050878525,
                    1
                ],
                "metallicFactor" : 0
            }
        },
        {
            "doubleSided" : true,
            "name" : "Material.001",
            "pbrMetallicRoughness" : {
                "baseColorFactor" : [
                    0.6901159286499023,
                    0.6563842296600342,
                    0.14087234437465668,
                    1
                ],
                "metallicFactor" : 0
            }
        }
    ],
    "meshes" : [
        {
            "name" : "Cube.002",
            "primitives" : [
                {
                    "attributes" : {
                        "POSITION" : 0,
                        "NORMAL" : 1,
                        "TEXCOORD_0" : 2
                    },
                    "indices" : 3,
                    "material" : 0
                },
                {
                    "attributes" : {
                        "POSITION" : 4,
                        "NORMAL" : 5,
                        "TEXCOORD_0" : 6
                    },
                    "indices" : 7,
                    "material" : 1
                }
            ]
        }
    ],
    "accessors" : [
        {
            "bufferView" : 0,
            "componentType" : 5126,
            "count" : 242,
            "max" : [
                131.60018920898438,
                0.05191683769226074,
                60.016395568847656
            ],
            "min" : [
                -140.75096130371094,
                -0.05618317425251007,
                -149.19155883789062
            ],
            "type" : "VEC3"
        },
        {
            "bufferView" : 1,
            "componentType" : 5126,
            "count" : 242,
            "type" : "VEC3"
        },
        {
            "bufferView" : 2,
            "componentType" : 5126,
            "count" : 242,
            "type" : "VEC2"
        },
        {
            "bufferView" : 3,
            "componentType" : 5123,
            "count" : 384,
            "type" : "SCALAR"
        },
        {
            "bufferView" : 4,
            "componentType" : 5126,
            "count" : 32,
            "max" : [
                129.85906982421875,
                0.05191683769226074,
                58.66728973388672
            ],
            "min" : [
                -137.5308074951172,
                -0.05191683769226074,
                -149.19155883789062
            ],
            "type" : "VEC3"
        },
        {
            "bufferView" : 5,
            "componentType" : 5126,
            "count" : 32,
            "type" : "VEC3"
        },
        {
            "bufferView" : 6,
            "componentType" : 5126,
            "count" : 32,
            "type" : "VEC2"
        },
        {
            "bufferView" : 7,
            "componentType" : 5123,
            "count" : 54,
            "type" : "SCALAR"
        }
    ],
    "bufferViews" : [
        {
            "buffer" : 0,
            "byteLength" : 2904,
            "byteOffset" : 0
        },
        {
            "buffer" : 0,
            "byteLength" : 2904,
            "byteOffset" : 2904
        },
        {
            "buffer" : 0,
            "byteLength" : 1936,
            "byteOffset" : 5808
        },
        {
            "buffer" : 0,
            "byteLength" : 768,
            "byteOffset" : 7744
        },
        {
            "buffer" : 0,
            "byteLength" : 384,
            "byteOffset" : 8512
        },
        {
            "buffer" : 0,
            "byteLength" : 384,
            "byteOffset" : 8896
        },
        {
            "buffer" : 0,
            "byteLength" : 256,
            "byteOffset" : 9280
        },
        {
            "buffer" : 0,
            "byteLength" : 108,
            "byteOffset" : 9536
        }
    ],
    "buffers" : [
        {
            "byteLength" : 9644,
            "uri" : "camino2.bin"
        }
    ]
}
