{
    "asset" : {
        "generator" : "Khronos glTF Blender I/O v1.5.17",
        "version" : "2.0"
    },
    "scene" : 0,
    "scenes" : [
        {
            "name" : "Scene",
            "nodes" : [
                0
            ]
        }
    ],
    "nodes" : [
        {
            "mesh" : 0,
            "name" : "Cube"
        }
    ],
    "materials" : [
        {
            "doubleSided" : true,
            "name" : "Material",
            "pbrMetallicRoughness" : {
                "baseColorFactor" : [
                    0.09532275050878525,
                    0.09532275050878525,
                    0.09532275050878525,
                    1
                ],
                "metallicFactor" : 0
            }
        },
        {
            "doubleSided" : true,
            "name" : "Material.001",
            "pbrMetallicRoughness" : {
                "baseColorFactor" : [
                    0.6901159286499023,
                    0.6563842296600342,
                    0.14087234437465668,
                    1
                ],
                "metallicFactor" : 0
            }
        }
    ],
    "meshes" : [
        {
            "name" : "Cube",
            "primitives" : [
                {
                    "attributes" : {
                        "POSITION" : 0,
                        "NORMAL" : 1,
                        "TEXCOORD_0" : 2
                    },
                    "indices" : 3,
                    "material" : 0
                },
                {
                    "attributes" : {
                        "POSITION" : 4,
                        "NORMAL" : 5,
                        "TEXCOORD_0" : 6
                    },
                    "indices" : 7,
                    "material" : 1
                }
            ]
        }
    ],
    "accessors" : [
        {
            "bufferView" : 0,
            "componentType" : 5126,
            "count" : 188,
            "max" : [
                94.78211212158203,
                0.05191683769226074,
                122.36909484863281
            ],
            "min" : [
                -3.609435796737671,
                -0.05191683769226074,
                -149.44935607910156
            ],
            "type" : "VEC3"
        },
        {
            "bufferView" : 1,
            "componentType" : 5126,
            "count" : 188,
            "type" : "VEC3"
        },
        {
            "bufferView" : 2,
            "componentType" : 5126,
            "count" : 188,
            "type" : "VEC2"
        },
        {
            "bufferView" : 3,
            "componentType" : 5123,
            "count" : 408,
            "type" : "SCALAR"
        },
        {
            "bufferView" : 4,
            "componentType" : 5126,
            "count" : 22,
            "max" : [
                94.78211212158203,
                0.05191683769226074,
                118.86943817138672
            ],
            "min" : [
                -0.10829486697912216,
                0.05191683769226074,
                -145.95394897460938
            ],
            "type" : "VEC3"
        },
        {
            "bufferView" : 5,
            "componentType" : 5126,
            "count" : 22,
            "type" : "VEC3"
        },
        {
            "bufferView" : 6,
            "componentType" : 5126,
            "count" : 22,
            "type" : "VEC2"
        },
        {
            "bufferView" : 7,
            "componentType" : 5123,
            "count" : 42,
            "type" : "SCALAR"
        }
    ],
    "bufferViews" : [
        {
            "buffer" : 0,
            "byteLength" : 2256,
            "byteOffset" : 0
        },
        {
            "buffer" : 0,
            "byteLength" : 2256,
            "byteOffset" : 2256
        },
        {
            "buffer" : 0,
            "byteLength" : 1504,
            "byteOffset" : 4512
        },
        {
            "buffer" : 0,
            "byteLength" : 816,
            "byteOffset" : 6016
        },
        {
            "buffer" : 0,
            "byteLength" : 264,
            "byteOffset" : 6832
        },
        {
            "buffer" : 0,
            "byteLength" : 264,
            "byteOffset" : 7096
        },
        {
            "buffer" : 0,
            "byteLength" : 176,
            "byteOffset" : 7360
        },
        {
            "buffer" : 0,
            "byteLength" : 84,
            "byteOffset" : 7536
        }
    ],
    "buffers" : [
        {
            "byteLength" : 7620,
            "uri" : "camino.bin"
        }
    ]
}
