{
    "asset" : {
        "generator" : "Khronos glTF Blender I/O v1.5.17",
        "version" : "2.0"
    },
    "scene" : 0,
    "scenes" : [
        {
            "name" : "Scene",
            "nodes" : [
                0
            ]
        }
    ],
    "nodes" : [
        {
            "mesh" : 0,
            "name" : "Cube"
        }
    ],
    "materials" : [
        {
            "doubleSided" : true,
            "name" : "Material",
            "pbrMetallicRoughness" : {
                "baseColorFactor" : [
                    0.2707937955856323,
                    0.2707937955856323,
                    0.2707937955856323,
                    1
                ],
                "metallicFactor" : 0.1818181872367859
            }
        },
        {
            "doubleSided" : true,
            "name" : "Material.001",
            "pbrMetallicRoughness" : {
                "metallicFactor" : 0,
                "roughnessFactor" : 0.5
            }
        },
        {
            "doubleSided" : true,
            "name" : "Material.002",
            "pbrMetallicRoughness" : {
                "baseColorFactor" : [
                    0.004007960204035044,
                    0.12420648336410522,
                    0.0053573050536215305,
                    1
                ],
                "metallicFactor" : 0,
                "roughnessFactor" : 0.5
            }
        },
        {
            "doubleSided" : true,
            "name" : "Material.003",
            "pbrMetallicRoughness" : {
                "baseColorFactor" : [
                    0.24068905413150787,
                    0.0046183764934539795,
                    0.0087354127317667,
                    1
                ],
                "metallicFactor" : 0,
                "roughnessFactor" : 0.5
            }
        }
    ],
    "meshes" : [
        {
            "name" : "Cube",
            "primitives" : [
                {
                    "attributes" : {
                        "POSITION" : 0,
                        "NORMAL" : 1,
                        "TEXCOORD_0" : 2
                    },
                    "indices" : 3,
                    "material" : 0
                },
                {
                    "attributes" : {
                        "POSITION" : 4,
                        "NORMAL" : 5,
                        "TEXCOORD_0" : 6
                    },
                    "indices" : 7,
                    "material" : 1
                },
                {
                    "attributes" : {
                        "POSITION" : 8,
                        "NORMAL" : 9,
                        "TEXCOORD_0" : 10
                    },
                    "indices" : 11,
                    "material" : 2
                },
                {
                    "attributes" : {
                        "POSITION" : 12,
                        "NORMAL" : 13,
                        "TEXCOORD_0" : 14
                    },
                    "indices" : 15,
                    "material" : 3
                }
            ]
        }
    ],
    "accessors" : [
        {
            "bufferView" : 0,
            "componentType" : 5126,
            "count" : 24,
            "max" : [
                8.001882553100586,
                0.05020352825522423,
                14.261653900146484
            ],
            "min" : [
                -8.001882553100586,
                -0.05020352825522423,
                -14.261653900146484
            ],
            "type" : "VEC3"
        },
        {
            "bufferView" : 1,
            "componentType" : 5126,
            "count" : 24,
            "type" : "VEC3"
        },
        {
            "bufferView" : 2,
            "componentType" : 5126,
            "count" : 24,
            "type" : "VEC2"
        },
        {
            "bufferView" : 3,
            "componentType" : 5123,
            "count" : 36,
            "type" : "SCALAR"
        },
        {
            "bufferView" : 4,
            "componentType" : 5126,
            "count" : 1292,
            "max" : [
                1.0564815998077393,
                2.836435317993164,
                14.136849403381348
            ],
            "min" : [
                -1.0702491998672485,
                -0.016265153884887695,
                -14.178452491760254
            ],
            "type" : "VEC3"
        },
        {
            "bufferView" : 5,
            "componentType" : 5126,
            "count" : 1292,
            "type" : "VEC3"
        },
        {
            "bufferView" : 6,
            "componentType" : 5126,
            "count" : 1292,
            "type" : "VEC2"
        },
        {
            "bufferView" : 7,
            "componentType" : 5123,
            "count" : 2610,
            "type" : "SCALAR"
        },
        {
            "bufferView" : 8,
            "componentType" : 5126,
            "count" : 36,
            "max" : [
                0.40304481983184814,
                2.836435317993164,
                13.386037826538086
            ],
            "min" : [
                -0.4168125092983246,
                2.0328831672668457,
                -13.427640914916992
            ],
            "type" : "VEC3"
        },
        {
            "bufferView" : 9,
            "componentType" : 5126,
            "count" : 36,
            "type" : "VEC3"
        },
        {
            "bufferView" : 10,
            "componentType" : 5126,
            "count" : 36,
            "type" : "VEC2"
        },
        {
            "bufferView" : 11,
            "componentType" : 5123,
            "count" : 54,
            "type" : "SCALAR"
        },
        {
            "bufferView" : 12,
            "componentType" : 5126,
            "count" : 640,
            "max" : [
                0.06849528104066849,
                2.5407586097717285,
                14.136849403381348
            ],
            "min" : [
                -0.08226296305656433,
                0.03207981586456299,
                -14.178452491760254
            ],
            "type" : "VEC3"
        },
        {
            "bufferView" : 13,
            "componentType" : 5126,
            "count" : 640,
            "type" : "VEC3"
        },
        {
            "bufferView" : 14,
            "componentType" : 5126,
            "count" : 640,
            "type" : "VEC2"
        },
        {
            "bufferView" : 15,
            "componentType" : 5123,
            "count" : 1128,
            "type" : "SCALAR"
        }
    ],
    "bufferViews" : [
        {
            "buffer" : 0,
            "byteLength" : 288,
            "byteOffset" : 0
        },
        {
            "buffer" : 0,
            "byteLength" : 288,
            "byteOffset" : 288
        },
        {
            "buffer" : 0,
            "byteLength" : 192,
            "byteOffset" : 576
        },
        {
            "buffer" : 0,
            "byteLength" : 72,
            "byteOffset" : 768
        },
        {
            "buffer" : 0,
            "byteLength" : 15504,
            "byteOffset" : 840
        },
        {
            "buffer" : 0,
            "byteLength" : 15504,
            "byteOffset" : 16344
        },
        {
            "buffer" : 0,
            "byteLength" : 10336,
            "byteOffset" : 31848
        },
        {
            "buffer" : 0,
            "byteLength" : 5220,
            "byteOffset" : 42184
        },
        {
            "buffer" : 0,
            "byteLength" : 432,
            "byteOffset" : 47404
        },
        {
            "buffer" : 0,
            "byteLength" : 432,
            "byteOffset" : 47836
        },
        {
            "buffer" : 0,
            "byteLength" : 288,
            "byteOffset" : 48268
        },
        {
            "buffer" : 0,
            "byteLength" : 108,
            "byteOffset" : 48556
        },
        {
            "buffer" : 0,
            "byteLength" : 7680,
            "byteOffset" : 48664
        },
        {
            "buffer" : 0,
            "byteLength" : 7680,
            "byteOffset" : 56344
        },
        {
            "buffer" : 0,
            "byteLength" : 5120,
            "byteOffset" : 64024
        },
        {
            "buffer" : 0,
            "byteLength" : 2256,
            "byteOffset" : 69144
        }
    ],
    "buffers" : [
        {
            "byteLength" : 71400,
            "uri" : "canchas.bin"
        }
    ]
}
