{
    "asset" : {
        "generator" : "Khronos glTF Blender I/O v1.5.17",
        "version" : "2.0"
    },
    "scene" : 0,
    "scenes" : [
        {
            "name" : "Scene",
            "nodes" : [
                0
            ]
        }
    ],
    "nodes" : [
        {
            "mesh" : 0,
            "name" : "Cube"
        }
    ],
    "materials" : [
        {
            "doubleSided" : true,
            "name" : "Material.003",
            "pbrMetallicRoughness" : {
                "baseColorFactor" : [
                    1,
                    0.7801129817962646,
                    0.4573880732059479,
                    1
                ],
                "metallicFactor" : 0,
                "roughnessFactor" : 0.5
            }
        },
        {
            "doubleSided" : true,
            "name" : "ventanas",
            "pbrMetallicRoughness" : {
                "baseColorFactor" : [
                    0.09530749917030334,
                    0.12743768095970154,
                    0.16826939582824707,
                    1
                ],
                "metallicFactor" : 0,
                "roughnessFactor" : 0.5
            }
        },
        {
            "doubleSided" : true,
            "name" : "puerta",
            "pbrMetallicRoughness" : {
                "baseColorFactor" : [
                    0.0273208636790514,
                    0.08650048077106476,
                    0.019382363185286522,
                    1
                ],
                "metallicFactor" : 0,
                "roughnessFactor" : 0.5
            }
        },
        {
            "doubleSided" : true,
            "name" : "Material.001",
            "pbrMetallicRoughness" : {
                "baseColorFactor" : [
                    0.6239607930183411,
                    0.623960554599762,
                    0.6239606738090515,
                    1
                ],
                "metallicFactor" : 0,
                "roughnessFactor" : 0.5
            }
        },
        {
            "doubleSided" : true,
            "name" : "Material",
            "pbrMetallicRoughness" : {
                "baseColorFactor" : [
                    0.25415220856666565,
                    0.2541520893573761,
                    0.2541521489620209,
                    1
                ],
                "metallicFactor" : 0,
                "roughnessFactor" : 0.5
            }
        },
        {
            "doubleSided" : true,
            "name" : "Material.005",
            "pbrMetallicRoughness" : {
                "baseColorFactor" : [
                    0.08437621593475342,
                    0.327778160572052,
                    0.021219022572040558,
                    1
                ],
                "metallicFactor" : 0,
                "roughnessFactor" : 0.5
            }
        },
        {
            "doubleSided" : true,
            "name" : "Material.004",
            "pbrMetallicRoughness" : {
                "baseColorFactor" : [
                    0.800000011920929,
                    0.800000011920929,
                    0.800000011920929,
                    1
                ],
                "metallicFactor" : 0,
                "roughnessFactor" : 0.5
            }
        }
    ],
    "meshes" : [
        {
            "name" : "Cube.003",
            "primitives" : [
                {
                    "attributes" : {
                        "POSITION" : 0,
                        "NORMAL" : 1,
                        "TEXCOORD_0" : 2
                    },
                    "indices" : 3,
                    "material" : 0
                },
                {
                    "attributes" : {
                        "POSITION" : 4,
                        "NORMAL" : 5,
                        "TEXCOORD_0" : 6
                    },
                    "indices" : 7,
                    "material" : 1
                },
                {
                    "attributes" : {
                        "POSITION" : 8,
                        "NORMAL" : 9,
                        "TEXCOORD_0" : 10
                    },
                    "indices" : 11,
                    "material" : 2
                },
                {
                    "attributes" : {
                        "POSITION" : 12,
                        "NORMAL" : 13,
                        "TEXCOORD_0" : 14
                    },
                    "indices" : 15,
                    "material" : 3
                },
                {
                    "attributes" : {
                        "POSITION" : 16,
                        "NORMAL" : 17,
                        "TEXCOORD_0" : 18
                    },
                    "indices" : 19,
                    "material" : 4
                },
                {
                    "attributes" : {
                        "POSITION" : 20,
                        "NORMAL" : 21,
                        "TEXCOORD_0" : 22
                    },
                    "indices" : 23,
                    "material" : 5
                },
                {
                    "attributes" : {
                        "POSITION" : 24,
                        "NORMAL" : 25,
                        "TEXCOORD_0" : 26
                    },
                    "indices" : 27,
                    "material" : 6
                }
            ]
        }
    ],
    "accessors" : [
        {
            "bufferView" : 0,
            "componentType" : 5126,
            "count" : 862,
            "max" : [
                3.0742180347442627,
                2.630250930786133,
                7.556379318237305
            ],
            "min" : [
                -3.1448988914489746,
                -1.5,
                -7.584877014160156
            ],
            "type" : "VEC3"
        },
        {
            "bufferView" : 1,
            "componentType" : 5126,
            "count" : 862,
            "type" : "VEC3"
        },
        {
            "bufferView" : 2,
            "componentType" : 5126,
            "count" : 862,
            "type" : "VEC2"
        },
        {
            "bufferView" : 3,
            "componentType" : 5123,
            "count" : 2088,
            "type" : "SCALAR"
        },
        {
            "bufferView" : 4,
            "componentType" : 5126,
            "count" : 32,
            "max" : [
                2.8714940547943115,
                0.9924609065055847,
                7.408321857452393
            ],
            "min" : [
                -2.9202728271484375,
                -0.28617143630981445,
                -6.122954368591309
            ],
            "type" : "VEC3"
        },
        {
            "bufferView" : 5,
            "componentType" : 5126,
            "count" : 32,
            "type" : "VEC3"
        },
        {
            "bufferView" : 6,
            "componentType" : 5126,
            "count" : 32,
            "type" : "VEC2"
        },
        {
            "bufferView" : 7,
            "componentType" : 5123,
            "count" : 48,
            "type" : "SCALAR"
        },
        {
            "bufferView" : 8,
            "componentType" : 5126,
            "count" : 6,
            "max" : [
                0.5202975869178772,
                0.6496478915214539,
                7.394440174102783
            ],
            "min" : [
                -0.5837410688400269,
                -1.5,
                7.394440174102783
            ],
            "type" : "VEC3"
        },
        {
            "bufferView" : 9,
            "componentType" : 5126,
            "count" : 6,
            "type" : "VEC3"
        },
        {
            "bufferView" : 10,
            "componentType" : 5126,
            "count" : 6,
            "type" : "VEC2"
        },
        {
            "bufferView" : 11,
            "componentType" : 5123,
            "count" : 12,
            "type" : "SCALAR"
        },
        {
            "bufferView" : 12,
            "componentType" : 5126,
            "count" : 40,
            "max" : [
                3.2690088748931885,
                2.7504019737243652,
                7.709723472595215
            ],
            "min" : [
                -3.411705732345581,
                1.3481205701828003,
                -7.709723472595215
            ],
            "type" : "VEC3"
        },
        {
            "bufferView" : 13,
            "componentType" : 5126,
            "count" : 40,
            "type" : "VEC3"
        },
        {
            "bufferView" : 14,
            "componentType" : 5126,
            "count" : 40,
            "type" : "VEC2"
        },
        {
            "bufferView" : 15,
            "componentType" : 5123,
            "count" : 60,
            "type" : "SCALAR"
        },
        {
            "bufferView" : 16,
            "componentType" : 5126,
            "count" : 24,
            "max" : [
                3.8475406169891357,
                -1.51128089427948,
                8.213878631591797
            ],
            "min" : [
                -3.8475406169891357,
                -1.586848258972168,
                -8.213878631591797
            ],
            "type" : "VEC3"
        },
        {
            "bufferView" : 17,
            "componentType" : 5126,
            "count" : 24,
            "type" : "VEC3"
        },
        {
            "bufferView" : 18,
            "componentType" : 5126,
            "count" : 24,
            "type" : "VEC2"
        },
        {
            "bufferView" : 19,
            "componentType" : 5123,
            "count" : 36,
            "type" : "SCALAR"
        },
        {
            "bufferView" : 20,
            "componentType" : 5126,
            "count" : 8,
            "max" : [
                2.040083646774292,
                0.8932163715362549,
                7.498833656311035
            ],
            "min" : [
                -0.7878943681716919,
                -1.0663306713104248,
                -7.50550651550293
            ],
            "type" : "VEC3"
        },
        {
            "bufferView" : 21,
            "componentType" : 5126,
            "count" : 8,
            "type" : "VEC3"
        },
        {
            "bufferView" : 22,
            "componentType" : 5126,
            "count" : 8,
            "type" : "VEC2"
        },
        {
            "bufferView" : 23,
            "componentType" : 5123,
            "count" : 12,
            "type" : "SCALAR"
        },
        {
            "bufferView" : 24,
            "componentType" : 5126,
            "count" : 511,
            "max" : [
                1.9670617580413818,
                0.5945086479187012,
                7.499414920806885
            ],
            "min" : [
                -0.6572521924972534,
                -0.9036784172058105,
                -7.506546974182129
            ],
            "type" : "VEC3"
        },
        {
            "bufferView" : 25,
            "componentType" : 5126,
            "count" : 511,
            "type" : "VEC3"
        },
        {
            "bufferView" : 26,
            "componentType" : 5126,
            "count" : 511,
            "type" : "VEC2"
        },
        {
            "bufferView" : 27,
            "componentType" : 5123,
            "count" : 588,
            "type" : "SCALAR"
        }
    ],
    "bufferViews" : [
        {
            "buffer" : 0,
            "byteLength" : 10344,
            "byteOffset" : 0
        },
        {
            "buffer" : 0,
            "byteLength" : 10344,
            "byteOffset" : 10344
        },
        {
            "buffer" : 0,
            "byteLength" : 6896,
            "byteOffset" : 20688
        },
        {
            "buffer" : 0,
            "byteLength" : 4176,
            "byteOffset" : 27584
        },
        {
            "buffer" : 0,
            "byteLength" : 384,
            "byteOffset" : 31760
        },
        {
            "buffer" : 0,
            "byteLength" : 384,
            "byteOffset" : 32144
        },
        {
            "buffer" : 0,
            "byteLength" : 256,
            "byteOffset" : 32528
        },
        {
            "buffer" : 0,
            "byteLength" : 96,
            "byteOffset" : 32784
        },
        {
            "buffer" : 0,
            "byteLength" : 72,
            "byteOffset" : 32880
        },
        {
            "buffer" : 0,
            "byteLength" : 72,
            "byteOffset" : 32952
        },
        {
            "buffer" : 0,
            "byteLength" : 48,
            "byteOffset" : 33024
        },
        {
            "buffer" : 0,
            "byteLength" : 24,
            "byteOffset" : 33072
        },
        {
            "buffer" : 0,
            "byteLength" : 480,
            "byteOffset" : 33096
        },
        {
            "buffer" : 0,
            "byteLength" : 480,
            "byteOffset" : 33576
        },
        {
            "buffer" : 0,
            "byteLength" : 320,
            "byteOffset" : 34056
        },
        {
            "buffer" : 0,
            "byteLength" : 120,
            "byteOffset" : 34376
        },
        {
            "buffer" : 0,
            "byteLength" : 288,
            "byteOffset" : 34496
        },
        {
            "buffer" : 0,
            "byteLength" : 288,
            "byteOffset" : 34784
        },
        {
            "buffer" : 0,
            "byteLength" : 192,
            "byteOffset" : 35072
        },
        {
            "buffer" : 0,
            "byteLength" : 72,
            "byteOffset" : 35264
        },
        {
            "buffer" : 0,
            "byteLength" : 96,
            "byteOffset" : 35336
        },
        {
            "buffer" : 0,
            "byteLength" : 96,
            "byteOffset" : 35432
        },
        {
            "buffer" : 0,
            "byteLength" : 64,
            "byteOffset" : 35528
        },
        {
            "buffer" : 0,
            "byteLength" : 24,
            "byteOffset" : 35592
        },
        {
            "buffer" : 0,
            "byteLength" : 6132,
            "byteOffset" : 35616
        },
        {
            "buffer" : 0,
            "byteLength" : 6132,
            "byteOffset" : 41748
        },
        {
            "buffer" : 0,
            "byteLength" : 4088,
            "byteOffset" : 47880
        },
        {
            "buffer" : 0,
            "byteLength" : 1176,
            "byteOffset" : 51968
        }
    ],
    "buffers" : [
        {
            "byteLength" : 53144,
            "uri" : "c1.bin"
        }
    ]
}
