{
    "asset" : {
        "generator" : "Khronos glTF Blender I/O v1.5.17",
        "version" : "2.0"
    },
    "scene" : 0,
    "scenes" : [
        {
            "name" : "Scene",
            "nodes" : [
                0
            ]
        }
    ],
    "nodes" : [
        {
            "mesh" : 0,
            "name" : "Cube"
        }
    ],
    "materials" : [
        {
            "doubleSided" : true,
            "name" : "verde",
            "pbrMetallicRoughness" : {
                "baseColorFactor" : [
                    0.06124604120850563,
                    0.20507879555225372,
                    0.042311422526836395,
                    1
                ],
                "metallicFactor" : 0,
                "roughnessFactor" : 0.5
            }
        },
        {
            "doubleSided" : true,
            "name" : "Material.003",
            "pbrMetallicRoughness" : {
                "baseColorFactor" : [
                    1,
                    0.7801129817962646,
                    0.4573880732059479,
                    1
                ],
                "metallicFactor" : 0,
                "roughnessFactor" : 0.5
            }
        },
        {
            "doubleSided" : true,
            "name" : "puertaverde",
            "pbrMetallicRoughness" : {
                "baseColorFactor" : [
                    0.0273208636790514,
                    0.08650048077106476,
                    0.019382363185286522,
                    1
                ],
                "metallicFactor" : 0,
                "roughnessFactor" : 0.5
            }
        },
        {
            "doubleSided" : true,
            "name" : "ventana",
            "pbrMetallicRoughness" : {
                "baseColorFactor" : [
                    0.09530749917030334,
                    0.12743768095970154,
                    0.16826939582824707,
                    1
                ],
                "metallicFactor" : 0,
                "roughnessFactor" : 0.5
            }
        },
        {
            "doubleSided" : true,
            "name" : "Material.001",
            "pbrMetallicRoughness" : {
                "baseColorFactor" : [
                    0.08650048822164536,
                    0.009721209295094013,
                    0.012983033433556557,
                    1
                ],
                "metallicFactor" : 0,
                "roughnessFactor" : 0.5
            }
        },
        {
            "doubleSided" : true,
            "name" : "Material",
            "pbrMetallicRoughness" : {
                "baseColorFactor" : [
                    0.25415220856666565,
                    0.2541520893573761,
                    0.2541521489620209,
                    1
                ],
                "metallicFactor" : 0,
                "roughnessFactor" : 0.5
            }
        },
        {
            "doubleSided" : true,
            "name" : "Material.004",
            "pbrMetallicRoughness" : {
                "baseColorFactor" : [
                    0.08437621593475342,
                    0.327778160572052,
                    0.021219022572040558,
                    1
                ],
                "metallicFactor" : 0,
                "roughnessFactor" : 0.5
            }
        },
        {
            "doubleSided" : true,
            "name" : "Material.002",
            "pbrMetallicRoughness" : {
                "baseColorFactor" : [
                    0.800000011920929,
                    0.800000011920929,
                    0.800000011920929,
                    1
                ],
                "metallicFactor" : 0,
                "roughnessFactor" : 0.5
            }
        }
    ],
    "meshes" : [
        {
            "name" : "Cube.003",
            "primitives" : [
                {
                    "attributes" : {
                        "POSITION" : 0,
                        "NORMAL" : 1,
                        "TEXCOORD_0" : 2
                    },
                    "indices" : 3,
                    "material" : 0
                },
                {
                    "attributes" : {
                        "POSITION" : 4,
                        "NORMAL" : 5,
                        "TEXCOORD_0" : 6
                    },
                    "indices" : 7,
                    "material" : 1
                },
                {
                    "attributes" : {
                        "POSITION" : 8,
                        "NORMAL" : 9,
                        "TEXCOORD_0" : 10
                    },
                    "indices" : 11,
                    "material" : 2
                },
                {
                    "attributes" : {
                        "POSITION" : 12,
                        "NORMAL" : 13,
                        "TEXCOORD_0" : 14
                    },
                    "indices" : 15,
                    "material" : 3
                },
                {
                    "attributes" : {
                        "POSITION" : 16,
                        "NORMAL" : 17,
                        "TEXCOORD_0" : 18
                    },
                    "indices" : 19,
                    "material" : 4
                },
                {
                    "attributes" : {
                        "POSITION" : 20,
                        "NORMAL" : 21,
                        "TEXCOORD_0" : 22
                    },
                    "indices" : 23,
                    "material" : 5
                },
                {
                    "attributes" : {
                        "POSITION" : 24,
                        "NORMAL" : 25,
                        "TEXCOORD_0" : 26
                    },
                    "indices" : 27,
                    "material" : 6
                },
                {
                    "attributes" : {
                        "POSITION" : 28,
                        "NORMAL" : 29,
                        "TEXCOORD_0" : 30
                    },
                    "indices" : 31,
                    "material" : 7
                }
            ]
        }
    ],
    "accessors" : [
        {
            "bufferView" : 0,
            "componentType" : 5126,
            "count" : 186,
            "max" : [
                3.888622522354126,
                -1.100083589553833,
                15.130622863769531
            ],
            "min" : [
                -3.8908114433288574,
                -1.5,
                -15.1707763671875
            ],
            "type" : "VEC3"
        },
        {
            "bufferView" : 1,
            "componentType" : 5126,
            "count" : 186,
            "type" : "VEC3"
        },
        {
            "bufferView" : 2,
            "componentType" : 5126,
            "count" : 186,
            "type" : "VEC2"
        },
        {
            "bufferView" : 3,
            "componentType" : 5123,
            "count" : 336,
            "type" : "SCALAR"
        },
        {
            "bufferView" : 4,
            "componentType" : 5126,
            "count" : 778,
            "max" : [
                3.888622522354126,
                2.630250930786133,
                15.130622863769531
            ],
            "min" : [
                -3.8908114433288574,
                -1.5,
                -15.1707763671875
            ],
            "type" : "VEC3"
        },
        {
            "bufferView" : 5,
            "componentType" : 5126,
            "count" : 778,
            "type" : "VEC3"
        },
        {
            "bufferView" : 6,
            "componentType" : 5126,
            "count" : 778,
            "type" : "VEC2"
        },
        {
            "bufferView" : 7,
            "componentType" : 5123,
            "count" : 1728,
            "type" : "SCALAR"
        },
        {
            "bufferView" : 8,
            "componentType" : 5126,
            "count" : 30,
            "max" : [
                3.5909762382507324,
                0.44906461238861084,
                11.332913398742676
            ],
            "min" : [
                -3.62441349029541,
                -1.5,
                -11.352904319763184
            ],
            "type" : "VEC3"
        },
        {
            "bufferView" : 9,
            "componentType" : 5126,
            "count" : 30,
            "type" : "VEC3"
        },
        {
            "bufferView" : 10,
            "componentType" : 5126,
            "count" : 30,
            "type" : "VEC2"
        },
        {
            "bufferView" : 11,
            "componentType" : 5123,
            "count" : 60,
            "type" : "SCALAR"
        },
        {
            "bufferView" : 12,
            "componentType" : 5126,
            "count" : 20,
            "max" : [
                3.5892763137817383,
                0.44906461238861084,
                7.272253036499023
            ],
            "min" : [
                3.5892763137817383,
                -0.28718239068984985,
                -9.396074295043945
            ],
            "type" : "VEC3"
        },
        {
            "bufferView" : 13,
            "componentType" : 5126,
            "count" : 20,
            "type" : "VEC3"
        },
        {
            "bufferView" : 14,
            "componentType" : 5126,
            "count" : 20,
            "type" : "VEC2"
        },
        {
            "bufferView" : 15,
            "componentType" : 5123,
            "count" : 30,
            "type" : "SCALAR"
        },
        {
            "bufferView" : 16,
            "componentType" : 5126,
            "count" : 40,
            "max" : [
                4.592599391937256,
                2.7504019737243652,
                15.684557914733887
            ],
            "min" : [
                -4.592599391937256,
                1.2851146459579468,
                -15.684557914733887
            ],
            "type" : "VEC3"
        },
        {
            "bufferView" : 17,
            "componentType" : 5126,
            "count" : 40,
            "type" : "VEC3"
        },
        {
            "bufferView" : 18,
            "componentType" : 5126,
            "count" : 40,
            "type" : "VEC2"
        },
        {
            "bufferView" : 19,
            "componentType" : 5123,
            "count" : 60,
            "type" : "SCALAR"
        },
        {
            "bufferView" : 20,
            "componentType" : 5126,
            "count" : 24,
            "max" : [
                5.013199806213379,
                -1.503338098526001,
                16.14259910583496
            ],
            "min" : [
                -5.013199806213379,
                -1.5582901239395142,
                -16.14259910583496
            ],
            "type" : "VEC3"
        },
        {
            "bufferView" : 21,
            "componentType" : 5126,
            "count" : 24,
            "type" : "VEC3"
        },
        {
            "bufferView" : 22,
            "componentType" : 5126,
            "count" : 24,
            "type" : "VEC2"
        },
        {
            "bufferView" : 23,
            "componentType" : 5123,
            "count" : 36,
            "type" : "SCALAR"
        },
        {
            "bufferView" : 24,
            "componentType" : 5126,
            "count" : 8,
            "max" : [
                1,
                1.4944404363632202,
                15.020453453063965
            ],
            "min" : [
                -1,
                -0.5055595636367798,
                -15.003495216369629
            ],
            "type" : "VEC3"
        },
        {
            "bufferView" : 25,
            "componentType" : 5126,
            "count" : 8,
            "type" : "VEC3"
        },
        {
            "bufferView" : 26,
            "componentType" : 5126,
            "count" : 8,
            "type" : "VEC2"
        },
        {
            "bufferView" : 27,
            "componentType" : 5123,
            "count" : 12,
            "type" : "SCALAR"
        },
        {
            "bufferView" : 28,
            "componentType" : 5126,
            "count" : 1232,
            "max" : [
                0.8781706094741821,
                1.0942646265029907,
                15.021771430969238
            ],
            "min" : [
                -0.8781706094741821,
                -0.01425236463546753,
                -15.004813194274902
            ],
            "type" : "VEC3"
        },
        {
            "bufferView" : 29,
            "componentType" : 5126,
            "count" : 1232,
            "type" : "VEC3"
        },
        {
            "bufferView" : 30,
            "componentType" : 5126,
            "count" : 1232,
            "type" : "VEC2"
        },
        {
            "bufferView" : 31,
            "componentType" : 5123,
            "count" : 1446,
            "type" : "SCALAR"
        }
    ],
    "bufferViews" : [
        {
            "buffer" : 0,
            "byteLength" : 2232,
            "byteOffset" : 0
        },
        {
            "buffer" : 0,
            "byteLength" : 2232,
            "byteOffset" : 2232
        },
        {
            "buffer" : 0,
            "byteLength" : 1488,
            "byteOffset" : 4464
        },
        {
            "buffer" : 0,
            "byteLength" : 672,
            "byteOffset" : 5952
        },
        {
            "buffer" : 0,
            "byteLength" : 9336,
            "byteOffset" : 6624
        },
        {
            "buffer" : 0,
            "byteLength" : 9336,
            "byteOffset" : 15960
        },
        {
            "buffer" : 0,
            "byteLength" : 6224,
            "byteOffset" : 25296
        },
        {
            "buffer" : 0,
            "byteLength" : 3456,
            "byteOffset" : 31520
        },
        {
            "buffer" : 0,
            "byteLength" : 360,
            "byteOffset" : 34976
        },
        {
            "buffer" : 0,
            "byteLength" : 360,
            "byteOffset" : 35336
        },
        {
            "buffer" : 0,
            "byteLength" : 240,
            "byteOffset" : 35696
        },
        {
            "buffer" : 0,
            "byteLength" : 120,
            "byteOffset" : 35936
        },
        {
            "buffer" : 0,
            "byteLength" : 240,
            "byteOffset" : 36056
        },
        {
            "buffer" : 0,
            "byteLength" : 240,
            "byteOffset" : 36296
        },
        {
            "buffer" : 0,
            "byteLength" : 160,
            "byteOffset" : 36536
        },
        {
            "buffer" : 0,
            "byteLength" : 60,
            "byteOffset" : 36696
        },
        {
            "buffer" : 0,
            "byteLength" : 480,
            "byteOffset" : 36756
        },
        {
            "buffer" : 0,
            "byteLength" : 480,
            "byteOffset" : 37236
        },
        {
            "buffer" : 0,
            "byteLength" : 320,
            "byteOffset" : 37716
        },
        {
            "buffer" : 0,
            "byteLength" : 120,
            "byteOffset" : 38036
        },
        {
            "buffer" : 0,
            "byteLength" : 288,
            "byteOffset" : 38156
        },
        {
            "buffer" : 0,
            "byteLength" : 288,
            "byteOffset" : 38444
        },
        {
            "buffer" : 0,
            "byteLength" : 192,
            "byteOffset" : 38732
        },
        {
            "buffer" : 0,
            "byteLength" : 72,
            "byteOffset" : 38924
        },
        {
            "buffer" : 0,
            "byteLength" : 96,
            "byteOffset" : 38996
        },
        {
            "buffer" : 0,
            "byteLength" : 96,
            "byteOffset" : 39092
        },
        {
            "buffer" : 0,
            "byteLength" : 64,
            "byteOffset" : 39188
        },
        {
            "buffer" : 0,
            "byteLength" : 24,
            "byteOffset" : 39252
        },
        {
            "buffer" : 0,
            "byteLength" : 14784,
            "byteOffset" : 39276
        },
        {
            "buffer" : 0,
            "byteLength" : 14784,
            "byteOffset" : 54060
        },
        {
            "buffer" : 0,
            "byteLength" : 9856,
            "byteOffset" : 68844
        },
        {
            "buffer" : 0,
            "byteLength" : 2892,
            "byteOffset" : 78700
        }
    ],
    "buffers" : [
        {
            "byteLength" : 81592,
            "uri" : "c3.bin"
        }
    ]
}
