{
    "asset" : {
        "generator" : "Khronos glTF Blender I/O v1.5.17",
        "version" : "2.0"
    },
    "scene" : 0,
    "scenes" : [
        {
            "name" : "Scene",
            "nodes" : [
                0
            ]
        }
    ],
    "nodes" : [
        {
            "mesh" : 0,
            "name" : "Cube"
        }
    ],
    "materials" : [
        {
            "doubleSided" : true,
            "name" : "Material.002",
            "pbrMetallicRoughness" : {
                "baseColorFactor" : [
                    0.7991032600402832,
                    0.23073998093605042,
                    0.11443543434143066,
                    1
                ],
                "metallicFactor" : 0,
                "roughnessFactor" : 0.5
            }
        },
        {
            "doubleSided" : true,
            "name" : "Material.003",
            "pbrMetallicRoughness" : {
                "baseColorFactor" : [
                    1,
                    0.7801129817962646,
                    0.4573880732059479,
                    1
                ],
                "metallicFactor" : 0,
                "roughnessFactor" : 0.5
            }
        },
        {
            "doubleSided" : true,
            "name" : "puerta",
            "pbrMetallicRoughness" : {
                "baseColorFactor" : [
                    0.2874408960342407,
                    0.12213876843452454,
                    0.02028856799006462,
                    1
                ],
                "metallicFactor" : 0,
                "roughnessFactor" : 0.5
            }
        },
        {
            "doubleSided" : true,
            "name" : "puerta2",
            "pbrMetallicRoughness" : {
                "baseColorFactor" : [
                    0.2874408960342407,
                    0.12213876843452454,
                    0.02028856799006462,
                    1
                ],
                "metallicFactor" : 0,
                "roughnessFactor" : 0.5
            }
        },
        {
            "doubleSided" : true,
            "name" : "ventana",
            "pbrMetallicRoughness" : {
                "baseColorFactor" : [
                    0.09530749917030334,
                    0.12743768095970154,
                    0.16826939582824707,
                    1
                ],
                "metallicFactor" : 0,
                "roughnessFactor" : 0.5
            }
        },
        {
            "doubleSided" : true,
            "name" : "Material.001",
            "pbrMetallicRoughness" : {
                "baseColorFactor" : [
                    0.08650048822164536,
                    0.009721209295094013,
                    0.012983033433556557,
                    1
                ],
                "metallicFactor" : 0,
                "roughnessFactor" : 0.5
            }
        },
        {
            "doubleSided" : true,
            "name" : "Material",
            "pbrMetallicRoughness" : {
                "baseColorFactor" : [
                    0.25415220856666565,
                    0.2541520893573761,
                    0.2541521489620209,
                    1
                ],
                "metallicFactor" : 0,
                "roughnessFactor" : 0.5
            }
        },
        {
            "doubleSided" : true,
            "name" : "Material.005",
            "pbrMetallicRoughness" : {
                "baseColorFactor" : [
                    0.08437621593475342,
                    0.327778160572052,
                    0.021219022572040558,
                    1
                ],
                "metallicFactor" : 0,
                "roughnessFactor" : 0.5
            }
        },
        {
            "doubleSided" : true,
            "name" : "Material.004",
            "pbrMetallicRoughness" : {
                "baseColorFactor" : [
                    0.800000011920929,
                    0.800000011920929,
                    0.800000011920929,
                    1
                ],
                "metallicFactor" : 0,
                "roughnessFactor" : 0.5
            }
        }
    ],
    "meshes" : [
        {
            "name" : "Cube.003",
            "primitives" : [
                {
                    "attributes" : {
                        "POSITION" : 0,
                        "NORMAL" : 1,
                        "TEXCOORD_0" : 2
                    },
                    "indices" : 3,
                    "material" : 0
                },
                {
                    "attributes" : {
                        "POSITION" : 4,
                        "NORMAL" : 5,
                        "TEXCOORD_0" : 6
                    },
                    "indices" : 7,
                    "material" : 1
                },
                {
                    "attributes" : {
                        "POSITION" : 8,
                        "NORMAL" : 9,
                        "TEXCOORD_0" : 10
                    },
                    "indices" : 11,
                    "material" : 2
                },
                {
                    "attributes" : {
                        "POSITION" : 12,
                        "NORMAL" : 13,
                        "TEXCOORD_0" : 14
                    },
                    "indices" : 15,
                    "material" : 3
                },
                {
                    "attributes" : {
                        "POSITION" : 16,
                        "NORMAL" : 17,
                        "TEXCOORD_0" : 18
                    },
                    "indices" : 19,
                    "material" : 4
                },
                {
                    "attributes" : {
                        "POSITION" : 20,
                        "NORMAL" : 21,
                        "TEXCOORD_0" : 22
                    },
                    "indices" : 23,
                    "material" : 5
                },
                {
                    "attributes" : {
                        "POSITION" : 24,
                        "NORMAL" : 25,
                        "TEXCOORD_0" : 26
                    },
                    "indices" : 27,
                    "material" : 6
                },
                {
                    "attributes" : {
                        "POSITION" : 28,
                        "NORMAL" : 29,
                        "TEXCOORD_0" : 30
                    },
                    "indices" : 31,
                    "material" : 7
                },
                {
                    "attributes" : {
                        "POSITION" : 32,
                        "NORMAL" : 33,
                        "TEXCOORD_0" : 34
                    },
                    "indices" : 35,
                    "material" : 8
                }
            ]
        }
    ],
    "accessors" : [
        {
            "bufferView" : 0,
            "componentType" : 5126,
            "count" : 454,
            "max" : [
                3.888622522354126,
                2.630250930786133,
                15.130622863769531
            ],
            "min" : [
                -3.8908114433288574,
                -1.5,
                -15.1707763671875
            ],
            "type" : "VEC3"
        },
        {
            "bufferView" : 1,
            "componentType" : 5126,
            "count" : 454,
            "type" : "VEC3"
        },
        {
            "bufferView" : 2,
            "componentType" : 5126,
            "count" : 454,
            "type" : "VEC2"
        },
        {
            "bufferView" : 3,
            "componentType" : 5123,
            "count" : 1098,
            "type" : "SCALAR"
        },
        {
            "bufferView" : 4,
            "componentType" : 5126,
            "count" : 516,
            "max" : [
                3.75,
                2.630250930786133,
                15
            ],
            "min" : [
                -3.75,
                -1.5,
                -15
            ],
            "type" : "VEC3"
        },
        {
            "bufferView" : 5,
            "componentType" : 5126,
            "count" : 516,
            "type" : "VEC3"
        },
        {
            "bufferView" : 6,
            "componentType" : 5126,
            "count" : 516,
            "type" : "VEC2"
        },
        {
            "bufferView" : 7,
            "componentType" : 5123,
            "count" : 942,
            "type" : "SCALAR"
        },
        {
            "bufferView" : 8,
            "componentType" : 5126,
            "count" : 12,
            "max" : [
                3.6078896522521973,
                1.0224368572235107,
                -10.870930671691895
            ],
            "min" : [
                -3.597270965576172,
                -1.5,
                -11.969331741333008
            ],
            "type" : "VEC3"
        },
        {
            "bufferView" : 9,
            "componentType" : 5126,
            "count" : 12,
            "type" : "VEC3"
        },
        {
            "bufferView" : 10,
            "componentType" : 5126,
            "count" : 12,
            "type" : "VEC2"
        },
        {
            "bufferView" : 11,
            "componentType" : 5123,
            "count" : 24,
            "type" : "SCALAR"
        },
        {
            "bufferView" : 12,
            "componentType" : 5126,
            "count" : 6,
            "max" : [
                -2.8088159561157227,
                1.1340632438659668,
                9.717845916748047
            ],
            "min" : [
                -2.8088159561157227,
                -1.5,
                7.212210655212402
            ],
            "type" : "VEC3"
        },
        {
            "bufferView" : 13,
            "componentType" : 5126,
            "count" : 6,
            "type" : "VEC3"
        },
        {
            "bufferView" : 14,
            "componentType" : 5126,
            "count" : 6,
            "type" : "VEC2"
        },
        {
            "bufferView" : 15,
            "componentType" : 5123,
            "count" : 12,
            "type" : "SCALAR"
        },
        {
            "bufferView" : 16,
            "componentType" : 5126,
            "count" : 48,
            "max" : [
                3.5990171432495117,
                1.1340632438659668,
                13.460721969604492
            ],
            "min" : [
                -3.6026451587677,
                -0.40935245156288147,
                -9.819175720214844
            ],
            "type" : "VEC3"
        },
        {
            "bufferView" : 17,
            "componentType" : 5126,
            "count" : 48,
            "type" : "VEC3"
        },
        {
            "bufferView" : 18,
            "componentType" : 5126,
            "count" : 48,
            "type" : "VEC2"
        },
        {
            "bufferView" : 19,
            "componentType" : 5123,
            "count" : 72,
            "type" : "SCALAR"
        },
        {
            "bufferView" : 20,
            "componentType" : 5126,
            "count" : 40,
            "max" : [
                4.592599391937256,
                2.7504019737243652,
                15.684557914733887
            ],
            "min" : [
                -4.592599391937256,
                1.2851146459579468,
                -15.684557914733887
            ],
            "type" : "VEC3"
        },
        {
            "bufferView" : 21,
            "componentType" : 5126,
            "count" : 40,
            "type" : "VEC3"
        },
        {
            "bufferView" : 22,
            "componentType" : 5126,
            "count" : 40,
            "type" : "VEC2"
        },
        {
            "bufferView" : 23,
            "componentType" : 5123,
            "count" : 60,
            "type" : "SCALAR"
        },
        {
            "bufferView" : 24,
            "componentType" : 5126,
            "count" : 24,
            "max" : [
                5.013199806213379,
                -1.5030542612075806,
                16.14259910583496
            ],
            "min" : [
                -5.013199806213379,
                -1.5542482137680054,
                -16.14259910583496
            ],
            "type" : "VEC3"
        },
        {
            "bufferView" : 25,
            "componentType" : 5126,
            "count" : 24,
            "type" : "VEC3"
        },
        {
            "bufferView" : 26,
            "componentType" : 5126,
            "count" : 24,
            "type" : "VEC2"
        },
        {
            "bufferView" : 27,
            "componentType" : 5123,
            "count" : 36,
            "type" : "SCALAR"
        },
        {
            "bufferView" : 28,
            "componentType" : 5126,
            "count" : 8,
            "max" : [
                1,
                1.3486552238464355,
                15.009190559387207
            ],
            "min" : [
                -1,
                -0.6513447761535645,
                -15.012286186218262
            ],
            "type" : "VEC3"
        },
        {
            "bufferView" : 29,
            "componentType" : 5126,
            "count" : 8,
            "type" : "VEC3"
        },
        {
            "bufferView" : 30,
            "componentType" : 5126,
            "count" : 8,
            "type" : "VEC2"
        },
        {
            "bufferView" : 31,
            "componentType" : 5123,
            "count" : 12,
            "type" : "SCALAR"
        },
        {
            "bufferView" : 32,
            "componentType" : 5126,
            "count" : 892,
            "max" : [
                0.8840889930725098,
                0.9775732755661011,
                15.024399757385254
            ],
            "min" : [
                -0.8840889930725098,
                -0.13932615518569946,
                -15.027495384216309
            ],
            "type" : "VEC3"
        },
        {
            "bufferView" : 33,
            "componentType" : 5126,
            "count" : 892,
            "type" : "VEC3"
        },
        {
            "bufferView" : 34,
            "componentType" : 5126,
            "count" : 892,
            "type" : "VEC2"
        },
        {
            "bufferView" : 35,
            "componentType" : 5123,
            "count" : 1032,
            "type" : "SCALAR"
        }
    ],
    "bufferViews" : [
        {
            "buffer" : 0,
            "byteLength" : 5448,
            "byteOffset" : 0
        },
        {
            "buffer" : 0,
            "byteLength" : 5448,
            "byteOffset" : 5448
        },
        {
            "buffer" : 0,
            "byteLength" : 3632,
            "byteOffset" : 10896
        },
        {
            "buffer" : 0,
            "byteLength" : 2196,
            "byteOffset" : 14528
        },
        {
            "buffer" : 0,
            "byteLength" : 6192,
            "byteOffset" : 16724
        },
        {
            "buffer" : 0,
            "byteLength" : 6192,
            "byteOffset" : 22916
        },
        {
            "buffer" : 0,
            "byteLength" : 4128,
            "byteOffset" : 29108
        },
        {
            "buffer" : 0,
            "byteLength" : 1884,
            "byteOffset" : 33236
        },
        {
            "buffer" : 0,
            "byteLength" : 144,
            "byteOffset" : 35120
        },
        {
            "buffer" : 0,
            "byteLength" : 144,
            "byteOffset" : 35264
        },
        {
            "buffer" : 0,
            "byteLength" : 96,
            "byteOffset" : 35408
        },
        {
            "buffer" : 0,
            "byteLength" : 48,
            "byteOffset" : 35504
        },
        {
            "buffer" : 0,
            "byteLength" : 72,
            "byteOffset" : 35552
        },
        {
            "buffer" : 0,
            "byteLength" : 72,
            "byteOffset" : 35624
        },
        {
            "buffer" : 0,
            "byteLength" : 48,
            "byteOffset" : 35696
        },
        {
            "buffer" : 0,
            "byteLength" : 24,
            "byteOffset" : 35744
        },
        {
            "buffer" : 0,
            "byteLength" : 576,
            "byteOffset" : 35768
        },
        {
            "buffer" : 0,
            "byteLength" : 576,
            "byteOffset" : 36344
        },
        {
            "buffer" : 0,
            "byteLength" : 384,
            "byteOffset" : 36920
        },
        {
            "buffer" : 0,
            "byteLength" : 144,
            "byteOffset" : 37304
        },
        {
            "buffer" : 0,
            "byteLength" : 480,
            "byteOffset" : 37448
        },
        {
            "buffer" : 0,
            "byteLength" : 480,
            "byteOffset" : 37928
        },
        {
            "buffer" : 0,
            "byteLength" : 320,
            "byteOffset" : 38408
        },
        {
            "buffer" : 0,
            "byteLength" : 120,
            "byteOffset" : 38728
        },
        {
            "buffer" : 0,
            "byteLength" : 288,
            "byteOffset" : 38848
        },
        {
            "buffer" : 0,
            "byteLength" : 288,
            "byteOffset" : 39136
        },
        {
            "buffer" : 0,
            "byteLength" : 192,
            "byteOffset" : 39424
        },
        {
            "buffer" : 0,
            "byteLength" : 72,
            "byteOffset" : 39616
        },
        {
            "buffer" : 0,
            "byteLength" : 96,
            "byteOffset" : 39688
        },
        {
            "buffer" : 0,
            "byteLength" : 96,
            "byteOffset" : 39784
        },
        {
            "buffer" : 0,
            "byteLength" : 64,
            "byteOffset" : 39880
        },
        {
            "buffer" : 0,
            "byteLength" : 24,
            "byteOffset" : 39944
        },
        {
            "buffer" : 0,
            "byteLength" : 10704,
            "byteOffset" : 39968
        },
        {
            "buffer" : 0,
            "byteLength" : 10704,
            "byteOffset" : 50672
        },
        {
            "buffer" : 0,
            "byteLength" : 7136,
            "byteOffset" : 61376
        },
        {
            "buffer" : 0,
            "byteLength" : 2064,
            "byteOffset" : 68512
        }
    ],
    "buffers" : [
        {
            "byteLength" : 70576,
            "uri" : "c5.bin"
        }
    ]
}
