{
    "asset" : {
        "generator" : "Khronos glTF Blender I/O v1.5.17",
        "version" : "2.0"
    },
    "scene" : 0,
    "scenes" : [
        {
            "name" : "Scene",
            "nodes" : [
                0
            ]
        }
    ],
    "nodes" : [
        {
            "mesh" : 0,
            "name" : "leaves",
            "scale" : [
                2.5,
                2.5,
                2.5
            ]
        }
    ],
    "materials" : [
        {
            "doubleSided" : true,
            "name" : "tree_green",
            "pbrMetallicRoughness" : {
                "baseColorFactor" : [
                    0.3419145345687866,
                    0.6724433898925781,
                    0.14995989203453064,
                    1
                ],
                "metallicFactor" : 0,
                "roughnessFactor" : 0.5
            }
        },
        {
            "doubleSided" : true,
            "name" : "tree_bark_dark",
            "pbrMetallicRoughness" : {
                "baseColorFactor" : [
                    0.22696594893932343,
                    0.09989872574806213,
                    0.08437623083591461,
                    1
                ],
                "metallicFactor" : 0,
                "roughnessFactor" : 0.5
            }
        }
    ],
    "meshes" : [
        {
            "name" : "Sphere",
            "primitives" : [
                {
                    "attributes" : {
                        "POSITION" : 0,
                        "NORMAL" : 1
                    },
                    "indices" : 2,
                    "material" : 0
                },
                {
                    "attributes" : {
                        "POSITION" : 3,
                        "NORMAL" : 4
                    },
                    "indices" : 5,
                    "material" : 1
                }
            ]
        }
    ],
    "accessors" : [
        {
            "bufferView" : 0,
            "componentType" : 5126,
            "count" : 294,
            "max" : [
                0.5829520225524902,
                3.396731376647949,
                0.6416661739349365
            ],
            "min" : [
                -0.6729170083999634,
                0.5331563949584961,
                -0.68464195728302
            ],
            "type" : "VEC3"
        },
        {
            "bufferView" : 1,
            "componentType" : 5126,
            "count" : 294,
            "type" : "VEC3"
        },
        {
            "bufferView" : 2,
            "componentType" : 5123,
            "count" : 294,
            "type" : "SCALAR"
        },
        {
            "bufferView" : 3,
            "componentType" : 5126,
            "count" : 100,
            "max" : [
                0.1441967487335205,
                2.2306604385375977,
                0.13963131606578827
            ],
            "min" : [
                -0.1469753384590149,
                -0.01655680127441883,
                -0.1497078686952591
            ],
            "type" : "VEC3"
        },
        {
            "bufferView" : 4,
            "componentType" : 5126,
            "count" : 100,
            "type" : "VEC3"
        },
        {
            "bufferView" : 5,
            "componentType" : 5123,
            "count" : 102,
            "type" : "SCALAR"
        }
    ],
    "bufferViews" : [
        {
            "buffer" : 0,
            "byteLength" : 3528,
            "byteOffset" : 0
        },
        {
            "buffer" : 0,
            "byteLength" : 3528,
            "byteOffset" : 3528
        },
        {
            "buffer" : 0,
            "byteLength" : 588,
            "byteOffset" : 7056
        },
        {
            "buffer" : 0,
            "byteLength" : 1200,
            "byteOffset" : 7644
        },
        {
            "buffer" : 0,
            "byteLength" : 1200,
            "byteOffset" : 8844
        },
        {
            "buffer" : 0,
            "byteLength" : 204,
            "byteOffset" : 10044
        }
    ],
    "buffers" : [
        {
            "byteLength" : 10248,
            "uri" : "arbol1.bin"
        }
    ]
}
