{
    "asset" : {
        "generator" : "Khronos glTF Blender I/O v1.5.17",
        "version" : "2.0"
    },
    "scene" : 0,
    "scenes" : [
        {
            "name" : "Scene",
            "nodes" : [
                0
            ]
        }
    ],
    "nodes" : [
        {
            "mesh" : 0,
            "name" : "trunk"
        }
    ],
    "materials" : [
        {
            "doubleSided" : true,
            "name" : "tree_bark_light",
            "pbrMetallicRoughness" : {
                "baseColorFactor" : [
                    0.4452013075351715,
                    0.23455055058002472,
                    0.18447503447532654,
                    1
                ],
                "metallicFactor" : 0,
                "roughnessFactor" : 0.5
            }
        },
        {
            "doubleSided" : true,
            "name" : "tree_green",
            "pbrMetallicRoughness" : {
                "baseColorFactor" : [
                    0.3419145345687866,
                    0.6724433898925781,
                    0.14995989203453064,
                    1
                ],
                "metallicFactor" : 0,
                "roughnessFactor" : 0.5
            }
        }
    ],
    "meshes" : [
        {
            "name" : "Cube",
            "primitives" : [
                {
                    "attributes" : {
                        "POSITION" : 0,
                        "NORMAL" : 1
                    },
                    "indices" : 2,
                    "material" : 0
                },
                {
                    "attributes" : {
                        "POSITION" : 3,
                        "NORMAL" : 4
                    },
                    "indices" : 5,
                    "material" : 1
                }
            ]
        }
    ],
    "accessors" : [
        {
            "bufferView" : 0,
            "componentType" : 5126,
            "count" : 450,
            "max" : [
                0.989873468875885,
                4.104550838470459,
                1.846587896347046
            ],
            "min" : [
                -1.9798623323440552,
                -0.008567949756979942,
                -0.7213361859321594
            ],
            "type" : "VEC3"
        },
        {
            "bufferView" : 1,
            "componentType" : 5126,
            "count" : 450,
            "type" : "VEC3"
        },
        {
            "bufferView" : 2,
            "componentType" : 5123,
            "count" : 474,
            "type" : "SCALAR"
        },
        {
            "bufferView" : 3,
            "componentType" : 5126,
            "count" : 288,
            "max" : [
                2.986205816268921,
                6.996176242828369,
                3.65063214302063
            ],
            "min" : [
                -3.350515127182007,
                2.5968496799468994,
                -3.4025402069091797
            ],
            "type" : "VEC3"
        },
        {
            "bufferView" : 4,
            "componentType" : 5126,
            "count" : 288,
            "type" : "VEC3"
        },
        {
            "bufferView" : 5,
            "componentType" : 5123,
            "count" : 288,
            "type" : "SCALAR"
        }
    ],
    "bufferViews" : [
        {
            "buffer" : 0,
            "byteLength" : 5400,
            "byteOffset" : 0
        },
        {
            "buffer" : 0,
            "byteLength" : 5400,
            "byteOffset" : 5400
        },
        {
            "buffer" : 0,
            "byteLength" : 948,
            "byteOffset" : 10800
        },
        {
            "buffer" : 0,
            "byteLength" : 3456,
            "byteOffset" : 11748
        },
        {
            "buffer" : 0,
            "byteLength" : 3456,
            "byteOffset" : 15204
        },
        {
            "buffer" : 0,
            "byteLength" : 576,
            "byteOffset" : 18660
        }
    ],
    "buffers" : [
        {
            "byteLength" : 19236,
            "uri" : "arbol4.bin"
        }
    ]
}
