{
    "asset" : {
        "generator" : "Khronos glTF Blender I/O v1.5.17",
        "version" : "2.0"
    },
    "scene" : 0,
    "scenes" : [
        {
            "name" : "Scene",
            "nodes" : [
                0
            ]
        }
    ],
    "nodes" : [
        {
            "mesh" : 0,
            "name" : "trunk",
            "rotation" : [
                0,
                1,
                0,
                -1.6292068494294654e-07
            ],
            "scale" : [
                2.5,
                2.5,
                2.5
            ]
        }
    ],
    "materials" : [
        {
            "doubleSided" : true,
            "name" : "tree_bark_dark",
            "pbrMetallicRoughness" : {
                "baseColorFactor" : [
                    0.22696594893932343,
                    0.09989872574806213,
                    0.08437623083591461,
                    1
                ],
                "metallicFactor" : 0,
                "roughnessFactor" : 0.5
            }
        },
        {
            "doubleSided" : true,
            "name" : "Material",
            "pbrMetallicRoughness" : {
                "baseColorFactor" : [
                    0.3419145345687866,
                    0.6724433898925781,
                    0.14995989203453064,
                    1
                ],
                "metallicFactor" : 0,
                "roughnessFactor" : 0.5
            }
        }
    ],
    "meshes" : [
        {
            "name" : "Cube",
            "primitives" : [
                {
                    "attributes" : {
                        "POSITION" : 0,
                        "NORMAL" : 1
                    },
                    "indices" : 2,
                    "material" : 0
                },
                {
                    "attributes" : {
                        "POSITION" : 3,
                        "NORMAL" : 4
                    },
                    "indices" : 5,
                    "material" : 1
                }
            ]
        }
    ],
    "accessors" : [
        {
            "bufferView" : 0,
            "componentType" : 5126,
            "count" : 160,
            "max" : [
                0.14698687195777893,
                2.22434663772583,
                0.14123491942882538
            ],
            "min" : [
                -0.14670009911060333,
                -0.021104415878653526,
                -0.14824409782886505
            ],
            "type" : "VEC3"
        },
        {
            "bufferView" : 1,
            "componentType" : 5126,
            "count" : 160,
            "type" : "VEC3"
        },
        {
            "bufferView" : 2,
            "componentType" : 5123,
            "count" : 168,
            "type" : "SCALAR"
        },
        {
            "bufferView" : 3,
            "componentType" : 5126,
            "count" : 810,
            "max" : [
                1.3119763135910034,
                3.570549488067627,
                1.29496431350708
            ],
            "min" : [
                -1.1832939386367798,
                0.7563901543617249,
                -1.1573069095611572
            ],
            "type" : "VEC3"
        },
        {
            "bufferView" : 4,
            "componentType" : 5126,
            "count" : 810,
            "type" : "VEC3"
        },
        {
            "bufferView" : 5,
            "componentType" : 5123,
            "count" : 828,
            "type" : "SCALAR"
        }
    ],
    "bufferViews" : [
        {
            "buffer" : 0,
            "byteLength" : 1920,
            "byteOffset" : 0
        },
        {
            "buffer" : 0,
            "byteLength" : 1920,
            "byteOffset" : 1920
        },
        {
            "buffer" : 0,
            "byteLength" : 336,
            "byteOffset" : 3840
        },
        {
            "buffer" : 0,
            "byteLength" : 9720,
            "byteOffset" : 4176
        },
        {
            "buffer" : 0,
            "byteLength" : 9720,
            "byteOffset" : 13896
        },
        {
            "buffer" : 0,
            "byteLength" : 1656,
            "byteOffset" : 23616
        }
    ],
    "buffers" : [
        {
            "byteLength" : 25272,
            "uri" : "arbol2.bin"
        }
    ]
}
