{
    "asset" : {
        "generator" : "Khronos glTF Blender I/O v1.5.17",
        "version" : "2.0"
    },
    "scene" : 0,
    "scenes" : [
        {
            "name" : "Nature Assets",
            "nodes" : [
                0
            ]
        },
        {
            "name" : "Nature Assets Scene"
        }
    ],
    "nodes" : [
        {
            "mesh" : 0,
            "name" : "Green Tree 1",
            "translation" : [
                -12.601374626159668,
                3.455860137939453,
                -33.77333450317383
            ]
        }
    ],
    "materials" : [
        {
            "doubleSided" : true,
            "name" : "Colour Grid",
            "pbrMetallicRoughness" : {
                "baseColorFactor" : [
                    0.2729334533214569,
                    0.11258474737405777,
                    0.05429990589618683,
                    1
                ],
                "metallicFactor" : 0,
                "roughnessFactor" : 0.5
            }
        },
        {
            "doubleSided" : true,
            "name" : "Material.001",
            "pbrMetallicRoughness" : {
                "baseColorFactor" : [
                    0.016713570803403854,
                    0.4182099997997284,
                    0.04006189480423927,
                    1
                ],
                "metallicFactor" : 0,
                "roughnessFactor" : 0.5
            }
        }
    ],
    "meshes" : [
        {
            "name" : "Cylinder.001",
            "primitives" : [
                {
                    "attributes" : {
                        "POSITION" : 0,
                        "NORMAL" : 1,
                        "TEXCOORD_0" : 2
                    },
                    "indices" : 3,
                    "material" : 0
                },
                {
                    "attributes" : {
                        "POSITION" : 4,
                        "NORMAL" : 5,
                        "TEXCOORD_0" : 6
                    },
                    "indices" : 7,
                    "material" : 1
                }
            ]
        }
    ],
    "accessors" : [
        {
            "bufferView" : 0,
            "componentType" : 5126,
            "count" : 192,
            "max" : [
                3.3999135494232178,
                4.678612232208252,
                0.2999475598335266
            ],
            "min" : [
                -0.3463496267795563,
                -3.3846473693847656,
                -0.2999475598335266
            ],
            "type" : "VEC3"
        },
        {
            "bufferView" : 1,
            "componentType" : 5126,
            "count" : 192,
            "type" : "VEC3"
        },
        {
            "bufferView" : 2,
            "componentType" : 5126,
            "count" : 192,
            "type" : "VEC2"
        },
        {
            "bufferView" : 3,
            "componentType" : 5123,
            "count" : 288,
            "type" : "SCALAR"
        },
        {
            "bufferView" : 4,
            "componentType" : 5126,
            "count" : 240,
            "max" : [
                7.00532341003418,
                10.331418991088867,
                3.358395576477051
            ],
            "min" : [
                -4.485917568206787,
                2.5903995037078857,
                -4.2419514656066895
            ],
            "type" : "VEC3"
        },
        {
            "bufferView" : 5,
            "componentType" : 5126,
            "count" : 240,
            "type" : "VEC3"
        },
        {
            "bufferView" : 6,
            "componentType" : 5126,
            "count" : 240,
            "type" : "VEC2"
        },
        {
            "bufferView" : 7,
            "componentType" : 5123,
            "count" : 240,
            "type" : "SCALAR"
        }
    ],
    "bufferViews" : [
        {
            "buffer" : 0,
            "byteLength" : 2304,
            "byteOffset" : 0
        },
        {
            "buffer" : 0,
            "byteLength" : 2304,
            "byteOffset" : 2304
        },
        {
            "buffer" : 0,
            "byteLength" : 1536,
            "byteOffset" : 4608
        },
        {
            "buffer" : 0,
            "byteLength" : 576,
            "byteOffset" : 6144
        },
        {
            "buffer" : 0,
            "byteLength" : 2880,
            "byteOffset" : 6720
        },
        {
            "buffer" : 0,
            "byteLength" : 2880,
            "byteOffset" : 9600
        },
        {
            "buffer" : 0,
            "byteLength" : 1920,
            "byteOffset" : 12480
        },
        {
            "buffer" : 0,
            "byteLength" : 480,
            "byteOffset" : 14400
        }
    ],
    "buffers" : [
        {
            "byteLength" : 14880,
            "uri" : "arbol3.bin"
        }
    ]
}
