{
    "asset" : {
        "generator" : "Khronos glTF Blender I/O v1.5.17",
        "version" : "2.0"
    },
    "scene" : 0,
    "scenes" : [
        {
            "name" : "Scene",
            "nodes" : [
                0
            ]
        }
    ],
    "nodes" : [
        {
            "mesh" : 0,
            "name" : "Plane",
            "scale" : [
                8.2401123046875,
                1,
                5.307223320007324
            ]
        }
    ],
    "materials" : [
        {
            "doubleSided" : true,
            "name" : "Material",
            "pbrMetallicRoughness" : {
                "baseColorFactor" : [
                    0.25415220856666565,
                    0.2541520893573761,
                    0.2541521489620209,
                    1
                ],
                "metallicFactor" : 0,
                "roughnessFactor" : 0.5
            }
        },
        {
            "doubleSided" : true,
            "name" : "crema",
            "pbrMetallicRoughness" : {
                "baseColorFactor" : [
                    0.8000000715255737,
                    0.6580043435096741,
                    0.44870033860206604,
                    1
                ],
                "metallicFactor" : 0,
                "roughnessFactor" : 0.4000000059604645
            }
        },
        {
            "doubleSided" : true,
            "name" : "verde",
            "pbrMetallicRoughness" : {
                "baseColorFactor" : [
                    0.06124604120850563,
                    0.20507879555225372,
                    0.042311422526836395,
                    1
                ],
                "metallicFactor" : 0,
                "roughnessFactor" : 0.5
            }
        },
        {
            "doubleSided" : true,
            "name" : "ventana",
            "pbrMetallicRoughness" : {
                "baseColorFactor" : [
                    0.09530749917030334,
                    0.12743768095970154,
                    0.16826939582824707,
                    1
                ],
                "metallicFactor" : 0,
                "roughnessFactor" : 0
            }
        },
        {
            "doubleSided" : true,
            "name" : "gris",
            "pbrMetallicRoughness" : {
                "baseColorFactor" : [
                    0.030987083911895752,
                    0.030987083911895752,
                    0.030987083911895752,
                    1
                ],
                "metallicFactor" : 0,
                "roughnessFactor" : 0.5
            }
        },
        {
            "doubleSided" : true,
            "name" : "puertaver",
            "pbrMetallicRoughness" : {
                "baseColorFactor" : [
                    0.0273208636790514,
                    0.08650048077106476,
                    0.019382363185286522,
                    1
                ],
                "metallicFactor" : 0,
                "roughnessFactor" : 0.5
            }
        },
        {
            "doubleSided" : true,
            "name" : "lamina",
            "pbrMetallicRoughness" : {
                "baseColorFactor" : [
                    0.08650048822164536,
                    0.009721209295094013,
                    0.012983033433556557,
                    1
                ],
                "metallicFactor" : 0,
                "roughnessFactor" : 0.5
            }
        },
        {
            "doubleSided" : true,
            "name" : "Material.002",
            "pbrMetallicRoughness" : {
                "baseColorFactor" : [
                    0.08437621593475342,
                    0.327778160572052,
                    0.021219022572040558,
                    1
                ],
                "metallicFactor" : 0,
                "roughnessFactor" : 0.5
            }
        },
        {
            "doubleSided" : true,
            "name" : "Material.001",
            "pbrMetallicRoughness" : {
                "baseColorFactor" : [
                    0.800000011920929,
                    0.800000011920929,
                    0.800000011920929,
                    1
                ],
                "metallicFactor" : 0,
                "roughnessFactor" : 0.5
            }
        }
    ],
    "meshes" : [
        {
            "name" : "Plane",
            "primitives" : [
                {
                    "attributes" : {
                        "POSITION" : 0,
                        "NORMAL" : 1,
                        "TEXCOORD_0" : 2
                    },
                    "indices" : 3,
                    "material" : 0
                },
                {
                    "attributes" : {
                        "POSITION" : 4,
                        "NORMAL" : 5,
                        "TEXCOORD_0" : 6
                    },
                    "indices" : 7,
                    "material" : 1
                },
                {
                    "attributes" : {
                        "POSITION" : 8,
                        "NORMAL" : 9,
                        "TEXCOORD_0" : 10
                    },
                    "indices" : 11,
                    "material" : 2
                },
                {
                    "attributes" : {
                        "POSITION" : 12,
                        "NORMAL" : 13,
                        "TEXCOORD_0" : 14
                    },
                    "indices" : 15,
                    "material" : 3
                },
                {
                    "attributes" : {
                        "POSITION" : 16,
                        "NORMAL" : 17,
                        "TEXCOORD_0" : 18
                    },
                    "indices" : 19,
                    "material" : 4
                },
                {
                    "attributes" : {
                        "POSITION" : 20,
                        "NORMAL" : 21,
                        "TEXCOORD_0" : 22
                    },
                    "indices" : 23,
                    "material" : 5
                },
                {
                    "attributes" : {
                        "POSITION" : 24,
                        "NORMAL" : 25,
                        "TEXCOORD_0" : 26
                    },
                    "indices" : 27,
                    "material" : 6
                },
                {
                    "attributes" : {
                        "POSITION" : 28,
                        "NORMAL" : 29,
                        "TEXCOORD_0" : 30
                    },
                    "indices" : 31,
                    "material" : 7
                },
                {
                    "attributes" : {
                        "POSITION" : 32,
                        "NORMAL" : 33,
                        "TEXCOORD_0" : 34
                    },
                    "indices" : 35,
                    "material" : 8
                }
            ]
        }
    ],
    "accessors" : [
        {
            "bufferView" : 0,
            "componentType" : 5126,
            "count" : 24,
            "max" : [
                1,
                -1.5214886665344238,
                1
            ],
            "min" : [
                -1,
                -1.6658424139022827,
                -1
            ],
            "type" : "VEC3"
        },
        {
            "bufferView" : 1,
            "componentType" : 5126,
            "count" : 24,
            "type" : "VEC3"
        },
        {
            "bufferView" : 2,
            "componentType" : 5126,
            "count" : 24,
            "type" : "VEC2"
        },
        {
            "bufferView" : 3,
            "componentType" : 5123,
            "count" : 36,
            "type" : "SCALAR"
        },
        {
            "bufferView" : 4,
            "componentType" : 5126,
            "count" : 441,
            "max" : [
                0.8521620035171509,
                2.0405876636505127,
                0.7065913677215576
            ],
            "min" : [
                -0.8521620035171509,
                -1.5059282779693604,
                -0.7065913677215576
            ],
            "type" : "VEC3"
        },
        {
            "bufferView" : 5,
            "componentType" : 5126,
            "count" : 441,
            "type" : "VEC3"
        },
        {
            "bufferView" : 6,
            "componentType" : 5126,
            "count" : 441,
            "type" : "VEC2"
        },
        {
            "bufferView" : 7,
            "componentType" : 5123,
            "count" : 789,
            "type" : "SCALAR"
        },
        {
            "bufferView" : 8,
            "componentType" : 5126,
            "count" : 85,
            "max" : [
                0.8521620035171509,
                -1.0854558944702148,
                0.7065913677215576
            ],
            "min" : [
                -0.8521620035171509,
                -1.5059282779693604,
                -0.7065913677215576
            ],
            "type" : "VEC3"
        },
        {
            "bufferView" : 9,
            "componentType" : 5126,
            "count" : 85,
            "type" : "VEC3"
        },
        {
            "bufferView" : 10,
            "componentType" : 5126,
            "count" : 85,
            "type" : "VEC2"
        },
        {
            "bufferView" : 11,
            "componentType" : 5123,
            "count" : 141,
            "type" : "SCALAR"
        },
        {
            "bufferView" : 12,
            "componentType" : 5126,
            "count" : 44,
            "max" : [
                0.8206888437271118,
                0.7996686697006226,
                0.6848268508911133
            ],
            "min" : [
                -0.8153871297836304,
                -0.8473879098892212,
                -0.6667640805244446
            ],
            "type" : "VEC3"
        },
        {
            "bufferView" : 13,
            "componentType" : 5126,
            "count" : 44,
            "type" : "VEC3"
        },
        {
            "bufferView" : 14,
            "componentType" : 5126,
            "count" : 44,
            "type" : "VEC2"
        },
        {
            "bufferView" : 15,
            "componentType" : 5123,
            "count" : 66,
            "type" : "SCALAR"
        },
        {
            "bufferView" : 16,
            "componentType" : 5126,
            "count" : 26,
            "max" : [
                0.8521620035171509,
                -1.5059282779693604,
                0.7065913677215576
            ],
            "min" : [
                -0.8521620035171509,
                -1.5059282779693604,
                -0.7065913677215576
            ],
            "type" : "VEC3"
        },
        {
            "bufferView" : 17,
            "componentType" : 5126,
            "count" : 26,
            "type" : "VEC3"
        },
        {
            "bufferView" : 18,
            "componentType" : 5126,
            "count" : 26,
            "type" : "VEC2"
        },
        {
            "bufferView" : 19,
            "componentType" : 5123,
            "count" : 66,
            "type" : "SCALAR"
        },
        {
            "bufferView" : 20,
            "componentType" : 5126,
            "count" : 4,
            "max" : [
                0.2036084681749344,
                0.6400960087776184,
                0.6179157495498657
            ],
            "min" : [
                0.2036084681749344,
                -1.5059282779693604,
                0.4289340674877167
            ],
            "type" : "VEC3"
        },
        {
            "bufferView" : 21,
            "componentType" : 5126,
            "count" : 4,
            "type" : "VEC3"
        },
        {
            "bufferView" : 22,
            "componentType" : 5126,
            "count" : 4,
            "type" : "VEC2"
        },
        {
            "bufferView" : 23,
            "componentType" : 5123,
            "count" : 6,
            "type" : "SCALAR"
        },
        {
            "bufferView" : 24,
            "componentType" : 5126,
            "count" : 36,
            "max" : [
                0.9336280226707458,
                2.167346954345703,
                0.8748478293418884
            ],
            "min" : [
                -0.9336280226707458,
                1.3855022192001343,
                -0.8748478293418884
            ],
            "type" : "VEC3"
        },
        {
            "bufferView" : 25,
            "componentType" : 5126,
            "count" : 36,
            "type" : "VEC3"
        },
        {
            "bufferView" : 26,
            "componentType" : 5126,
            "count" : 36,
            "type" : "VEC2"
        },
        {
            "bufferView" : 27,
            "componentType" : 5123,
            "count" : 60,
            "type" : "SCALAR"
        },
        {
            "bufferView" : 28,
            "componentType" : 5126,
            "count" : 8,
            "max" : [
                -0.2139315903186798,
                0.6923235058784485,
                0.7080447673797607
            ],
            "min" : [
                -0.38196900486946106,
                -0.6923235058784485,
                -0.7077130079269409
            ],
            "type" : "VEC3"
        },
        {
            "bufferView" : 29,
            "componentType" : 5126,
            "count" : 8,
            "type" : "VEC3"
        },
        {
            "bufferView" : 30,
            "componentType" : 5126,
            "count" : 8,
            "type" : "VEC2"
        },
        {
            "bufferView" : 31,
            "componentType" : 5123,
            "count" : 12,
            "type" : "SCALAR"
        },
        {
            "bufferView" : 32,
            "componentType" : 5126,
            "count" : 572,
            "max" : [
                -0.24932861328125,
                0.37091365456581116,
                0.7087735533714294
            ],
            "min" : [
                -0.34657198190689087,
                -0.31108635663986206,
                -0.7084417343139648
            ],
            "type" : "VEC3"
        },
        {
            "bufferView" : 33,
            "componentType" : 5126,
            "count" : 572,
            "type" : "VEC3"
        },
        {
            "bufferView" : 34,
            "componentType" : 5126,
            "count" : 572,
            "type" : "VEC2"
        },
        {
            "bufferView" : 35,
            "componentType" : 5123,
            "count" : 660,
            "type" : "SCALAR"
        }
    ],
    "bufferViews" : [
        {
            "buffer" : 0,
            "byteLength" : 288,
            "byteOffset" : 0
        },
        {
            "buffer" : 0,
            "byteLength" : 288,
            "byteOffset" : 288
        },
        {
            "buffer" : 0,
            "byteLength" : 192,
            "byteOffset" : 576
        },
        {
            "buffer" : 0,
            "byteLength" : 72,
            "byteOffset" : 768
        },
        {
            "buffer" : 0,
            "byteLength" : 5292,
            "byteOffset" : 840
        },
        {
            "buffer" : 0,
            "byteLength" : 5292,
            "byteOffset" : 6132
        },
        {
            "buffer" : 0,
            "byteLength" : 3528,
            "byteOffset" : 11424
        },
        {
            "buffer" : 0,
            "byteLength" : 1578,
            "byteOffset" : 14952
        },
        {
            "buffer" : 0,
            "byteLength" : 1020,
            "byteOffset" : 16532
        },
        {
            "buffer" : 0,
            "byteLength" : 1020,
            "byteOffset" : 17552
        },
        {
            "buffer" : 0,
            "byteLength" : 680,
            "byteOffset" : 18572
        },
        {
            "buffer" : 0,
            "byteLength" : 282,
            "byteOffset" : 19252
        },
        {
            "buffer" : 0,
            "byteLength" : 528,
            "byteOffset" : 19536
        },
        {
            "buffer" : 0,
            "byteLength" : 528,
            "byteOffset" : 20064
        },
        {
            "buffer" : 0,
            "byteLength" : 352,
            "byteOffset" : 20592
        },
        {
            "buffer" : 0,
            "byteLength" : 132,
            "byteOffset" : 20944
        },
        {
            "buffer" : 0,
            "byteLength" : 312,
            "byteOffset" : 21076
        },
        {
            "buffer" : 0,
            "byteLength" : 312,
            "byteOffset" : 21388
        },
        {
            "buffer" : 0,
            "byteLength" : 208,
            "byteOffset" : 21700
        },
        {
            "buffer" : 0,
            "byteLength" : 132,
            "byteOffset" : 21908
        },
        {
            "buffer" : 0,
            "byteLength" : 48,
            "byteOffset" : 22040
        },
        {
            "buffer" : 0,
            "byteLength" : 48,
            "byteOffset" : 22088
        },
        {
            "buffer" : 0,
            "byteLength" : 32,
            "byteOffset" : 22136
        },
        {
            "buffer" : 0,
            "byteLength" : 12,
            "byteOffset" : 22168
        },
        {
            "buffer" : 0,
            "byteLength" : 432,
            "byteOffset" : 22180
        },
        {
            "buffer" : 0,
            "byteLength" : 432,
            "byteOffset" : 22612
        },
        {
            "buffer" : 0,
            "byteLength" : 288,
            "byteOffset" : 23044
        },
        {
            "buffer" : 0,
            "byteLength" : 120,
            "byteOffset" : 23332
        },
        {
            "buffer" : 0,
            "byteLength" : 96,
            "byteOffset" : 23452
        },
        {
            "buffer" : 0,
            "byteLength" : 96,
            "byteOffset" : 23548
        },
        {
            "buffer" : 0,
            "byteLength" : 64,
            "byteOffset" : 23644
        },
        {
            "buffer" : 0,
            "byteLength" : 24,
            "byteOffset" : 23708
        },
        {
            "buffer" : 0,
            "byteLength" : 6864,
            "byteOffset" : 23732
        },
        {
            "buffer" : 0,
            "byteLength" : 6864,
            "byteOffset" : 30596
        },
        {
            "buffer" : 0,
            "byteLength" : 4576,
            "byteOffset" : 37460
        },
        {
            "buffer" : 0,
            "byteLength" : 1320,
            "byteOffset" : 42036
        }
    ],
    "buffers" : [
        {
            "byteLength" : 43356,
            "uri" : "b1.bin"
        }
    ]
}
