{
    "asset" : {
        "generator" : "Khronos glTF Blender I/O v1.5.17",
        "version" : "2.0"
    },
    "scene" : 0,
    "scenes" : [
        {
            "name" : "Scene",
            "nodes" : [
                0
            ]
        }
    ],
    "nodes" : [
        {
            "mesh" : 0,
            "name" : "Plane",
            "scale" : [
                5.013199806213379,
                1,
                16.14259910583496
            ]
        }
    ],
    "materials" : [
        {
            "doubleSided" : true,
            "name" : "Material",
            "pbrMetallicRoughness" : {
                "baseColorFactor" : [
                    0.25415220856666565,
                    0.2541520893573761,
                    0.2541521489620209,
                    1
                ],
                "metallicFactor" : 0,
                "roughnessFactor" : 0.5
            }
        },
        {
            "doubleSided" : true,
            "name" : "block",
            "pbrMetallicRoughness" : {
                "baseColorFactor" : [
                    0.37107646465301514,
                    0.37107646465301514,
                    0.37107646465301514,
                    1
                ],
                "metallicFactor" : 0,
                "roughnessFactor" : 0.5
            }
        },
        {
            "doubleSided" : true,
            "name" : "Material.003",
            "pbrMetallicRoughness" : {
                "baseColorFactor" : [
                    0.7396382093429565,
                    0.6912714242935181,
                    0.6838626861572266,
                    1
                ],
                "metallicFactor" : 0,
                "roughnessFactor" : 0.5
            }
        },
        {
            "doubleSided" : true,
            "name" : "gris",
            "pbrMetallicRoughness" : {
                "baseColorFactor" : [
                    0.06854499131441116,
                    0.06854499131441116,
                    0.06854499131441116,
                    1
                ],
                "metallicFactor" : 0,
                "roughnessFactor" : 0.5
            }
        },
        {
            "doubleSided" : true,
            "name" : "Material.001",
            "pbrMetallicRoughness" : {
                "baseColorFactor" : [
                    0.6239607930183411,
                    0.623960554599762,
                    0.6239606738090515,
                    1
                ],
                "metallicFactor" : 0,
                "roughnessFactor" : 0.5
            }
        }
    ],
    "meshes" : [
        {
            "name" : "Plane",
            "primitives" : [
                {
                    "attributes" : {
                        "POSITION" : 0,
                        "NORMAL" : 1,
                        "TEXCOORD_0" : 2
                    },
                    "indices" : 3,
                    "material" : 0
                },
                {
                    "attributes" : {
                        "POSITION" : 4,
                        "NORMAL" : 5,
                        "TEXCOORD_0" : 6
                    },
                    "indices" : 7,
                    "material" : 1
                },
                {
                    "attributes" : {
                        "POSITION" : 8,
                        "NORMAL" : 9,
                        "TEXCOORD_0" : 10
                    },
                    "indices" : 11,
                    "material" : 2
                },
                {
                    "attributes" : {
                        "POSITION" : 12,
                        "NORMAL" : 13,
                        "TEXCOORD_0" : 14
                    },
                    "indices" : 15,
                    "material" : 3
                },
                {
                    "attributes" : {
                        "POSITION" : 16,
                        "NORMAL" : 17,
                        "TEXCOORD_0" : 18
                    },
                    "indices" : 19,
                    "material" : 4
                }
            ]
        }
    ],
    "accessors" : [
        {
            "bufferView" : 0,
            "componentType" : 5126,
            "count" : 24,
            "max" : [
                1,
                -1.4605501890182495,
                1
            ],
            "min" : [
                -1,
                -1.5937117338180542,
                -1
            ],
            "type" : "VEC3"
        },
        {
            "bufferView" : 1,
            "componentType" : 5126,
            "count" : 24,
            "type" : "VEC3"
        },
        {
            "bufferView" : 2,
            "componentType" : 5126,
            "count" : 24,
            "type" : "VEC2"
        },
        {
            "bufferView" : 3,
            "componentType" : 5123,
            "count" : 36,
            "type" : "SCALAR"
        },
        {
            "bufferView" : 4,
            "componentType" : 5126,
            "count" : 677,
            "max" : [
                0.7756767868995667,
                2.630250930786133,
                0.9373102784156799
            ],
            "min" : [
                -0.7761134505271912,
                -1.5,
                -0.9397976994514465
            ],
            "type" : "VEC3"
        },
        {
            "bufferView" : 5,
            "componentType" : 5126,
            "count" : 677,
            "type" : "VEC3"
        },
        {
            "bufferView" : 6,
            "componentType" : 5126,
            "count" : 677,
            "type" : "VEC2"
        },
        {
            "bufferView" : 7,
            "componentType" : 5123,
            "count" : 1752,
            "type" : "SCALAR"
        },
        {
            "bufferView" : 8,
            "componentType" : 5126,
            "count" : 760,
            "max" : [
                0.7480252981185913,
                2.630250930786133,
                0.9292184710502625
            ],
            "min" : [
                -0.7480252981185913,
                -1.5,
                -0.9292184710502625
            ],
            "type" : "VEC3"
        },
        {
            "bufferView" : 9,
            "componentType" : 5126,
            "count" : 760,
            "type" : "VEC3"
        },
        {
            "bufferView" : 10,
            "componentType" : 5126,
            "count" : 760,
            "type" : "VEC2"
        },
        {
            "bufferView" : 11,
            "componentType" : 5123,
            "count" : 1476,
            "type" : "SCALAR"
        },
        {
            "bufferView" : 12,
            "componentType" : 5126,
            "count" : 80,
            "max" : [
                0.7262452840805054,
                1.0683281421661377,
                0.8679725527763367
            ],
            "min" : [
                -0.7180338501930237,
                -1.5,
                -0.8523169159889221
            ],
            "type" : "VEC3"
        },
        {
            "bufferView" : 13,
            "componentType" : 5126,
            "count" : 80,
            "type" : "VEC3"
        },
        {
            "bufferView" : 14,
            "componentType" : 5126,
            "count" : 80,
            "type" : "VEC2"
        },
        {
            "bufferView" : 15,
            "componentType" : 5123,
            "count" : 120,
            "type" : "SCALAR"
        },
        {
            "bufferView" : 16,
            "componentType" : 5126,
            "count" : 36,
            "max" : [
                0.9161014556884766,
                2.7504019737243652,
                0.9716253876686096
            ],
            "min" : [
                -0.9161014556884766,
                1.2851146459579468,
                -0.9716253876686096
            ],
            "type" : "VEC3"
        },
        {
            "bufferView" : 17,
            "componentType" : 5126,
            "count" : 36,
            "type" : "VEC3"
        },
        {
            "bufferView" : 18,
            "componentType" : 5126,
            "count" : 36,
            "type" : "VEC2"
        },
        {
            "bufferView" : 19,
            "componentType" : 5123,
            "count" : 60,
            "type" : "SCALAR"
        }
    ],
    "bufferViews" : [
        {
            "buffer" : 0,
            "byteLength" : 288,
            "byteOffset" : 0
        },
        {
            "buffer" : 0,
            "byteLength" : 288,
            "byteOffset" : 288
        },
        {
            "buffer" : 0,
            "byteLength" : 192,
            "byteOffset" : 576
        },
        {
            "buffer" : 0,
            "byteLength" : 72,
            "byteOffset" : 768
        },
        {
            "buffer" : 0,
            "byteLength" : 8124,
            "byteOffset" : 840
        },
        {
            "buffer" : 0,
            "byteLength" : 8124,
            "byteOffset" : 8964
        },
        {
            "buffer" : 0,
            "byteLength" : 5416,
            "byteOffset" : 17088
        },
        {
            "buffer" : 0,
            "byteLength" : 3504,
            "byteOffset" : 22504
        },
        {
            "buffer" : 0,
            "byteLength" : 9120,
            "byteOffset" : 26008
        },
        {
            "buffer" : 0,
            "byteLength" : 9120,
            "byteOffset" : 35128
        },
        {
            "buffer" : 0,
            "byteLength" : 6080,
            "byteOffset" : 44248
        },
        {
            "buffer" : 0,
            "byteLength" : 2952,
            "byteOffset" : 50328
        },
        {
            "buffer" : 0,
            "byteLength" : 960,
            "byteOffset" : 53280
        },
        {
            "buffer" : 0,
            "byteLength" : 960,
            "byteOffset" : 54240
        },
        {
            "buffer" : 0,
            "byteLength" : 640,
            "byteOffset" : 55200
        },
        {
            "buffer" : 0,
            "byteLength" : 240,
            "byteOffset" : 55840
        },
        {
            "buffer" : 0,
            "byteLength" : 432,
            "byteOffset" : 56080
        },
        {
            "buffer" : 0,
            "byteLength" : 432,
            "byteOffset" : 56512
        },
        {
            "buffer" : 0,
            "byteLength" : 288,
            "byteOffset" : 56944
        },
        {
            "buffer" : 0,
            "byteLength" : 120,
            "byteOffset" : 57232
        }
    ],
    "buffers" : [
        {
            "byteLength" : 57352,
            "uri" : "b2.bin"
        }
    ]
}
