{
    "asset" : {
        "generator" : "Khronos glTF Blender I/O v1.5.17",
        "version" : "2.0"
    },
    "scene" : 0,
    "scenes" : [
        {
            "name" : "Scene",
            "nodes" : [
                0
            ]
        }
    ],
    "nodes" : [
        {
            "mesh" : 0,
            "name" : "Cube"
        }
    ],
    "materials" : [
        {
            "doubleSided" : true,
            "name" : "bricks",
            "pbrMetallicRoughness" : {
                "baseColorFactor" : [
                    0.7991032600402832,
                    0.23073998093605042,
                    0.11443543434143066,
                    1
                ],
                "metallicFactor" : 0,
                "roughnessFactor" : 0.5
            }
        },
        {
            "doubleSided" : true,
            "name" : "crema",
            "pbrMetallicRoughness" : {
                "baseColorFactor" : [
                    1,
                    0.7801129817962646,
                    0.4573880732059479,
                    1
                ],
                "metallicFactor" : 0,
                "roughnessFactor" : 0.5
            }
        },
        {
            "doubleSided" : true,
            "name" : "puerta",
            "pbrMetallicRoughness" : {
                "baseColorFactor" : [
                    0.2874408960342407,
                    0.12213876843452454,
                    0.02028856799006462,
                    1
                ],
                "metallicFactor" : 0,
                "roughnessFactor" : 0.5
            }
        },
        {
            "doubleSided" : true,
            "name" : "ventana",
            "pbrMetallicRoughness" : {
                "baseColorFactor" : [
                    0.09530749917030334,
                    0.12743768095970154,
                    0.16826939582824707,
                    1
                ],
                "metallicFactor" : 0,
                "roughnessFactor" : 0.5
            }
        },
        {
            "doubleSided" : true,
            "name" : "Material.001",
            "pbrMetallicRoughness" : {
                "baseColorFactor" : [
                    0.6239607930183411,
                    0.623960554599762,
                    0.6239606738090515,
                    1
                ],
                "metallicFactor" : 0,
                "roughnessFactor" : 0.5
            }
        },
        {
            "doubleSided" : true,
            "name" : "Material",
            "pbrMetallicRoughness" : {
                "baseColorFactor" : [
                    0.25415220856666565,
                    0.2541520893573761,
                    0.2541521489620209,
                    1
                ],
                "metallicFactor" : 0,
                "roughnessFactor" : 0.5
            }
        },
        {
            "doubleSided" : true,
            "name" : "Material.002",
            "pbrMetallicRoughness" : {
                "baseColorFactor" : [
                    0.800000011920929,
                    0.800000011920929,
                    0.800000011920929,
                    1
                ],
                "metallicFactor" : 0,
                "roughnessFactor" : 0.5
            }
        },
        {
            "doubleSided" : true,
            "name" : "Material.005",
            "pbrMetallicRoughness" : {
                "baseColorFactor" : [
                    0.08437621593475342,
                    0.327778160572052,
                    0.021219022572040558,
                    1
                ],
                "metallicFactor" : 0,
                "roughnessFactor" : 0.5
            }
        },
        {
            "doubleSided" : true,
            "name" : "Material.004",
            "pbrMetallicRoughness" : {
                "baseColorFactor" : [
                    0.800000011920929,
                    0.800000011920929,
                    0.800000011920929,
                    1
                ],
                "metallicFactor" : 0,
                "roughnessFactor" : 0.5
            }
        }
    ],
    "meshes" : [
        {
            "name" : "Cube.003",
            "primitives" : [
                {
                    "attributes" : {
                        "POSITION" : 0,
                        "NORMAL" : 1,
                        "TEXCOORD_0" : 2
                    },
                    "indices" : 3,
                    "material" : 0
                },
                {
                    "attributes" : {
                        "POSITION" : 4,
                        "NORMAL" : 5,
                        "TEXCOORD_0" : 6
                    },
                    "indices" : 7,
                    "material" : 1
                },
                {
                    "attributes" : {
                        "POSITION" : 8,
                        "NORMAL" : 9,
                        "TEXCOORD_0" : 10
                    },
                    "indices" : 11,
                    "material" : 2
                },
                {
                    "attributes" : {
                        "POSITION" : 12,
                        "NORMAL" : 13,
                        "TEXCOORD_0" : 14
                    },
                    "indices" : 15,
                    "material" : 3
                },
                {
                    "attributes" : {
                        "POSITION" : 16,
                        "NORMAL" : 17,
                        "TEXCOORD_0" : 18
                    },
                    "indices" : 19,
                    "material" : 4
                },
                {
                    "attributes" : {
                        "POSITION" : 20,
                        "NORMAL" : 21,
                        "TEXCOORD_0" : 22
                    },
                    "indices" : 23,
                    "material" : 5
                },
                {
                    "attributes" : {
                        "POSITION" : 24,
                        "NORMAL" : 25,
                        "TEXCOORD_0" : 26
                    },
                    "indices" : 27,
                    "material" : 6
                },
                {
                    "attributes" : {
                        "POSITION" : 28,
                        "NORMAL" : 29,
                        "TEXCOORD_0" : 30
                    },
                    "indices" : 31,
                    "material" : 7
                },
                {
                    "attributes" : {
                        "POSITION" : 32,
                        "NORMAL" : 33,
                        "TEXCOORD_0" : 34
                    },
                    "indices" : 35,
                    "material" : 8
                }
            ]
        }
    ],
    "accessors" : [
        {
            "bufferView" : 0,
            "componentType" : 5126,
            "count" : 507,
            "max" : [
                3.888622522354126,
                2.630250930786133,
                15.130622863769531
            ],
            "min" : [
                -3.8908114433288574,
                -1.5,
                -15.1707763671875
            ],
            "type" : "VEC3"
        },
        {
            "bufferView" : 1,
            "componentType" : 5126,
            "count" : 507,
            "type" : "VEC3"
        },
        {
            "bufferView" : 2,
            "componentType" : 5126,
            "count" : 507,
            "type" : "VEC2"
        },
        {
            "bufferView" : 3,
            "componentType" : 5123,
            "count" : 1167,
            "type" : "SCALAR"
        },
        {
            "bufferView" : 4,
            "componentType" : 5126,
            "count" : 388,
            "max" : [
                3.75,
                2.630250930786133,
                15
            ],
            "min" : [
                -3.75,
                -1.0893491506576538,
                -15
            ],
            "type" : "VEC3"
        },
        {
            "bufferView" : 5,
            "componentType" : 5126,
            "count" : 388,
            "type" : "VEC3"
        },
        {
            "bufferView" : 6,
            "componentType" : 5126,
            "count" : 388,
            "type" : "VEC2"
        },
        {
            "bufferView" : 7,
            "componentType" : 5123,
            "count" : 702,
            "type" : "SCALAR"
        },
        {
            "bufferView" : 8,
            "componentType" : 5126,
            "count" : 16,
            "max" : [
                3.6276068687438965,
                0.7623365521430969,
                13.968169212341309
            ],
            "min" : [
                -3.6254191398620605,
                -1.5,
                -9.445104598999023
            ],
            "type" : "VEC3"
        },
        {
            "bufferView" : 9,
            "componentType" : 5126,
            "count" : 16,
            "type" : "VEC3"
        },
        {
            "bufferView" : 10,
            "componentType" : 5126,
            "count" : 16,
            "type" : "VEC2"
        },
        {
            "bufferView" : 11,
            "componentType" : 5123,
            "count" : 24,
            "type" : "SCALAR"
        },
        {
            "bufferView" : 12,
            "componentType" : 5126,
            "count" : 52,
            "max" : [
                3.6811203956604004,
                1.251720905303955,
                13.318950653076172
            ],
            "min" : [
                -3.660121202468872,
                -0.34265783429145813,
                -13.602399826049805
            ],
            "type" : "VEC3"
        },
        {
            "bufferView" : 13,
            "componentType" : 5126,
            "count" : 52,
            "type" : "VEC3"
        },
        {
            "bufferView" : 14,
            "componentType" : 5126,
            "count" : 52,
            "type" : "VEC2"
        },
        {
            "bufferView" : 15,
            "componentType" : 5123,
            "count" : 78,
            "type" : "SCALAR"
        },
        {
            "bufferView" : 16,
            "componentType" : 5126,
            "count" : 40,
            "max" : [
                4.592599391937256,
                2.7504019737243652,
                15.684557914733887
            ],
            "min" : [
                -4.592599391937256,
                1.2851146459579468,
                -15.684557914733887
            ],
            "type" : "VEC3"
        },
        {
            "bufferView" : 17,
            "componentType" : 5126,
            "count" : 40,
            "type" : "VEC3"
        },
        {
            "bufferView" : 18,
            "componentType" : 5126,
            "count" : 40,
            "type" : "VEC2"
        },
        {
            "bufferView" : 19,
            "componentType" : 5123,
            "count" : 60,
            "type" : "SCALAR"
        },
        {
            "bufferView" : 20,
            "componentType" : 5126,
            "count" : 24,
            "max" : [
                5.013199806213379,
                -1.4739152193069458,
                16.14259910583496
            ],
            "min" : [
                -5.013199806213379,
                -1.5740842819213867,
                -16.14259910583496
            ],
            "type" : "VEC3"
        },
        {
            "bufferView" : 21,
            "componentType" : 5126,
            "count" : 24,
            "type" : "VEC3"
        },
        {
            "bufferView" : 22,
            "componentType" : 5126,
            "count" : 24,
            "type" : "VEC2"
        },
        {
            "bufferView" : 23,
            "componentType" : 5123,
            "count" : 36,
            "type" : "SCALAR"
        },
        {
            "bufferView" : 24,
            "componentType" : 5126,
            "count" : 10,
            "max" : [
                0.26493990421295166,
                0.6910002827644348,
                15.020885467529297
            ],
            "min" : [
                -0.2459910809993744,
                0.2983751595020294,
                15.020885467529297
            ],
            "type" : "VEC3"
        },
        {
            "bufferView" : 25,
            "componentType" : 5126,
            "count" : 10,
            "type" : "VEC3"
        },
        {
            "bufferView" : 26,
            "componentType" : 5126,
            "count" : 10,
            "type" : "VEC2"
        },
        {
            "bufferView" : 27,
            "componentType" : 5123,
            "count" : 12,
            "type" : "SCALAR"
        },
        {
            "bufferView" : 28,
            "componentType" : 5126,
            "count" : 8,
            "max" : [
                1,
                1.3516329526901245,
                15.008604049682617
            ],
            "min" : [
                -1,
                -0.6483670473098755,
                -15.009714126586914
            ],
            "type" : "VEC3"
        },
        {
            "bufferView" : 29,
            "componentType" : 5126,
            "count" : 8,
            "type" : "VEC3"
        },
        {
            "bufferView" : 30,
            "componentType" : 5126,
            "count" : 8,
            "type" : "VEC2"
        },
        {
            "bufferView" : 31,
            "componentType" : 5123,
            "count" : 12,
            "type" : "SCALAR"
        },
        {
            "bufferView" : 32,
            "componentType" : 5126,
            "count" : 1317,
            "max" : [
                0.786768913269043,
                0.9555051326751709,
                15.011913299560547
            ],
            "min" : [
                -0.786768913269043,
                -0.22011011838912964,
                -15.013022422790527
            ],
            "type" : "VEC3"
        },
        {
            "bufferView" : 33,
            "componentType" : 5126,
            "count" : 1317,
            "type" : "VEC3"
        },
        {
            "bufferView" : 34,
            "componentType" : 5126,
            "count" : 1317,
            "type" : "VEC2"
        },
        {
            "bufferView" : 35,
            "componentType" : 5123,
            "count" : 1518,
            "type" : "SCALAR"
        }
    ],
    "bufferViews" : [
        {
            "buffer" : 0,
            "byteLength" : 6084,
            "byteOffset" : 0
        },
        {
            "buffer" : 0,
            "byteLength" : 6084,
            "byteOffset" : 6084
        },
        {
            "buffer" : 0,
            "byteLength" : 4056,
            "byteOffset" : 12168
        },
        {
            "buffer" : 0,
            "byteLength" : 2334,
            "byteOffset" : 16224
        },
        {
            "buffer" : 0,
            "byteLength" : 4656,
            "byteOffset" : 18560
        },
        {
            "buffer" : 0,
            "byteLength" : 4656,
            "byteOffset" : 23216
        },
        {
            "buffer" : 0,
            "byteLength" : 3104,
            "byteOffset" : 27872
        },
        {
            "buffer" : 0,
            "byteLength" : 1404,
            "byteOffset" : 30976
        },
        {
            "buffer" : 0,
            "byteLength" : 192,
            "byteOffset" : 32380
        },
        {
            "buffer" : 0,
            "byteLength" : 192,
            "byteOffset" : 32572
        },
        {
            "buffer" : 0,
            "byteLength" : 128,
            "byteOffset" : 32764
        },
        {
            "buffer" : 0,
            "byteLength" : 48,
            "byteOffset" : 32892
        },
        {
            "buffer" : 0,
            "byteLength" : 624,
            "byteOffset" : 32940
        },
        {
            "buffer" : 0,
            "byteLength" : 624,
            "byteOffset" : 33564
        },
        {
            "buffer" : 0,
            "byteLength" : 416,
            "byteOffset" : 34188
        },
        {
            "buffer" : 0,
            "byteLength" : 156,
            "byteOffset" : 34604
        },
        {
            "buffer" : 0,
            "byteLength" : 480,
            "byteOffset" : 34760
        },
        {
            "buffer" : 0,
            "byteLength" : 480,
            "byteOffset" : 35240
        },
        {
            "buffer" : 0,
            "byteLength" : 320,
            "byteOffset" : 35720
        },
        {
            "buffer" : 0,
            "byteLength" : 120,
            "byteOffset" : 36040
        },
        {
            "buffer" : 0,
            "byteLength" : 288,
            "byteOffset" : 36160
        },
        {
            "buffer" : 0,
            "byteLength" : 288,
            "byteOffset" : 36448
        },
        {
            "buffer" : 0,
            "byteLength" : 192,
            "byteOffset" : 36736
        },
        {
            "buffer" : 0,
            "byteLength" : 72,
            "byteOffset" : 36928
        },
        {
            "buffer" : 0,
            "byteLength" : 120,
            "byteOffset" : 37000
        },
        {
            "buffer" : 0,
            "byteLength" : 120,
            "byteOffset" : 37120
        },
        {
            "buffer" : 0,
            "byteLength" : 80,
            "byteOffset" : 37240
        },
        {
            "buffer" : 0,
            "byteLength" : 24,
            "byteOffset" : 37320
        },
        {
            "buffer" : 0,
            "byteLength" : 96,
            "byteOffset" : 37344
        },
        {
            "buffer" : 0,
            "byteLength" : 96,
            "byteOffset" : 37440
        },
        {
            "buffer" : 0,
            "byteLength" : 64,
            "byteOffset" : 37536
        },
        {
            "buffer" : 0,
            "byteLength" : 24,
            "byteOffset" : 37600
        },
        {
            "buffer" : 0,
            "byteLength" : 15804,
            "byteOffset" : 37624
        },
        {
            "buffer" : 0,
            "byteLength" : 15804,
            "byteOffset" : 53428
        },
        {
            "buffer" : 0,
            "byteLength" : 10536,
            "byteOffset" : 69232
        },
        {
            "buffer" : 0,
            "byteLength" : 3036,
            "byteOffset" : 79768
        }
    ],
    "buffers" : [
        {
            "byteLength" : 82804,
            "uri" : "b3.bin"
        }
    ]
}
