{
    "asset" : {
        "generator" : "Khronos glTF Blender I/O v1.5.17",
        "version" : "2.0"
    },
    "scene" : 0,
    "scenes" : [
        {
            "name" : "Scene",
            "nodes" : [
                0
            ]
        }
    ],
    "nodes" : [
        {
            "mesh" : 0,
            "name" : "Plane.001",
            "rotation" : [
                0,
                1,
                0,
                -1.6292068494294654e-07
            ],
            "scale" : [
                5.013199806213379,
                1,
                16.14259910583496
            ]
        }
    ],
    "materials" : [
        {
            "doubleSided" : true,
            "name" : "Material",
            "pbrMetallicRoughness" : {
                "baseColorFactor" : [
                    0.25415220856666565,
                    0.2541520893573761,
                    0.2541521489620209,
                    1
                ],
                "metallicFactor" : 0,
                "roughnessFactor" : 0.5
            }
        },
        {
            "doubleSided" : true,
            "name" : "roof",
            "pbrMetallicRoughness" : {
                "baseColorFactor" : [
                    0.08650048822164536,
                    0.009721209295094013,
                    0.012983033433556557,
                    1
                ],
                "metallicFactor" : 0,
                "roughnessFactor" : 0.5
            }
        },
        {
            "doubleSided" : true,
            "name" : "bricks",
            "pbrMetallicRoughness" : {
                "baseColorFactor" : [
                    0.800000011920929,
                    0.800000011920929,
                    0.800000011920929,
                    1
                ],
                "metallicFactor" : 0,
                "roughnessFactor" : 0.5
            }
        },
        {
            "doubleSided" : true,
            "name" : "crema",
            "pbrMetallicRoughness" : {
                "baseColorFactor" : [
                    1,
                    0.7801129817962646,
                    0.4573880732059479,
                    1
                ],
                "metallicFactor" : 0,
                "roughnessFactor" : 0.5
            }
        },
        {
            "doubleSided" : true,
            "name" : "verde",
            "pbrMetallicRoughness" : {
                "baseColorFactor" : [
                    0.06124604120850563,
                    0.20507879555225372,
                    0.042311422526836395,
                    1
                ],
                "metallicFactor" : 0,
                "roughnessFactor" : 0.5
            }
        },
        {
            "doubleSided" : true,
            "name" : "gris",
            "pbrMetallicRoughness" : {
                "baseColorFactor" : [
                    0.05886171758174896,
                    0.05886171758174896,
                    0.05886171758174896,
                    1
                ],
                "metallicFactor" : 0,
                "roughnessFactor" : 0.5
            }
        },
        {
            "doubleSided" : true,
            "name" : "puerta",
            "pbrMetallicRoughness" : {
                "baseColorFactor" : [
                    0.2874408960342407,
                    0.12213876843452454,
                    0.02028856799006462,
                    1
                ],
                "metallicFactor" : 0,
                "roughnessFactor" : 0.5
            }
        },
        {
            "doubleSided" : true,
            "name" : "puerta2",
            "pbrMetallicRoughness" : {
                "baseColorFactor" : [
                    0.09530749917030334,
                    0.12743768095970154,
                    0.16826939582824707,
                    1
                ],
                "metallicFactor" : 0,
                "roughnessFactor" : 0.5
            }
        },
        {
            "doubleSided" : true,
            "name" : "Material.002",
            "pbrMetallicRoughness" : {
                "baseColorFactor" : [
                    0.08437621593475342,
                    0.327778160572052,
                    0.021219022572040558,
                    1
                ],
                "metallicFactor" : 0,
                "roughnessFactor" : 0.5
            }
        },
        {
            "doubleSided" : true,
            "name" : "Material.001",
            "pbrMetallicRoughness" : {
                "baseColorFactor" : [
                    0.800000011920929,
                    0.800000011920929,
                    0.800000011920929,
                    1
                ],
                "metallicFactor" : 0,
                "roughnessFactor" : 0.5
            }
        }
    ],
    "meshes" : [
        {
            "name" : "Plane",
            "primitives" : [
                {
                    "attributes" : {
                        "POSITION" : 0,
                        "NORMAL" : 1,
                        "TEXCOORD_0" : 2
                    },
                    "indices" : 3,
                    "material" : 0
                },
                {
                    "attributes" : {
                        "POSITION" : 4,
                        "NORMAL" : 5,
                        "TEXCOORD_0" : 6
                    },
                    "indices" : 7,
                    "material" : 1
                },
                {
                    "attributes" : {
                        "POSITION" : 8,
                        "NORMAL" : 9,
                        "TEXCOORD_0" : 10
                    },
                    "indices" : 11,
                    "material" : 2
                },
                {
                    "attributes" : {
                        "POSITION" : 12,
                        "NORMAL" : 13,
                        "TEXCOORD_0" : 14
                    },
                    "indices" : 15,
                    "material" : 3
                },
                {
                    "attributes" : {
                        "POSITION" : 16,
                        "NORMAL" : 17,
                        "TEXCOORD_0" : 18
                    },
                    "indices" : 19,
                    "material" : 4
                },
                {
                    "attributes" : {
                        "POSITION" : 20,
                        "NORMAL" : 21,
                        "TEXCOORD_0" : 22
                    },
                    "indices" : 23,
                    "material" : 5
                },
                {
                    "attributes" : {
                        "POSITION" : 24,
                        "NORMAL" : 25,
                        "TEXCOORD_0" : 26
                    },
                    "indices" : 27,
                    "material" : 6
                },
                {
                    "attributes" : {
                        "POSITION" : 28,
                        "NORMAL" : 29,
                        "TEXCOORD_0" : 30
                    },
                    "indices" : 31,
                    "material" : 7
                },
                {
                    "attributes" : {
                        "POSITION" : 32,
                        "NORMAL" : 33,
                        "TEXCOORD_0" : 34
                    },
                    "indices" : 35,
                    "material" : 8
                },
                {
                    "attributes" : {
                        "POSITION" : 36,
                        "NORMAL" : 37,
                        "TEXCOORD_0" : 38
                    },
                    "indices" : 39,
                    "material" : 9
                }
            ]
        }
    ],
    "accessors" : [
        {
            "bufferView" : 0,
            "componentType" : 5126,
            "count" : 24,
            "max" : [
                1,
                -1.5162628889083862,
                1
            ],
            "min" : [
                -1,
                -1.603489637374878,
                -1
            ],
            "type" : "VEC3"
        },
        {
            "bufferView" : 1,
            "componentType" : 5126,
            "count" : 24,
            "type" : "VEC3"
        },
        {
            "bufferView" : 2,
            "componentType" : 5126,
            "count" : 24,
            "type" : "VEC2"
        },
        {
            "bufferView" : 3,
            "componentType" : 5123,
            "count" : 36,
            "type" : "SCALAR"
        },
        {
            "bufferView" : 4,
            "componentType" : 5126,
            "count" : 40,
            "max" : [
                0.9161014556884766,
                2.7504019737243652,
                0.9716253876686096
            ],
            "min" : [
                -0.9161014556884766,
                1.2851146459579468,
                -0.9716253876686096
            ],
            "type" : "VEC3"
        },
        {
            "bufferView" : 5,
            "componentType" : 5126,
            "count" : 40,
            "type" : "VEC3"
        },
        {
            "bufferView" : 6,
            "componentType" : 5126,
            "count" : 40,
            "type" : "VEC2"
        },
        {
            "bufferView" : 7,
            "componentType" : 5123,
            "count" : 60,
            "type" : "SCALAR"
        },
        {
            "bufferView" : 8,
            "componentType" : 5126,
            "count" : 129,
            "max" : [
                0.7756768465042114,
                1.5,
                0.9373102784156799
            ],
            "min" : [
                -0.7761134505271912,
                -1.5,
                -0.9397976994514465
            ],
            "type" : "VEC3"
        },
        {
            "bufferView" : 9,
            "componentType" : 5126,
            "count" : 129,
            "type" : "VEC3"
        },
        {
            "bufferView" : 10,
            "componentType" : 5126,
            "count" : 129,
            "type" : "VEC2"
        },
        {
            "bufferView" : 11,
            "componentType" : 5123,
            "count" : 270,
            "type" : "SCALAR"
        },
        {
            "bufferView" : 12,
            "componentType" : 5126,
            "count" : 391,
            "max" : [
                0.7756768465042114,
                2.630250930786133,
                0.9373102784156799
            ],
            "min" : [
                -0.7761134505271912,
                -1.5,
                -0.9397976994514465
            ],
            "type" : "VEC3"
        },
        {
            "bufferView" : 13,
            "componentType" : 5126,
            "count" : 391,
            "type" : "VEC3"
        },
        {
            "bufferView" : 14,
            "componentType" : 5126,
            "count" : 391,
            "type" : "VEC2"
        },
        {
            "bufferView" : 15,
            "componentType" : 5123,
            "count" : 708,
            "type" : "SCALAR"
        },
        {
            "bufferView" : 16,
            "componentType" : 5126,
            "count" : 124,
            "max" : [
                0.7756768465042114,
                -1.0726079940795898,
                0.9373102784156799
            ],
            "min" : [
                -0.7761134505271912,
                -1.5,
                -0.9397976994514465
            ],
            "type" : "VEC3"
        },
        {
            "bufferView" : 17,
            "componentType" : 5126,
            "count" : 124,
            "type" : "VEC3"
        },
        {
            "bufferView" : 18,
            "componentType" : 5126,
            "count" : 124,
            "type" : "VEC2"
        },
        {
            "bufferView" : 19,
            "componentType" : 5123,
            "count" : 204,
            "type" : "SCALAR"
        },
        {
            "bufferView" : 20,
            "componentType" : 5126,
            "count" : 16,
            "max" : [
                0.7480252981185913,
                -1.5,
                -0.23850573599338531
            ],
            "min" : [
                -0.7480252981185913,
                -1.5,
                -0.8407937288284302
            ],
            "type" : "VEC3"
        },
        {
            "bufferView" : 21,
            "componentType" : 5126,
            "count" : 16,
            "type" : "VEC3"
        },
        {
            "bufferView" : 22,
            "componentType" : 5126,
            "count" : 16,
            "type" : "VEC2"
        },
        {
            "bufferView" : 23,
            "componentType" : 5123,
            "count" : 24,
            "type" : "SCALAR"
        },
        {
            "bufferView" : 24,
            "componentType" : 5126,
            "count" : 4,
            "max" : [
                0.1107383742928505,
                0.5968400239944458,
                -0.7340521216392517
            ],
            "min" : [
                -0.10946321487426758,
                -1.5,
                -0.7340632081031799
            ],
            "type" : "VEC3"
        },
        {
            "bufferView" : 25,
            "componentType" : 5126,
            "count" : 4,
            "type" : "VEC3"
        },
        {
            "bufferView" : 26,
            "componentType" : 5126,
            "count" : 4,
            "type" : "VEC2"
        },
        {
            "bufferView" : 27,
            "componentType" : 5123,
            "count" : 6,
            "type" : "SCALAR"
        },
        {
            "bufferView" : 28,
            "componentType" : 5126,
            "count" : 8,
            "max" : [
                -0.7238402962684631,
                0.9822885394096375,
                0.5775185227394104
            ],
            "min" : [
                -0.7238403558731079,
                -1.5,
                0.261240154504776
            ],
            "type" : "VEC3"
        },
        {
            "bufferView" : 29,
            "componentType" : 5126,
            "count" : 8,
            "type" : "VEC3"
        },
        {
            "bufferView" : 30,
            "componentType" : 5126,
            "count" : 8,
            "type" : "VEC2"
        },
        {
            "bufferView" : 31,
            "componentType" : 5123,
            "count" : 12,
            "type" : "SCALAR"
        },
        {
            "bufferView" : 32,
            "componentType" : 5126,
            "count" : 8,
            "max" : [
                0.19947437942028046,
                1.5233709812164307,
                0.9294933080673218
            ],
            "min" : [
                -0.19947439432144165,
                -0.47662895917892456,
                -0.9295908212661743
            ],
            "type" : "VEC3"
        },
        {
            "bufferView" : 33,
            "componentType" : 5126,
            "count" : 8,
            "type" : "VEC3"
        },
        {
            "bufferView" : 34,
            "componentType" : 5126,
            "count" : 8,
            "type" : "VEC2"
        },
        {
            "bufferView" : 35,
            "componentType" : 5123,
            "count" : 12,
            "type" : "SCALAR"
        },
        {
            "bufferView" : 36,
            "componentType" : 5126,
            "count" : 632,
            "max" : [
                0.152372807264328,
                1.0838056802749634,
                0.9296683073043823
            ],
            "min" : [
                -0.1523728221654892,
                0.006624937057495117,
                -0.9297658205032349
            ],
            "type" : "VEC3"
        },
        {
            "bufferView" : 37,
            "componentType" : 5126,
            "count" : 632,
            "type" : "VEC3"
        },
        {
            "bufferView" : 38,
            "componentType" : 5126,
            "count" : 632,
            "type" : "VEC2"
        },
        {
            "bufferView" : 39,
            "componentType" : 5123,
            "count" : 738,
            "type" : "SCALAR"
        }
    ],
    "bufferViews" : [
        {
            "buffer" : 0,
            "byteLength" : 288,
            "byteOffset" : 0
        },
        {
            "buffer" : 0,
            "byteLength" : 288,
            "byteOffset" : 288
        },
        {
            "buffer" : 0,
            "byteLength" : 192,
            "byteOffset" : 576
        },
        {
            "buffer" : 0,
            "byteLength" : 72,
            "byteOffset" : 768
        },
        {
            "buffer" : 0,
            "byteLength" : 480,
            "byteOffset" : 840
        },
        {
            "buffer" : 0,
            "byteLength" : 480,
            "byteOffset" : 1320
        },
        {
            "buffer" : 0,
            "byteLength" : 320,
            "byteOffset" : 1800
        },
        {
            "buffer" : 0,
            "byteLength" : 120,
            "byteOffset" : 2120
        },
        {
            "buffer" : 0,
            "byteLength" : 1548,
            "byteOffset" : 2240
        },
        {
            "buffer" : 0,
            "byteLength" : 1548,
            "byteOffset" : 3788
        },
        {
            "buffer" : 0,
            "byteLength" : 1032,
            "byteOffset" : 5336
        },
        {
            "buffer" : 0,
            "byteLength" : 540,
            "byteOffset" : 6368
        },
        {
            "buffer" : 0,
            "byteLength" : 4692,
            "byteOffset" : 6908
        },
        {
            "buffer" : 0,
            "byteLength" : 4692,
            "byteOffset" : 11600
        },
        {
            "buffer" : 0,
            "byteLength" : 3128,
            "byteOffset" : 16292
        },
        {
            "buffer" : 0,
            "byteLength" : 1416,
            "byteOffset" : 19420
        },
        {
            "buffer" : 0,
            "byteLength" : 1488,
            "byteOffset" : 20836
        },
        {
            "buffer" : 0,
            "byteLength" : 1488,
            "byteOffset" : 22324
        },
        {
            "buffer" : 0,
            "byteLength" : 992,
            "byteOffset" : 23812
        },
        {
            "buffer" : 0,
            "byteLength" : 408,
            "byteOffset" : 24804
        },
        {
            "buffer" : 0,
            "byteLength" : 192,
            "byteOffset" : 25212
        },
        {
            "buffer" : 0,
            "byteLength" : 192,
            "byteOffset" : 25404
        },
        {
            "buffer" : 0,
            "byteLength" : 128,
            "byteOffset" : 25596
        },
        {
            "buffer" : 0,
            "byteLength" : 48,
            "byteOffset" : 25724
        },
        {
            "buffer" : 0,
            "byteLength" : 48,
            "byteOffset" : 25772
        },
        {
            "buffer" : 0,
            "byteLength" : 48,
            "byteOffset" : 25820
        },
        {
            "buffer" : 0,
            "byteLength" : 32,
            "byteOffset" : 25868
        },
        {
            "buffer" : 0,
            "byteLength" : 12,
            "byteOffset" : 25900
        },
        {
            "buffer" : 0,
            "byteLength" : 96,
            "byteOffset" : 25912
        },
        {
            "buffer" : 0,
            "byteLength" : 96,
            "byteOffset" : 26008
        },
        {
            "buffer" : 0,
            "byteLength" : 64,
            "byteOffset" : 26104
        },
        {
            "buffer" : 0,
            "byteLength" : 24,
            "byteOffset" : 26168
        },
        {
            "buffer" : 0,
            "byteLength" : 96,
            "byteOffset" : 26192
        },
        {
            "buffer" : 0,
            "byteLength" : 96,
            "byteOffset" : 26288
        },
        {
            "buffer" : 0,
            "byteLength" : 64,
            "byteOffset" : 26384
        },
        {
            "buffer" : 0,
            "byteLength" : 24,
            "byteOffset" : 26448
        },
        {
            "buffer" : 0,
            "byteLength" : 7584,
            "byteOffset" : 26472
        },
        {
            "buffer" : 0,
            "byteLength" : 7584,
            "byteOffset" : 34056
        },
        {
            "buffer" : 0,
            "byteLength" : 5056,
            "byteOffset" : 41640
        },
        {
            "buffer" : 0,
            "byteLength" : 1476,
            "byteOffset" : 46696
        }
    ],
    "buffers" : [
        {
            "byteLength" : 48172,
            "uri" : "b4.bin"
        }
    ]
}
