{
    "asset" : {
        "generator" : "Khronos glTF Blender I/O v1.5.17",
        "version" : "2.0"
    },
    "scene" : 0,
    "scenes" : [
        {
            "name" : "Scene",
            "nodes" : [
                0
            ]
        }
    ],
    "nodes" : [
        {
            "mesh" : 0,
            "name" : "Plane",
            "scale" : [
                5.013199806213379,
                1,
                16.14259910583496
            ]
        }
    ],
    "materials" : [
        {
            "doubleSided" : true,
            "name" : "Material",
            "pbrMetallicRoughness" : {
                "baseColorFactor" : [
                    0.25415220856666565,
                    0.2541520893573761,
                    0.2541521489620209,
                    1
                ],
                "metallicFactor" : 0,
                "roughnessFactor" : 0.5
            }
        },
        {
            "doubleSided" : true,
            "name" : "Material.002",
            "pbrMetallicRoughness" : {
                "baseColorFactor" : [
                    0.7991032600402832,
                    0.23073998093605042,
                    0.11443543434143066,
                    1
                ],
                "metallicFactor" : 0,
                "roughnessFactor" : 0.5
            }
        },
        {
            "doubleSided" : true,
            "name" : "Material.003",
            "pbrMetallicRoughness" : {
                "baseColorFactor" : [
                    1,
                    0.7801129817962646,
                    0.4573880732059479,
                    1
                ],
                "metallicFactor" : 0,
                "roughnessFactor" : 0.5
            }
        },
        {
            "doubleSided" : true,
            "name" : "gris",
            "pbrMetallicRoughness" : {
                "baseColorFactor" : [
                    0.0938660278916359,
                    0.0938660278916359,
                    0.0938660278916359,
                    1
                ],
                "metallicFactor" : 0,
                "roughnessFactor" : 0.5
            }
        },
        {
            "doubleSided" : true,
            "name" : "puerta",
            "pbrMetallicRoughness" : {
                "baseColorFactor" : [
                    0.3104635775089264,
                    0.31046316027641296,
                    0.3104635775089264,
                    1
                ],
                "metallicFactor" : 0,
                "roughnessFactor" : 0.5
            }
        },
        {
            "doubleSided" : true,
            "name" : "cosa verde",
            "pbrMetallicRoughness" : {
                "baseColorFactor" : [
                    0.06124604120850563,
                    0.20507879555225372,
                    0.042311422526836395,
                    1
                ],
                "metallicFactor" : 0,
                "roughnessFactor" : 0.5
            }
        },
        {
            "doubleSided" : true,
            "name" : "blanco",
            "pbrMetallicRoughness" : {
                "baseColorFactor" : [
                    0.800000011920929,
                    0.800000011920929,
                    0.800000011920929,
                    1
                ],
                "metallicFactor" : 0,
                "roughnessFactor" : 0.5
            }
        },
        {
            "doubleSided" : true,
            "name" : "Material.001",
            "pbrMetallicRoughness" : {
                "baseColorFactor" : [
                    0.6239607930183411,
                    0.623960554599762,
                    0.6239606738090515,
                    1
                ],
                "metallicFactor" : 0,
                "roughnessFactor" : 0.5
            }
        },
        {
            "doubleSided" : true,
            "name" : "Material.005",
            "pbrMetallicRoughness" : {
                "baseColorFactor" : [
                    0.08437621593475342,
                    0.327778160572052,
                    0.021219022572040558,
                    1
                ],
                "metallicFactor" : 0,
                "roughnessFactor" : 0.5
            }
        },
        {
            "doubleSided" : true,
            "name" : "Material.004",
            "pbrMetallicRoughness" : {
                "baseColorFactor" : [
                    0.800000011920929,
                    0.800000011920929,
                    0.800000011920929,
                    1
                ],
                "metallicFactor" : 0,
                "roughnessFactor" : 0.5
            }
        }
    ],
    "meshes" : [
        {
            "name" : "Plane",
            "primitives" : [
                {
                    "attributes" : {
                        "POSITION" : 0,
                        "NORMAL" : 1,
                        "TEXCOORD_0" : 2
                    },
                    "indices" : 3,
                    "material" : 0
                },
                {
                    "attributes" : {
                        "POSITION" : 4,
                        "NORMAL" : 5,
                        "TEXCOORD_0" : 6
                    },
                    "indices" : 7,
                    "material" : 1
                },
                {
                    "attributes" : {
                        "POSITION" : 8,
                        "NORMAL" : 9,
                        "TEXCOORD_0" : 10
                    },
                    "indices" : 11,
                    "material" : 2
                },
                {
                    "attributes" : {
                        "POSITION" : 12,
                        "NORMAL" : 13,
                        "TEXCOORD_0" : 14
                    },
                    "indices" : 15,
                    "material" : 3
                },
                {
                    "attributes" : {
                        "POSITION" : 16,
                        "NORMAL" : 17,
                        "TEXCOORD_0" : 18
                    },
                    "indices" : 19,
                    "material" : 4
                },
                {
                    "attributes" : {
                        "POSITION" : 20,
                        "NORMAL" : 21,
                        "TEXCOORD_0" : 22
                    },
                    "indices" : 23,
                    "material" : 5
                },
                {
                    "attributes" : {
                        "POSITION" : 24,
                        "NORMAL" : 25,
                        "TEXCOORD_0" : 26
                    },
                    "indices" : 27,
                    "material" : 6
                },
                {
                    "attributes" : {
                        "POSITION" : 28,
                        "NORMAL" : 29,
                        "TEXCOORD_0" : 30
                    },
                    "indices" : 31,
                    "material" : 7
                },
                {
                    "attributes" : {
                        "POSITION" : 32,
                        "NORMAL" : 33,
                        "TEXCOORD_0" : 34
                    },
                    "indices" : 35,
                    "material" : 8
                },
                {
                    "attributes" : {
                        "POSITION" : 36,
                        "NORMAL" : 37,
                        "TEXCOORD_0" : 38
                    },
                    "indices" : 39,
                    "material" : 9
                }
            ]
        }
    ],
    "accessors" : [
        {
            "bufferView" : 0,
            "componentType" : 5126,
            "count" : 24,
            "max" : [
                1,
                -1.5037519931793213,
                1
            ],
            "min" : [
                -1,
                -1.5857254266738892,
                -1
            ],
            "type" : "VEC3"
        },
        {
            "bufferView" : 1,
            "componentType" : 5126,
            "count" : 24,
            "type" : "VEC3"
        },
        {
            "bufferView" : 2,
            "componentType" : 5126,
            "count" : 24,
            "type" : "VEC2"
        },
        {
            "bufferView" : 3,
            "componentType" : 5123,
            "count" : 36,
            "type" : "SCALAR"
        },
        {
            "bufferView" : 4,
            "componentType" : 5126,
            "count" : 428,
            "max" : [
                0.9041810035705566,
                2.630250930786133,
                0.9667883515357971
            ],
            "min" : [
                -0.7761134505271912,
                -1.5011999607086182,
                -0.9397976994514465
            ],
            "type" : "VEC3"
        },
        {
            "bufferView" : 5,
            "componentType" : 5126,
            "count" : 428,
            "type" : "VEC3"
        },
        {
            "bufferView" : 6,
            "componentType" : 5126,
            "count" : 428,
            "type" : "VEC2"
        },
        {
            "bufferView" : 7,
            "componentType" : 5123,
            "count" : 834,
            "type" : "SCALAR"
        },
        {
            "bufferView" : 8,
            "componentType" : 5126,
            "count" : 18,
            "max" : [
                0.7480252981185913,
                2.630250930786133,
                0.9292184710502625
            ],
            "min" : [
                -0.7480252981185913,
                1.5,
                -0.9292184710502625
            ],
            "type" : "VEC3"
        },
        {
            "bufferView" : 9,
            "componentType" : 5126,
            "count" : 18,
            "type" : "VEC3"
        },
        {
            "bufferView" : 10,
            "componentType" : 5126,
            "count" : 18,
            "type" : "VEC2"
        },
        {
            "bufferView" : 11,
            "componentType" : 5123,
            "count" : 30,
            "type" : "SCALAR"
        },
        {
            "bufferView" : 12,
            "componentType" : 5126,
            "count" : 40,
            "max" : [
                0.7480252981185913,
                0.6521738767623901,
                0.9028127789497375
            ],
            "min" : [
                -0.7480252981185913,
                -1.5,
                -0.9040511846542358
            ],
            "type" : "VEC3"
        },
        {
            "bufferView" : 13,
            "componentType" : 5126,
            "count" : 40,
            "type" : "VEC3"
        },
        {
            "bufferView" : 14,
            "componentType" : 5126,
            "count" : 40,
            "type" : "VEC2"
        },
        {
            "bufferView" : 15,
            "componentType" : 5123,
            "count" : 66,
            "type" : "SCALAR"
        },
        {
            "bufferView" : 16,
            "componentType" : 5126,
            "count" : 16,
            "max" : [
                0.7216137647628784,
                0.6521738767623901,
                0.864922046661377
            ],
            "min" : [
                0.7129611372947693,
                -1.5,
                -0.42803505063056946
            ],
            "type" : "VEC3"
        },
        {
            "bufferView" : 17,
            "componentType" : 5126,
            "count" : 16,
            "type" : "VEC3"
        },
        {
            "bufferView" : 18,
            "componentType" : 5126,
            "count" : 16,
            "type" : "VEC2"
        },
        {
            "bufferView" : 19,
            "componentType" : 5123,
            "count" : 24,
            "type" : "SCALAR"
        },
        {
            "bufferView" : 20,
            "componentType" : 5126,
            "count" : 48,
            "max" : [
                0.8984569311141968,
                1.3792426586151123,
                -0.7075110673904419
            ],
            "min" : [
                -0.8987545967102051,
                -1.4997568130493164,
                -0.7841140031814575
            ],
            "type" : "VEC3"
        },
        {
            "bufferView" : 21,
            "componentType" : 5126,
            "count" : 48,
            "type" : "VEC3"
        },
        {
            "bufferView" : 22,
            "componentType" : 5126,
            "count" : 48,
            "type" : "VEC2"
        },
        {
            "bufferView" : 23,
            "componentType" : 5123,
            "count" : 72,
            "type" : "SCALAR"
        },
        {
            "bufferView" : 24,
            "componentType" : 5126,
            "count" : 128,
            "max" : [
                0.9041810035705566,
                1.3956844806671143,
                0.9667883515357971
            ],
            "min" : [
                0.8682483434677124,
                -1.5011999607086182,
                0.9556292295455933
            ],
            "type" : "VEC3"
        },
        {
            "bufferView" : 25,
            "componentType" : 5126,
            "count" : 128,
            "type" : "VEC3"
        },
        {
            "bufferView" : 26,
            "componentType" : 5126,
            "count" : 128,
            "type" : "VEC2"
        },
        {
            "bufferView" : 27,
            "componentType" : 5123,
            "count" : 192,
            "type" : "SCALAR"
        },
        {
            "bufferView" : 28,
            "componentType" : 5126,
            "count" : 36,
            "max" : [
                0.9161014556884766,
                2.7504019737243652,
                0.9716253876686096
            ],
            "min" : [
                -0.9161014556884766,
                1.2851146459579468,
                -0.9716253876686096
            ],
            "type" : "VEC3"
        },
        {
            "bufferView" : 29,
            "componentType" : 5126,
            "count" : 36,
            "type" : "VEC3"
        },
        {
            "bufferView" : 30,
            "componentType" : 5126,
            "count" : 36,
            "type" : "VEC2"
        },
        {
            "bufferView" : 31,
            "componentType" : 5123,
            "count" : 60,
            "type" : "SCALAR"
        },
        {
            "bufferView" : 32,
            "componentType" : 5126,
            "count" : 8,
            "max" : [
                0.19947341084480286,
                1.4525662660598755,
                0.9298455715179443
            ],
            "min" : [
                -0.19947341084480286,
                -0.5474337339401245,
                -0.9308772087097168
            ],
            "type" : "VEC3"
        },
        {
            "bufferView" : 33,
            "componentType" : 5126,
            "count" : 8,
            "type" : "VEC3"
        },
        {
            "bufferView" : 34,
            "componentType" : 5126,
            "count" : 8,
            "type" : "VEC2"
        },
        {
            "bufferView" : 35,
            "componentType" : 5123,
            "count" : 12,
            "type" : "SCALAR"
        },
        {
            "bufferView" : 36,
            "componentType" : 5126,
            "count" : 973,
            "max" : [
                0.16580550372600555,
                1.06728994846344,
                0.9300814270973206
            ],
            "min" : [
                -0.16580550372600555,
                -0.13690730929374695,
                -0.9311130046844482
            ],
            "type" : "VEC3"
        },
        {
            "bufferView" : 37,
            "componentType" : 5126,
            "count" : 973,
            "type" : "VEC3"
        },
        {
            "bufferView" : 38,
            "componentType" : 5126,
            "count" : 973,
            "type" : "VEC2"
        },
        {
            "bufferView" : 39,
            "componentType" : 5123,
            "count" : 1104,
            "type" : "SCALAR"
        }
    ],
    "bufferViews" : [
        {
            "buffer" : 0,
            "byteLength" : 288,
            "byteOffset" : 0
        },
        {
            "buffer" : 0,
            "byteLength" : 288,
            "byteOffset" : 288
        },
        {
            "buffer" : 0,
            "byteLength" : 192,
            "byteOffset" : 576
        },
        {
            "buffer" : 0,
            "byteLength" : 72,
            "byteOffset" : 768
        },
        {
            "buffer" : 0,
            "byteLength" : 5136,
            "byteOffset" : 840
        },
        {
            "buffer" : 0,
            "byteLength" : 5136,
            "byteOffset" : 5976
        },
        {
            "buffer" : 0,
            "byteLength" : 3424,
            "byteOffset" : 11112
        },
        {
            "buffer" : 0,
            "byteLength" : 1668,
            "byteOffset" : 14536
        },
        {
            "buffer" : 0,
            "byteLength" : 216,
            "byteOffset" : 16204
        },
        {
            "buffer" : 0,
            "byteLength" : 216,
            "byteOffset" : 16420
        },
        {
            "buffer" : 0,
            "byteLength" : 144,
            "byteOffset" : 16636
        },
        {
            "buffer" : 0,
            "byteLength" : 60,
            "byteOffset" : 16780
        },
        {
            "buffer" : 0,
            "byteLength" : 480,
            "byteOffset" : 16840
        },
        {
            "buffer" : 0,
            "byteLength" : 480,
            "byteOffset" : 17320
        },
        {
            "buffer" : 0,
            "byteLength" : 320,
            "byteOffset" : 17800
        },
        {
            "buffer" : 0,
            "byteLength" : 132,
            "byteOffset" : 18120
        },
        {
            "buffer" : 0,
            "byteLength" : 192,
            "byteOffset" : 18252
        },
        {
            "buffer" : 0,
            "byteLength" : 192,
            "byteOffset" : 18444
        },
        {
            "buffer" : 0,
            "byteLength" : 128,
            "byteOffset" : 18636
        },
        {
            "buffer" : 0,
            "byteLength" : 48,
            "byteOffset" : 18764
        },
        {
            "buffer" : 0,
            "byteLength" : 576,
            "byteOffset" : 18812
        },
        {
            "buffer" : 0,
            "byteLength" : 576,
            "byteOffset" : 19388
        },
        {
            "buffer" : 0,
            "byteLength" : 384,
            "byteOffset" : 19964
        },
        {
            "buffer" : 0,
            "byteLength" : 144,
            "byteOffset" : 20348
        },
        {
            "buffer" : 0,
            "byteLength" : 1536,
            "byteOffset" : 20492
        },
        {
            "buffer" : 0,
            "byteLength" : 1536,
            "byteOffset" : 22028
        },
        {
            "buffer" : 0,
            "byteLength" : 1024,
            "byteOffset" : 23564
        },
        {
            "buffer" : 0,
            "byteLength" : 384,
            "byteOffset" : 24588
        },
        {
            "buffer" : 0,
            "byteLength" : 432,
            "byteOffset" : 24972
        },
        {
            "buffer" : 0,
            "byteLength" : 432,
            "byteOffset" : 25404
        },
        {
            "buffer" : 0,
            "byteLength" : 288,
            "byteOffset" : 25836
        },
        {
            "buffer" : 0,
            "byteLength" : 120,
            "byteOffset" : 26124
        },
        {
            "buffer" : 0,
            "byteLength" : 96,
            "byteOffset" : 26244
        },
        {
            "buffer" : 0,
            "byteLength" : 96,
            "byteOffset" : 26340
        },
        {
            "buffer" : 0,
            "byteLength" : 64,
            "byteOffset" : 26436
        },
        {
            "buffer" : 0,
            "byteLength" : 24,
            "byteOffset" : 26500
        },
        {
            "buffer" : 0,
            "byteLength" : 11676,
            "byteOffset" : 26524
        },
        {
            "buffer" : 0,
            "byteLength" : 11676,
            "byteOffset" : 38200
        },
        {
            "buffer" : 0,
            "byteLength" : 7784,
            "byteOffset" : 49876
        },
        {
            "buffer" : 0,
            "byteLength" : 2208,
            "byteOffset" : 57660
        }
    ],
    "buffers" : [
        {
            "byteLength" : 59868,
            "uri" : "b5.bin"
        }
    ]
}
