{
    "asset" : {
        "generator" : "Khronos glTF Blender I/O v1.5.17",
        "version" : "2.0"
    },
    "scene" : 0,
    "scenes" : [
        {
            "name" : "Scene",
            "nodes" : [
                0
            ]
        }
    ],
    "nodes" : [
        {
            "mesh" : 0,
            "name" : "Cube"
        }
    ],
    "materials" : [
        {
            "doubleSided" : true,
            "name" : "bricks",
            "pbrMetallicRoughness" : {
                "baseColorFactor" : [
                    0.800000011920929,
                    0.800000011920929,
                    0.800000011920929,
                    1
                ],
                "metallicFactor" : 0,
                "roughnessFactor" : 0.5
            }
        },
        {
            "doubleSided" : true,
            "name" : "crema",
            "pbrMetallicRoughness" : {
                "baseColorFactor" : [
                    1,
                    0.7801129817962646,
                    0.4573880732059479,
                    1
                ],
                "metallicFactor" : 0,
                "roughnessFactor" : 0.5
            }
        },
        {
            "doubleSided" : true,
            "name" : "verde",
            "pbrMetallicRoughness" : {
                "baseColorFactor" : [
                    0.06124604120850563,
                    0.20507879555225372,
                    0.042311422526836395,
                    1
                ],
                "metallicFactor" : 0,
                "roughnessFactor" : 0.5
            }
        },
        {
            "doubleSided" : true,
            "name" : "puerta",
            "pbrMetallicRoughness" : {
                "baseColorFactor" : [
                    0.2874408960342407,
                    0.12213876843452454,
                    0.02028856799006462,
                    1
                ],
                "metallicFactor" : 0,
                "roughnessFactor" : 0.5
            }
        },
        {
            "doubleSided" : true,
            "name" : "puerta2",
            "pbrMetallicRoughness" : {
                "baseColorFactor" : [
                    0.2874408960342407,
                    0.12213876843452454,
                    0.02028856799006462,
                    1
                ],
                "metallicFactor" : 0,
                "roughnessFactor" : 0.5
            }
        },
        {
            "doubleSided" : true,
            "name" : "Material.001",
            "pbrMetallicRoughness" : {
                "baseColorFactor" : [
                    0.08650048822164536,
                    0.009721209295094013,
                    0.012983033433556557,
                    1
                ],
                "metallicFactor" : 0,
                "roughnessFactor" : 0.5
            }
        },
        {
            "doubleSided" : true,
            "name" : "Material",
            "pbrMetallicRoughness" : {
                "baseColorFactor" : [
                    0.25415220856666565,
                    0.2541520893573761,
                    0.2541521489620209,
                    1
                ],
                "metallicFactor" : 0,
                "roughnessFactor" : 0.5
            }
        },
        {
            "doubleSided" : true,
            "name" : "Material.003",
            "pbrMetallicRoughness" : {
                "baseColorFactor" : [
                    0.08437621593475342,
                    0.327778160572052,
                    0.021219022572040558,
                    1
                ],
                "metallicFactor" : 0,
                "roughnessFactor" : 0.5
            }
        },
        {
            "doubleSided" : true,
            "name" : "Material.002",
            "pbrMetallicRoughness" : {
                "baseColorFactor" : [
                    0.800000011920929,
                    0.800000011920929,
                    0.800000011920929,
                    1
                ],
                "metallicFactor" : 0,
                "roughnessFactor" : 0.5
            }
        }
    ],
    "meshes" : [
        {
            "name" : "Cube.003",
            "primitives" : [
                {
                    "attributes" : {
                        "POSITION" : 0,
                        "NORMAL" : 1,
                        "TEXCOORD_0" : 2
                    },
                    "indices" : 3,
                    "material" : 0
                },
                {
                    "attributes" : {
                        "POSITION" : 4,
                        "NORMAL" : 5,
                        "TEXCOORD_0" : 6
                    },
                    "indices" : 7,
                    "material" : 1
                },
                {
                    "attributes" : {
                        "POSITION" : 8,
                        "NORMAL" : 9,
                        "TEXCOORD_0" : 10
                    },
                    "indices" : 11,
                    "material" : 2
                },
                {
                    "attributes" : {
                        "POSITION" : 12,
                        "NORMAL" : 13,
                        "TEXCOORD_0" : 14
                    },
                    "indices" : 15,
                    "material" : 3
                },
                {
                    "attributes" : {
                        "POSITION" : 16,
                        "NORMAL" : 17,
                        "TEXCOORD_0" : 18
                    },
                    "indices" : 19,
                    "material" : 4
                },
                {
                    "attributes" : {
                        "POSITION" : 20,
                        "NORMAL" : 21,
                        "TEXCOORD_0" : 22
                    },
                    "indices" : 23,
                    "material" : 5
                },
                {
                    "attributes" : {
                        "POSITION" : 24,
                        "NORMAL" : 25,
                        "TEXCOORD_0" : 26
                    },
                    "indices" : 27,
                    "material" : 6
                },
                {
                    "attributes" : {
                        "POSITION" : 28,
                        "NORMAL" : 29,
                        "TEXCOORD_0" : 30
                    },
                    "indices" : 19,
                    "material" : 7
                },
                {
                    "attributes" : {
                        "POSITION" : 31,
                        "NORMAL" : 32,
                        "TEXCOORD_0" : 33
                    },
                    "indices" : 34,
                    "material" : 8
                }
            ]
        }
    ],
    "accessors" : [
        {
            "bufferView" : 0,
            "componentType" : 5126,
            "count" : 143,
            "max" : [
                3.888622522354126,
                1.5242855548858643,
                15.130622863769531
            ],
            "min" : [
                -3.8908114433288574,
                -1.5,
                -15.1707763671875
            ],
            "type" : "VEC3"
        },
        {
            "bufferView" : 1,
            "componentType" : 5126,
            "count" : 143,
            "type" : "VEC3"
        },
        {
            "bufferView" : 2,
            "componentType" : 5126,
            "count" : 143,
            "type" : "VEC2"
        },
        {
            "bufferView" : 3,
            "componentType" : 5123,
            "count" : 324,
            "type" : "SCALAR"
        },
        {
            "bufferView" : 4,
            "componentType" : 5126,
            "count" : 191,
            "max" : [
                3.888622522354126,
                2.630250930786133,
                15.130622863769531
            ],
            "min" : [
                -3.8908114433288574,
                -1.085176944732666,
                -15.1707763671875
            ],
            "type" : "VEC3"
        },
        {
            "bufferView" : 5,
            "componentType" : 5126,
            "count" : 191,
            "type" : "VEC3"
        },
        {
            "bufferView" : 6,
            "componentType" : 5126,
            "count" : 191,
            "type" : "VEC2"
        },
        {
            "bufferView" : 7,
            "componentType" : 5123,
            "count" : 369,
            "type" : "SCALAR"
        },
        {
            "bufferView" : 8,
            "componentType" : 5126,
            "count" : 118,
            "max" : [
                3.888622522354126,
                -1.085176944732666,
                15.130622863769531
            ],
            "min" : [
                -3.8908114433288574,
                -1.5,
                -15.1707763671875
            ],
            "type" : "VEC3"
        },
        {
            "bufferView" : 9,
            "componentType" : 5126,
            "count" : 118,
            "type" : "VEC3"
        },
        {
            "bufferView" : 10,
            "componentType" : 5126,
            "count" : 118,
            "type" : "VEC2"
        },
        {
            "bufferView" : 11,
            "componentType" : 5123,
            "count" : 198,
            "type" : "SCALAR"
        },
        {
            "bufferView" : 12,
            "componentType" : 5126,
            "count" : 8,
            "max" : [
                1.5943602323532104,
                0.6053948402404785,
                14.896330833435059
            ],
            "min" : [
                -2.7943904399871826,
                -1.5,
                14.896330833435059
            ],
            "type" : "VEC3"
        },
        {
            "bufferView" : 13,
            "componentType" : 5126,
            "count" : 8,
            "type" : "VEC3"
        },
        {
            "bufferView" : 14,
            "componentType" : 5126,
            "count" : 8,
            "type" : "VEC2"
        },
        {
            "bufferView" : 15,
            "componentType" : 5123,
            "count" : 12,
            "type" : "SCALAR"
        },
        {
            "bufferView" : 16,
            "componentType" : 5126,
            "count" : 4,
            "max" : [
                -3.6333279609680176,
                0.7011387348175049,
                10.505926132202148
            ],
            "min" : [
                -3.6333279609680176,
                -1.5,
                8.855202674865723
            ],
            "type" : "VEC3"
        },
        {
            "bufferView" : 17,
            "componentType" : 5126,
            "count" : 4,
            "type" : "VEC3"
        },
        {
            "bufferView" : 18,
            "componentType" : 5126,
            "count" : 4,
            "type" : "VEC2"
        },
        {
            "bufferView" : 19,
            "componentType" : 5123,
            "count" : 6,
            "type" : "SCALAR"
        },
        {
            "bufferView" : 20,
            "componentType" : 5126,
            "count" : 40,
            "max" : [
                4.592599391937256,
                2.7504019737243652,
                15.684557914733887
            ],
            "min" : [
                -4.592599391937256,
                1.2851146459579468,
                -15.684557914733887
            ],
            "type" : "VEC3"
        },
        {
            "bufferView" : 21,
            "componentType" : 5126,
            "count" : 40,
            "type" : "VEC3"
        },
        {
            "bufferView" : 22,
            "componentType" : 5126,
            "count" : 40,
            "type" : "VEC2"
        },
        {
            "bufferView" : 23,
            "componentType" : 5123,
            "count" : 60,
            "type" : "SCALAR"
        },
        {
            "bufferView" : 24,
            "componentType" : 5126,
            "count" : 24,
            "max" : [
                5.013199806213379,
                -1.4911179542541504,
                16.14259910583496
            ],
            "min" : [
                -5.013199806213379,
                -1.625553846359253,
                -16.14259910583496
            ],
            "type" : "VEC3"
        },
        {
            "bufferView" : 25,
            "componentType" : 5126,
            "count" : 24,
            "type" : "VEC3"
        },
        {
            "bufferView" : 26,
            "componentType" : 5126,
            "count" : 24,
            "type" : "VEC2"
        },
        {
            "bufferView" : 27,
            "componentType" : 5123,
            "count" : 36,
            "type" : "SCALAR"
        },
        {
            "bufferView" : 28,
            "componentType" : 5126,
            "count" : 4,
            "max" : [
                1,
                1.5573806762695312,
                -15.034351348876953
            ],
            "min" : [
                -1,
                -0.44261932373046875,
                -15.034351348876953
            ],
            "type" : "VEC3"
        },
        {
            "bufferView" : 29,
            "componentType" : 5126,
            "count" : 4,
            "type" : "VEC3"
        },
        {
            "bufferView" : 30,
            "componentType" : 5126,
            "count" : 4,
            "type" : "VEC2"
        },
        {
            "bufferView" : 31,
            "componentType" : 5126,
            "count" : 587,
            "max" : [
                0.7817788124084473,
                1.1660606861114502,
                -15.03563404083252
            ],
            "min" : [
                -0.8355576992034912,
                -0.02190941572189331,
                -15.035634994506836
            ],
            "type" : "VEC3"
        },
        {
            "bufferView" : 32,
            "componentType" : 5126,
            "count" : 587,
            "type" : "VEC3"
        },
        {
            "bufferView" : 33,
            "componentType" : 5126,
            "count" : 587,
            "type" : "VEC2"
        },
        {
            "bufferView" : 34,
            "componentType" : 5123,
            "count" : 687,
            "type" : "SCALAR"
        }
    ],
    "bufferViews" : [
        {
            "buffer" : 0,
            "byteLength" : 1716,
            "byteOffset" : 0
        },
        {
            "buffer" : 0,
            "byteLength" : 1716,
            "byteOffset" : 1716
        },
        {
            "buffer" : 0,
            "byteLength" : 1144,
            "byteOffset" : 3432
        },
        {
            "buffer" : 0,
            "byteLength" : 648,
            "byteOffset" : 4576
        },
        {
            "buffer" : 0,
            "byteLength" : 2292,
            "byteOffset" : 5224
        },
        {
            "buffer" : 0,
            "byteLength" : 2292,
            "byteOffset" : 7516
        },
        {
            "buffer" : 0,
            "byteLength" : 1528,
            "byteOffset" : 9808
        },
        {
            "buffer" : 0,
            "byteLength" : 738,
            "byteOffset" : 11336
        },
        {
            "buffer" : 0,
            "byteLength" : 1416,
            "byteOffset" : 12076
        },
        {
            "buffer" : 0,
            "byteLength" : 1416,
            "byteOffset" : 13492
        },
        {
            "buffer" : 0,
            "byteLength" : 944,
            "byteOffset" : 14908
        },
        {
            "buffer" : 0,
            "byteLength" : 396,
            "byteOffset" : 15852
        },
        {
            "buffer" : 0,
            "byteLength" : 96,
            "byteOffset" : 16248
        },
        {
            "buffer" : 0,
            "byteLength" : 96,
            "byteOffset" : 16344
        },
        {
            "buffer" : 0,
            "byteLength" : 64,
            "byteOffset" : 16440
        },
        {
            "buffer" : 0,
            "byteLength" : 24,
            "byteOffset" : 16504
        },
        {
            "buffer" : 0,
            "byteLength" : 48,
            "byteOffset" : 16528
        },
        {
            "buffer" : 0,
            "byteLength" : 48,
            "byteOffset" : 16576
        },
        {
            "buffer" : 0,
            "byteLength" : 32,
            "byteOffset" : 16624
        },
        {
            "buffer" : 0,
            "byteLength" : 12,
            "byteOffset" : 16656
        },
        {
            "buffer" : 0,
            "byteLength" : 480,
            "byteOffset" : 16668
        },
        {
            "buffer" : 0,
            "byteLength" : 480,
            "byteOffset" : 17148
        },
        {
            "buffer" : 0,
            "byteLength" : 320,
            "byteOffset" : 17628
        },
        {
            "buffer" : 0,
            "byteLength" : 120,
            "byteOffset" : 17948
        },
        {
            "buffer" : 0,
            "byteLength" : 288,
            "byteOffset" : 18068
        },
        {
            "buffer" : 0,
            "byteLength" : 288,
            "byteOffset" : 18356
        },
        {
            "buffer" : 0,
            "byteLength" : 192,
            "byteOffset" : 18644
        },
        {
            "buffer" : 0,
            "byteLength" : 72,
            "byteOffset" : 18836
        },
        {
            "buffer" : 0,
            "byteLength" : 48,
            "byteOffset" : 18908
        },
        {
            "buffer" : 0,
            "byteLength" : 48,
            "byteOffset" : 18956
        },
        {
            "buffer" : 0,
            "byteLength" : 32,
            "byteOffset" : 19004
        },
        {
            "buffer" : 0,
            "byteLength" : 7044,
            "byteOffset" : 19036
        },
        {
            "buffer" : 0,
            "byteLength" : 7044,
            "byteOffset" : 26080
        },
        {
            "buffer" : 0,
            "byteLength" : 4696,
            "byteOffset" : 33124
        },
        {
            "buffer" : 0,
            "byteLength" : 1374,
            "byteOffset" : 37820
        }
    ],
    "buffers" : [
        {
            "byteLength" : 39196,
            "uri" : "b6.bin"
        }
    ]
}
