{
    "asset" : {
        "generator" : "Khronos glTF Blender I/O v1.5.17",
        "version" : "2.0"
    },
    "scene" : 0,
    "scenes" : [
        {
            "name" : "Scene",
            "nodes" : [
                0
            ]
        }
    ],
    "nodes" : [
        {
            "mesh" : 0,
            "name" : "Cube"
        }
    ],
    "materials" : [
        {
            "doubleSided" : true,
            "name" : "Material.002",
            "pbrMetallicRoughness" : {
                "baseColorFactor" : [
                    0.7991032600402832,
                    0.23073998093605042,
                    0.11443543434143066,
                    1
                ],
                "metallicFactor" : 0,
                "roughnessFactor" : 0.5
            }
        },
        {
            "doubleSided" : true,
            "name" : "Material.003",
            "pbrMetallicRoughness" : {
                "baseColorFactor" : [
                    1,
                    0.7801129817962646,
                    0.4573880732059479,
                    1
                ],
                "metallicFactor" : 0,
                "roughnessFactor" : 0.5
            }
        },
        {
            "doubleSided" : true,
            "name" : "ventana",
            "pbrMetallicRoughness" : {
                "baseColorFactor" : [
                    0.09530749917030334,
                    0.12743768095970154,
                    0.16826939582824707,
                    1
                ],
                "metallicFactor" : 0,
                "roughnessFactor" : 0.5
            }
        },
        {
            "doubleSided" : true,
            "name" : "puerta2",
            "pbrMetallicRoughness" : {
                "baseColorFactor" : [
                    0.2874408960342407,
                    0.12213876843452454,
                    0.02028856799006462,
                    1
                ],
                "metallicFactor" : 0,
                "roughnessFactor" : 0.5
            }
        },
        {
            "doubleSided" : true,
            "name" : "Material.001",
            "pbrMetallicRoughness" : {
                "baseColorFactor" : [
                    0.6239607930183411,
                    0.623960554599762,
                    0.6239606738090515,
                    1
                ],
                "metallicFactor" : 0,
                "roughnessFactor" : 0.5
            }
        },
        {
            "doubleSided" : true,
            "name" : "Material",
            "pbrMetallicRoughness" : {
                "baseColorFactor" : [
                    0.25415220856666565,
                    0.2541520893573761,
                    0.2541521489620209,
                    1
                ],
                "metallicFactor" : 0,
                "roughnessFactor" : 0.5
            }
        },
        {
            "doubleSided" : true,
            "name" : "Material.005",
            "pbrMetallicRoughness" : {
                "baseColorFactor" : [
                    0.08437621593475342,
                    0.327778160572052,
                    0.021219022572040558,
                    1
                ],
                "metallicFactor" : 0,
                "roughnessFactor" : 0.5
            }
        },
        {
            "doubleSided" : true,
            "name" : "Material.004",
            "pbrMetallicRoughness" : {
                "baseColorFactor" : [
                    0.800000011920929,
                    0.800000011920929,
                    0.800000011920929,
                    1
                ],
                "metallicFactor" : 0,
                "roughnessFactor" : 0.5
            }
        }
    ],
    "meshes" : [
        {
            "name" : "Cube.003",
            "primitives" : [
                {
                    "attributes" : {
                        "POSITION" : 0,
                        "NORMAL" : 1,
                        "TEXCOORD_0" : 2
                    },
                    "indices" : 3,
                    "material" : 0
                },
                {
                    "attributes" : {
                        "POSITION" : 4,
                        "NORMAL" : 5,
                        "TEXCOORD_0" : 6
                    },
                    "indices" : 7,
                    "material" : 1
                },
                {
                    "attributes" : {
                        "POSITION" : 8,
                        "NORMAL" : 9,
                        "TEXCOORD_0" : 10
                    },
                    "indices" : 11,
                    "material" : 2
                },
                {
                    "attributes" : {
                        "POSITION" : 12,
                        "NORMAL" : 13,
                        "TEXCOORD_0" : 14
                    },
                    "indices" : 15,
                    "material" : 3
                },
                {
                    "attributes" : {
                        "POSITION" : 16,
                        "NORMAL" : 17,
                        "TEXCOORD_0" : 18
                    },
                    "indices" : 19,
                    "material" : 4
                },
                {
                    "attributes" : {
                        "POSITION" : 20,
                        "NORMAL" : 21,
                        "TEXCOORD_0" : 22
                    },
                    "indices" : 23,
                    "material" : 5
                },
                {
                    "attributes" : {
                        "POSITION" : 24,
                        "NORMAL" : 25,
                        "TEXCOORD_0" : 26
                    },
                    "indices" : 27,
                    "material" : 6
                },
                {
                    "attributes" : {
                        "POSITION" : 28,
                        "NORMAL" : 29,
                        "TEXCOORD_0" : 30
                    },
                    "indices" : 31,
                    "material" : 7
                }
            ]
        }
    ],
    "accessors" : [
        {
            "bufferView" : 0,
            "componentType" : 5126,
            "count" : 437,
            "max" : [
                3.888622522354126,
                2.630250930786133,
                15.130622863769531
            ],
            "min" : [
                -3.8908114433288574,
                -1.5,
                -15.1707763671875
            ],
            "type" : "VEC3"
        },
        {
            "bufferView" : 1,
            "componentType" : 5126,
            "count" : 437,
            "type" : "VEC3"
        },
        {
            "bufferView" : 2,
            "componentType" : 5126,
            "count" : 437,
            "type" : "VEC2"
        },
        {
            "bufferView" : 3,
            "componentType" : 5123,
            "count" : 1020,
            "type" : "SCALAR"
        },
        {
            "bufferView" : 4,
            "componentType" : 5126,
            "count" : 490,
            "max" : [
                3.888622522354126,
                2.630250930786133,
                15.130622863769531
            ],
            "min" : [
                -3.8908114433288574,
                -1.5,
                -15.1707763671875
            ],
            "type" : "VEC3"
        },
        {
            "bufferView" : 5,
            "componentType" : 5126,
            "count" : 490,
            "type" : "VEC3"
        },
        {
            "bufferView" : 6,
            "componentType" : 5126,
            "count" : 490,
            "type" : "VEC2"
        },
        {
            "bufferView" : 7,
            "componentType" : 5123,
            "count" : 1014,
            "type" : "SCALAR"
        },
        {
            "bufferView" : 8,
            "componentType" : 5126,
            "count" : 48,
            "max" : [
                3.5846457481384277,
                1.119899034500122,
                13.873489379882812
            ],
            "min" : [
                -3.608314275741577,
                -0.3160521984100342,
                -13.850014686584473
            ],
            "type" : "VEC3"
        },
        {
            "bufferView" : 9,
            "componentType" : 5126,
            "count" : 48,
            "type" : "VEC3"
        },
        {
            "bufferView" : 10,
            "componentType" : 5126,
            "count" : 48,
            "type" : "VEC2"
        },
        {
            "bufferView" : 11,
            "componentType" : 5123,
            "count" : 72,
            "type" : "SCALAR"
        },
        {
            "bufferView" : 12,
            "componentType" : 5126,
            "count" : 4,
            "max" : [
                3.4289369583129883,
                1.119899034500122,
                1.2433991432189941
            ],
            "min" : [
                3.4289369583129883,
                -1.5,
                -1.263390064239502
            ],
            "type" : "VEC3"
        },
        {
            "bufferView" : 13,
            "componentType" : 5126,
            "count" : 4,
            "type" : "VEC3"
        },
        {
            "bufferView" : 14,
            "componentType" : 5126,
            "count" : 4,
            "type" : "VEC2"
        },
        {
            "bufferView" : 15,
            "componentType" : 5123,
            "count" : 6,
            "type" : "SCALAR"
        },
        {
            "bufferView" : 16,
            "componentType" : 5126,
            "count" : 40,
            "max" : [
                4.592599391937256,
                2.7504019737243652,
                15.684557914733887
            ],
            "min" : [
                -4.592599391937256,
                1.2851146459579468,
                -15.684557914733887
            ],
            "type" : "VEC3"
        },
        {
            "bufferView" : 17,
            "componentType" : 5126,
            "count" : 40,
            "type" : "VEC3"
        },
        {
            "bufferView" : 18,
            "componentType" : 5126,
            "count" : 40,
            "type" : "VEC2"
        },
        {
            "bufferView" : 19,
            "componentType" : 5123,
            "count" : 60,
            "type" : "SCALAR"
        },
        {
            "bufferView" : 20,
            "componentType" : 5126,
            "count" : 24,
            "max" : [
                5.013199806213379,
                -1.514660120010376,
                16.14259910583496
            ],
            "min" : [
                -5.013199806213379,
                -1.6037577390670776,
                -16.14259910583496
            ],
            "type" : "VEC3"
        },
        {
            "bufferView" : 21,
            "componentType" : 5126,
            "count" : 24,
            "type" : "VEC3"
        },
        {
            "bufferView" : 22,
            "componentType" : 5126,
            "count" : 24,
            "type" : "VEC2"
        },
        {
            "bufferView" : 23,
            "componentType" : 5123,
            "count" : 36,
            "type" : "SCALAR"
        },
        {
            "bufferView" : 24,
            "componentType" : 5126,
            "count" : 8,
            "max" : [
                1,
                1.447210431098938,
                15.000914573669434
            ],
            "min" : [
                -1,
                -0.552789568901062,
                -15.008111000061035
            ],
            "type" : "VEC3"
        },
        {
            "bufferView" : 25,
            "componentType" : 5126,
            "count" : 8,
            "type" : "VEC3"
        },
        {
            "bufferView" : 26,
            "componentType" : 5126,
            "count" : 8,
            "type" : "VEC2"
        },
        {
            "bufferView" : 27,
            "componentType" : 5123,
            "count" : 12,
            "type" : "SCALAR"
        },
        {
            "bufferView" : 28,
            "componentType" : 5126,
            "count" : 574,
            "max" : [
                0.8493386507034302,
                1.042763113975525,
                15.004372596740723
            ],
            "min" : [
                -0.8493386507034302,
                -0.15242502093315125,
                -15.011569023132324
            ],
            "type" : "VEC3"
        },
        {
            "bufferView" : 29,
            "componentType" : 5126,
            "count" : 574,
            "type" : "VEC3"
        },
        {
            "bufferView" : 30,
            "componentType" : 5126,
            "count" : 574,
            "type" : "VEC2"
        },
        {
            "bufferView" : 31,
            "componentType" : 5123,
            "count" : 672,
            "type" : "SCALAR"
        }
    ],
    "bufferViews" : [
        {
            "buffer" : 0,
            "byteLength" : 5244,
            "byteOffset" : 0
        },
        {
            "buffer" : 0,
            "byteLength" : 5244,
            "byteOffset" : 5244
        },
        {
            "buffer" : 0,
            "byteLength" : 3496,
            "byteOffset" : 10488
        },
        {
            "buffer" : 0,
            "byteLength" : 2040,
            "byteOffset" : 13984
        },
        {
            "buffer" : 0,
            "byteLength" : 5880,
            "byteOffset" : 16024
        },
        {
            "buffer" : 0,
            "byteLength" : 5880,
            "byteOffset" : 21904
        },
        {
            "buffer" : 0,
            "byteLength" : 3920,
            "byteOffset" : 27784
        },
        {
            "buffer" : 0,
            "byteLength" : 2028,
            "byteOffset" : 31704
        },
        {
            "buffer" : 0,
            "byteLength" : 576,
            "byteOffset" : 33732
        },
        {
            "buffer" : 0,
            "byteLength" : 576,
            "byteOffset" : 34308
        },
        {
            "buffer" : 0,
            "byteLength" : 384,
            "byteOffset" : 34884
        },
        {
            "buffer" : 0,
            "byteLength" : 144,
            "byteOffset" : 35268
        },
        {
            "buffer" : 0,
            "byteLength" : 48,
            "byteOffset" : 35412
        },
        {
            "buffer" : 0,
            "byteLength" : 48,
            "byteOffset" : 35460
        },
        {
            "buffer" : 0,
            "byteLength" : 32,
            "byteOffset" : 35508
        },
        {
            "buffer" : 0,
            "byteLength" : 12,
            "byteOffset" : 35540
        },
        {
            "buffer" : 0,
            "byteLength" : 480,
            "byteOffset" : 35552
        },
        {
            "buffer" : 0,
            "byteLength" : 480,
            "byteOffset" : 36032
        },
        {
            "buffer" : 0,
            "byteLength" : 320,
            "byteOffset" : 36512
        },
        {
            "buffer" : 0,
            "byteLength" : 120,
            "byteOffset" : 36832
        },
        {
            "buffer" : 0,
            "byteLength" : 288,
            "byteOffset" : 36952
        },
        {
            "buffer" : 0,
            "byteLength" : 288,
            "byteOffset" : 37240
        },
        {
            "buffer" : 0,
            "byteLength" : 192,
            "byteOffset" : 37528
        },
        {
            "buffer" : 0,
            "byteLength" : 72,
            "byteOffset" : 37720
        },
        {
            "buffer" : 0,
            "byteLength" : 96,
            "byteOffset" : 37792
        },
        {
            "buffer" : 0,
            "byteLength" : 96,
            "byteOffset" : 37888
        },
        {
            "buffer" : 0,
            "byteLength" : 64,
            "byteOffset" : 37984
        },
        {
            "buffer" : 0,
            "byteLength" : 24,
            "byteOffset" : 38048
        },
        {
            "buffer" : 0,
            "byteLength" : 6888,
            "byteOffset" : 38072
        },
        {
            "buffer" : 0,
            "byteLength" : 6888,
            "byteOffset" : 44960
        },
        {
            "buffer" : 0,
            "byteLength" : 4592,
            "byteOffset" : 51848
        },
        {
            "buffer" : 0,
            "byteLength" : 1344,
            "byteOffset" : 56440
        }
    ],
    "buffers" : [
        {
            "byteLength" : 57784,
            "uri" : "b7.bin"
        }
    ]
}
