{
    "asset" : {
        "generator" : "Khronos glTF Blender I/O v1.5.17",
        "version" : "2.0"
    },
    "scene" : 0,
    "scenes" : [
        {
            "name" : "Scene",
            "nodes" : [
                0
            ]
        }
    ],
    "nodes" : [
        {
            "mesh" : 0,
            "name" : "Cube"
        }
    ],
    "materials" : [
        {
            "doubleSided" : true,
            "name" : "Material.003",
            "pbrMetallicRoughness" : {
                "baseColorFactor" : [
                    1,
                    0.7801129817962646,
                    0.4573880732059479,
                    1
                ],
                "metallicFactor" : 0,
                "roughnessFactor" : 0.5
            }
        },
        {
            "doubleSided" : true,
            "name" : "Material",
            "pbrMetallicRoughness" : {
                "baseColorFactor" : [
                    0.2874408960342407,
                    0.12213876843452454,
                    0.02028856799006462,
                    1
                ],
                "metallicFactor" : 0,
                "roughnessFactor" : 0.5
            }
        },
        {
            "doubleSided" : true,
            "name" : "Material.001",
            "pbrMetallicRoughness" : {
                "baseColorFactor" : [
                    0.6239607930183411,
                    0.623960554599762,
                    0.6239606738090515,
                    1
                ],
                "metallicFactor" : 0,
                "roughnessFactor" : 0.5
            }
        },
        {
            "doubleSided" : true,
            "name" : "Material.006",
            "pbrMetallicRoughness" : {
                "baseColorFactor" : [
                    0.32939425110816956,
                    0.32939425110816956,
                    0.32939425110816956,
                    1
                ],
                "metallicFactor" : 0,
                "roughnessFactor" : 0.5
            }
        },
        {
            "doubleSided" : true,
            "name" : "Material.004",
            "pbrMetallicRoughness" : {
                "baseColorFactor" : [
                    0.09530749917030334,
                    0.12743768095970154,
                    0.16826939582824707,
                    1
                ],
                "metallicFactor" : 0,
                "roughnessFactor" : 0.5
            }
        },
        {
            "doubleSided" : true,
            "name" : "Material.005",
            "pbrMetallicRoughness" : {
                "baseColorFactor" : [
                    0.7991032600402832,
                    0.23073998093605042,
                    0.11443543434143066,
                    1
                ],
                "metallicFactor" : 0,
                "roughnessFactor" : 0.5
            }
        }
    ],
    "meshes" : [
        {
            "name" : "Cube.003",
            "primitives" : [
                {
                    "attributes" : {
                        "POSITION" : 0,
                        "NORMAL" : 1,
                        "TEXCOORD_0" : 2
                    },
                    "indices" : 3,
                    "material" : 0
                },
                {
                    "attributes" : {
                        "POSITION" : 4,
                        "NORMAL" : 5,
                        "TEXCOORD_0" : 6
                    },
                    "indices" : 7,
                    "material" : 1
                },
                {
                    "attributes" : {
                        "POSITION" : 8,
                        "NORMAL" : 9,
                        "TEXCOORD_0" : 10
                    },
                    "indices" : 11,
                    "material" : 2
                },
                {
                    "attributes" : {
                        "POSITION" : 12,
                        "NORMAL" : 13,
                        "TEXCOORD_0" : 14
                    },
                    "indices" : 15,
                    "material" : 3
                },
                {
                    "attributes" : {
                        "POSITION" : 16,
                        "NORMAL" : 17,
                        "TEXCOORD_0" : 18
                    },
                    "indices" : 19,
                    "material" : 4
                },
                {
                    "attributes" : {
                        "POSITION" : 20,
                        "NORMAL" : 21,
                        "TEXCOORD_0" : 22
                    },
                    "indices" : 23,
                    "material" : 5
                }
            ]
        }
    ],
    "accessors" : [
        {
            "bufferView" : 0,
            "componentType" : 5126,
            "count" : 346,
            "max" : [
                3.888622283935547,
                2.630250930786133,
                8.888679504394531
            ],
            "min" : [
                -3.8908114433288574,
                -1.5,
                -8.919227600097656
            ],
            "type" : "VEC3"
        },
        {
            "bufferView" : 1,
            "componentType" : 5126,
            "count" : 346,
            "type" : "VEC3"
        },
        {
            "bufferView" : 2,
            "componentType" : 5126,
            "count" : 346,
            "type" : "VEC2"
        },
        {
            "bufferView" : 3,
            "componentType" : 5123,
            "count" : 738,
            "type" : "SCALAR"
        },
        {
            "bufferView" : 4,
            "componentType" : 5126,
            "count" : 4,
            "max" : [
                0.7763010859489441,
                0.7603533267974854,
                -8.545906066894531
            ],
            "min" : [
                -0.617885172367096,
                -1.5,
                -8.545906066894531
            ],
            "type" : "VEC3"
        },
        {
            "bufferView" : 5,
            "componentType" : 5126,
            "count" : 4,
            "type" : "VEC3"
        },
        {
            "bufferView" : 6,
            "componentType" : 5126,
            "count" : 4,
            "type" : "VEC2"
        },
        {
            "bufferView" : 7,
            "componentType" : 5123,
            "count" : 6,
            "type" : "SCALAR"
        },
        {
            "bufferView" : 8,
            "componentType" : 5126,
            "count" : 36,
            "max" : [
                3.9857687950134277,
                2.812422752380371,
                9.079163551330566
            ],
            "min" : [
                -3.9857687950134277,
                1.3471354246139526,
                -9.079163551330566
            ],
            "type" : "VEC3"
        },
        {
            "bufferView" : 9,
            "componentType" : 5126,
            "count" : 36,
            "type" : "VEC3"
        },
        {
            "bufferView" : 10,
            "componentType" : 5126,
            "count" : 36,
            "type" : "VEC2"
        },
        {
            "bufferView" : 11,
            "componentType" : 5123,
            "count" : 60,
            "type" : "SCALAR"
        },
        {
            "bufferView" : 12,
            "componentType" : 5126,
            "count" : 96,
            "max" : [
                -3.805510997772217,
                1.3395967483520508,
                9.096898078918457
            ],
            "min" : [
                -8.219350814819336,
                -1.4979201555252075,
                -9.096896171569824
            ],
            "type" : "VEC3"
        },
        {
            "bufferView" : 13,
            "componentType" : 5126,
            "count" : 96,
            "type" : "VEC3"
        },
        {
            "bufferView" : 14,
            "componentType" : 5126,
            "count" : 96,
            "type" : "VEC2"
        },
        {
            "bufferView" : 15,
            "componentType" : 5123,
            "count" : 144,
            "type" : "SCALAR"
        },
        {
            "bufferView" : 16,
            "componentType" : 5126,
            "count" : 144,
            "max" : [
                -3.8855645656585693,
                1.278367519378662,
                -4.933721542358398
            ],
            "min" : [
                -6.393104553222656,
                -1.4295499324798584,
                -8.900450706481934
            ],
            "type" : "VEC3"
        },
        {
            "bufferView" : 17,
            "componentType" : 5126,
            "count" : 144,
            "type" : "VEC3"
        },
        {
            "bufferView" : 18,
            "componentType" : 5126,
            "count" : 144,
            "type" : "VEC2"
        },
        {
            "bufferView" : 19,
            "componentType" : 5123,
            "count" : 264,
            "type" : "SCALAR"
        },
        {
            "bufferView" : 20,
            "componentType" : 5126,
            "count" : 51,
            "max" : [
                -3.8855645656585693,
                1.278367519378662,
                -4.933721542358398
            ],
            "min" : [
                -6.393104553222656,
                -1.4295499324798584,
                -8.900450706481934
            ],
            "type" : "VEC3"
        },
        {
            "bufferView" : 21,
            "componentType" : 5126,
            "count" : 51,
            "type" : "VEC3"
        },
        {
            "bufferView" : 22,
            "componentType" : 5126,
            "count" : 51,
            "type" : "VEC2"
        },
        {
            "bufferView" : 23,
            "componentType" : 5123,
            "count" : 120,
            "type" : "SCALAR"
        }
    ],
    "bufferViews" : [
        {
            "buffer" : 0,
            "byteLength" : 4152,
            "byteOffset" : 0
        },
        {
            "buffer" : 0,
            "byteLength" : 4152,
            "byteOffset" : 4152
        },
        {
            "buffer" : 0,
            "byteLength" : 2768,
            "byteOffset" : 8304
        },
        {
            "buffer" : 0,
            "byteLength" : 1476,
            "byteOffset" : 11072
        },
        {
            "buffer" : 0,
            "byteLength" : 48,
            "byteOffset" : 12548
        },
        {
            "buffer" : 0,
            "byteLength" : 48,
            "byteOffset" : 12596
        },
        {
            "buffer" : 0,
            "byteLength" : 32,
            "byteOffset" : 12644
        },
        {
            "buffer" : 0,
            "byteLength" : 12,
            "byteOffset" : 12676
        },
        {
            "buffer" : 0,
            "byteLength" : 432,
            "byteOffset" : 12688
        },
        {
            "buffer" : 0,
            "byteLength" : 432,
            "byteOffset" : 13120
        },
        {
            "buffer" : 0,
            "byteLength" : 288,
            "byteOffset" : 13552
        },
        {
            "buffer" : 0,
            "byteLength" : 120,
            "byteOffset" : 13840
        },
        {
            "buffer" : 0,
            "byteLength" : 1152,
            "byteOffset" : 13960
        },
        {
            "buffer" : 0,
            "byteLength" : 1152,
            "byteOffset" : 15112
        },
        {
            "buffer" : 0,
            "byteLength" : 768,
            "byteOffset" : 16264
        },
        {
            "buffer" : 0,
            "byteLength" : 288,
            "byteOffset" : 17032
        },
        {
            "buffer" : 0,
            "byteLength" : 1728,
            "byteOffset" : 17320
        },
        {
            "buffer" : 0,
            "byteLength" : 1728,
            "byteOffset" : 19048
        },
        {
            "buffer" : 0,
            "byteLength" : 1152,
            "byteOffset" : 20776
        },
        {
            "buffer" : 0,
            "byteLength" : 528,
            "byteOffset" : 21928
        },
        {
            "buffer" : 0,
            "byteLength" : 612,
            "byteOffset" : 22456
        },
        {
            "buffer" : 0,
            "byteLength" : 612,
            "byteOffset" : 23068
        },
        {
            "buffer" : 0,
            "byteLength" : 408,
            "byteOffset" : 23680
        },
        {
            "buffer" : 0,
            "byteLength" : 240,
            "byteOffset" : 24088
        }
    ],
    "buffers" : [
        {
            "byteLength" : 24328,
            "uri" : "bodegacmoedor.bin"
        }
    ]
}
