{
    "asset" : {
        "generator" : "Khronos glTF Blender I/O v1.5.17",
        "version" : "2.0"
    },
    "scene" : 0,
    "scenes" : [
        {
            "name" : "Scene",
            "nodes" : [
                0
            ]
        }
    ],
    "nodes" : [
        {
            "mesh" : 0,
            "name" : "Plane",
            "scale" : [
                5.013199806213379,
                1,
                16.14259910583496
            ],
            "translation" : [
                0,
                -2.0003654956817627,
                0
            ]
        }
    ],
    "materials" : [
        {
            "doubleSided" : true,
            "name" : "Material.005",
            "pbrMetallicRoughness" : {
                "baseColorFactor" : [
                    0.25415220856666565,
                    0.2541520893573761,
                    0.2541521489620209,
                    1
                ],
                "metallicFactor" : 0,
                "roughnessFactor" : 0.5
            }
        },
        {
            "doubleSided" : true,
            "name" : "Material.002",
            "pbrMetallicRoughness" : {
                "baseColorFactor" : [
                    1,
                    0.7835378646850586,
                    0.45641112327575684,
                    1
                ],
                "metallicFactor" : 0,
                "roughnessFactor" : 0.5
            }
        },
        {
            "doubleSided" : true,
            "name" : "Material.003",
            "pbrMetallicRoughness" : {
                "baseColorFactor" : [
                    1,
                    0.7801129817962646,
                    0.4573880732059479,
                    1
                ],
                "metallicFactor" : 0,
                "roughnessFactor" : 0.5
            }
        },
        {
            "doubleSided" : true,
            "name" : "Material",
            "pbrMetallicRoughness" : {
                "baseColorFactor" : [
                    0.09530749917030334,
                    0.12743768095970154,
                    0.16826939582824707,
                    1
                ],
                "metallicFactor" : 0,
                "roughnessFactor" : 0.5
            }
        },
        {
            "doubleSided" : true,
            "name" : "Material.004",
            "pbrMetallicRoughness" : {
                "baseColorFactor" : [
                    0.2874408960342407,
                    0.12213876843452454,
                    0.02028856799006462,
                    1
                ],
                "metallicFactor" : 0,
                "roughnessFactor" : 0.5
            }
        },
        {
            "doubleSided" : true,
            "name" : "Material.001",
            "pbrMetallicRoughness" : {
                "baseColorFactor" : [
                    0.08650048822164536,
                    0.009721209295094013,
                    0.012983033433556557,
                    1
                ],
                "metallicFactor" : 0,
                "roughnessFactor" : 0.5
            }
        }
    ],
    "meshes" : [
        {
            "name" : "Plane",
            "primitives" : [
                {
                    "attributes" : {
                        "POSITION" : 0,
                        "NORMAL" : 1,
                        "TEXCOORD_0" : 2
                    },
                    "indices" : 3,
                    "material" : 0
                },
                {
                    "attributes" : {
                        "POSITION" : 4,
                        "NORMAL" : 5,
                        "TEXCOORD_0" : 6
                    },
                    "indices" : 7,
                    "material" : 1
                },
                {
                    "attributes" : {
                        "POSITION" : 8,
                        "NORMAL" : 9,
                        "TEXCOORD_0" : 10
                    },
                    "indices" : 11,
                    "material" : 2
                },
                {
                    "attributes" : {
                        "POSITION" : 12,
                        "NORMAL" : 13,
                        "TEXCOORD_0" : 14
                    },
                    "indices" : 15,
                    "material" : 3
                },
                {
                    "attributes" : {
                        "POSITION" : 16,
                        "NORMAL" : 17,
                        "TEXCOORD_0" : 18
                    },
                    "indices" : 19,
                    "material" : 4
                },
                {
                    "attributes" : {
                        "POSITION" : 20,
                        "NORMAL" : 21,
                        "TEXCOORD_0" : 22
                    },
                    "indices" : 23,
                    "material" : 5
                }
            ]
        }
    ],
    "accessors" : [
        {
            "bufferView" : 0,
            "componentType" : 5126,
            "count" : 24,
            "max" : [
                1.0000001192092896,
                0.4939553737640381,
                1.1474331617355347
            ],
            "min" : [
                -1.0000001192092896,
                0.3835057020187378,
                -1.1474331617355347
            ],
            "type" : "VEC3"
        },
        {
            "bufferView" : 1,
            "componentType" : 5126,
            "count" : 24,
            "type" : "VEC3"
        },
        {
            "bufferView" : 2,
            "componentType" : 5126,
            "count" : 24,
            "type" : "VEC2"
        },
        {
            "bufferView" : 3,
            "componentType" : 5123,
            "count" : 36,
            "type" : "SCALAR"
        },
        {
            "bufferView" : 4,
            "componentType" : 5126,
            "count" : 679,
            "max" : [
                0.7481623291969299,
                4.630616188049316,
                1.1003525257110596
            ],
            "min" : [
                -0.7485834360122681,
                0.5003654956817627,
                -1.1032726764678955
            ],
            "type" : "VEC3"
        },
        {
            "bufferView" : 5,
            "componentType" : 5126,
            "count" : 679,
            "type" : "VEC3"
        },
        {
            "bufferView" : 6,
            "componentType" : 5126,
            "count" : 679,
            "type" : "VEC2"
        },
        {
            "bufferView" : 7,
            "componentType" : 5123,
            "count" : 1635,
            "type" : "SCALAR"
        },
        {
            "bufferView" : 8,
            "componentType" : 5126,
            "count" : 667,
            "max" : [
                0.7214916348457336,
                4.630616188049316,
                1.090853214263916
            ],
            "min" : [
                -0.7214916348457336,
                0.5003654956817627,
                -1.090853214263916
            ],
            "type" : "VEC3"
        },
        {
            "bufferView" : 9,
            "componentType" : 5126,
            "count" : 667,
            "type" : "VEC3"
        },
        {
            "bufferView" : 10,
            "componentType" : 5126,
            "count" : 667,
            "type" : "VEC2"
        },
        {
            "bufferView" : 11,
            "componentType" : 5123,
            "count" : 1392,
            "type" : "SCALAR"
        },
        {
            "bufferView" : 12,
            "componentType" : 5126,
            "count" : 36,
            "max" : [
                0.6942522525787354,
                2.8904471397399902,
                0.9501044154167175
            ],
            "min" : [
                -0.6834215521812439,
                0.5003654956817627,
                -0.07320396602153778
            ],
            "type" : "VEC3"
        },
        {
            "bufferView" : 13,
            "componentType" : 5126,
            "count" : 36,
            "type" : "VEC3"
        },
        {
            "bufferView" : 14,
            "componentType" : 5126,
            "count" : 36,
            "type" : "VEC2"
        },
        {
            "bufferView" : 15,
            "componentType" : 5123,
            "count" : 54,
            "type" : "SCALAR"
        },
        {
            "bufferView" : 16,
            "componentType" : 5126,
            "count" : 15,
            "max" : [
                0.7023168206214905,
                2.8904471397399902,
                0.0721055269241333
            ],
            "min" : [
                -0.6843035221099854,
                0.5003654956817627,
                -0.30245959758758545
            ],
            "type" : "VEC3"
        },
        {
            "bufferView" : 17,
            "componentType" : 5126,
            "count" : 15,
            "type" : "VEC3"
        },
        {
            "bufferView" : 18,
            "componentType" : 5126,
            "count" : 15,
            "type" : "VEC2"
        },
        {
            "bufferView" : 19,
            "componentType" : 5123,
            "count" : 27,
            "type" : "SCALAR"
        },
        {
            "bufferView" : 20,
            "componentType" : 5126,
            "count" : 40,
            "max" : [
                0.9161016345024109,
                4.750767707824707,
                1.1383153200149536
            ],
            "min" : [
                -0.9161016345024109,
                3.28548002243042,
                -1.1383153200149536
            ],
            "type" : "VEC3"
        },
        {
            "bufferView" : 21,
            "componentType" : 5126,
            "count" : 40,
            "type" : "VEC3"
        },
        {
            "bufferView" : 22,
            "componentType" : 5126,
            "count" : 40,
            "type" : "VEC2"
        },
        {
            "bufferView" : 23,
            "componentType" : 5123,
            "count" : 60,
            "type" : "SCALAR"
        }
    ],
    "bufferViews" : [
        {
            "buffer" : 0,
            "byteLength" : 288,
            "byteOffset" : 0
        },
        {
            "buffer" : 0,
            "byteLength" : 288,
            "byteOffset" : 288
        },
        {
            "buffer" : 0,
            "byteLength" : 192,
            "byteOffset" : 576
        },
        {
            "buffer" : 0,
            "byteLength" : 72,
            "byteOffset" : 768
        },
        {
            "buffer" : 0,
            "byteLength" : 8148,
            "byteOffset" : 840
        },
        {
            "buffer" : 0,
            "byteLength" : 8148,
            "byteOffset" : 8988
        },
        {
            "buffer" : 0,
            "byteLength" : 5432,
            "byteOffset" : 17136
        },
        {
            "buffer" : 0,
            "byteLength" : 3270,
            "byteOffset" : 22568
        },
        {
            "buffer" : 0,
            "byteLength" : 8004,
            "byteOffset" : 25840
        },
        {
            "buffer" : 0,
            "byteLength" : 8004,
            "byteOffset" : 33844
        },
        {
            "buffer" : 0,
            "byteLength" : 5336,
            "byteOffset" : 41848
        },
        {
            "buffer" : 0,
            "byteLength" : 2784,
            "byteOffset" : 47184
        },
        {
            "buffer" : 0,
            "byteLength" : 432,
            "byteOffset" : 49968
        },
        {
            "buffer" : 0,
            "byteLength" : 432,
            "byteOffset" : 50400
        },
        {
            "buffer" : 0,
            "byteLength" : 288,
            "byteOffset" : 50832
        },
        {
            "buffer" : 0,
            "byteLength" : 108,
            "byteOffset" : 51120
        },
        {
            "buffer" : 0,
            "byteLength" : 180,
            "byteOffset" : 51228
        },
        {
            "buffer" : 0,
            "byteLength" : 180,
            "byteOffset" : 51408
        },
        {
            "buffer" : 0,
            "byteLength" : 120,
            "byteOffset" : 51588
        },
        {
            "buffer" : 0,
            "byteLength" : 54,
            "byteOffset" : 51708
        },
        {
            "buffer" : 0,
            "byteLength" : 480,
            "byteOffset" : 51764
        },
        {
            "buffer" : 0,
            "byteLength" : 480,
            "byteOffset" : 52244
        },
        {
            "buffer" : 0,
            "byteLength" : 320,
            "byteOffset" : 52724
        },
        {
            "buffer" : 0,
            "byteLength" : 120,
            "byteOffset" : 53044
        }
    ],
    "buffers" : [
        {
            "byteLength" : 53164,
            "uri" : "cafeteria.bin"
        }
    ]
}
