{
    "asset" : {
        "generator" : "Khronos glTF Blender I/O v1.5.17",
        "version" : "2.0"
    },
    "scene" : 0,
    "scenes" : [
        {
            "name" : "Scene",
            "nodes" : [
                0
            ]
        }
    ],
    "nodes" : [
        {
            "mesh" : 0,
            "name" : "Cube"
        }
    ],
    "materials" : [
        {
            "doubleSided" : true,
            "name" : "Material.002",
            "pbrMetallicRoughness" : {
                "baseColorFactor" : [
                    0.06124604120850563,
                    0.20507879555225372,
                    0.042311422526836395,
                    1
                ],
                "metallicFactor" : 0,
                "roughnessFactor" : 0.5
            }
        },
        {
            "doubleSided" : true,
            "name" : "Material.003",
            "pbrMetallicRoughness" : {
                "baseColorFactor" : [
                    1,
                    0.7801129817962646,
                    0.4573880732059479,
                    1
                ],
                "metallicFactor" : 0,
                "roughnessFactor" : 0.5
            }
        },
        {
            "doubleSided" : true,
            "name" : "Material",
            "pbrMetallicRoughness" : {
                "baseColorFactor" : [
                    0.0273208636790514,
                    0.08650048077106476,
                    0.019382363185286522,
                    1
                ],
                "metallicFactor" : 0,
                "roughnessFactor" : 0.5
            }
        },
        {
            "doubleSided" : true,
            "name" : "Material.004",
            "pbrMetallicRoughness" : {
                "baseColorFactor" : [
                    0.09530749917030334,
                    0.12743768095970154,
                    0.16826939582824707,
                    1
                ],
                "metallicFactor" : 0,
                "roughnessFactor" : 0.5
            }
        },
        {
            "doubleSided" : true,
            "name" : "Material.005",
            "pbrMetallicRoughness" : {
                "baseColorFactor" : [
                    0.2874408960342407,
                    0.12213876843452454,
                    0.02028856799006462,
                    1
                ],
                "metallicFactor" : 0,
                "roughnessFactor" : 0.5
            }
        },
        {
            "doubleSided" : true,
            "name" : "Material.001",
            "pbrMetallicRoughness" : {
                "baseColorFactor" : [
                    0.6239607930183411,
                    0.623960554599762,
                    0.6239606738090515,
                    1
                ],
                "metallicFactor" : 0,
                "roughnessFactor" : 0.5
            }
        },
        {
            "doubleSided" : true,
            "name" : "Material.006",
            "pbrMetallicRoughness" : {
                "baseColorFactor" : [
                    0.25415220856666565,
                    0.2541520893573761,
                    0.2541521489620209,
                    1
                ],
                "metallicFactor" : 0,
                "roughnessFactor" : 0.5
            }
        },
        {
            "doubleSided" : true,
            "name" : "Material.008",
            "pbrMetallicRoughness" : {
                "baseColorFactor" : [
                    0.08437621593475342,
                    0.327778160572052,
                    0.021219022572040558,
                    1
                ],
                "metallicFactor" : 0,
                "roughnessFactor" : 0.5
            }
        },
        {
            "doubleSided" : true,
            "name" : "Material.007",
            "pbrMetallicRoughness" : {
                "baseColorFactor" : [
                    0.800000011920929,
                    0.800000011920929,
                    0.800000011920929,
                    1
                ],
                "metallicFactor" : 0,
                "roughnessFactor" : 0.5
            }
        }
    ],
    "meshes" : [
        {
            "name" : "Cube.003",
            "primitives" : [
                {
                    "attributes" : {
                        "POSITION" : 0,
                        "NORMAL" : 1,
                        "TEXCOORD_0" : 2
                    },
                    "indices" : 3,
                    "material" : 0
                },
                {
                    "attributes" : {
                        "POSITION" : 4,
                        "NORMAL" : 5,
                        "TEXCOORD_0" : 6
                    },
                    "indices" : 7,
                    "material" : 1
                },
                {
                    "attributes" : {
                        "POSITION" : 8,
                        "NORMAL" : 9,
                        "TEXCOORD_0" : 10
                    },
                    "indices" : 11,
                    "material" : 2
                },
                {
                    "attributes" : {
                        "POSITION" : 12,
                        "NORMAL" : 13,
                        "TEXCOORD_0" : 14
                    },
                    "indices" : 15,
                    "material" : 3
                },
                {
                    "attributes" : {
                        "POSITION" : 16,
                        "NORMAL" : 17,
                        "TEXCOORD_0" : 18
                    },
                    "indices" : 19,
                    "material" : 4
                },
                {
                    "attributes" : {
                        "POSITION" : 20,
                        "NORMAL" : 21,
                        "TEXCOORD_0" : 22
                    },
                    "indices" : 23,
                    "material" : 5
                },
                {
                    "attributes" : {
                        "POSITION" : 24,
                        "NORMAL" : 25,
                        "TEXCOORD_0" : 26
                    },
                    "indices" : 27,
                    "material" : 6
                },
                {
                    "attributes" : {
                        "POSITION" : 28,
                        "NORMAL" : 29,
                        "TEXCOORD_0" : 30
                    },
                    "indices" : 31,
                    "material" : 7
                },
                {
                    "attributes" : {
                        "POSITION" : 32,
                        "NORMAL" : 33,
                        "TEXCOORD_0" : 34
                    },
                    "indices" : 35,
                    "material" : 8
                }
            ]
        }
    ],
    "accessors" : [
        {
            "bufferView" : 0,
            "componentType" : 5126,
            "count" : 150,
            "max" : [
                3.520134210586548,
                -1.0894496440887451,
                7.951438903808594
            ],
            "min" : [
                -3.5533132553100586,
                -1.5,
                -7.9805450439453125
            ],
            "type" : "VEC3"
        },
        {
            "bufferView" : 1,
            "componentType" : 5126,
            "count" : 150,
            "type" : "VEC3"
        },
        {
            "bufferView" : 2,
            "componentType" : 5126,
            "count" : 150,
            "type" : "VEC2"
        },
        {
            "bufferView" : 3,
            "componentType" : 5123,
            "count" : 282,
            "type" : "SCALAR"
        },
        {
            "bufferView" : 4,
            "componentType" : 5126,
            "count" : 766,
            "max" : [
                3.520134210586548,
                2.630250930786133,
                7.951438903808594
            ],
            "min" : [
                -3.5533132553100586,
                -1.5,
                -7.9805450439453125
            ],
            "type" : "VEC3"
        },
        {
            "bufferView" : 5,
            "componentType" : 5126,
            "count" : 766,
            "type" : "VEC3"
        },
        {
            "bufferView" : 6,
            "componentType" : 5126,
            "count" : 766,
            "type" : "VEC2"
        },
        {
            "bufferView" : 7,
            "componentType" : 5123,
            "count" : 1764,
            "type" : "SCALAR"
        },
        {
            "bufferView" : 8,
            "componentType" : 5126,
            "count" : 8,
            "max" : [
                3.2721941471099854,
                0.5152215957641602,
                -2.4518556594848633
            ],
            "min" : [
                3.2721941471099854,
                -1.5,
                -3.7009639739990234
            ],
            "type" : "VEC3"
        },
        {
            "bufferView" : 9,
            "componentType" : 5126,
            "count" : 8,
            "type" : "VEC3"
        },
        {
            "bufferView" : 10,
            "componentType" : 5126,
            "count" : 8,
            "type" : "VEC2"
        },
        {
            "bufferView" : 11,
            "componentType" : 5123,
            "count" : 18,
            "type" : "SCALAR"
        },
        {
            "bufferView" : 12,
            "componentType" : 5126,
            "count" : 8,
            "max" : [
                3.2437119483947754,
                0.5152215957641602,
                1.7653944492340088
            ],
            "min" : [
                3.2437119483947754,
                -0.48477843403816223,
                -5.745098114013672
            ],
            "type" : "VEC3"
        },
        {
            "bufferView" : 13,
            "componentType" : 5126,
            "count" : 8,
            "type" : "VEC3"
        },
        {
            "bufferView" : 14,
            "componentType" : 5126,
            "count" : 8,
            "type" : "VEC2"
        },
        {
            "bufferView" : 15,
            "componentType" : 5123,
            "count" : 12,
            "type" : "SCALAR"
        },
        {
            "bufferView" : 16,
            "componentType" : 5126,
            "count" : 8,
            "max" : [
                3.2721941471099854,
                0.5152215957641602,
                4.601651191711426
            ],
            "min" : [
                3.2721941471099854,
                -1.5,
                3.467106580734253
            ],
            "type" : "VEC3"
        },
        {
            "bufferView" : 17,
            "componentType" : 5126,
            "count" : 8,
            "type" : "VEC3"
        },
        {
            "bufferView" : 18,
            "componentType" : 5126,
            "count" : 8,
            "type" : "VEC2"
        },
        {
            "bufferView" : 19,
            "componentType" : 5123,
            "count" : 18,
            "type" : "SCALAR"
        },
        {
            "bufferView" : 20,
            "componentType" : 5126,
            "count" : 88,
            "max" : [
                4.3304548263549805,
                2.7504019737243652,
                8.26628303527832
            ],
            "min" : [
                -3.952446460723877,
                0.4006161093711853,
                -8.266282081604004
            ],
            "type" : "VEC3"
        },
        {
            "bufferView" : 21,
            "componentType" : 5126,
            "count" : 88,
            "type" : "VEC3"
        },
        {
            "bufferView" : 22,
            "componentType" : 5126,
            "count" : 88,
            "type" : "VEC2"
        },
        {
            "bufferView" : 23,
            "componentType" : 5123,
            "count" : 132,
            "type" : "SCALAR"
        },
        {
            "bufferView" : 24,
            "componentType" : 5126,
            "count" : 24,
            "max" : [
                4.095191955566406,
                -1.5122442245483398,
                8.811168670654297
            ],
            "min" : [
                -4.095191955566406,
                -1.5603772401809692,
                -8.811168670654297
            ],
            "type" : "VEC3"
        },
        {
            "bufferView" : 25,
            "componentType" : 5126,
            "count" : 24,
            "type" : "VEC3"
        },
        {
            "bufferView" : 26,
            "componentType" : 5126,
            "count" : 24,
            "type" : "VEC2"
        },
        {
            "bufferView" : 27,
            "componentType" : 5123,
            "count" : 36,
            "type" : "SCALAR"
        },
        {
            "bufferView" : 28,
            "componentType" : 5126,
            "count" : 4,
            "max" : [
                3.4060332775115967,
                0.7250043153762817,
                -0.5982027053833008
            ],
            "min" : [
                3.4060332775115967,
                -0.7250043153762817,
                -2.0482113361358643
            ],
            "type" : "VEC3"
        },
        {
            "bufferView" : 29,
            "componentType" : 5126,
            "count" : 4,
            "type" : "VEC3"
        },
        {
            "bufferView" : 30,
            "componentType" : 5126,
            "count" : 4,
            "type" : "VEC2"
        },
        {
            "bufferView" : 31,
            "componentType" : 5123,
            "count" : 6,
            "type" : "SCALAR"
        },
        {
            "bufferView" : 32,
            "componentType" : 5126,
            "count" : 23,
            "max" : [
                3.4137821197509766,
                0.5550130009651184,
                -0.9989011287689209
            ],
            "min" : [
                3.4137821197509766,
                -0.5648936629295349,
                -1.6491695642471313
            ],
            "type" : "VEC3"
        },
        {
            "bufferView" : 33,
            "componentType" : 5126,
            "count" : 23,
            "type" : "VEC3"
        },
        {
            "bufferView" : 34,
            "componentType" : 5126,
            "count" : 23,
            "type" : "VEC2"
        },
        {
            "bufferView" : 35,
            "componentType" : 5123,
            "count" : 30,
            "type" : "SCALAR"
        }
    ],
    "bufferViews" : [
        {
            "buffer" : 0,
            "byteLength" : 1800,
            "byteOffset" : 0
        },
        {
            "buffer" : 0,
            "byteLength" : 1800,
            "byteOffset" : 1800
        },
        {
            "buffer" : 0,
            "byteLength" : 1200,
            "byteOffset" : 3600
        },
        {
            "buffer" : 0,
            "byteLength" : 564,
            "byteOffset" : 4800
        },
        {
            "buffer" : 0,
            "byteLength" : 9192,
            "byteOffset" : 5364
        },
        {
            "buffer" : 0,
            "byteLength" : 9192,
            "byteOffset" : 14556
        },
        {
            "buffer" : 0,
            "byteLength" : 6128,
            "byteOffset" : 23748
        },
        {
            "buffer" : 0,
            "byteLength" : 3528,
            "byteOffset" : 29876
        },
        {
            "buffer" : 0,
            "byteLength" : 96,
            "byteOffset" : 33404
        },
        {
            "buffer" : 0,
            "byteLength" : 96,
            "byteOffset" : 33500
        },
        {
            "buffer" : 0,
            "byteLength" : 64,
            "byteOffset" : 33596
        },
        {
            "buffer" : 0,
            "byteLength" : 36,
            "byteOffset" : 33660
        },
        {
            "buffer" : 0,
            "byteLength" : 96,
            "byteOffset" : 33696
        },
        {
            "buffer" : 0,
            "byteLength" : 96,
            "byteOffset" : 33792
        },
        {
            "buffer" : 0,
            "byteLength" : 64,
            "byteOffset" : 33888
        },
        {
            "buffer" : 0,
            "byteLength" : 24,
            "byteOffset" : 33952
        },
        {
            "buffer" : 0,
            "byteLength" : 96,
            "byteOffset" : 33976
        },
        {
            "buffer" : 0,
            "byteLength" : 96,
            "byteOffset" : 34072
        },
        {
            "buffer" : 0,
            "byteLength" : 64,
            "byteOffset" : 34168
        },
        {
            "buffer" : 0,
            "byteLength" : 36,
            "byteOffset" : 34232
        },
        {
            "buffer" : 0,
            "byteLength" : 1056,
            "byteOffset" : 34268
        },
        {
            "buffer" : 0,
            "byteLength" : 1056,
            "byteOffset" : 35324
        },
        {
            "buffer" : 0,
            "byteLength" : 704,
            "byteOffset" : 36380
        },
        {
            "buffer" : 0,
            "byteLength" : 264,
            "byteOffset" : 37084
        },
        {
            "buffer" : 0,
            "byteLength" : 288,
            "byteOffset" : 37348
        },
        {
            "buffer" : 0,
            "byteLength" : 288,
            "byteOffset" : 37636
        },
        {
            "buffer" : 0,
            "byteLength" : 192,
            "byteOffset" : 37924
        },
        {
            "buffer" : 0,
            "byteLength" : 72,
            "byteOffset" : 38116
        },
        {
            "buffer" : 0,
            "byteLength" : 48,
            "byteOffset" : 38188
        },
        {
            "buffer" : 0,
            "byteLength" : 48,
            "byteOffset" : 38236
        },
        {
            "buffer" : 0,
            "byteLength" : 32,
            "byteOffset" : 38284
        },
        {
            "buffer" : 0,
            "byteLength" : 12,
            "byteOffset" : 38316
        },
        {
            "buffer" : 0,
            "byteLength" : 276,
            "byteOffset" : 38328
        },
        {
            "buffer" : 0,
            "byteLength" : 276,
            "byteOffset" : 38604
        },
        {
            "buffer" : 0,
            "byteLength" : 184,
            "byteOffset" : 38880
        },
        {
            "buffer" : 0,
            "byteLength" : 60,
            "byteOffset" : 39064
        }
    ],
    "buffers" : [
        {
            "byteLength" : 39124,
            "uri" : "e.bin"
        }
    ]
}
