{
    "asset" : {
        "generator" : "Khronos glTF Blender I/O v1.5.17",
        "version" : "2.0"
    },
    "scene" : 0,
    "scenes" : [
        {
            "name" : "Scene",
            "nodes" : [
                0
            ]
        }
    ],
    "nodes" : [
        {
            "mesh" : 0,
            "name" : "Plane"
        }
    ],
    "materials" : [
        {
            "doubleSided" : true,
            "name" : "Material.005",
            "pbrMetallicRoughness" : {
                "baseColorFactor" : [
                    0.25415220856666565,
                    0.2541520893573761,
                    0.2541521489620209,
                    1
                ],
                "metallicFactor" : 0,
                "roughnessFactor" : 0.5
            }
        },
        {
            "doubleSided" : true,
            "name" : "Material.002",
            "pbrMetallicRoughness" : {
                "baseColorFactor" : [
                    0.09530749917030334,
                    0.12743768095970154,
                    0.16826939582824707,
                    1
                ],
                "metallicFactor" : 0,
                "roughnessFactor" : 0.5
            }
        },
        {
            "doubleSided" : true,
            "name" : "Material.003",
            "pbrMetallicRoughness" : {
                "baseColorFactor" : [
                    1,
                    0.7801129817962646,
                    0.4573880732059479,
                    1
                ],
                "metallicFactor" : 0,
                "roughnessFactor" : 0.5
            }
        },
        {
            "doubleSided" : true,
            "name" : "Material",
            "pbrMetallicRoughness" : {
                "baseColorFactor" : [
                    0.0273208636790514,
                    0.08650048077106476,
                    0.019382363185286522,
                    1
                ],
                "metallicFactor" : 0,
                "roughnessFactor" : 0.5
            }
        },
        {
            "doubleSided" : true,
            "name" : "Material.004",
            "pbrMetallicRoughness" : {
                "baseColorFactor" : [
                    0.06124604120850563,
                    0.20507879555225372,
                    0.042311422526836395,
                    1
                ],
                "metallicFactor" : 0,
                "roughnessFactor" : 0.5
            }
        },
        {
            "doubleSided" : true,
            "name" : "Material.001",
            "pbrMetallicRoughness" : {
                "baseColorFactor" : [
                    0.6239607930183411,
                    0.623960554599762,
                    0.6239606738090515,
                    1
                ],
                "metallicFactor" : 0,
                "roughnessFactor" : 0.5
            }
        }
    ],
    "meshes" : [
        {
            "name" : "Plane",
            "primitives" : [
                {
                    "attributes" : {
                        "POSITION" : 0,
                        "NORMAL" : 1,
                        "TEXCOORD_0" : 2
                    },
                    "indices" : 3,
                    "material" : 0
                },
                {
                    "attributes" : {
                        "POSITION" : 4,
                        "NORMAL" : 5,
                        "TEXCOORD_0" : 6
                    },
                    "indices" : 7,
                    "material" : 1
                },
                {
                    "attributes" : {
                        "POSITION" : 8,
                        "NORMAL" : 9,
                        "TEXCOORD_0" : 10
                    },
                    "indices" : 11,
                    "material" : 2
                },
                {
                    "attributes" : {
                        "POSITION" : 12,
                        "NORMAL" : 13,
                        "TEXCOORD_0" : 14
                    },
                    "indices" : 15,
                    "material" : 3
                },
                {
                    "attributes" : {
                        "POSITION" : 16,
                        "NORMAL" : 17,
                        "TEXCOORD_0" : 18
                    },
                    "indices" : 19,
                    "material" : 4
                },
                {
                    "attributes" : {
                        "POSITION" : 20,
                        "NORMAL" : 21,
                        "TEXCOORD_0" : 22
                    },
                    "indices" : 23,
                    "material" : 5
                }
            ]
        }
    ],
    "accessors" : [
        {
            "bufferView" : 0,
            "componentType" : 5126,
            "count" : 24,
            "max" : [
                3.9355459213256836,
                -1.5061347484588623,
                5.13446044921875
            ],
            "min" : [
                -3.9355459213256836,
                -1.5863724946975708,
                -5.13446044921875
            ],
            "type" : "VEC3"
        },
        {
            "bufferView" : 1,
            "componentType" : 5126,
            "count" : 24,
            "type" : "VEC3"
        },
        {
            "bufferView" : 2,
            "componentType" : 5126,
            "count" : 24,
            "type" : "VEC2"
        },
        {
            "bufferView" : 3,
            "componentType" : 5123,
            "count" : 36,
            "type" : "SCALAR"
        },
        {
            "bufferView" : 4,
            "componentType" : 5126,
            "count" : 17,
            "max" : [
                3.2680108547210693,
                0.6624945402145386,
                -0.6612685322761536
            ],
            "min" : [
                3.2680108547210693,
                -0.4660026431083679,
                -2.970844268798828
            ],
            "type" : "VEC3"
        },
        {
            "bufferView" : 5,
            "componentType" : 5126,
            "count" : 17,
            "type" : "VEC3"
        },
        {
            "bufferView" : 6,
            "componentType" : 5126,
            "count" : 17,
            "type" : "VEC2"
        },
        {
            "bufferView" : 7,
            "componentType" : 5123,
            "count" : 39,
            "type" : "SCALAR"
        },
        {
            "bufferView" : 8,
            "componentType" : 5126,
            "count" : 601,
            "max" : [
                3.509061813354492,
                2.630250930786133,
                4.681454658508301
            ],
            "min" : [
                -3.5431721210479736,
                -1.5,
                -4.70552921295166
            ],
            "type" : "VEC3"
        },
        {
            "bufferView" : 9,
            "componentType" : 5126,
            "count" : 601,
            "type" : "VEC3"
        },
        {
            "bufferView" : 10,
            "componentType" : 5126,
            "count" : 601,
            "type" : "VEC2"
        },
        {
            "bufferView" : 11,
            "componentType" : 5123,
            "count" : 1356,
            "type" : "SCALAR"
        },
        {
            "bufferView" : 12,
            "componentType" : 5126,
            "count" : 8,
            "max" : [
                3.274529457092285,
                0.6624945402145386,
                2.604968786239624
            ],
            "min" : [
                3.274529457092285,
                -1.5,
                1.3491989374160767
            ],
            "type" : "VEC3"
        },
        {
            "bufferView" : 13,
            "componentType" : 5126,
            "count" : 8,
            "type" : "VEC3"
        },
        {
            "bufferView" : 14,
            "componentType" : 5126,
            "count" : 8,
            "type" : "VEC2"
        },
        {
            "bufferView" : 15,
            "componentType" : 5123,
            "count" : 18,
            "type" : "SCALAR"
        },
        {
            "bufferView" : 16,
            "componentType" : 5126,
            "count" : 162,
            "max" : [
                3.509061813354492,
                -1.158719778060913,
                4.681454658508301
            ],
            "min" : [
                -3.5431721210479736,
                -1.5,
                -4.70552921295166
            ],
            "type" : "VEC3"
        },
        {
            "bufferView" : 17,
            "componentType" : 5126,
            "count" : 162,
            "type" : "VEC3"
        },
        {
            "bufferView" : 18,
            "componentType" : 5126,
            "count" : 162,
            "type" : "VEC2"
        },
        {
            "bufferView" : 19,
            "componentType" : 5123,
            "count" : 315,
            "type" : "SCALAR"
        },
        {
            "bufferView" : 20,
            "componentType" : 5126,
            "count" : 40,
            "max" : [
                3.872849225997925,
                2.7504019737243652,
                4.872577667236328
            ],
            "min" : [
                -3.872849225997925,
                1.2851146459579468,
                -4.872577667236328
            ],
            "type" : "VEC3"
        },
        {
            "bufferView" : 21,
            "componentType" : 5126,
            "count" : 40,
            "type" : "VEC3"
        },
        {
            "bufferView" : 22,
            "componentType" : 5126,
            "count" : 40,
            "type" : "VEC2"
        },
        {
            "bufferView" : 23,
            "componentType" : 5123,
            "count" : 60,
            "type" : "SCALAR"
        }
    ],
    "bufferViews" : [
        {
            "buffer" : 0,
            "byteLength" : 288,
            "byteOffset" : 0
        },
        {
            "buffer" : 0,
            "byteLength" : 288,
            "byteOffset" : 288
        },
        {
            "buffer" : 0,
            "byteLength" : 192,
            "byteOffset" : 576
        },
        {
            "buffer" : 0,
            "byteLength" : 72,
            "byteOffset" : 768
        },
        {
            "buffer" : 0,
            "byteLength" : 204,
            "byteOffset" : 840
        },
        {
            "buffer" : 0,
            "byteLength" : 204,
            "byteOffset" : 1044
        },
        {
            "buffer" : 0,
            "byteLength" : 136,
            "byteOffset" : 1248
        },
        {
            "buffer" : 0,
            "byteLength" : 78,
            "byteOffset" : 1384
        },
        {
            "buffer" : 0,
            "byteLength" : 7212,
            "byteOffset" : 1464
        },
        {
            "buffer" : 0,
            "byteLength" : 7212,
            "byteOffset" : 8676
        },
        {
            "buffer" : 0,
            "byteLength" : 4808,
            "byteOffset" : 15888
        },
        {
            "buffer" : 0,
            "byteLength" : 2712,
            "byteOffset" : 20696
        },
        {
            "buffer" : 0,
            "byteLength" : 96,
            "byteOffset" : 23408
        },
        {
            "buffer" : 0,
            "byteLength" : 96,
            "byteOffset" : 23504
        },
        {
            "buffer" : 0,
            "byteLength" : 64,
            "byteOffset" : 23600
        },
        {
            "buffer" : 0,
            "byteLength" : 36,
            "byteOffset" : 23664
        },
        {
            "buffer" : 0,
            "byteLength" : 1944,
            "byteOffset" : 23700
        },
        {
            "buffer" : 0,
            "byteLength" : 1944,
            "byteOffset" : 25644
        },
        {
            "buffer" : 0,
            "byteLength" : 1296,
            "byteOffset" : 27588
        },
        {
            "buffer" : 0,
            "byteLength" : 630,
            "byteOffset" : 28884
        },
        {
            "buffer" : 0,
            "byteLength" : 480,
            "byteOffset" : 29516
        },
        {
            "buffer" : 0,
            "byteLength" : 480,
            "byteOffset" : 29996
        },
        {
            "buffer" : 0,
            "byteLength" : 320,
            "byteOffset" : 30476
        },
        {
            "buffer" : 0,
            "byteLength" : 120,
            "byteOffset" : 30796
        }
    ],
    "buffers" : [
        {
            "byteLength" : 30916,
            "uri" : "ebodega.bin"
        }
    ]
}
