{
    "asset" : {
        "generator" : "Khronos glTF Blender I/O v1.5.17",
        "version" : "2.0"
    },
    "scene" : 0,
    "scenes" : [
        {
            "name" : "Scene",
            "nodes" : [
                0
            ]
        }
    ],
    "nodes" : [
        {
            "mesh" : 0,
            "name" : "Cube"
        }
    ],
    "materials" : [
        {
            "doubleSided" : true,
            "name" : "Material.002",
            "pbrMetallicRoughness" : {
                "baseColorFactor" : [
                    0.09530749917030334,
                    0.12743768095970154,
                    0.16826939582824707,
                    1
                ],
                "metallicFactor" : 0,
                "roughnessFactor" : 0.5
            }
        },
        {
            "doubleSided" : true,
            "name" : "Material.003",
            "pbrMetallicRoughness" : {
                "baseColorFactor" : [
                    1,
                    0.7801129817962646,
                    0.4573880732059479,
                    1
                ],
                "metallicFactor" : 0,
                "roughnessFactor" : 0.5
            }
        },
        {
            "doubleSided" : true,
            "name" : "Material",
            "pbrMetallicRoughness" : {
                "baseColorFactor" : [
                    0.06124604120850563,
                    0.20507879555225372,
                    0.042311422526836395,
                    1
                ],
                "metallicFactor" : 0,
                "roughnessFactor" : 0.5
            }
        },
        {
            "doubleSided" : true,
            "name" : "Material.001",
            "pbrMetallicRoughness" : {
                "baseColorFactor" : [
                    0.6239607930183411,
                    0.623960554599762,
                    0.6239606738090515,
                    1
                ],
                "metallicFactor" : 0,
                "roughnessFactor" : 0.5
            }
        },
        {
            "doubleSided" : true,
            "name" : "Material.004",
            "pbrMetallicRoughness" : {
                "baseColorFactor" : [
                    0.25415220856666565,
                    0.2541520893573761,
                    0.2541521489620209,
                    1
                ],
                "metallicFactor" : 0,
                "roughnessFactor" : 0.5
            }
        },
        {
            "doubleSided" : true,
            "name" : "Material.006",
            "pbrMetallicRoughness" : {
                "baseColorFactor" : [
                    0.08437621593475342,
                    0.327778160572052,
                    0.021219022572040558,
                    1
                ],
                "metallicFactor" : 0,
                "roughnessFactor" : 0.5
            }
        },
        {
            "doubleSided" : true,
            "name" : "Material.005",
            "pbrMetallicRoughness" : {
                "baseColorFactor" : [
                    0.800000011920929,
                    0.800000011920929,
                    0.800000011920929,
                    1
                ],
                "metallicFactor" : 0,
                "roughnessFactor" : 0.5
            }
        }
    ],
    "meshes" : [
        {
            "name" : "Cube.003",
            "primitives" : [
                {
                    "attributes" : {
                        "POSITION" : 0,
                        "NORMAL" : 1,
                        "TEXCOORD_0" : 2
                    },
                    "indices" : 3,
                    "material" : 0
                },
                {
                    "attributes" : {
                        "POSITION" : 4,
                        "NORMAL" : 5,
                        "TEXCOORD_0" : 6
                    },
                    "indices" : 7,
                    "material" : 1
                },
                {
                    "attributes" : {
                        "POSITION" : 8,
                        "NORMAL" : 9,
                        "TEXCOORD_0" : 10
                    },
                    "indices" : 11,
                    "material" : 2
                },
                {
                    "attributes" : {
                        "POSITION" : 12,
                        "NORMAL" : 13,
                        "TEXCOORD_0" : 14
                    },
                    "indices" : 15,
                    "material" : 3
                },
                {
                    "attributes" : {
                        "POSITION" : 16,
                        "NORMAL" : 17,
                        "TEXCOORD_0" : 18
                    },
                    "indices" : 19,
                    "material" : 4
                },
                {
                    "attributes" : {
                        "POSITION" : 20,
                        "NORMAL" : 21,
                        "TEXCOORD_0" : 22
                    },
                    "indices" : 23,
                    "material" : 5
                },
                {
                    "attributes" : {
                        "POSITION" : 24,
                        "NORMAL" : 25,
                        "TEXCOORD_0" : 26
                    },
                    "indices" : 27,
                    "material" : 6
                }
            ]
        }
    ],
    "accessors" : [
        {
            "bufferView" : 0,
            "componentType" : 5126,
            "count" : 166,
            "max" : [
                4.02812385559082,
                1.5242855548858643,
                12.343095779418945
            ],
            "min" : [
                -4.018580913543701,
                -1.5,
                -12.378960609436035
            ],
            "type" : "VEC3"
        },
        {
            "bufferView" : 1,
            "componentType" : 5126,
            "count" : 166,
            "type" : "VEC3"
        },
        {
            "bufferView" : 2,
            "componentType" : 5126,
            "count" : 166,
            "type" : "VEC2"
        },
        {
            "bufferView" : 3,
            "componentType" : 5123,
            "count" : 402,
            "type" : "SCALAR"
        },
        {
            "bufferView" : 4,
            "componentType" : 5126,
            "count" : 603,
            "max" : [
                4.02812385559082,
                2.630250930786133,
                12.343095779418945
            ],
            "min" : [
                -4.018580913543701,
                -1.5,
                -12.378960609436035
            ],
            "type" : "VEC3"
        },
        {
            "bufferView" : 5,
            "componentType" : 5126,
            "count" : 603,
            "type" : "VEC3"
        },
        {
            "bufferView" : 6,
            "componentType" : 5126,
            "count" : 603,
            "type" : "VEC2"
        },
        {
            "bufferView" : 7,
            "componentType" : 5123,
            "count" : 1284,
            "type" : "SCALAR"
        },
        {
            "bufferView" : 8,
            "componentType" : 5126,
            "count" : 200,
            "max" : [
                4.02812385559082,
                0.8302935361862183,
                12.343095779418945
            ],
            "min" : [
                -4.018580913543701,
                -1.5,
                -12.378960609436035
            ],
            "type" : "VEC3"
        },
        {
            "bufferView" : 9,
            "componentType" : 5126,
            "count" : 200,
            "type" : "VEC3"
        },
        {
            "bufferView" : 10,
            "componentType" : 5126,
            "count" : 200,
            "type" : "VEC2"
        },
        {
            "bufferView" : 11,
            "componentType" : 5123,
            "count" : 348,
            "type" : "SCALAR"
        },
        {
            "bufferView" : 12,
            "componentType" : 5126,
            "count" : 40,
            "max" : [
                4.592599391937256,
                2.7504019737243652,
                12.654048919677734
            ],
            "min" : [
                -4.592599391937256,
                1.2851146459579468,
                -12.654048919677734
            ],
            "type" : "VEC3"
        },
        {
            "bufferView" : 13,
            "componentType" : 5126,
            "count" : 40,
            "type" : "VEC3"
        },
        {
            "bufferView" : 14,
            "componentType" : 5126,
            "count" : 40,
            "type" : "VEC2"
        },
        {
            "bufferView" : 15,
            "componentType" : 5123,
            "count" : 60,
            "type" : "SCALAR"
        },
        {
            "bufferView" : 16,
            "componentType" : 5126,
            "count" : 24,
            "max" : [
                5.013200283050537,
                -1.5198525190353394,
                13.122441291809082
            ],
            "min" : [
                -5.013200283050537,
                -1.589395523071289,
                -13.122441291809082
            ],
            "type" : "VEC3"
        },
        {
            "bufferView" : 17,
            "componentType" : 5126,
            "count" : 24,
            "type" : "VEC3"
        },
        {
            "bufferView" : 18,
            "componentType" : 5126,
            "count" : 24,
            "type" : "VEC2"
        },
        {
            "bufferView" : 19,
            "componentType" : 5123,
            "count" : 36,
            "type" : "SCALAR"
        },
        {
            "bufferView" : 20,
            "componentType" : 5126,
            "count" : 4,
            "max" : [
                3.8976402282714844,
                0.8608315587043762,
                -2.858863115310669
            ],
            "min" : [
                3.8976402282714844,
                -0.8608315587043762,
                -4.580526351928711
            ],
            "type" : "VEC3"
        },
        {
            "bufferView" : 21,
            "componentType" : 5126,
            "count" : 4,
            "type" : "VEC3"
        },
        {
            "bufferView" : 22,
            "componentType" : 5126,
            "count" : 4,
            "type" : "VEC2"
        },
        {
            "bufferView" : 23,
            "componentType" : 5123,
            "count" : 6,
            "type" : "SCALAR"
        },
        {
            "bufferView" : 24,
            "componentType" : 5126,
            "count" : 24,
            "max" : [
                3.9103293418884277,
                0.586109459400177,
                -3.4036049842834473
            ],
            "min" : [
                3.9103293418884277,
                -0.6661344170570374,
                -4.071958065032959
            ],
            "type" : "VEC3"
        },
        {
            "bufferView" : 25,
            "componentType" : 5126,
            "count" : 24,
            "type" : "VEC3"
        },
        {
            "bufferView" : 26,
            "componentType" : 5126,
            "count" : 24,
            "type" : "VEC2"
        },
        {
            "bufferView" : 27,
            "componentType" : 5123,
            "count" : 24,
            "type" : "SCALAR"
        }
    ],
    "bufferViews" : [
        {
            "buffer" : 0,
            "byteLength" : 1992,
            "byteOffset" : 0
        },
        {
            "buffer" : 0,
            "byteLength" : 1992,
            "byteOffset" : 1992
        },
        {
            "buffer" : 0,
            "byteLength" : 1328,
            "byteOffset" : 3984
        },
        {
            "buffer" : 0,
            "byteLength" : 804,
            "byteOffset" : 5312
        },
        {
            "buffer" : 0,
            "byteLength" : 7236,
            "byteOffset" : 6116
        },
        {
            "buffer" : 0,
            "byteLength" : 7236,
            "byteOffset" : 13352
        },
        {
            "buffer" : 0,
            "byteLength" : 4824,
            "byteOffset" : 20588
        },
        {
            "buffer" : 0,
            "byteLength" : 2568,
            "byteOffset" : 25412
        },
        {
            "buffer" : 0,
            "byteLength" : 2400,
            "byteOffset" : 27980
        },
        {
            "buffer" : 0,
            "byteLength" : 2400,
            "byteOffset" : 30380
        },
        {
            "buffer" : 0,
            "byteLength" : 1600,
            "byteOffset" : 32780
        },
        {
            "buffer" : 0,
            "byteLength" : 696,
            "byteOffset" : 34380
        },
        {
            "buffer" : 0,
            "byteLength" : 480,
            "byteOffset" : 35076
        },
        {
            "buffer" : 0,
            "byteLength" : 480,
            "byteOffset" : 35556
        },
        {
            "buffer" : 0,
            "byteLength" : 320,
            "byteOffset" : 36036
        },
        {
            "buffer" : 0,
            "byteLength" : 120,
            "byteOffset" : 36356
        },
        {
            "buffer" : 0,
            "byteLength" : 288,
            "byteOffset" : 36476
        },
        {
            "buffer" : 0,
            "byteLength" : 288,
            "byteOffset" : 36764
        },
        {
            "buffer" : 0,
            "byteLength" : 192,
            "byteOffset" : 37052
        },
        {
            "buffer" : 0,
            "byteLength" : 72,
            "byteOffset" : 37244
        },
        {
            "buffer" : 0,
            "byteLength" : 48,
            "byteOffset" : 37316
        },
        {
            "buffer" : 0,
            "byteLength" : 48,
            "byteOffset" : 37364
        },
        {
            "buffer" : 0,
            "byteLength" : 32,
            "byteOffset" : 37412
        },
        {
            "buffer" : 0,
            "byteLength" : 12,
            "byteOffset" : 37444
        },
        {
            "buffer" : 0,
            "byteLength" : 288,
            "byteOffset" : 37456
        },
        {
            "buffer" : 0,
            "byteLength" : 288,
            "byteOffset" : 37744
        },
        {
            "buffer" : 0,
            "byteLength" : 192,
            "byteOffset" : 38032
        },
        {
            "buffer" : 0,
            "byteLength" : 48,
            "byteOffset" : 38224
        }
    ],
    "buffers" : [
        {
            "byteLength" : 38272,
            "uri" : "f.bin"
        }
    ]
}
