{
    "asset" : {
        "generator" : "Khronos glTF Blender I/O v1.5.17",
        "version" : "2.0"
    },
    "scene" : 0,
    "scenes" : [
        {
            "name" : "Scene",
            "nodes" : [
                0
            ]
        }
    ],
    "nodes" : [
        {
            "mesh" : 0,
            "name" : "Cube"
        }
    ],
    "materials" : [
        {
            "doubleSided" : true,
            "name" : "Material.003",
            "pbrMetallicRoughness" : {
                "baseColorFactor" : [
                    1,
                    0.8806554079055786,
                    0.6457516551017761,
                    1
                ],
                "metallicFactor" : 0,
                "roughnessFactor" : 0.5
            }
        }
    ],
    "meshes" : [
        {
            "name" : "Cube.003",
            "primitives" : [
                {
                    "attributes" : {
                        "POSITION" : 0,
                        "NORMAL" : 1,
                        "TEXCOORD_0" : 2
                    },
                    "indices" : 3,
                    "material" : 0
                }
            ]
        }
    ],
    "accessors" : [
        {
            "bufferView" : 0,
            "componentType" : 5126,
            "count" : 311,
            "max" : [
                3.888622283935547,
                2.630250930786133,
                9.327536582946777
            ],
            "min" : [
                -3.8908114433288574,
                -1.5,
                -9.358759880065918
            ],
            "type" : "VEC3"
        },
        {
            "bufferView" : 1,
            "componentType" : 5126,
            "count" : 311,
            "type" : "VEC3"
        },
        {
            "bufferView" : 2,
            "componentType" : 5126,
            "count" : 311,
            "type" : "VEC2"
        },
        {
            "bufferView" : 3,
            "componentType" : 5123,
            "count" : 615,
            "type" : "SCALAR"
        }
    ],
    "bufferViews" : [
        {
            "buffer" : 0,
            "byteLength" : 3732,
            "byteOffset" : 0
        },
        {
            "buffer" : 0,
            "byteLength" : 3732,
            "byteOffset" : 3732
        },
        {
            "buffer" : 0,
            "byteLength" : 2488,
            "byteOffset" : 7464
        },
        {
            "buffer" : 0,
            "byteLength" : 1230,
            "byteOffset" : 9952
        }
    ],
    "buffers" : [
        {
            "byteLength" : 11184,
            "uri" : "inver.bin"
        }
    ]
}
