{
    "asset" : {
        "generator" : "Khronos glTF Blender I/O v1.5.17",
        "version" : "2.0"
    },
    "scene" : 0,
    "scenes" : [
        {
            "name" : "Scene",
            "nodes" : [
                0
            ]
        }
    ],
    "nodes" : [
        {
            "mesh" : 0,
            "name" : "Cube.001",
            "rotation" : [
                0,
                1,
                0,
                -1.6292068494294654e-07
            ],
            "translation" : [
                0,
                0,
                -14.95856761932373
            ]
        }
    ],
    "materials" : [
        {
            "doubleSided" : true,
            "name" : "Material.002",
            "pbrMetallicRoughness" : {
                "baseColorFactor" : [
                    0.7991032600402832,
                    0.23073998093605042,
                    0.11443543434143066,
                    1
                ],
                "metallicFactor" : 0,
                "roughnessFactor" : 0.5
            }
        },
        {
            "doubleSided" : true,
            "name" : "Material.003",
            "pbrMetallicRoughness" : {
                "baseColorFactor" : [
                    1,
                    0.7801129817962646,
                    0.4573880732059479,
                    1
                ],
                "metallicFactor" : 0,
                "roughnessFactor" : 0.5
            }
        },
        {
            "doubleSided" : true,
            "name" : "concreto",
            "pbrMetallicRoughness" : {
                "baseColorFactor" : [
                    0.4374083876609802,
                    0.4374083876609802,
                    0.4374083876609802,
                    1
                ],
                "metallicFactor" : 0,
                "roughnessFactor" : 0.5
            }
        },
        {
            "doubleSided" : true,
            "name" : "ventana",
            "pbrMetallicRoughness" : {
                "baseColorFactor" : [
                    0.09530749917030334,
                    0.12743768095970154,
                    0.16826939582824707,
                    1
                ],
                "metallicFactor" : 0,
                "roughnessFactor" : 0.5
            }
        },
        {
            "doubleSided" : true,
            "name" : "puerta",
            "pbrMetallicRoughness" : {
                "baseColorFactor" : [
                    0.2874408960342407,
                    0.12213876843452454,
                    0.02028856799006462,
                    1
                ],
                "metallicFactor" : 0,
                "roughnessFactor" : 0.5
            }
        },
        {
            "doubleSided" : true,
            "name" : "Material.001",
            "pbrMetallicRoughness" : {
                "baseColorFactor" : [
                    0.6239607930183411,
                    0.623960554599762,
                    0.6239606738090515,
                    1
                ],
                "metallicFactor" : 0,
                "roughnessFactor" : 0.5
            }
        },
        {
            "doubleSided" : true,
            "name" : "Material",
            "pbrMetallicRoughness" : {
                "baseColorFactor" : [
                    0.1293269246816635,
                    0.1293269246816635,
                    0.1293269246816635,
                    1
                ],
                "metallicFactor" : 0,
                "roughnessFactor" : 0.5
            }
        },
        {
            "doubleSided" : true,
            "name" : "Material.004",
            "pbrMetallicRoughness" : {
                "baseColorFactor" : [
                    0.25415220856666565,
                    0.2541520893573761,
                    0.2541521489620209,
                    1
                ],
                "metallicFactor" : 0,
                "roughnessFactor" : 0.5
            }
        },
        {
            "doubleSided" : true,
            "name" : "Material.006",
            "pbrMetallicRoughness" : {
                "baseColorFactor" : [
                    0.08437621593475342,
                    0.327778160572052,
                    0.021219022572040558,
                    1
                ],
                "metallicFactor" : 0,
                "roughnessFactor" : 0.5
            }
        },
        {
            "doubleSided" : true,
            "name" : "Material.005",
            "pbrMetallicRoughness" : {
                "baseColorFactor" : [
                    0.800000011920929,
                    0.800000011920929,
                    0.800000011920929,
                    1
                ],
                "metallicFactor" : 0,
                "roughnessFactor" : 0.5
            }
        }
    ],
    "meshes" : [
        {
            "name" : "Cube.001",
            "primitives" : [
                {
                    "attributes" : {
                        "POSITION" : 0,
                        "NORMAL" : 1,
                        "TEXCOORD_0" : 2
                    },
                    "indices" : 3,
                    "material" : 0
                },
                {
                    "attributes" : {
                        "POSITION" : 4,
                        "NORMAL" : 5,
                        "TEXCOORD_0" : 6
                    },
                    "indices" : 7,
                    "material" : 1
                },
                {
                    "attributes" : {
                        "POSITION" : 8,
                        "NORMAL" : 9,
                        "TEXCOORD_0" : 10
                    },
                    "indices" : 11,
                    "material" : 2
                },
                {
                    "attributes" : {
                        "POSITION" : 12,
                        "NORMAL" : 13,
                        "TEXCOORD_0" : 14
                    },
                    "indices" : 15,
                    "material" : 3
                },
                {
                    "attributes" : {
                        "POSITION" : 16,
                        "NORMAL" : 17,
                        "TEXCOORD_0" : 18
                    },
                    "indices" : 19,
                    "material" : 4
                },
                {
                    "attributes" : {
                        "POSITION" : 20,
                        "NORMAL" : 21,
                        "TEXCOORD_0" : 22
                    },
                    "indices" : 23,
                    "material" : 5
                },
                {
                    "attributes" : {
                        "POSITION" : 24,
                        "NORMAL" : 25,
                        "TEXCOORD_0" : 26
                    },
                    "indices" : 27,
                    "material" : 6
                },
                {
                    "attributes" : {
                        "POSITION" : 28,
                        "NORMAL" : 29,
                        "TEXCOORD_0" : 30
                    },
                    "indices" : 31,
                    "material" : 7
                },
                {
                    "attributes" : {
                        "POSITION" : 32,
                        "NORMAL" : 33,
                        "TEXCOORD_0" : 34
                    },
                    "indices" : 35,
                    "material" : 8
                },
                {
                    "attributes" : {
                        "POSITION" : 36,
                        "NORMAL" : 37,
                        "TEXCOORD_0" : 38
                    },
                    "indices" : 39,
                    "material" : 9
                }
            ]
        }
    ],
    "accessors" : [
        {
            "bufferView" : 0,
            "componentType" : 5126,
            "count" : 1240,
            "max" : [
                3.890825033187866,
                2.630250930786133,
                12.090925216674805
            ],
            "min" : [
                -3.89081072807312,
                -1.5,
                -41.603206634521484
            ],
            "type" : "VEC3"
        },
        {
            "bufferView" : 1,
            "componentType" : 5126,
            "count" : 1240,
            "type" : "VEC3"
        },
        {
            "bufferView" : 2,
            "componentType" : 5126,
            "count" : 1240,
            "type" : "VEC2"
        },
        {
            "bufferView" : 3,
            "componentType" : 5123,
            "count" : 2178,
            "type" : "SCALAR"
        },
        {
            "bufferView" : 4,
            "componentType" : 5126,
            "count" : 28,
            "max" : [
                3.7500133514404297,
                2.630250930786133,
                11.996780395507812
            ],
            "min" : [
                -3.7500014305114746,
                1.5,
                -41.47984313964844
            ],
            "type" : "VEC3"
        },
        {
            "bufferView" : 5,
            "componentType" : 5126,
            "count" : 28,
            "type" : "VEC3"
        },
        {
            "bufferView" : 6,
            "componentType" : 5126,
            "count" : 28,
            "type" : "VEC2"
        },
        {
            "bufferView" : 7,
            "componentType" : 5123,
            "count" : 48,
            "type" : "SCALAR"
        },
        {
            "bufferView" : 8,
            "componentType" : 5126,
            "count" : 38,
            "max" : [
                3.750004291534424,
                2.630250930786133,
                -9.625314712524414
            ],
            "min" : [
                -3.7500014305114746,
                -1.5,
                -13.146953582763672
            ],
            "type" : "VEC3"
        },
        {
            "bufferView" : 9,
            "componentType" : 5126,
            "count" : 38,
            "type" : "VEC3"
        },
        {
            "bufferView" : 10,
            "componentType" : 5126,
            "count" : 38,
            "type" : "VEC2"
        },
        {
            "bufferView" : 11,
            "componentType" : 5123,
            "count" : 72,
            "type" : "SCALAR"
        },
        {
            "bufferView" : 12,
            "componentType" : 5126,
            "count" : 72,
            "max" : [
                3.6192879676818848,
                0.6593406796455383,
                9.025201797485352
            ],
            "min" : [
                -3.7499914169311523,
                -0.5228957533836365,
                -40.310176849365234
            ],
            "type" : "VEC3"
        },
        {
            "bufferView" : 13,
            "componentType" : 5126,
            "count" : 72,
            "type" : "VEC3"
        },
        {
            "bufferView" : 14,
            "componentType" : 5126,
            "count" : 72,
            "type" : "VEC2"
        },
        {
            "bufferView" : 15,
            "componentType" : 5123,
            "count" : 108,
            "type" : "SCALAR"
        },
        {
            "bufferView" : 16,
            "componentType" : 5126,
            "count" : 24,
            "max" : [
                3.619288921356201,
                0.6593406796455383,
                7.462911605834961
            ],
            "min" : [
                -3.574418783187866,
                -1.5,
                -34.291385650634766
            ],
            "type" : "VEC3"
        },
        {
            "bufferView" : 17,
            "componentType" : 5126,
            "count" : 24,
            "type" : "VEC3"
        },
        {
            "bufferView" : 18,
            "componentType" : 5126,
            "count" : 24,
            "type" : "VEC2"
        },
        {
            "bufferView" : 19,
            "componentType" : 5123,
            "count" : 48,
            "type" : "SCALAR"
        },
        {
            "bufferView" : 20,
            "componentType" : 5126,
            "count" : 40,
            "max" : [
                4.592602729797363,
                2.7504019737243652,
                12.745145797729492
            ],
            "min" : [
                -4.592593193054199,
                1.2851146459579468,
                -42.508995056152344
            ],
            "type" : "VEC3"
        },
        {
            "bufferView" : 21,
            "componentType" : 5126,
            "count" : 40,
            "type" : "VEC3"
        },
        {
            "bufferView" : 22,
            "componentType" : 5126,
            "count" : 40,
            "type" : "VEC2"
        },
        {
            "bufferView" : 23,
            "componentType" : 5123,
            "count" : 60,
            "type" : "SCALAR"
        },
        {
            "bufferView" : 24,
            "componentType" : 5126,
            "count" : 10,
            "max" : [
                3.750004291534424,
                -1.5,
                -9.625314712524414
            ],
            "min" : [
                -3.7500014305114746,
                -1.5,
                -13.146953582763672
            ],
            "type" : "VEC3"
        },
        {
            "bufferView" : 25,
            "componentType" : 5126,
            "count" : 10,
            "type" : "VEC3"
        },
        {
            "bufferView" : 26,
            "componentType" : 5126,
            "count" : 10,
            "type" : "VEC2"
        },
        {
            "bufferView" : 27,
            "componentType" : 5123,
            "count" : 24,
            "type" : "SCALAR"
        },
        {
            "bufferView" : 28,
            "componentType" : 5126,
            "count" : 24,
            "max" : [
                5.013214111328125,
                -1.5128722190856934,
                13.369486808776855
            ],
            "min" : [
                -5.013204574584961,
                -1.6140793561935425,
                -43.28662109375
            ],
            "type" : "VEC3"
        },
        {
            "bufferView" : 29,
            "componentType" : 5126,
            "count" : 24,
            "type" : "VEC3"
        },
        {
            "bufferView" : 30,
            "componentType" : 5126,
            "count" : 24,
            "type" : "VEC2"
        },
        {
            "bufferView" : 31,
            "componentType" : 5123,
            "count" : 36,
            "type" : "SCALAR"
        },
        {
            "bufferView" : 32,
            "componentType" : 5126,
            "count" : 8,
            "max" : [
                1.0000134706497192,
                1.416369915008545,
                12.019325256347656
            ],
            "min" : [
                -1.0000039339065552,
                -0.5836300253868103,
                -41.49432373046875
            ],
            "type" : "VEC3"
        },
        {
            "bufferView" : 33,
            "componentType" : 5126,
            "count" : 8,
            "type" : "VEC3"
        },
        {
            "bufferView" : 34,
            "componentType" : 5126,
            "count" : 8,
            "type" : "VEC2"
        },
        {
            "bufferView" : 35,
            "componentType" : 5123,
            "count" : 12,
            "type" : "SCALAR"
        },
        {
            "bufferView" : 36,
            "componentType" : 5126,
            "count" : 36,
            "max" : [
                0.574974775314331,
                0.9504196643829346,
                12.028736114501953
            ],
            "min" : [
                -0.5749651789665222,
                -0.15567302703857422,
                -41.50373458862305
            ],
            "type" : "VEC3"
        },
        {
            "bufferView" : 37,
            "componentType" : 5126,
            "count" : 36,
            "type" : "VEC3"
        },
        {
            "bufferView" : 38,
            "componentType" : 5126,
            "count" : 36,
            "type" : "VEC2"
        },
        {
            "bufferView" : 39,
            "componentType" : 5123,
            "count" : 54,
            "type" : "SCALAR"
        }
    ],
    "bufferViews" : [
        {
            "buffer" : 0,
            "byteLength" : 14880,
            "byteOffset" : 0
        },
        {
            "buffer" : 0,
            "byteLength" : 14880,
            "byteOffset" : 14880
        },
        {
            "buffer" : 0,
            "byteLength" : 9920,
            "byteOffset" : 29760
        },
        {
            "buffer" : 0,
            "byteLength" : 4356,
            "byteOffset" : 39680
        },
        {
            "buffer" : 0,
            "byteLength" : 336,
            "byteOffset" : 44036
        },
        {
            "buffer" : 0,
            "byteLength" : 336,
            "byteOffset" : 44372
        },
        {
            "buffer" : 0,
            "byteLength" : 224,
            "byteOffset" : 44708
        },
        {
            "buffer" : 0,
            "byteLength" : 96,
            "byteOffset" : 44932
        },
        {
            "buffer" : 0,
            "byteLength" : 456,
            "byteOffset" : 45028
        },
        {
            "buffer" : 0,
            "byteLength" : 456,
            "byteOffset" : 45484
        },
        {
            "buffer" : 0,
            "byteLength" : 304,
            "byteOffset" : 45940
        },
        {
            "buffer" : 0,
            "byteLength" : 144,
            "byteOffset" : 46244
        },
        {
            "buffer" : 0,
            "byteLength" : 864,
            "byteOffset" : 46388
        },
        {
            "buffer" : 0,
            "byteLength" : 864,
            "byteOffset" : 47252
        },
        {
            "buffer" : 0,
            "byteLength" : 576,
            "byteOffset" : 48116
        },
        {
            "buffer" : 0,
            "byteLength" : 216,
            "byteOffset" : 48692
        },
        {
            "buffer" : 0,
            "byteLength" : 288,
            "byteOffset" : 48908
        },
        {
            "buffer" : 0,
            "byteLength" : 288,
            "byteOffset" : 49196
        },
        {
            "buffer" : 0,
            "byteLength" : 192,
            "byteOffset" : 49484
        },
        {
            "buffer" : 0,
            "byteLength" : 96,
            "byteOffset" : 49676
        },
        {
            "buffer" : 0,
            "byteLength" : 480,
            "byteOffset" : 49772
        },
        {
            "buffer" : 0,
            "byteLength" : 480,
            "byteOffset" : 50252
        },
        {
            "buffer" : 0,
            "byteLength" : 320,
            "byteOffset" : 50732
        },
        {
            "buffer" : 0,
            "byteLength" : 120,
            "byteOffset" : 51052
        },
        {
            "buffer" : 0,
            "byteLength" : 120,
            "byteOffset" : 51172
        },
        {
            "buffer" : 0,
            "byteLength" : 120,
            "byteOffset" : 51292
        },
        {
            "buffer" : 0,
            "byteLength" : 80,
            "byteOffset" : 51412
        },
        {
            "buffer" : 0,
            "byteLength" : 48,
            "byteOffset" : 51492
        },
        {
            "buffer" : 0,
            "byteLength" : 288,
            "byteOffset" : 51540
        },
        {
            "buffer" : 0,
            "byteLength" : 288,
            "byteOffset" : 51828
        },
        {
            "buffer" : 0,
            "byteLength" : 192,
            "byteOffset" : 52116
        },
        {
            "buffer" : 0,
            "byteLength" : 72,
            "byteOffset" : 52308
        },
        {
            "buffer" : 0,
            "byteLength" : 96,
            "byteOffset" : 52380
        },
        {
            "buffer" : 0,
            "byteLength" : 96,
            "byteOffset" : 52476
        },
        {
            "buffer" : 0,
            "byteLength" : 64,
            "byteOffset" : 52572
        },
        {
            "buffer" : 0,
            "byteLength" : 24,
            "byteOffset" : 52636
        },
        {
            "buffer" : 0,
            "byteLength" : 432,
            "byteOffset" : 52660
        },
        {
            "buffer" : 0,
            "byteLength" : 432,
            "byteOffset" : 53092
        },
        {
            "buffer" : 0,
            "byteLength" : 288,
            "byteOffset" : 53524
        },
        {
            "buffer" : 0,
            "byteLength" : 108,
            "byteOffset" : 53812
        }
    ],
    "buffers" : [
        {
            "byteLength" : 53920,
            "uri" : "k.bin"
        }
    ]
}
