{
    "asset" : {
        "generator" : "Khronos glTF Blender I/O v1.5.17",
        "version" : "2.0"
    },
    "scene" : 0,
    "scenes" : [
        {
            "name" : "Scene",
            "nodes" : [
                0
            ]
        }
    ],
    "nodes" : [
        {
            "mesh" : 0,
            "name" : "Plane"
        }
    ],
    "materials" : [
        {
            "doubleSided" : true,
            "name" : "Material.007",
            "pbrMetallicRoughness" : {
                "baseColorFactor" : [
                    0.25415220856666565,
                    0.2541520893573761,
                    0.2541521489620209,
                    1
                ],
                "metallicFactor" : 0,
                "roughnessFactor" : 0.5
            }
        },
        {
            "doubleSided" : true,
            "name" : "Material.002",
            "pbrMetallicRoughness" : {
                "baseColorFactor" : [
                    1,
                    0.7835378646850586,
                    0.45641112327575684,
                    1
                ],
                "metallicFactor" : 0,
                "roughnessFactor" : 0.5
            }
        },
        {
            "doubleSided" : true,
            "name" : "Material.003",
            "pbrMetallicRoughness" : {
                "baseColorFactor" : [
                    1,
                    0.7801129817962646,
                    0.4573880732059479,
                    1
                ],
                "metallicFactor" : 0,
                "roughnessFactor" : 0.5
            }
        },
        {
            "doubleSided" : true,
            "name" : "Material",
            "pbrMetallicRoughness" : {
                "baseColorFactor" : [
                    0.7991032600402832,
                    0.23073998093605042,
                    0.11443543434143066,
                    1
                ],
                "metallicFactor" : 0,
                "roughnessFactor" : 0.5
            }
        },
        {
            "doubleSided" : true,
            "name" : "Material.004",
            "pbrMetallicRoughness" : {
                "baseColorFactor" : [
                    0.06124604120850563,
                    0.20507879555225372,
                    0.042311422526836395,
                    1
                ],
                "metallicFactor" : 0,
                "roughnessFactor" : 0.5
            }
        },
        {
            "doubleSided" : true,
            "name" : "Material.005",
            "pbrMetallicRoughness" : {
                "baseColorFactor" : [
                    0.09530749917030334,
                    0.12743768095970154,
                    0.16826939582824707,
                    1
                ],
                "metallicFactor" : 0,
                "roughnessFactor" : 0.5
            }
        },
        {
            "doubleSided" : true,
            "name" : "Material.006",
            "pbrMetallicRoughness" : {
                "baseColorFactor" : [
                    0.06124604120850563,
                    0.20507879555225372,
                    0.042311422526836395,
                    1
                ],
                "metallicFactor" : 0,
                "roughnessFactor" : 0.5
            }
        }
    ],
    "meshes" : [
        {
            "name" : "Plane",
            "primitives" : [
                {
                    "attributes" : {
                        "POSITION" : 0,
                        "NORMAL" : 1,
                        "TEXCOORD_0" : 2
                    },
                    "indices" : 3,
                    "material" : 0
                },
                {
                    "attributes" : {
                        "POSITION" : 4,
                        "NORMAL" : 5,
                        "TEXCOORD_0" : 6
                    },
                    "indices" : 7,
                    "material" : 1
                },
                {
                    "attributes" : {
                        "POSITION" : 8,
                        "NORMAL" : 9,
                        "TEXCOORD_0" : 10
                    },
                    "indices" : 11,
                    "material" : 2
                },
                {
                    "attributes" : {
                        "POSITION" : 12,
                        "NORMAL" : 13,
                        "TEXCOORD_0" : 14
                    },
                    "indices" : 15,
                    "material" : 3
                },
                {
                    "attributes" : {
                        "POSITION" : 16,
                        "NORMAL" : 17,
                        "TEXCOORD_0" : 18
                    },
                    "indices" : 19,
                    "material" : 4
                },
                {
                    "attributes" : {
                        "POSITION" : 20,
                        "NORMAL" : 21,
                        "TEXCOORD_0" : 22
                    },
                    "indices" : 23,
                    "material" : 5
                },
                {
                    "attributes" : {
                        "POSITION" : 24,
                        "NORMAL" : 25,
                        "TEXCOORD_0" : 26
                    },
                    "indices" : 27,
                    "material" : 6
                }
            ]
        }
    ],
    "accessors" : [
        {
            "bufferView" : 0,
            "componentType" : 5126,
            "count" : 24,
            "max" : [
                4.50890588760376,
                -1.5054818391799927,
                6.216592311859131
            ],
            "min" : [
                -4.50890588760376,
                -1.5845038890838623,
                -6.216592311859131
            ],
            "type" : "VEC3"
        },
        {
            "bufferView" : 1,
            "componentType" : 5126,
            "count" : 24,
            "type" : "VEC3"
        },
        {
            "bufferView" : 2,
            "componentType" : 5126,
            "count" : 24,
            "type" : "VEC2"
        },
        {
            "bufferView" : 3,
            "componentType" : 5123,
            "count" : 36,
            "type" : "SCALAR"
        },
        {
            "bufferView" : 4,
            "componentType" : 5126,
            "count" : 462,
            "max" : [
                3.888622283935547,
                2.630250930786133,
                5.599052429199219
            ],
            "min" : [
                -3.8908114433288574,
                -1.5,
                -5.624539375305176
            ],
            "type" : "VEC3"
        },
        {
            "bufferView" : 5,
            "componentType" : 5126,
            "count" : 462,
            "type" : "VEC3"
        },
        {
            "bufferView" : 6,
            "componentType" : 5126,
            "count" : 462,
            "type" : "VEC2"
        },
        {
            "bufferView" : 7,
            "componentType" : 5123,
            "count" : 1014,
            "type" : "SCALAR"
        },
        {
            "bufferView" : 8,
            "componentType" : 5126,
            "count" : 374,
            "max" : [
                3.75,
                2.630250930786133,
                5.5506696701049805
            ],
            "min" : [
                -3.75,
                -1.5,
                -5.561284065246582
            ],
            "type" : "VEC3"
        },
        {
            "bufferView" : 9,
            "componentType" : 5126,
            "count" : 374,
            "type" : "VEC3"
        },
        {
            "bufferView" : 10,
            "componentType" : 5126,
            "count" : 374,
            "type" : "VEC2"
        },
        {
            "bufferView" : 11,
            "componentType" : 5123,
            "count" : 726,
            "type" : "SCALAR"
        },
        {
            "bufferView" : 12,
            "componentType" : 5126,
            "count" : 202,
            "max" : [
                3.888622283935547,
                -1.184426188468933,
                5.599052429199219
            ],
            "min" : [
                -3.8908114433288574,
                -1.5,
                -5.624539375305176
            ],
            "type" : "VEC3"
        },
        {
            "bufferView" : 13,
            "componentType" : 5126,
            "count" : 202,
            "type" : "VEC3"
        },
        {
            "bufferView" : 14,
            "componentType" : 5126,
            "count" : 202,
            "type" : "VEC2"
        },
        {
            "bufferView" : 15,
            "componentType" : 5123,
            "count" : 396,
            "type" : "SCALAR"
        },
        {
            "bufferView" : 16,
            "componentType" : 5126,
            "count" : 8,
            "max" : [
                3.6088905334472656,
                0.9573142528533936,
                -1.1388130187988281
            ],
            "min" : [
                3.6088905334472656,
                -1.5,
                -2.2957019805908203
            ],
            "type" : "VEC3"
        },
        {
            "bufferView" : 17,
            "componentType" : 5126,
            "count" : 8,
            "type" : "VEC3"
        },
        {
            "bufferView" : 18,
            "componentType" : 5126,
            "count" : 8,
            "type" : "VEC2"
        },
        {
            "bufferView" : 19,
            "componentType" : 5123,
            "count" : 18,
            "type" : "SCALAR"
        },
        {
            "bufferView" : 20,
            "componentType" : 5126,
            "count" : 28,
            "max" : [
                3.5840377807617188,
                0.9573142528533936,
                4.386483669281006
            ],
            "min" : [
                -3.5887813568115234,
                -0.1227746307849884,
                -4.3724365234375
            ],
            "type" : "VEC3"
        },
        {
            "bufferView" : 21,
            "componentType" : 5126,
            "count" : 28,
            "type" : "VEC3"
        },
        {
            "bufferView" : 22,
            "componentType" : 5126,
            "count" : 28,
            "type" : "VEC2"
        },
        {
            "bufferView" : 23,
            "componentType" : 5123,
            "count" : 42,
            "type" : "SCALAR"
        },
        {
            "bufferView" : 24,
            "componentType" : 5126,
            "count" : 40,
            "max" : [
                4.592599391937256,
                2.7504019737243652,
                5.866258144378662
            ],
            "min" : [
                -4.592599391937256,
                1.2851146459579468,
                -5.866258144378662
            ],
            "type" : "VEC3"
        },
        {
            "bufferView" : 25,
            "componentType" : 5126,
            "count" : 40,
            "type" : "VEC3"
        },
        {
            "bufferView" : 26,
            "componentType" : 5126,
            "count" : 40,
            "type" : "VEC2"
        },
        {
            "bufferView" : 27,
            "componentType" : 5123,
            "count" : 60,
            "type" : "SCALAR"
        }
    ],
    "bufferViews" : [
        {
            "buffer" : 0,
            "byteLength" : 288,
            "byteOffset" : 0
        },
        {
            "buffer" : 0,
            "byteLength" : 288,
            "byteOffset" : 288
        },
        {
            "buffer" : 0,
            "byteLength" : 192,
            "byteOffset" : 576
        },
        {
            "buffer" : 0,
            "byteLength" : 72,
            "byteOffset" : 768
        },
        {
            "buffer" : 0,
            "byteLength" : 5544,
            "byteOffset" : 840
        },
        {
            "buffer" : 0,
            "byteLength" : 5544,
            "byteOffset" : 6384
        },
        {
            "buffer" : 0,
            "byteLength" : 3696,
            "byteOffset" : 11928
        },
        {
            "buffer" : 0,
            "byteLength" : 2028,
            "byteOffset" : 15624
        },
        {
            "buffer" : 0,
            "byteLength" : 4488,
            "byteOffset" : 17652
        },
        {
            "buffer" : 0,
            "byteLength" : 4488,
            "byteOffset" : 22140
        },
        {
            "buffer" : 0,
            "byteLength" : 2992,
            "byteOffset" : 26628
        },
        {
            "buffer" : 0,
            "byteLength" : 1452,
            "byteOffset" : 29620
        },
        {
            "buffer" : 0,
            "byteLength" : 2424,
            "byteOffset" : 31072
        },
        {
            "buffer" : 0,
            "byteLength" : 2424,
            "byteOffset" : 33496
        },
        {
            "buffer" : 0,
            "byteLength" : 1616,
            "byteOffset" : 35920
        },
        {
            "buffer" : 0,
            "byteLength" : 792,
            "byteOffset" : 37536
        },
        {
            "buffer" : 0,
            "byteLength" : 96,
            "byteOffset" : 38328
        },
        {
            "buffer" : 0,
            "byteLength" : 96,
            "byteOffset" : 38424
        },
        {
            "buffer" : 0,
            "byteLength" : 64,
            "byteOffset" : 38520
        },
        {
            "buffer" : 0,
            "byteLength" : 36,
            "byteOffset" : 38584
        },
        {
            "buffer" : 0,
            "byteLength" : 336,
            "byteOffset" : 38620
        },
        {
            "buffer" : 0,
            "byteLength" : 336,
            "byteOffset" : 38956
        },
        {
            "buffer" : 0,
            "byteLength" : 224,
            "byteOffset" : 39292
        },
        {
            "buffer" : 0,
            "byteLength" : 84,
            "byteOffset" : 39516
        },
        {
            "buffer" : 0,
            "byteLength" : 480,
            "byteOffset" : 39600
        },
        {
            "buffer" : 0,
            "byteLength" : 480,
            "byteOffset" : 40080
        },
        {
            "buffer" : 0,
            "byteLength" : 320,
            "byteOffset" : 40560
        },
        {
            "buffer" : 0,
            "byteLength" : 120,
            "byteOffset" : 40880
        }
    ],
    "buffers" : [
        {
            "byteLength" : 41000,
            "uri" : "m1.bin"
        }
    ]
}
