{
    "asset" : {
        "generator" : "Khronos glTF Blender I/O v1.5.17",
        "version" : "2.0"
    },
    "scene" : 0,
    "scenes" : [
        {
            "name" : "Scene",
            "nodes" : [
                0
            ]
        }
    ],
    "nodes" : [
        {
            "mesh" : 0,
            "name" : "Plane"
        }
    ],
    "materials" : [
        {
            "doubleSided" : true,
            "name" : "Material.005",
            "pbrMetallicRoughness" : {
                "baseColorFactor" : [
                    0.25415220856666565,
                    0.2541520893573761,
                    0.2541521489620209,
                    1
                ],
                "metallicFactor" : 0,
                "roughnessFactor" : 0.5
            }
        },
        {
            "doubleSided" : true,
            "name" : "Material.002",
            "pbrMetallicRoughness" : {
                "baseColorFactor" : [
                    0.6239607930183411,
                    0.623960554599762,
                    0.6239606738090515,
                    1
                ],
                "metallicFactor" : 0,
                "roughnessFactor" : 0.5
            }
        },
        {
            "doubleSided" : true,
            "name" : "Material.003",
            "pbrMetallicRoughness" : {
                "baseColorFactor" : [
                    0.3975048363208771,
                    0.3975048363208771,
                    0.3975048363208771,
                    1
                ],
                "metallicFactor" : 0,
                "roughnessFactor" : 0.5
            }
        },
        {
            "doubleSided" : true,
            "name" : "Material",
            "pbrMetallicRoughness" : {
                "baseColorFactor" : [
                    0.0273208636790514,
                    0.08650048077106476,
                    0.019382363185286522,
                    1
                ],
                "metallicFactor" : 0,
                "roughnessFactor" : 0.5
            }
        },
        {
            "doubleSided" : true,
            "name" : "Material.004",
            "pbrMetallicRoughness" : {
                "baseColorFactor" : [
                    0.09530749917030334,
                    0.12743768095970154,
                    0.16826939582824707,
                    1
                ],
                "metallicFactor" : 0,
                "roughnessFactor" : 0.5
            }
        }
    ],
    "meshes" : [
        {
            "name" : "Plane",
            "primitives" : [
                {
                    "attributes" : {
                        "POSITION" : 0,
                        "NORMAL" : 1,
                        "TEXCOORD_0" : 2
                    },
                    "indices" : 3,
                    "material" : 0
                },
                {
                    "attributes" : {
                        "POSITION" : 4,
                        "NORMAL" : 5,
                        "TEXCOORD_0" : 6
                    },
                    "indices" : 7,
                    "material" : 1
                },
                {
                    "attributes" : {
                        "POSITION" : 8,
                        "NORMAL" : 9,
                        "TEXCOORD_0" : 10
                    },
                    "indices" : 11,
                    "material" : 2
                },
                {
                    "attributes" : {
                        "POSITION" : 12,
                        "NORMAL" : 13,
                        "TEXCOORD_0" : 14
                    },
                    "indices" : 15,
                    "material" : 3
                },
                {
                    "attributes" : {
                        "POSITION" : 16,
                        "NORMAL" : 17,
                        "TEXCOORD_0" : 18
                    },
                    "indices" : 19,
                    "material" : 4
                }
            ]
        }
    ],
    "accessors" : [
        {
            "bufferView" : 0,
            "componentType" : 5126,
            "count" : 24,
            "max" : [
                10.244232177734375,
                -4.284308910369873,
                16.184934616088867
            ],
            "min" : [
                -10.013341903686523,
                -4.395656108856201,
                -16.184934616088867
            ],
            "type" : "VEC3"
        },
        {
            "bufferView" : 1,
            "componentType" : 5126,
            "count" : 24,
            "type" : "VEC3"
        },
        {
            "bufferView" : 2,
            "componentType" : 5126,
            "count" : 24,
            "type" : "VEC2"
        },
        {
            "bufferView" : 3,
            "componentType" : 5123,
            "count" : 36,
            "type" : "SCALAR"
        },
        {
            "bufferView" : 4,
            "componentType" : 5126,
            "count" : 1066,
            "max" : [
                9.434200286865234,
                3.7940661907196045,
                15.130620956420898
            ],
            "min" : [
                -9.095064163208008,
                -4.275473594665527,
                -15.170774459838867
            ],
            "type" : "VEC3"
        },
        {
            "bufferView" : 5,
            "componentType" : 5126,
            "count" : 1066,
            "type" : "VEC3"
        },
        {
            "bufferView" : 6,
            "componentType" : 5126,
            "count" : 1066,
            "type" : "VEC2"
        },
        {
            "bufferView" : 7,
            "componentType" : 5123,
            "count" : 2256,
            "type" : "SCALAR"
        },
        {
            "bufferView" : 8,
            "componentType" : 5126,
            "count" : 398,
            "max" : [
                9.434200286865234,
                6.745054721832275,
                15.130620956420898
            ],
            "min" : [
                -9.095064163208008,
                -1.4625804424285889,
                -15.170774459838867
            ],
            "type" : "VEC3"
        },
        {
            "bufferView" : 9,
            "componentType" : 5126,
            "count" : 398,
            "type" : "VEC3"
        },
        {
            "bufferView" : 10,
            "componentType" : 5126,
            "count" : 398,
            "type" : "VEC2"
        },
        {
            "bufferView" : 11,
            "componentType" : 5123,
            "count" : 690,
            "type" : "SCALAR"
        },
        {
            "bufferView" : 12,
            "componentType" : 5126,
            "count" : 18,
            "max" : [
                7.456567287445068,
                -1.4625804424285889,
                14.789618492126465
            ],
            "min" : [
                -8.612873077392578,
                -4.275473594665527,
                -0.009995460510253906
            ],
            "type" : "VEC3"
        },
        {
            "bufferView" : 13,
            "componentType" : 5126,
            "count" : 18,
            "type" : "VEC3"
        },
        {
            "bufferView" : 14,
            "componentType" : 5126,
            "count" : 18,
            "type" : "VEC2"
        },
        {
            "bufferView" : 15,
            "componentType" : 5123,
            "count" : 36,
            "type" : "SCALAR"
        },
        {
            "bufferView" : 16,
            "componentType" : 5126,
            "count" : 48,
            "max" : [
                8.891292572021484,
                -0.36019420623779297,
                12.907238006591797
            ],
            "min" : [
                -8.561935424804688,
                -2.5304901599884033,
                -13.04044246673584
            ],
            "type" : "VEC3"
        },
        {
            "bufferView" : 17,
            "componentType" : 5126,
            "count" : 48,
            "type" : "VEC3"
        },
        {
            "bufferView" : 18,
            "componentType" : 5126,
            "count" : 48,
            "type" : "VEC2"
        },
        {
            "bufferView" : 19,
            "componentType" : 5123,
            "count" : 96,
            "type" : "SCALAR"
        }
    ],
    "bufferViews" : [
        {
            "buffer" : 0,
            "byteLength" : 288,
            "byteOffset" : 0
        },
        {
            "buffer" : 0,
            "byteLength" : 288,
            "byteOffset" : 288
        },
        {
            "buffer" : 0,
            "byteLength" : 192,
            "byteOffset" : 576
        },
        {
            "buffer" : 0,
            "byteLength" : 72,
            "byteOffset" : 768
        },
        {
            "buffer" : 0,
            "byteLength" : 12792,
            "byteOffset" : 840
        },
        {
            "buffer" : 0,
            "byteLength" : 12792,
            "byteOffset" : 13632
        },
        {
            "buffer" : 0,
            "byteLength" : 8528,
            "byteOffset" : 26424
        },
        {
            "buffer" : 0,
            "byteLength" : 4512,
            "byteOffset" : 34952
        },
        {
            "buffer" : 0,
            "byteLength" : 4776,
            "byteOffset" : 39464
        },
        {
            "buffer" : 0,
            "byteLength" : 4776,
            "byteOffset" : 44240
        },
        {
            "buffer" : 0,
            "byteLength" : 3184,
            "byteOffset" : 49016
        },
        {
            "buffer" : 0,
            "byteLength" : 1380,
            "byteOffset" : 52200
        },
        {
            "buffer" : 0,
            "byteLength" : 216,
            "byteOffset" : 53580
        },
        {
            "buffer" : 0,
            "byteLength" : 216,
            "byteOffset" : 53796
        },
        {
            "buffer" : 0,
            "byteLength" : 144,
            "byteOffset" : 54012
        },
        {
            "buffer" : 0,
            "byteLength" : 72,
            "byteOffset" : 54156
        },
        {
            "buffer" : 0,
            "byteLength" : 576,
            "byteOffset" : 54228
        },
        {
            "buffer" : 0,
            "byteLength" : 576,
            "byteOffset" : 54804
        },
        {
            "buffer" : 0,
            "byteLength" : 384,
            "byteOffset" : 55380
        },
        {
            "buffer" : 0,
            "byteLength" : 192,
            "byteOffset" : 55764
        }
    ],
    "buffers" : [
        {
            "byteLength" : 55956,
            "uri" : "mayor.bin"
        }
    ]
}
