{
    "asset" : {
        "generator" : "Khronos glTF Blender I/O v1.5.17",
        "version" : "2.0"
    },
    "scene" : 0,
    "scenes" : [
        {
            "name" : "Scene",
            "nodes" : [
                0
            ]
        }
    ],
    "nodes" : [
        {
            "mesh" : 0,
            "name" : "Plane"
        }
    ],
    "materials" : [
        {
            "doubleSided" : true,
            "name" : "Material.005",
            "pbrMetallicRoughness" : {
                "baseColorFactor" : [
                    0.25415220856666565,
                    0.2541520893573761,
                    0.2541521489620209,
                    1
                ],
                "metallicFactor" : 0,
                "roughnessFactor" : 0.5
            }
        },
        {
            "doubleSided" : true,
            "name" : "Material.002",
            "pbrMetallicRoughness" : {
                "baseColorFactor" : [
                    1,
                    0.7835378646850586,
                    0.45641112327575684,
                    1
                ],
                "metallicFactor" : 0,
                "roughnessFactor" : 0.5
            }
        },
        {
            "doubleSided" : true,
            "name" : "Material.003",
            "pbrMetallicRoughness" : {
                "baseColorFactor" : [
                    1,
                    0.7801129817962646,
                    0.4573880732059479,
                    1
                ],
                "metallicFactor" : 0,
                "roughnessFactor" : 0.5
            }
        },
        {
            "doubleSided" : true,
            "name" : "Material",
            "pbrMetallicRoughness" : {
                "baseColorFactor" : [
                    0.0273208636790514,
                    0.08650048077106476,
                    0.019382363185286522,
                    1
                ],
                "metallicFactor" : 0,
                "roughnessFactor" : 0.5
            }
        },
        {
            "doubleSided" : true,
            "name" : "Material.004",
            "pbrMetallicRoughness" : {
                "baseColorFactor" : [
                    0.09530749917030334,
                    0.12743768095970154,
                    0.16826939582824707,
                    1
                ],
                "metallicFactor" : 0,
                "roughnessFactor" : 0.5
            }
        },
        {
            "doubleSided" : true,
            "name" : "Material.001",
            "pbrMetallicRoughness" : {
                "baseColorFactor" : [
                    0.6239607930183411,
                    0.623960554599762,
                    0.6239606738090515,
                    1
                ],
                "metallicFactor" : 0,
                "roughnessFactor" : 0.5
            }
        }
    ],
    "meshes" : [
        {
            "name" : "Plane",
            "primitives" : [
                {
                    "attributes" : {
                        "POSITION" : 0,
                        "NORMAL" : 1,
                        "TEXCOORD_0" : 2
                    },
                    "indices" : 3,
                    "material" : 0
                },
                {
                    "attributes" : {
                        "POSITION" : 4,
                        "NORMAL" : 5,
                        "TEXCOORD_0" : 6
                    },
                    "indices" : 7,
                    "material" : 1
                },
                {
                    "attributes" : {
                        "POSITION" : 8,
                        "NORMAL" : 9,
                        "TEXCOORD_0" : 10
                    },
                    "indices" : 11,
                    "material" : 2
                },
                {
                    "attributes" : {
                        "POSITION" : 12,
                        "NORMAL" : 13,
                        "TEXCOORD_0" : 14
                    },
                    "indices" : 15,
                    "material" : 3
                },
                {
                    "attributes" : {
                        "POSITION" : 16,
                        "NORMAL" : 17,
                        "TEXCOORD_0" : 18
                    },
                    "indices" : 19,
                    "material" : 4
                },
                {
                    "attributes" : {
                        "POSITION" : 20,
                        "NORMAL" : 21,
                        "TEXCOORD_0" : 22
                    },
                    "indices" : 23,
                    "material" : 5
                }
            ]
        }
    ],
    "accessors" : [
        {
            "bufferView" : 0,
            "componentType" : 5126,
            "count" : 24,
            "max" : [
                4.587939262390137,
                -1.5018913745880127,
                3.979954242706299
            ],
            "min" : [
                -4.587939262390137,
                -1.5760048627853394,
                -3.979954242706299
            ],
            "type" : "VEC3"
        },
        {
            "bufferView" : 1,
            "componentType" : 5126,
            "count" : 24,
            "type" : "VEC3"
        },
        {
            "bufferView" : 2,
            "componentType" : 5126,
            "count" : 24,
            "type" : "VEC2"
        },
        {
            "bufferView" : 3,
            "componentType" : 5123,
            "count" : 36,
            "type" : "SCALAR"
        },
        {
            "bufferView" : 4,
            "componentType" : 5126,
            "count" : 449,
            "max" : [
                3.888622283935547,
                2.630250930786133,
                3.418062210083008
            ],
            "min" : [
                -3.8908114433288574,
                -1.5,
                -3.440192222595215
            ],
            "type" : "VEC3"
        },
        {
            "bufferView" : 5,
            "componentType" : 5126,
            "count" : 449,
            "type" : "VEC3"
        },
        {
            "bufferView" : 6,
            "componentType" : 5126,
            "count" : 449,
            "type" : "VEC2"
        },
        {
            "bufferView" : 7,
            "componentType" : 5123,
            "count" : 1002,
            "type" : "SCALAR"
        },
        {
            "bufferView" : 8,
            "componentType" : 5126,
            "count" : 172,
            "max" : [
                3.75,
                2.630250930786133,
                3.3884973526000977
            ],
            "min" : [
                -3.75,
                -1.5,
                -3.4015398025512695
            ],
            "type" : "VEC3"
        },
        {
            "bufferView" : 9,
            "componentType" : 5126,
            "count" : 172,
            "type" : "VEC3"
        },
        {
            "bufferView" : 10,
            "componentType" : 5126,
            "count" : 172,
            "type" : "VEC2"
        },
        {
            "bufferView" : 11,
            "componentType" : 5123,
            "count" : 342,
            "type" : "SCALAR"
        },
        {
            "bufferView" : 12,
            "componentType" : 5126,
            "count" : 6,
            "max" : [
                3.651470184326172,
                0.8333333730697632,
                0.583781361579895
            ],
            "min" : [
                3.651470184326172,
                -1.5,
                -0.6007053256034851
            ],
            "type" : "VEC3"
        },
        {
            "bufferView" : 13,
            "componentType" : 5126,
            "count" : 6,
            "type" : "VEC3"
        },
        {
            "bufferView" : 14,
            "componentType" : 5126,
            "count" : 6,
            "type" : "VEC2"
        },
        {
            "bufferView" : 15,
            "componentType" : 5123,
            "count" : 12,
            "type" : "SCALAR"
        },
        {
            "bufferView" : 16,
            "componentType" : 5126,
            "count" : 8,
            "max" : [
                3.669957160949707,
                0.8341069221496582,
                -1.5036659240722656
            ],
            "min" : [
                -0.43258237838745117,
                -0.6600906848907471,
                -3.2763047218322754
            ],
            "type" : "VEC3"
        },
        {
            "bufferView" : 17,
            "componentType" : 5126,
            "count" : 8,
            "type" : "VEC3"
        },
        {
            "bufferView" : 18,
            "componentType" : 5126,
            "count" : 8,
            "type" : "VEC2"
        },
        {
            "bufferView" : 19,
            "componentType" : 5123,
            "count" : 12,
            "type" : "SCALAR"
        },
        {
            "bufferView" : 20,
            "componentType" : 5126,
            "count" : 40,
            "max" : [
                4.592598915100098,
                2.7504019737243652,
                3.6472291946411133
            ],
            "min" : [
                -4.592598915100098,
                1.2851146459579468,
                -3.6472291946411133
            ],
            "type" : "VEC3"
        },
        {
            "bufferView" : 21,
            "componentType" : 5126,
            "count" : 40,
            "type" : "VEC3"
        },
        {
            "bufferView" : 22,
            "componentType" : 5126,
            "count" : 40,
            "type" : "VEC2"
        },
        {
            "bufferView" : 23,
            "componentType" : 5123,
            "count" : 60,
            "type" : "SCALAR"
        }
    ],
    "bufferViews" : [
        {
            "buffer" : 0,
            "byteLength" : 288,
            "byteOffset" : 0
        },
        {
            "buffer" : 0,
            "byteLength" : 288,
            "byteOffset" : 288
        },
        {
            "buffer" : 0,
            "byteLength" : 192,
            "byteOffset" : 576
        },
        {
            "buffer" : 0,
            "byteLength" : 72,
            "byteOffset" : 768
        },
        {
            "buffer" : 0,
            "byteLength" : 5388,
            "byteOffset" : 840
        },
        {
            "buffer" : 0,
            "byteLength" : 5388,
            "byteOffset" : 6228
        },
        {
            "buffer" : 0,
            "byteLength" : 3592,
            "byteOffset" : 11616
        },
        {
            "buffer" : 0,
            "byteLength" : 2004,
            "byteOffset" : 15208
        },
        {
            "buffer" : 0,
            "byteLength" : 2064,
            "byteOffset" : 17212
        },
        {
            "buffer" : 0,
            "byteLength" : 2064,
            "byteOffset" : 19276
        },
        {
            "buffer" : 0,
            "byteLength" : 1376,
            "byteOffset" : 21340
        },
        {
            "buffer" : 0,
            "byteLength" : 684,
            "byteOffset" : 22716
        },
        {
            "buffer" : 0,
            "byteLength" : 72,
            "byteOffset" : 23400
        },
        {
            "buffer" : 0,
            "byteLength" : 72,
            "byteOffset" : 23472
        },
        {
            "buffer" : 0,
            "byteLength" : 48,
            "byteOffset" : 23544
        },
        {
            "buffer" : 0,
            "byteLength" : 24,
            "byteOffset" : 23592
        },
        {
            "buffer" : 0,
            "byteLength" : 96,
            "byteOffset" : 23616
        },
        {
            "buffer" : 0,
            "byteLength" : 96,
            "byteOffset" : 23712
        },
        {
            "buffer" : 0,
            "byteLength" : 64,
            "byteOffset" : 23808
        },
        {
            "buffer" : 0,
            "byteLength" : 24,
            "byteOffset" : 23872
        },
        {
            "buffer" : 0,
            "byteLength" : 480,
            "byteOffset" : 23896
        },
        {
            "buffer" : 0,
            "byteLength" : 480,
            "byteOffset" : 24376
        },
        {
            "buffer" : 0,
            "byteLength" : 320,
            "byteOffset" : 24856
        },
        {
            "buffer" : 0,
            "byteLength" : 120,
            "byteOffset" : 25176
        }
    ],
    "buffers" : [
        {
            "byteLength" : 25296,
            "uri" : "n.bin"
        }
    ]
}
