{
    "asset" : {
        "generator" : "Khronos glTF Blender I/O v1.5.17",
        "version" : "2.0"
    },
    "scene" : 0,
    "scenes" : [
        {
            "name" : "Scene",
            "nodes" : [
                0
            ]
        }
    ],
    "nodes" : [
        {
            "mesh" : 0,
            "name" : "Cube.003",
            "translation" : [
                8.428055763244629,
                2.4700214862823486,
                0
            ]
        }
    ],
    "materials" : [
        {
            "doubleSided" : true,
            "name" : "rojo",
            "pbrMetallicRoughness" : {
                "baseColorFactor" : [
                    0.4708549976348877,
                    0.2018118053674698,
                    0.1784273236989975,
                    1
                ],
                "metallicFactor" : 0,
                "roughnessFactor" : 0.5
            }
        },
        {
            "doubleSided" : true,
            "name" : "rojonegro",
            "pbrMetallicRoughness" : {
                "baseColorFactor" : [
                    0.08650048822164536,
                    0.009721209295094013,
                    0.012983033433556557,
                    1
                ],
                "metallicFactor" : 0
            }
        },
        {
            "doubleSided" : true,
            "name" : "pared",
            "pbrMetallicRoughness" : {
                "baseColorFactor" : [
                    0.3085225820541382,
                    0.3085225820541382,
                    0.3085225820541382,
                    1
                ],
                "metallicFactor" : 0,
                "roughnessFactor" : 0.5
            }
        },
        {
            "doubleSided" : true,
            "name" : "puertaroja",
            "pbrMetallicRoughness" : {
                "baseColorFactor" : [
                    0.2874408960342407,
                    0.12213876843452454,
                    0.02028856799006462,
                    1
                ],
                "metallicFactor" : 0,
                "roughnessFactor" : 0.5
            }
        },
        {
            "doubleSided" : true,
            "name" : "colorverde",
            "pbrMetallicRoughness" : {
                "baseColorFactor" : [
                    0.06124604120850563,
                    0.20507879555225372,
                    0.042311422526836395,
                    1
                ],
                "metallicFactor" : 0,
                "roughnessFactor" : 0.5
            }
        },
        {
            "doubleSided" : true,
            "name" : "rojooscuro.001",
            "pbrMetallicRoughness" : {
                "baseColorFactor" : [
                    0.08650048822164536,
                    0.009721209295094013,
                    0.012983033433556557,
                    1
                ],
                "metallicFactor" : 0,
                "roughnessFactor" : 0.5
            }
        },
        {
            "doubleSided" : true,
            "name" : "puertaverde",
            "pbrMetallicRoughness" : {
                "baseColorFactor" : [
                    0.0273208636790514,
                    0.08650048077106476,
                    0.019382363185286522,
                    1
                ],
                "metallicFactor" : 0,
                "roughnessFactor" : 0.5
            }
        },
        {
            "doubleSided" : true,
            "name" : "rojooscuro",
            "pbrMetallicRoughness" : {
                "baseColorFactor" : [
                    0.08650048822164536,
                    0.009721209295094013,
                    0.012983033433556557,
                    1
                ],
                "metallicFactor" : 0,
                "roughnessFactor" : 0.5
            }
        },
        {
            "doubleSided" : true,
            "name" : "puertacristal",
            "pbrMetallicRoughness" : {
                "baseColorFactor" : [
                    0.03642165660858154,
                    0.09460751712322235,
                    0.19437696039676666,
                    1
                ],
                "metallicFactor" : 0,
                "roughnessFactor" : 0.5
            }
        },
        {
            "doubleSided" : true,
            "name" : "Material",
            "pbrMetallicRoughness" : {
                "baseColorFactor" : [
                    0.25415220856666565,
                    0.2541520893573761,
                    0.2541521489620209,
                    1
                ],
                "metallicFactor" : 0,
                "roughnessFactor" : 0.5
            }
        }
    ],
    "meshes" : [
        {
            "name" : "Cube.007",
            "primitives" : [
                {
                    "attributes" : {
                        "POSITION" : 0,
                        "NORMAL" : 1,
                        "TEXCOORD_0" : 2
                    },
                    "indices" : 3,
                    "material" : 0
                },
                {
                    "attributes" : {
                        "POSITION" : 4,
                        "NORMAL" : 5,
                        "TEXCOORD_0" : 6
                    },
                    "indices" : 7,
                    "material" : 1
                },
                {
                    "attributes" : {
                        "POSITION" : 8,
                        "NORMAL" : 9,
                        "TEXCOORD_0" : 10
                    },
                    "indices" : 11,
                    "material" : 2
                },
                {
                    "attributes" : {
                        "POSITION" : 12,
                        "NORMAL" : 13,
                        "TEXCOORD_0" : 14
                    },
                    "indices" : 15,
                    "material" : 3
                },
                {
                    "attributes" : {
                        "POSITION" : 16,
                        "NORMAL" : 17,
                        "TEXCOORD_0" : 18
                    },
                    "indices" : 19,
                    "material" : 4
                },
                {
                    "attributes" : {
                        "POSITION" : 20,
                        "NORMAL" : 21,
                        "TEXCOORD_0" : 22
                    },
                    "indices" : 23,
                    "material" : 5
                },
                {
                    "attributes" : {
                        "POSITION" : 24,
                        "NORMAL" : 25,
                        "TEXCOORD_0" : 26
                    },
                    "indices" : 27,
                    "material" : 6
                },
                {
                    "attributes" : {
                        "POSITION" : 28,
                        "NORMAL" : 29,
                        "TEXCOORD_0" : 30
                    },
                    "indices" : 31,
                    "material" : 7
                },
                {
                    "attributes" : {
                        "POSITION" : 32,
                        "NORMAL" : 33,
                        "TEXCOORD_0" : 34
                    },
                    "indices" : 35,
                    "material" : 8
                },
                {
                    "attributes" : {
                        "POSITION" : 36,
                        "NORMAL" : 37,
                        "TEXCOORD_0" : 38
                    },
                    "indices" : 39,
                    "material" : 9
                }
            ]
        }
    ],
    "accessors" : [
        {
            "bufferView" : 0,
            "componentType" : 5126,
            "count" : 239,
            "max" : [
                2.7704410552978516,
                -0.9718614816665649,
                22.49070930480957
            ],
            "min" : [
                -12.418806076049805,
                -3.968181610107422,
                -22.49070930480957
            ],
            "type" : "VEC3"
        },
        {
            "bufferView" : 1,
            "componentType" : 5126,
            "count" : 239,
            "type" : "VEC3"
        },
        {
            "bufferView" : 2,
            "componentType" : 5126,
            "count" : 239,
            "type" : "VEC2"
        },
        {
            "bufferView" : 3,
            "componentType" : 5123,
            "count" : 564,
            "type" : "SCALAR"
        },
        {
            "bufferView" : 4,
            "componentType" : 5126,
            "count" : 24,
            "max" : [
                3.7514376640319824,
                -0.30230337381362915,
                24.095956802368164
            ],
            "min" : [
                -5.390157222747803,
                -0.9499267935752869,
                -23.627748489379883
            ],
            "type" : "VEC3"
        },
        {
            "bufferView" : 5,
            "componentType" : 5126,
            "count" : 24,
            "type" : "VEC3"
        },
        {
            "bufferView" : 6,
            "componentType" : 5126,
            "count" : 24,
            "type" : "VEC2"
        },
        {
            "bufferView" : 7,
            "componentType" : 5123,
            "count" : 36,
            "type" : "SCALAR"
        },
        {
            "bufferView" : 8,
            "componentType" : 5126,
            "count" : 70,
            "max" : [
                -11.802703857421875,
                -0.9499267935752869,
                24.095956802368164
            ],
            "min" : [
                -20.944299697875977,
                -3.968181610107422,
                -23.627748489379883
            ],
            "type" : "VEC3"
        },
        {
            "bufferView" : 9,
            "componentType" : 5126,
            "count" : 70,
            "type" : "VEC3"
        },
        {
            "bufferView" : 10,
            "componentType" : 5126,
            "count" : 70,
            "type" : "VEC2"
        },
        {
            "bufferView" : 11,
            "componentType" : 5123,
            "count" : 135,
            "type" : "SCALAR"
        },
        {
            "bufferView" : 12,
            "componentType" : 5126,
            "count" : 14,
            "max" : [
                -0.2805604338645935,
                -1.8203091621398926,
                -20.186525344848633
            ],
            "min" : [
                -12.51050090789795,
                -3.968181610107422,
                -22.420896530151367
            ],
            "type" : "VEC3"
        },
        {
            "bufferView" : 13,
            "componentType" : 5126,
            "count" : 14,
            "type" : "VEC3"
        },
        {
            "bufferView" : 14,
            "componentType" : 5126,
            "count" : 14,
            "type" : "VEC2"
        },
        {
            "bufferView" : 15,
            "componentType" : 5123,
            "count" : 30,
            "type" : "SCALAR"
        },
        {
            "bufferView" : 16,
            "componentType" : 5126,
            "count" : 44,
            "max" : [
                -11.802703857421875,
                -0.30230337381362915,
                24.095956802368164
            ],
            "min" : [
                -20.944299697875977,
                -3.968181610107422,
                -23.627748489379883
            ],
            "type" : "VEC3"
        },
        {
            "bufferView" : 17,
            "componentType" : 5126,
            "count" : 44,
            "type" : "VEC3"
        },
        {
            "bufferView" : 18,
            "componentType" : 5126,
            "count" : 44,
            "type" : "VEC2"
        },
        {
            "bufferView" : 19,
            "componentType" : 5123,
            "count" : 66,
            "type" : "SCALAR"
        },
        {
            "bufferView" : 20,
            "componentType" : 5126,
            "count" : 44,
            "max" : [
                -4.41707706451416,
                -3.561981439590454,
                17.483924865722656
            ],
            "min" : [
                -12.418806076049805,
                -3.968181610107422,
                -17.483924865722656
            ],
            "type" : "VEC3"
        },
        {
            "bufferView" : 21,
            "componentType" : 5126,
            "count" : 44,
            "type" : "VEC3"
        },
        {
            "bufferView" : 22,
            "componentType" : 5126,
            "count" : 44,
            "type" : "VEC2"
        },
        {
            "bufferView" : 23,
            "componentType" : 5123,
            "count" : 72,
            "type" : "SCALAR"
        },
        {
            "bufferView" : 24,
            "componentType" : 5126,
            "count" : 18,
            "max" : [
                -4.322775840759277,
                -1.8132004737854004,
                21.56890869140625
            ],
            "min" : [
                -11.862255096435547,
                -3.968181610107422,
                -17.374004364013672
            ],
            "type" : "VEC3"
        },
        {
            "bufferView" : 25,
            "componentType" : 5126,
            "count" : 18,
            "type" : "VEC3"
        },
        {
            "bufferView" : 26,
            "componentType" : 5126,
            "count" : 18,
            "type" : "VEC2"
        },
        {
            "bufferView" : 27,
            "componentType" : 5123,
            "count" : 36,
            "type" : "SCALAR"
        },
        {
            "bufferView" : 28,
            "componentType" : 5126,
            "count" : 72,
            "max" : [
                2.7704410552978516,
                -3.568429470062256,
                22.49070930480957
            ],
            "min" : [
                -4.430548667907715,
                -3.968181610107422,
                -22.49070930480957
            ],
            "type" : "VEC3"
        },
        {
            "bufferView" : 29,
            "componentType" : 5126,
            "count" : 72,
            "type" : "VEC3"
        },
        {
            "bufferView" : 30,
            "componentType" : 5126,
            "count" : 72,
            "type" : "VEC2"
        },
        {
            "bufferView" : 31,
            "componentType" : 5123,
            "count" : 114,
            "type" : "SCALAR"
        },
        {
            "bufferView" : 32,
            "componentType" : 5126,
            "count" : 6,
            "max" : [
                2.558492660522461,
                -1.56199049949646,
                1.5020074844360352
            ],
            "min" : [
                2.558492660522461,
                -3.968181610107422,
                -1.5020074844360352
            ],
            "type" : "VEC3"
        },
        {
            "bufferView" : 33,
            "componentType" : 5126,
            "count" : 6,
            "type" : "VEC3"
        },
        {
            "bufferView" : 34,
            "componentType" : 5126,
            "count" : 6,
            "type" : "VEC2"
        },
        {
            "bufferView" : 35,
            "componentType" : 5123,
            "count" : 12,
            "type" : "SCALAR"
        },
        {
            "bufferView" : 36,
            "componentType" : 5126,
            "count" : 48,
            "max" : [
                4.21073579788208,
                -3.993459939956665,
                24.636335372924805
            ],
            "min" : [
                -21.441879272460938,
                -4.066143035888672,
                -23.91628074645996
            ],
            "type" : "VEC3"
        },
        {
            "bufferView" : 37,
            "componentType" : 5126,
            "count" : 48,
            "type" : "VEC3"
        },
        {
            "bufferView" : 38,
            "componentType" : 5126,
            "count" : 48,
            "type" : "VEC2"
        },
        {
            "bufferView" : 39,
            "componentType" : 5123,
            "count" : 72,
            "type" : "SCALAR"
        }
    ],
    "bufferViews" : [
        {
            "buffer" : 0,
            "byteLength" : 2868,
            "byteOffset" : 0
        },
        {
            "buffer" : 0,
            "byteLength" : 2868,
            "byteOffset" : 2868
        },
        {
            "buffer" : 0,
            "byteLength" : 1912,
            "byteOffset" : 5736
        },
        {
            "buffer" : 0,
            "byteLength" : 1128,
            "byteOffset" : 7648
        },
        {
            "buffer" : 0,
            "byteLength" : 288,
            "byteOffset" : 8776
        },
        {
            "buffer" : 0,
            "byteLength" : 288,
            "byteOffset" : 9064
        },
        {
            "buffer" : 0,
            "byteLength" : 192,
            "byteOffset" : 9352
        },
        {
            "buffer" : 0,
            "byteLength" : 72,
            "byteOffset" : 9544
        },
        {
            "buffer" : 0,
            "byteLength" : 840,
            "byteOffset" : 9616
        },
        {
            "buffer" : 0,
            "byteLength" : 840,
            "byteOffset" : 10456
        },
        {
            "buffer" : 0,
            "byteLength" : 560,
            "byteOffset" : 11296
        },
        {
            "buffer" : 0,
            "byteLength" : 270,
            "byteOffset" : 11856
        },
        {
            "buffer" : 0,
            "byteLength" : 168,
            "byteOffset" : 12128
        },
        {
            "buffer" : 0,
            "byteLength" : 168,
            "byteOffset" : 12296
        },
        {
            "buffer" : 0,
            "byteLength" : 112,
            "byteOffset" : 12464
        },
        {
            "buffer" : 0,
            "byteLength" : 60,
            "byteOffset" : 12576
        },
        {
            "buffer" : 0,
            "byteLength" : 528,
            "byteOffset" : 12636
        },
        {
            "buffer" : 0,
            "byteLength" : 528,
            "byteOffset" : 13164
        },
        {
            "buffer" : 0,
            "byteLength" : 352,
            "byteOffset" : 13692
        },
        {
            "buffer" : 0,
            "byteLength" : 132,
            "byteOffset" : 14044
        },
        {
            "buffer" : 0,
            "byteLength" : 528,
            "byteOffset" : 14176
        },
        {
            "buffer" : 0,
            "byteLength" : 528,
            "byteOffset" : 14704
        },
        {
            "buffer" : 0,
            "byteLength" : 352,
            "byteOffset" : 15232
        },
        {
            "buffer" : 0,
            "byteLength" : 144,
            "byteOffset" : 15584
        },
        {
            "buffer" : 0,
            "byteLength" : 216,
            "byteOffset" : 15728
        },
        {
            "buffer" : 0,
            "byteLength" : 216,
            "byteOffset" : 15944
        },
        {
            "buffer" : 0,
            "byteLength" : 144,
            "byteOffset" : 16160
        },
        {
            "buffer" : 0,
            "byteLength" : 72,
            "byteOffset" : 16304
        },
        {
            "buffer" : 0,
            "byteLength" : 864,
            "byteOffset" : 16376
        },
        {
            "buffer" : 0,
            "byteLength" : 864,
            "byteOffset" : 17240
        },
        {
            "buffer" : 0,
            "byteLength" : 576,
            "byteOffset" : 18104
        },
        {
            "buffer" : 0,
            "byteLength" : 228,
            "byteOffset" : 18680
        },
        {
            "buffer" : 0,
            "byteLength" : 72,
            "byteOffset" : 18908
        },
        {
            "buffer" : 0,
            "byteLength" : 72,
            "byteOffset" : 18980
        },
        {
            "buffer" : 0,
            "byteLength" : 48,
            "byteOffset" : 19052
        },
        {
            "buffer" : 0,
            "byteLength" : 24,
            "byteOffset" : 19100
        },
        {
            "buffer" : 0,
            "byteLength" : 576,
            "byteOffset" : 19124
        },
        {
            "buffer" : 0,
            "byteLength" : 576,
            "byteOffset" : 19700
        },
        {
            "buffer" : 0,
            "byteLength" : 384,
            "byteOffset" : 20276
        },
        {
            "buffer" : 0,
            "byteLength" : 144,
            "byteOffset" : 20660
        }
    ],
    "buffers" : [
        {
            "byteLength" : 20804,
            "uri" : "ojos.bin"
        }
    ]
}
