{
    "asset" : {
        "generator" : "Khronos glTF Blender I/O v1.5.17",
        "version" : "2.0"
    },
    "scene" : 0,
    "scenes" : [
        {
            "name" : "Scene",
            "nodes" : [
                0
            ]
        }
    ],
    "nodes" : [
        {
            "mesh" : 0,
            "name" : "Plane"
        }
    ],
    "materials" : [
        {
            "doubleSided" : true,
            "name" : "Material.004",
            "pbrMetallicRoughness" : {
                "baseColorFactor" : [
                    0.25415220856666565,
                    0.2541520893573761,
                    0.2541521489620209,
                    1
                ],
                "metallicFactor" : 0,
                "roughnessFactor" : 0.5
            }
        },
        {
            "doubleSided" : true,
            "name" : "Material.002",
            "pbrMetallicRoughness" : {
                "baseColorFactor" : [
                    0.0273208636790514,
                    0.08650048077106476,
                    0.019382363185286522,
                    1
                ],
                "metallicFactor" : 0,
                "roughnessFactor" : 0.5
            }
        },
        {
            "doubleSided" : true,
            "name" : "Material.003",
            "pbrMetallicRoughness" : {
                "baseColorFactor" : [
                    1,
                    0.7801129817962646,
                    0.4573880732059479,
                    1
                ],
                "metallicFactor" : 0,
                "roughnessFactor" : 0.5
            }
        },
        {
            "doubleSided" : true,
            "name" : "Material",
            "pbrMetallicRoughness" : {
                "baseColorFactor" : [
                    0.09530749917030334,
                    0.12743768095970154,
                    0.16826939582824707,
                    1
                ],
                "metallicFactor" : 0,
                "roughnessFactor" : 0.5
            }
        },
        {
            "doubleSided" : true,
            "name" : "Material.001",
            "pbrMetallicRoughness" : {
                "baseColorFactor" : [
                    0.6239607930183411,
                    0.623960554599762,
                    0.6239606738090515,
                    1
                ],
                "metallicFactor" : 0,
                "roughnessFactor" : 0.5
            }
        }
    ],
    "meshes" : [
        {
            "name" : "Plane",
            "primitives" : [
                {
                    "attributes" : {
                        "POSITION" : 0,
                        "NORMAL" : 1,
                        "TEXCOORD_0" : 2
                    },
                    "indices" : 3,
                    "material" : 0
                },
                {
                    "attributes" : {
                        "POSITION" : 4,
                        "NORMAL" : 5,
                        "TEXCOORD_0" : 6
                    },
                    "indices" : 7,
                    "material" : 1
                },
                {
                    "attributes" : {
                        "POSITION" : 8,
                        "NORMAL" : 9,
                        "TEXCOORD_0" : 10
                    },
                    "indices" : 11,
                    "material" : 2
                },
                {
                    "attributes" : {
                        "POSITION" : 12,
                        "NORMAL" : 13,
                        "TEXCOORD_0" : 14
                    },
                    "indices" : 15,
                    "material" : 3
                },
                {
                    "attributes" : {
                        "POSITION" : 16,
                        "NORMAL" : 17,
                        "TEXCOORD_0" : 18
                    },
                    "indices" : 19,
                    "material" : 4
                }
            ]
        }
    ],
    "accessors" : [
        {
            "bufferView" : 0,
            "componentType" : 5126,
            "count" : 24,
            "max" : [
                9.848478317260742,
                -1.506248116493225,
                8.507061004638672
            ],
            "min" : [
                -9.848478317260742,
                -1.61275053024292,
                -8.507061004638672
            ],
            "type" : "VEC3"
        },
        {
            "bufferView" : 1,
            "componentType" : 5126,
            "count" : 24,
            "type" : "VEC3"
        },
        {
            "bufferView" : 2,
            "componentType" : 5126,
            "count" : 24,
            "type" : "VEC2"
        },
        {
            "bufferView" : 3,
            "componentType" : 5123,
            "count" : 36,
            "type" : "SCALAR"
        },
        {
            "bufferView" : 4,
            "componentType" : 5126,
            "count" : 6,
            "max" : [
                0.6320186853408813,
                0.8544304370880127,
                -7.562623023986816
            ],
            "min" : [
                -0.6305930614471436,
                -1.5,
                -7.562623023986816
            ],
            "type" : "VEC3"
        },
        {
            "bufferView" : 5,
            "componentType" : 5126,
            "count" : 6,
            "type" : "VEC3"
        },
        {
            "bufferView" : 6,
            "componentType" : 5126,
            "count" : 6,
            "type" : "VEC2"
        },
        {
            "bufferView" : 7,
            "componentType" : 5123,
            "count" : 12,
            "type" : "SCALAR"
        },
        {
            "bufferView" : 8,
            "componentType" : 5126,
            "count" : 650,
            "max" : [
                8.479068756103516,
                2.630250930786133,
                7.784229278564453
            ],
            "min" : [
                -8.095200538635254,
                -1.5,
                -7.813077926635742
            ],
            "type" : "VEC3"
        },
        {
            "bufferView" : 9,
            "componentType" : 5126,
            "count" : 650,
            "type" : "VEC3"
        },
        {
            "bufferView" : 10,
            "componentType" : 5126,
            "count" : 650,
            "type" : "VEC2"
        },
        {
            "bufferView" : 11,
            "componentType" : 5123,
            "count" : 1638,
            "type" : "SCALAR"
        },
        {
            "bufferView" : 12,
            "componentType" : 5126,
            "count" : 12,
            "max" : [
                8.02171516418457,
                0.8544304370880127,
                5.352776527404785
            ],
            "min" : [
                8.02171516418457,
                -0.4794304370880127,
                -5.371247291564941
            ],
            "type" : "VEC3"
        },
        {
            "bufferView" : 13,
            "componentType" : 5126,
            "count" : 12,
            "type" : "VEC3"
        },
        {
            "bufferView" : 14,
            "componentType" : 5126,
            "count" : 12,
            "type" : "VEC2"
        },
        {
            "bufferView" : 15,
            "componentType" : 5123,
            "count" : 18,
            "type" : "SCALAR"
        },
        {
            "bufferView" : 16,
            "componentType" : 5126,
            "count" : 40,
            "max" : [
                9.340340614318848,
                2.7757444381713867,
                8.286771774291992
            ],
            "min" : [
                -9.340340614318848,
                1.3104572296142578,
                -8.286771774291992
            ],
            "type" : "VEC3"
        },
        {
            "bufferView" : 17,
            "componentType" : 5126,
            "count" : 40,
            "type" : "VEC3"
        },
        {
            "bufferView" : 18,
            "componentType" : 5126,
            "count" : 40,
            "type" : "VEC2"
        },
        {
            "bufferView" : 19,
            "componentType" : 5123,
            "count" : 60,
            "type" : "SCALAR"
        }
    ],
    "bufferViews" : [
        {
            "buffer" : 0,
            "byteLength" : 288,
            "byteOffset" : 0
        },
        {
            "buffer" : 0,
            "byteLength" : 288,
            "byteOffset" : 288
        },
        {
            "buffer" : 0,
            "byteLength" : 192,
            "byteOffset" : 576
        },
        {
            "buffer" : 0,
            "byteLength" : 72,
            "byteOffset" : 768
        },
        {
            "buffer" : 0,
            "byteLength" : 72,
            "byteOffset" : 840
        },
        {
            "buffer" : 0,
            "byteLength" : 72,
            "byteOffset" : 912
        },
        {
            "buffer" : 0,
            "byteLength" : 48,
            "byteOffset" : 984
        },
        {
            "buffer" : 0,
            "byteLength" : 24,
            "byteOffset" : 1032
        },
        {
            "buffer" : 0,
            "byteLength" : 7800,
            "byteOffset" : 1056
        },
        {
            "buffer" : 0,
            "byteLength" : 7800,
            "byteOffset" : 8856
        },
        {
            "buffer" : 0,
            "byteLength" : 5200,
            "byteOffset" : 16656
        },
        {
            "buffer" : 0,
            "byteLength" : 3276,
            "byteOffset" : 21856
        },
        {
            "buffer" : 0,
            "byteLength" : 144,
            "byteOffset" : 25132
        },
        {
            "buffer" : 0,
            "byteLength" : 144,
            "byteOffset" : 25276
        },
        {
            "buffer" : 0,
            "byteLength" : 96,
            "byteOffset" : 25420
        },
        {
            "buffer" : 0,
            "byteLength" : 36,
            "byteOffset" : 25516
        },
        {
            "buffer" : 0,
            "byteLength" : 480,
            "byteOffset" : 25552
        },
        {
            "buffer" : 0,
            "byteLength" : 480,
            "byteOffset" : 26032
        },
        {
            "buffer" : 0,
            "byteLength" : 320,
            "byteOffset" : 26512
        },
        {
            "buffer" : 0,
            "byteLength" : 120,
            "byteOffset" : 26832
        }
    ],
    "buffers" : [
        {
            "byteLength" : 26952,
            "uri" : "salonalti.bin"
        }
    ]
}
