{
    "asset" : {
        "generator" : "Khronos glTF Blender I/O v1.5.17",
        "version" : "2.0"
    },
    "scene" : 0,
    "scenes" : [
        {
            "name" : "Scene",
            "nodes" : [
                0
            ]
        }
    ],
    "nodes" : [
        {
            "mesh" : 0,
            "name" : "Cube",
            "rotation" : [
                0,
                0.7041940093040466,
                0,
                0.7100076079368591
            ],
            "scale" : [
                1,
                0.2200000286102295,
                1
            ],
            "translation" : [
                -0.003931760787963867,
                0.6600559949874878,
                -0.3699612021446228
            ]
        }
    ],
    "materials" : [
        {
            "doubleSided" : true,
            "name" : "Material",
            "pbrMetallicRoughness" : {
                "baseColorFactor" : [
                    0.07629846781492233,
                    0.8000000715255737,
                    0.026208041235804558,
                    1
                ],
                "metallicFactor" : 0
            }
        },
        {
            "doubleSided" : true,
            "name" : "Material.001",
            "pbrMetallicRoughness" : {
                "baseColorFactor" : [
                    0.1576821506023407,
                    0.7325273156166077,
                    0.8000000715255737,
                    1
                ],
                "metallicFactor" : 0
            }
        },
        {
            "doubleSided" : true,
            "name" : "Material.011",
            "pbrMetallicRoughness" : {
                "baseColorFactor" : [
                    0.25979867577552795,
                    0.25979867577552795,
                    0.25979867577552795,
                    1
                ],
                "metallicFactor" : 0
            }
        },
        {
            "doubleSided" : true,
            "name" : "Material.004",
            "pbrMetallicRoughness" : {
                "baseColorFactor" : [
                    0,
                    0,
                    0,
                    1
                ],
                "metallicFactor" : 0
            }
        },
        {
            "doubleSided" : true,
            "name" : "Material.005",
            "pbrMetallicRoughness" : {
                "baseColorFactor" : [
                    0.800000011920929,
                    0.800000011920929,
                    0.800000011920929,
                    1
                ],
                "metallicFactor" : 0
            }
        },
        {
            "doubleSided" : true,
            "name" : "Material.007",
            "pbrMetallicRoughness" : {
                "baseColorFactor" : [
                    0,
                    0,
                    0,
                    1
                ],
                "metallicFactor" : 0
            }
        },
        {
            "doubleSided" : true,
            "name" : "Material.006",
            "pbrMetallicRoughness" : {
                "baseColorFactor" : [
                    0.800000011920929,
                    0.800000011920929,
                    0.800000011920929,
                    1
                ],
                "metallicFactor" : 0
            }
        },
        {
            "doubleSided" : true,
            "emissiveFactor" : [
                1,
                0.9593952298164368,
                0.14666444063186646
            ],
            "name" : "Material.010",
            "pbrMetallicRoughness" : {
                "baseColorFactor" : [
                    0.8000000715255737,
                    0.5742971897125244,
                    0.049676548689603806,
                    1
                ],
                "metallicFactor" : 0,
                "roughnessFactor" : 0.5
            }
        },
        {
            "doubleSided" : true,
            "name" : "Material.012",
            "pbrMetallicRoughness" : {
                "baseColorFactor" : [
                    0,
                    0,
                    0,
                    1
                ],
                "metallicFactor" : 0
            }
        },
        {
            "doubleSided" : true,
            "name" : "Material.002",
            "pbrMetallicRoughness" : {
                "baseColorFactor" : [
                    0.800000011920929,
                    0.800000011920929,
                    0.800000011920929,
                    1
                ],
                "metallicFactor" : 0
            }
        },
        {
            "doubleSided" : true,
            "name" : "Material.014",
            "pbrMetallicRoughness" : {
                "baseColorFactor" : [
                    0,
                    0,
                    0,
                    1
                ],
                "metallicFactor" : 0
            }
        },
        {
            "doubleSided" : true,
            "name" : "Material.013",
            "pbrMetallicRoughness" : {
                "baseColorFactor" : [
                    0.800000011920929,
                    0.800000011920929,
                    0.800000011920929,
                    1
                ],
                "metallicFactor" : 0
            }
        }
    ],
    "meshes" : [
        {
            "name" : "Cube",
            "primitives" : [
                {
                    "attributes" : {
                        "POSITION" : 0,
                        "NORMAL" : 1,
                        "TEXCOORD_0" : 2
                    },
                    "indices" : 3,
                    "material" : 0
                },
                {
                    "attributes" : {
                        "POSITION" : 4,
                        "NORMAL" : 5,
                        "TEXCOORD_0" : 6
                    },
                    "indices" : 7,
                    "material" : 1
                },
                {
                    "attributes" : {
                        "POSITION" : 8,
                        "NORMAL" : 9,
                        "TEXCOORD_0" : 10
                    },
                    "indices" : 11,
                    "material" : 2
                },
                {
                    "attributes" : {
                        "POSITION" : 12,
                        "NORMAL" : 13,
                        "TEXCOORD_0" : 14
                    },
                    "indices" : 15,
                    "material" : 3
                },
                {
                    "attributes" : {
                        "POSITION" : 16,
                        "NORMAL" : 17,
                        "TEXCOORD_0" : 18
                    },
                    "indices" : 19,
                    "material" : 4
                },
                {
                    "attributes" : {
                        "POSITION" : 20,
                        "NORMAL" : 21,
                        "TEXCOORD_0" : 22
                    },
                    "indices" : 23,
                    "material" : 5
                },
                {
                    "attributes" : {
                        "POSITION" : 24,
                        "NORMAL" : 25,
                        "TEXCOORD_0" : 26
                    },
                    "indices" : 19,
                    "material" : 6
                },
                {
                    "attributes" : {
                        "POSITION" : 27,
                        "NORMAL" : 28,
                        "TEXCOORD_0" : 29
                    },
                    "indices" : 30,
                    "material" : 7
                },
                {
                    "attributes" : {
                        "POSITION" : 31,
                        "NORMAL" : 32,
                        "TEXCOORD_0" : 33
                    },
                    "indices" : 34,
                    "material" : 8
                },
                {
                    "attributes" : {
                        "POSITION" : 35,
                        "NORMAL" : 36,
                        "TEXCOORD_0" : 37
                    },
                    "indices" : 19,
                    "material" : 9
                },
                {
                    "attributes" : {
                        "POSITION" : 38,
                        "NORMAL" : 39,
                        "TEXCOORD_0" : 40
                    },
                    "indices" : 41,
                    "material" : 10
                },
                {
                    "attributes" : {
                        "POSITION" : 42,
                        "NORMAL" : 43,
                        "TEXCOORD_0" : 44
                    },
                    "indices" : 19,
                    "material" : 11
                }
            ]
        }
    ],
    "accessors" : [
        {
            "bufferView" : 0,
            "componentType" : 5126,
            "count" : 3115,
            "max" : [
                1.272265911102295,
                6.04526948928833,
                1.1425846815109253
            ],
            "min" : [
                -2.3091046810150146,
                -1.8451204299926758,
                -1.1425834894180298
            ],
            "type" : "VEC3"
        },
        {
            "bufferView" : 1,
            "componentType" : 5126,
            "count" : 3115,
            "type" : "VEC3"
        },
        {
            "bufferView" : 2,
            "componentType" : 5126,
            "count" : 3115,
            "type" : "VEC2"
        },
        {
            "bufferView" : 3,
            "componentType" : 5123,
            "count" : 7176,
            "type" : "SCALAR"
        },
        {
            "bufferView" : 4,
            "componentType" : 5126,
            "count" : 132,
            "max" : [
                0.9544224143028259,
                5.414610862731934,
                0.9688434600830078
            ],
            "min" : [
                -0.8896667957305908,
                1.531747579574585,
                -0.969327449798584
            ],
            "type" : "VEC3"
        },
        {
            "bufferView" : 5,
            "componentType" : 5126,
            "count" : 132,
            "type" : "VEC3"
        },
        {
            "bufferView" : 6,
            "componentType" : 5126,
            "count" : 132,
            "type" : "VEC2"
        },
        {
            "bufferView" : 7,
            "componentType" : 5123,
            "count" : 234,
            "type" : "SCALAR"
        },
        {
            "bufferView" : 8,
            "componentType" : 5126,
            "count" : 15,
            "max" : [
                -2.2902252674102783,
                -0.5033305287361145,
                0.5001338720321655
            ],
            "min" : [
                -2.2902252674102783,
                -0.8344435095787048,
                -0.4998663365840912
            ],
            "type" : "VEC3"
        },
        {
            "bufferView" : 9,
            "componentType" : 5126,
            "count" : 15,
            "type" : "VEC3"
        },
        {
            "bufferView" : 10,
            "componentType" : 5126,
            "count" : 15,
            "type" : "VEC2"
        },
        {
            "bufferView" : 11,
            "componentType" : 5123,
            "count" : 36,
            "type" : "SCALAR"
        },
        {
            "bufferView" : 12,
            "componentType" : 5126,
            "count" : 416,
            "max" : [
                0.9298514127731323,
                -0.4516054391860962,
                1.1210774183273315
            ],
            "min" : [
                0.3689495325088501,
                -2.9970598220825195,
                1.0044771432876587
            ],
            "type" : "VEC3"
        },
        {
            "bufferView" : 13,
            "componentType" : 5126,
            "count" : 416,
            "type" : "VEC3"
        },
        {
            "bufferView" : 14,
            "componentType" : 5126,
            "count" : 416,
            "type" : "VEC2"
        },
        {
            "bufferView" : 15,
            "componentType" : 5123,
            "count" : 666,
            "type" : "SCALAR"
        },
        {
            "bufferView" : 16,
            "componentType" : 5126,
            "count" : 32,
            "max" : [
                0.6952407360076904,
                -1.5179375410079956,
                1.1160258054733276
            ],
            "min" : [
                0.6044296622276306,
                -1.9307291507720947,
                1.115279197692871
            ],
            "type" : "VEC3"
        },
        {
            "bufferView" : 17,
            "componentType" : 5126,
            "count" : 32,
            "type" : "VEC3"
        },
        {
            "bufferView" : 18,
            "componentType" : 5126,
            "count" : 32,
            "type" : "VEC2"
        },
        {
            "bufferView" : 19,
            "componentType" : 5123,
            "count" : 90,
            "type" : "SCALAR"
        },
        {
            "bufferView" : 20,
            "componentType" : 5126,
            "count" : 416,
            "max" : [
                -1.2937438488006592,
                -0.4516054391860962,
                1.1393595933914185
            ],
            "min" : [
                -1.8546457290649414,
                -2.9970598220825195,
                1.0227593183517456
            ],
            "type" : "VEC3"
        },
        {
            "bufferView" : 21,
            "componentType" : 5126,
            "count" : 416,
            "type" : "VEC3"
        },
        {
            "bufferView" : 22,
            "componentType" : 5126,
            "count" : 416,
            "type" : "VEC2"
        },
        {
            "bufferView" : 23,
            "componentType" : 5123,
            "count" : 666,
            "type" : "SCALAR"
        },
        {
            "bufferView" : 24,
            "componentType" : 5126,
            "count" : 32,
            "max" : [
                -1.528354525566101,
                -1.5179375410079956,
                1.1343079805374146
            ],
            "min" : [
                -1.6191656589508057,
                -1.9307291507720947,
                1.133561372756958
            ],
            "type" : "VEC3"
        },
        {
            "bufferView" : 25,
            "componentType" : 5126,
            "count" : 32,
            "type" : "VEC3"
        },
        {
            "bufferView" : 26,
            "componentType" : 5126,
            "count" : 32,
            "type" : "VEC2"
        },
        {
            "bufferView" : 27,
            "componentType" : 5126,
            "count" : 384,
            "max" : [
                -2.156562328338623,
                -0.024630844593048096,
                0.9000883102416992
            ],
            "min" : [
                -2.337240219116211,
                -1.3615868091583252,
                -0.9030587673187256
            ],
            "type" : "VEC3"
        },
        {
            "bufferView" : 28,
            "componentType" : 5126,
            "count" : 384,
            "type" : "VEC3"
        },
        {
            "bufferView" : 29,
            "componentType" : 5126,
            "count" : 384,
            "type" : "VEC2"
        },
        {
            "bufferView" : 30,
            "componentType" : 5123,
            "count" : 744,
            "type" : "SCALAR"
        },
        {
            "bufferView" : 31,
            "componentType" : 5126,
            "count" : 416,
            "max" : [
                -1.3114595413208008,
                -0.4516054391860962,
                -1.0153437852859497
            ],
            "min" : [
                -1.872361421585083,
                -2.9970598220825195,
                -1.1319440603256226
            ],
            "type" : "VEC3"
        },
        {
            "bufferView" : 32,
            "componentType" : 5126,
            "count" : 416,
            "type" : "VEC3"
        },
        {
            "bufferView" : 33,
            "componentType" : 5126,
            "count" : 416,
            "type" : "VEC2"
        },
        {
            "bufferView" : 34,
            "componentType" : 5123,
            "count" : 666,
            "type" : "SCALAR"
        },
        {
            "bufferView" : 35,
            "componentType" : 5126,
            "count" : 32,
            "max" : [
                -1.5469396114349365,
                -1.5179375410079956,
                -1.126145839691162
            ],
            "min" : [
                -1.6377507448196411,
                -1.9307291507720947,
                -1.1268924474716187
            ],
            "type" : "VEC3"
        },
        {
            "bufferView" : 36,
            "componentType" : 5126,
            "count" : 32,
            "type" : "VEC3"
        },
        {
            "bufferView" : 37,
            "componentType" : 5126,
            "count" : 32,
            "type" : "VEC2"
        },
        {
            "bufferView" : 38,
            "componentType" : 5126,
            "count" : 416,
            "max" : [
                0.9321389198303223,
                -0.4516054391860962,
                -1.0337903499603271
            ],
            "min" : [
                0.37123703956604004,
                -2.9970598220825195,
                -1.150390625
            ],
            "type" : "VEC3"
        },
        {
            "bufferView" : 39,
            "componentType" : 5126,
            "count" : 416,
            "type" : "VEC3"
        },
        {
            "bufferView" : 40,
            "componentType" : 5126,
            "count" : 416,
            "type" : "VEC2"
        },
        {
            "bufferView" : 41,
            "componentType" : 5123,
            "count" : 666,
            "type" : "SCALAR"
        },
        {
            "bufferView" : 42,
            "componentType" : 5126,
            "count" : 32,
            "max" : [
                0.6966587901115417,
                -1.5179375410079956,
                -1.1445924043655396
            ],
            "min" : [
                0.6058477163314819,
                -1.9307291507720947,
                -1.145339012145996
            ],
            "type" : "VEC3"
        },
        {
            "bufferView" : 43,
            "componentType" : 5126,
            "count" : 32,
            "type" : "VEC3"
        },
        {
            "bufferView" : 44,
            "componentType" : 5126,
            "count" : 32,
            "type" : "VEC2"
        }
    ],
    "bufferViews" : [
        {
            "buffer" : 0,
            "byteLength" : 37380,
            "byteOffset" : 0
        },
        {
            "buffer" : 0,
            "byteLength" : 37380,
            "byteOffset" : 37380
        },
        {
            "buffer" : 0,
            "byteLength" : 24920,
            "byteOffset" : 74760
        },
        {
            "buffer" : 0,
            "byteLength" : 14352,
            "byteOffset" : 99680
        },
        {
            "buffer" : 0,
            "byteLength" : 1584,
            "byteOffset" : 114032
        },
        {
            "buffer" : 0,
            "byteLength" : 1584,
            "byteOffset" : 115616
        },
        {
            "buffer" : 0,
            "byteLength" : 1056,
            "byteOffset" : 117200
        },
        {
            "buffer" : 0,
            "byteLength" : 468,
            "byteOffset" : 118256
        },
        {
            "buffer" : 0,
            "byteLength" : 180,
            "byteOffset" : 118724
        },
        {
            "buffer" : 0,
            "byteLength" : 180,
            "byteOffset" : 118904
        },
        {
            "buffer" : 0,
            "byteLength" : 120,
            "byteOffset" : 119084
        },
        {
            "buffer" : 0,
            "byteLength" : 72,
            "byteOffset" : 119204
        },
        {
            "buffer" : 0,
            "byteLength" : 4992,
            "byteOffset" : 119276
        },
        {
            "buffer" : 0,
            "byteLength" : 4992,
            "byteOffset" : 124268
        },
        {
            "buffer" : 0,
            "byteLength" : 3328,
            "byteOffset" : 129260
        },
        {
            "buffer" : 0,
            "byteLength" : 1332,
            "byteOffset" : 132588
        },
        {
            "buffer" : 0,
            "byteLength" : 384,
            "byteOffset" : 133920
        },
        {
            "buffer" : 0,
            "byteLength" : 384,
            "byteOffset" : 134304
        },
        {
            "buffer" : 0,
            "byteLength" : 256,
            "byteOffset" : 134688
        },
        {
            "buffer" : 0,
            "byteLength" : 180,
            "byteOffset" : 134944
        },
        {
            "buffer" : 0,
            "byteLength" : 4992,
            "byteOffset" : 135124
        },
        {
            "buffer" : 0,
            "byteLength" : 4992,
            "byteOffset" : 140116
        },
        {
            "buffer" : 0,
            "byteLength" : 3328,
            "byteOffset" : 145108
        },
        {
            "buffer" : 0,
            "byteLength" : 1332,
            "byteOffset" : 148436
        },
        {
            "buffer" : 0,
            "byteLength" : 384,
            "byteOffset" : 149768
        },
        {
            "buffer" : 0,
            "byteLength" : 384,
            "byteOffset" : 150152
        },
        {
            "buffer" : 0,
            "byteLength" : 256,
            "byteOffset" : 150536
        },
        {
            "buffer" : 0,
            "byteLength" : 4608,
            "byteOffset" : 150792
        },
        {
            "buffer" : 0,
            "byteLength" : 4608,
            "byteOffset" : 155400
        },
        {
            "buffer" : 0,
            "byteLength" : 3072,
            "byteOffset" : 160008
        },
        {
            "buffer" : 0,
            "byteLength" : 1488,
            "byteOffset" : 163080
        },
        {
            "buffer" : 0,
            "byteLength" : 4992,
            "byteOffset" : 164568
        },
        {
            "buffer" : 0,
            "byteLength" : 4992,
            "byteOffset" : 169560
        },
        {
            "buffer" : 0,
            "byteLength" : 3328,
            "byteOffset" : 174552
        },
        {
            "buffer" : 0,
            "byteLength" : 1332,
            "byteOffset" : 177880
        },
        {
            "buffer" : 0,
            "byteLength" : 384,
            "byteOffset" : 179212
        },
        {
            "buffer" : 0,
            "byteLength" : 384,
            "byteOffset" : 179596
        },
        {
            "buffer" : 0,
            "byteLength" : 256,
            "byteOffset" : 179980
        },
        {
            "buffer" : 0,
            "byteLength" : 4992,
            "byteOffset" : 180236
        },
        {
            "buffer" : 0,
            "byteLength" : 4992,
            "byteOffset" : 185228
        },
        {
            "buffer" : 0,
            "byteLength" : 3328,
            "byteOffset" : 190220
        },
        {
            "buffer" : 0,
            "byteLength" : 1332,
            "byteOffset" : 193548
        },
        {
            "buffer" : 0,
            "byteLength" : 384,
            "byteOffset" : 194880
        },
        {
            "buffer" : 0,
            "byteLength" : 384,
            "byteOffset" : 195264
        },
        {
            "buffer" : 0,
            "byteLength" : 256,
            "byteOffset" : 195648
        }
    ],
    "buffers" : [
        {
            "byteLength" : 195904,
            "uri" : "carro1.bin"
        }
    ]
}
